<svg width="32" height="32" viewBox="0 0 32 32" fill="none" xmlns="http://www.w3.org/2000/svg">
<path d="M31 11H21V1C26.5167 1 31 5.46667 31 11Z" fill="white"/>
<path d="M21 21V11H31C31 16.5167 26.5167 21 21 21Z" fill="white"/>
<path d="M1 11H11V21C5.48333 21 1 16.5167 1 11Z" fill="white"/>
<path d="M21 11H11V1C16.5167 1 21 5.46667 21 11Z" fill="white"/>
<path d="M11 31V21H21C21 26.5167 16.5167 31 11 31Z" fill="white"/>
<path d="M1 21H11V31C5.48333 31 1 26.5167 1 21Z" fill="white"/>
<path d="M11 21V11H21C21 16.5167 16.5167 21 11 21Z" fill="white"/>
<path d="M11 1V11H1C1 5.46667 5.48333 1 11 1Z" fill="white"/>
<path d="M21 31V21H31C31 26.5167 26.5167 31 21 31Z" fill="white"/>
</svg>
