<?xml version="1.0" standalone="no"?>
<!DOCTYPE svg PUBLIC "-//W3C//DTD SVG 1.1//EN" "http://www.w3.org/Graphics/SVG/1.1/DTD/svg11.dtd" >
<svg xmlns="http://www.w3.org/2000/svg">
<metadata>Generated by IcoMoon</metadata>
<defs>
<font id="icomoon" horiz-adv-x="1024">
<font-face units-per-em="1024" ascent="960" descent="-64" />
<missing-glyph horiz-adv-x="1024" />
<glyph unicode="&#x20;" horiz-adv-x="512" d="" />
<glyph unicode="&#xe900;" glyph-name="alipay-fill" d="M914.005 304.725c-163.413 49.195-258.347 78.507-284.928 87.979 25.506 44.254 44.476 91.968 56.32 141.653h-139.264v47.104h170.667v29.013h-170.667v78.848h-65.536c-11.947 0-13.312-10.581-13.312-10.581v-67.925h-160.085v-29.013h160.085v-47.104h-131.072v-26.283h265.557c-9.267-32.213-21.969-63.343-37.888-92.843-60.075 19.797-93.525 33.451-166.912 40.277-138.923 13.312-171.008-63.147-176.128-109.909-7.509-71.339 55.637-129.365 149.845-129.365s157.013 43.691 216.747 116.053c49.792-23.808 142.421-65.067 277.931-123.819-39.066-57.775-91.716-105.079-153.323-137.766-61.611-32.687-130.3-49.758-200.043-49.711-235.648 0-426.667 191.019-426.667 426.667s191.019 426.667 426.667 426.667c235.648 0 426.667-191.019 426.667-426.667 0.051-48.819-8.29-97.284-24.661-143.275zM359.765 261.632c-99.669 0-115.371 63.147-110.251 89.429s34.133 60.416 89.771 60.416c63.829 0 120.832-16.384 189.44-49.493-48.469-63.147-107.52-100.352-168.96-100.352z" />
<glyph unicode="&#xe901;" glyph-name="alipay-line" d="M785.408 243.627c-92.715 40.533-158.72 70.229-197.973 89.003-59.733-72.363-122.539-116.053-216.747-116.053s-157.355 58.027-149.845 129.365c5.12 46.763 37.205 123.221 176.128 109.909 73.387-6.827 106.837-20.48 166.912-40.277 15.36 28.331 28.331 59.733 37.888 92.843h-265.557v26.283h131.072v47.104h-160.085v29.013h160.085v67.925c0 0 1.365 10.581 13.312 10.581h65.536v-78.848h170.667v-29.013h-170.667v-47.104h139.264c-11.844-49.685-30.814-97.399-56.32-141.653 21.76-7.765 89.472-28.843 203.093-63.275 29.999 80.905 28.245 170.163-4.907 249.827-33.156 79.662-95.249 143.812-173.79 179.542s-167.697 40.389-249.534 13.039c-81.836-27.35-150.278-84.679-191.554-160.452s-52.323-164.367-30.918-247.956c21.405-83.588 73.673-155.968 146.287-202.577s160.185-63.987 245.096-48.636c84.911 15.347 160.858 62.285 212.557 131.366v0.043zM512 21.333c-235.648 0-426.667 191.019-426.667 426.667s191.019 426.667 426.667 426.667c235.648 0 426.667-191.019 426.667-426.667s-191.019-426.667-426.667-426.667zM359.765 261.632c61.44 0 120.491 37.205 168.96 100.352-68.608 33.109-125.611 49.493-189.44 49.493-55.637 0-84.651-34.133-89.771-60.416s10.581-89.429 110.251-89.429z" />
<glyph unicode="&#xe902;" glyph-name="amazon-fill" d="M938.5 182.187c0-31.019-17.28-90.752-56.064-123.563-7.765-5.973-15.573-2.603-12.16 6.101 11.307 27.648 37.205 91.605 25.045 106.325-8.533 11.179-43.947 10.368-74.155 7.765-13.824-1.749-25.899-2.56-35.328-4.48-8.661-0.725-10.453 6.955-1.749 12.928 11.179 7.893 23.253 13.867 37.12 18.261 49.067 14.677 105.813 5.845 113.92-3.541 1.536-1.792 3.413-6.827 3.413-19.755l-0.043-0.043zM856.538 126.976c-11.268-8.606-23.1-16.444-35.413-23.467-90.539-54.4-207.787-82.901-309.675-82.901-163.97 0-310.615 60.459-421.89 161.621-9.515 7.765-1.621 19.029 9.515 12.928 119.893-69.973 268.288-112.299 421.933-112.299 96.64 0 200.875 18.091 300.16 57.003 6.912 2.603 14.677 6.144 21.461 8.619 15.659 7.040 29.44-10.368 13.909-21.504zM593.284 597.589c0 44.416 1.749 70.571-12.971 93.013-13.056 18.475-35.541 29.568-66.901 27.819-34.048-1.877-70.613-24.192-79.957-65.109-1.792-9.387-7.298-18.603-18.605-20.608l-103.936 13.227c-7.424 1.707-18.688 7.381-15.019 22.229 22.315 117.419 122.667 158.336 217.517 163.84h22.315c52.053 0 118.912-14.891 161.707-53.931 51.925-48.469 46.421-113.579 46.421-184.32v-167.552c0-50.261 20.352-72.533 40.875-98.731 5.547-9.344 7.424-20.352-1.92-27.947-20.48-18.56-59.477-52.011-81.792-70.571-7.424-5.675-20.821-6.272-26.027-1.92-32.853 27.52-40.875 42.795-61.227 70.741-35.413-37.163-65.109-57.685-100.48-68.821-24.875-6.315-50.458-9.412-76.117-9.216-89.175 0-159.831 55.595-159.831 165.547 0 87.424 46.507 146.859 115.2 174.976 68.695 28.16 168.535 37.12 200.706 37.291l0.043 0.043zM572.89 376.064c22.187 37.205 20.352 67.669 20.352 135.893-27.776 0-55.723-1.92-79.829-7.595-44.587-12.928-79.957-41.003-79.957-100.48 0-46.507 24.192-78.165 65.067-78.165 5.632 0 10.581 0.683 14.891 1.92 28.587 7.936 46.421 22.272 59.477 48.427z" />
<glyph unicode="&#xe903;" glyph-name="amazon-line" d="M666.671 336.213c-47.232-69.077-116.395-101.717-197.333-101.717-98.306 0-182.445 75.648-170.37 175.957 13.44 111.275 99.84 159.145 243.543 176.766 25.643 3.115 36.267 4.011 91.605 8.107l5.888 0.427v9.173c0 76.629-45.568 128.939-106.667 128.939-61.312 0-104.107-31.872-130.349-107.776l-80.64 27.819c37.845 109.653 112.557 165.291 210.989 165.291 111.061 0 192-92.928 192-214.272 0-113.022 6.955-202.921 20.608-237.097 15.189-38.059 20.736-47.659 37.717-68.821l-66.56-53.376c-22.315 27.819-32.128 44.757-50.389 90.539v0.043h-0.043zM906.97 83.413c-11.563-8.538-31.659-3.456-22.571 18.773 11.307 27.648 23.339 60.075 11.179 74.752-8.96 10.88-19.925 16.299-43.819 16.299-19.627 0-29.44-2.56-42.453-3.413-8.704-0.555-12.501 12.672-3.883 18.773 11.285 8.085 23.825 14.255 37.12 18.261 49.067 14.677 106.88 6.613 113.92-3.541 15.573-22.613-8.491-109.611-49.493-139.947v0.043zM856.538 129.66c-11.081-10.718-22.916-20.625-35.413-29.649-90.539-68.949-207.787-104.96-309.675-104.96-163.97 0-310.615 76.501-421.89 204.587-9.515 9.813-1.621 24.149 9.515 16.384 119.893-88.619 268.288-142.212 421.933-142.212 96.64 0 200.875 22.916 300.16 72.239 6.912 3.243 14.677 7.68 21.461 10.837 15.659 8.96 29.44-13.060 13.909-27.226zM640.431 510.251c-53.675-4.011-63.829-4.821-87.552-7.723-108.885-13.355-162.007-42.795-169.175-102.315-5.376-44.501 34.56-80.384 85.634-80.384 86.997 0 150.059 52.395 171.605 190.421h-0.512z" />
<glyph unicode="&#xe904;" glyph-name="android-fill" d="M272.299 790.698c68 54.482 152.567 84.107 239.701 83.968 90.667 0 173.995-31.403 239.701-83.968l61.995 61.995 60.331-60.331-61.995-61.995c54.481-68 84.109-152.568 83.968-239.701v-42.667h-768v42.667c0 90.666 31.403 173.994 83.968 239.701l-61.995 61.952 60.331 60.331 61.995-61.952zM128 362.667h768v-298.667c0-11.315-4.497-22.17-12.497-30.17-8-8.004-18.854-12.497-30.17-12.497h-682.667c-11.316 0-22.168 4.493-30.17 12.497-8.001 8-12.497 18.854-12.497 30.17v298.667zM384 576c11.316 0 22.168 4.495 30.17 12.497s12.497 18.854 12.497 30.17c0 11.316-4.495 22.168-12.497 30.17s-18.854 12.497-30.17 12.497c-11.316 0-22.168-4.495-30.17-12.497s-12.497-18.854-12.497-30.17c0-11.316 4.495-22.168 12.497-30.17s18.854-12.497 30.17-12.497zM640 576c11.315 0 22.17 4.495 30.17 12.497s12.497 18.854 12.497 30.17c0 11.316-4.497 22.168-12.497 30.17s-18.854 12.497-30.17 12.497c-11.315 0-22.17-4.495-30.17-12.497s-12.497-18.854-12.497-30.17c0-11.316 4.497-22.168 12.497-30.17s18.854-12.497 30.17-12.497z" />
<glyph unicode="&#xe905;" glyph-name="android-line" d="M810.667 405.333h-597.333v-298.667h597.333v298.667zM810.667 490.667c0 79.211-31.467 155.178-87.479 211.189-56.009 56.011-131.977 87.477-211.187 87.477s-155.178-31.467-211.189-87.477c-56.011-56.011-87.477-131.978-87.477-211.189h597.333zM272.299 790.698c68 54.482 152.567 84.107 239.701 83.968 90.667 0 173.995-31.403 239.701-83.968l61.995 61.995 60.331-60.331-61.995-61.995c54.481-68 84.109-152.568 83.968-239.701v-426.667c0-11.315-4.497-22.17-12.497-30.17-8-8.004-18.854-12.497-30.17-12.497h-682.667c-11.316 0-22.168 4.493-30.17 12.497-8.001 8-12.497 18.854-12.497 30.17v426.667c0 90.666 31.403 173.994 83.968 239.701l-61.995 61.952 60.331 60.331 61.995-61.952zM384 576c-11.316 0-22.168 4.495-30.17 12.497s-12.497 18.854-12.497 30.17c0 11.316 4.495 22.168 12.497 30.17s18.854 12.497 30.17 12.497c11.316 0 22.168-4.495 30.17-12.497s12.497-18.854 12.497-30.17c0-11.316-4.495-22.168-12.497-30.17s-18.854-12.497-30.17-12.497zM640 576c-11.315 0-22.17 4.495-30.17 12.497s-12.497 18.854-12.497 30.17c0 11.316 4.497 22.168 12.497 30.17s18.854 12.497 30.17 12.497c11.315 0 22.17-4.495 30.17-12.497s12.497-18.854 12.497-30.17c0-11.316-4.497-22.168-12.497-30.17s-18.854-12.497-30.17-12.497z" />
<glyph unicode="&#xe906;" glyph-name="angularjs-fill" d="M512 874.667l396.796-141.653-60.497-525.227-336.299-186.453-336.301 186.453-60.501 525.227 396.802 141.653zM512 780.373l-248.066-556.8h92.501l49.877 124.587h210.519l49.92-124.587h92.459l-247.211 556.8zM584.448 424.96h-144.896l72.448 174.507 72.448-174.507z" />
<glyph unicode="&#xe907;" glyph-name="angularjs-line" d="M747.648 249.6l20.907 11.52 47.701 414.293-304.256 108.672-304.258-108.629 47.744-414.293 20.181-11.221 236.333 530.432 235.648-530.773zM700.757 223.573h-34.048l-49.877 124.587h-210.519l-49.92-124.587h-33.152l188.759-104.661 188.757 104.661zM512 874.667l396.796-141.653-60.497-525.227-336.299-186.453-336.301 186.453-60.501 525.227 396.802 141.653zM584.448 424.96l-72.448 174.507-72.448-174.507h144.896z" />
<glyph unicode="&#xe908;" glyph-name="apple-fill" d="M495.962 651.862c-37.376 0-95.234 42.496-156.162 40.96-80.384-1.024-154.112-46.592-195.584-118.784-83.456-144.897-21.504-358.913 59.904-476.673 39.936-57.344 87.040-121.856 149.504-119.808 59.904 2.56 82.434 38.912 155.138 38.912 72.192 0 92.672-38.912 156.16-37.376 64.512 1.024 105.472 58.368 144.896 116.224 45.568 66.56 64.512 131.072 65.536 134.656-1.536 0.512-125.44 48.128-126.976 191.488-1.024 119.809 97.792 177.153 102.4 179.713-56.32 82.432-142.848 91.648-173.056 93.696-78.848 6.144-144.896-43.008-181.76-43.008zM629.082 772.694c33.28 39.936 55.296 95.744 49.152 151.040-47.616-2.048-104.96-31.744-139.264-71.68-30.72-35.328-57.344-92.16-50.176-146.432 52.736-4.096 107.008 27.136 140.288 67.072z" />
<glyph unicode="&#xe909;" glyph-name="apple-line" d="M671.108 609.793c-20.181 1.579-41.856-3.243-75.051-15.915 2.816 1.067-31.659-12.373-41.301-15.787-21.419-7.467-39.040-11.563-58.795-11.563-19.541 0-37.547 3.925-58.283 10.88-6.613 2.262-13.271 4.693-21.548 7.936-3.499 1.365-16.299 6.485-19.115 7.552-27.648 10.837-43.221 14.933-56.149 14.592-49.152-0.64-95.701-29.013-122.709-76.033-55.125-95.744-24.619-268.757 55.979-385.323 42.923-61.611 66.389-83.627 75.861-83.328 9.472 0.427 16.427 2.432 33.408 9.6l7.125 3.029c42.882 18.304 72.962 26.368 118.231 26.368 43.563 0 72.661-7.936 113.835-25.685l7.168-3.072c16.981-7.253 23.125-8.875 33.792-8.619 15.275 0.213 34.091 17.792 75.861 79.104 11.435 16.683 21.547 34.261 30.293 52.053-5.751 4.736-11.328 9.673-16.725 14.805-54.997 52.395-89.003 123.051-89.941 210.347-0.922 64.593 20.309 127.548 60.16 178.39-16.725 6.174-34.291 9.771-52.096 10.667zM677.722 694.87c30.208-2.048 116.736-11.264 173.056-93.696-4.608-2.56-103.424-59.904-102.4-179.713 1.536-143.36 125.44-190.976 126.976-191.488-1.024-3.584-19.968-68.096-65.536-134.656-39.424-57.856-80.384-115.2-144.896-116.224-63.488-1.536-83.968 37.376-156.16 37.376-72.704 0-95.234-36.352-155.138-38.912-62.464-2.048-109.568 62.464-149.504 119.808-81.408 117.76-143.36 331.776-59.904 476.673 41.472 72.192 115.2 117.76 195.584 118.784 60.928 1.536 118.786-40.96 156.162-40.96 36.864 0 102.912 49.152 181.76 43.008zM629.082 772.694c-33.28-39.936-87.552-71.168-140.288-67.072-7.168 54.272 19.456 111.104 50.176 146.432 34.304 39.936 91.648 69.632 139.264 71.68 6.144-55.296-15.872-111.104-49.152-151.040z" />
<glyph unicode="&#xe90a;" glyph-name="app-store-fill" d="M512 874.667c235.648 0 426.667-191.019 426.667-426.667s-191.019-426.667-426.667-426.667c-235.648 0-426.667 191.019-426.667 426.667s191.019 426.667 426.667 426.667zM376.448 305.365c-16.853 20.352-37.803 27.605-63.104 21.717l-6.4-1.749-25.173-43.349c-4.748-7.727-6.32-16.994-4.388-25.856 1.932-8.866 7.218-16.636 14.752-21.687s16.73-6.993 25.663-5.414c8.932 1.574 16.908 6.549 22.256 13.875l2.645 3.968 33.707 58.496h0.043zM563.627 590.507c-20.821-17.237-41.813-68.139-12.373-118.912l129.707-224.683c4.493-7.633 11.699-13.291 20.181-15.838 8.482-2.551 17.613-1.805 25.566 2.086 7.957 3.891 14.153 10.641 17.344 18.901 3.196 8.265 3.153 17.425-0.115 25.655l-2.091 4.267-34.219 59.392h50.773c4.612-0.013 9.182 0.892 13.444 2.65 4.262 1.762 8.137 4.348 11.396 7.612s5.841 7.142 7.599 11.405c1.754 4.267 2.65 8.836 2.633 13.449 0.021 8.555-3.093 16.823-8.751 23.236-5.662 6.417-13.478 10.534-21.969 11.58l-4.395 0.256h-91.307l-103.424 178.944zM575.488 720.384c-7.369 4.232-16.017 5.656-24.354 4.009s-15.795-6.253-21.001-12.969l-2.645-3.925-15.659-27.008-15.317 27.008c-4.493 7.633-11.699 13.29-20.181 15.839s-17.613 1.804-25.566-2.088c-7.957-3.892-14.153-10.643-17.344-18.903-3.196-8.261-3.153-17.423 0.115-25.654l2.091-4.267 35.755-62.165-114.56-198.528h-89.472c-4.609 0.013-9.175-0.887-13.435-2.645s-8.131-4.343-11.39-7.603c-3.259-3.26-5.842-7.13-7.601-11.388-1.758-4.262-2.658-8.828-2.647-13.436 0-17.963 13.312-32.683 30.677-34.859l4.395-0.256h319.147c14.507 27.307-2.56 66.091-34.56 69.888l-5.163 0.299h-108.928l150.528 260.693c4.651 8.068 5.905 17.653 3.49 26.647-2.419 8.994-8.307 16.659-16.375 21.31z" />
<glyph unicode="&#xe90b;" glyph-name="app-store-line" d="M512 874.667c235.648 0 426.667-191.019 426.667-426.667s-191.019-426.667-426.667-426.667c-235.648 0-426.667 191.019-426.667 426.667s191.019 426.667 426.667 426.667zM512 789.333c-90.527 0-177.347-35.962-241.359-99.974s-99.974-150.832-99.974-241.359c0-90.526 35.962-177.348 99.974-241.361 64.012-64.009 150.832-99.972 241.359-99.972 90.526 0 177.348 35.964 241.361 99.972 64.009 64.013 99.972 150.835 99.972 241.361 0 90.527-35.964 177.347-99.972 241.359-64.013 64.013-150.835 99.974-241.361 99.974zM376.448 305.365l-33.707-58.453c-2.303-4.002-5.371-7.509-9.030-10.325-3.659-2.812-7.836-4.881-12.293-6.080s-9.107-1.51-13.684-0.913c-4.577 0.597-8.992 2.086-12.993 4.39s-7.508 5.372-10.323 9.028c-2.815 3.661-4.881 7.838-6.082 12.292-1.2 4.459-1.511 9.109-0.914 13.687s2.089 8.99 4.392 12.992l25.131 43.349c28.16 8.789 51.243 2.048 69.504-19.968zM563.627 590.507l103.381-178.944h91.349c4.612 0.017 9.182-0.879 13.449-2.633 4.262-1.758 8.141-4.339 11.405-7.599s5.85-7.134 7.612-11.396c1.762-4.262 2.662-8.832 2.65-13.444 0.017-4.617-0.879-9.19-2.637-13.457-1.762-4.267-4.348-8.145-7.612-11.409s-7.142-5.85-11.409-7.612c-4.267-1.758-8.841-2.654-13.457-2.637h-50.773l34.261-59.349c4.339-8.055 5.372-17.481 2.871-26.283-2.496-8.802-8.329-16.282-16.256-20.855-7.923-4.57-17.318-5.871-26.189-3.627s-16.516 7.859-21.312 15.65l-129.707 224.683c-29.44 50.773-8.448 101.675 12.373 118.912zM575.488 720.384c16.853-9.643 22.528-31.147 12.885-48l-150.528-260.651h108.928c35.243 0 55.040-41.472 39.723-70.187h-319.147c-4.613-0.013-9.182 0.892-13.445 2.65-4.263 1.762-8.136 4.348-11.395 7.612s-5.841 7.142-7.598 11.405c-1.756 4.267-2.651 8.836-2.634 13.449-0.011 4.608 0.888 9.173 2.647 13.436 1.759 4.258 4.342 8.128 7.601 11.388s7.13 5.845 11.39 7.603c4.26 1.758 8.826 2.658 13.435 2.645h89.472l114.56 198.528-35.755 62.123c-4.339 8.054-5.372 17.483-2.871 26.284 2.496 8.801 8.329 16.282 16.256 20.853 7.923 4.571 17.318 5.872 26.189 3.628s16.516-7.859 21.312-15.65l15.317-27.008 15.659 27.008c2.304 4 5.372 7.508 9.033 10.321s7.838 4.877 12.297 6.074c4.459 1.197 9.109 1.503 13.683 0.901 4.578-0.602 8.99-2.101 12.988-4.41z" />
<glyph unicode="&#xe90c;" glyph-name="baidu-fill" d="M252.884 426.795c88.021 18.901 76.032 124.117 73.387 147.115-4.309 35.413-45.995 97.365-102.613 92.459-71.253-6.4-81.621-109.269-81.621-109.269-9.643-47.573 23.040-149.205 110.848-130.304zM346.323 243.84c-2.56-7.381-8.32-26.283-3.328-42.752 9.813-36.949 41.899-38.613 41.899-38.613h46.082v112.64h-49.367c-22.187-6.571-32.854-23.851-35.286-31.275zM416.212 603.179c48.642 0 87.895 55.979 87.895 125.141 0 69.12-39.253 125.013-87.895 125.013-48.512 0-87.893-55.893-87.893-125.013 0-69.163 39.381-125.141 87.893-125.141zM625.621 594.944c64.939-8.448 106.709 60.885 115.029 113.451 8.491 52.48-33.451 113.408-79.445 123.904-46.080 10.581-103.637-63.275-108.885-111.36-6.272-58.88 8.405-117.675 73.301-125.995zM625.621 447.829c-79.573 123.947-192.555 73.515-230.402 10.453-37.589-63.019-96.256-102.827-104.576-113.408-8.448-10.411-121.429-71.381-96.341-182.784 25.045-111.317 113.152-109.227 113.152-109.227s64.896-6.4 140.204 10.496c75.349 16.683 140.203-4.181 140.203-4.181s176-58.88 224.128 54.528c48.128 113.493-27.179 172.288-27.179 172.288s-100.523 77.781-159.232 161.835h0.043zM369.278 117.163c-49.408 9.856-69.077 43.563-71.552 49.323-2.432 5.845-16.47 32.939-9.046 79.061 21.333 69.077 82.219 74.027 82.219 74.027h60.93v74.88l51.84-0.853v-276.437h-114.391zM565.12 117.973c-51.029 13.141-53.376 49.408-53.376 49.408v145.579l53.376 0.853v-130.816c3.285-13.995 20.608-16.512 20.608-16.512h54.229v146.475h56.832v-194.987h-131.669zM883.157 506.667c0 25.173-20.907 100.864-98.347 100.864-77.611 0-87.979-71.467-87.979-121.984 0-48.213 4.053-115.499 100.437-113.365 96.427 2.133 85.888 109.227 85.888 134.485z" />
<glyph unicode="&#xe90d;" glyph-name="baidu-line" d="M322.728 137.387c35.75-1.536 71.548 1.579 106.495 9.259 41.758 9.084 84.757 10.974 127.147 5.589 23.339-2.859 42.027-7.040 54.955-10.965 45.995-11.733 111.36-9.515 128.213 17.493 12.416 19.968 10.795 33.579-1.109 51.157-2.679 3.959-5.705 7.671-9.045 11.093-10.735 8.585-21.303 17.374-31.701 26.368-26.031 22.421-50.987 46.054-74.795 70.827-24.452 25.169-46.946 52.173-67.285 80.768l-1.536 2.261c-31.659 48.597-66.475 45.525-85.419 13.525-11.938-20.058-25.57-39.053-40.747-56.789-17.492-20.565-35.412-37.973-55.679-55.339-5.248-4.48-21.461-17.92-17.579-14.677-0.171-0.128-0.725-0.64 2.176 3.029-4.181-5.12-40.533-37.419-51.2-49.579-21.973-24.875-30.848-46.080-27.52-63.147 3.072-16.043 9.344-25.045 19.2-31.787 6.23-4.16 13.172-7.138 20.48-8.789l4.949-0.299zM625.574 447.829c58.709-84.053 159.232-161.835 159.232-161.835s88.021-74.581 27.179-172.288c-60.843-97.707-224.128-54.528-224.128-54.528s-64.853 20.907-140.203 4.181c-75.305-16.853-140.201-10.453-140.201-10.453s-94.123 10.453-113.152 109.184c-19.029 98.731 87.893 172.373 96.341 182.784 8.32 10.539 64.512 45.781 104.619 113.408 40.105 67.669 152.873 108.373 230.313-10.453zM861.905 508.416c0-19.541 8.107-102.101-66.261-103.765-74.325-1.621-77.483 50.261-77.483 87.467 0 38.955 8.021 94.080 67.84 94.080 59.733 0 75.904-58.411 75.904-77.824v0.043zM630.225 626.901c-50.347 6.485-61.739 52.139-56.875 97.835 4.096 37.333 48.768 94.677 84.523 86.443 35.712-8.107 68.267-55.467 61.696-96.171-6.443-40.832-38.869-94.635-89.344-88.107zM416.21 642.56c-36.693 0-66.56 42.368-66.56 94.72s29.824 94.72 66.56 94.72c36.82 0 66.559-42.368 66.559-94.72s-29.739-94.72-66.559-94.72zM254.376 447.744c-72.32-15.573-99.243 68.139-91.307 107.307 0 0 8.533 84.779 67.243 90.027 46.635 4.053 80.981-46.976 84.523-76.16 2.176-18.944 12.075-105.6-60.459-121.173z" />
<glyph unicode="&#xe90e;" glyph-name="behance-fill" d="M317.568 731.734c27.264 0 52.48-2.133 75.52-8.448 20.907-3.842 40.866-11.726 58.752-23.211 16.811-10.539 29.397-25.344 37.76-44.331 8.405-18.987 12.587-42.24 12.587-67.541 0-29.568-6.272-54.869-20.949-73.857-12.587-19.029-33.579-35.883-58.752-48.555 35.669-10.581 62.933-29.568 79.701-54.869 16.811-25.344 27.307-57.003 27.307-92.885 0-29.568-6.315-54.869-16.811-75.989s-27.264-40.107-46.165-52.779c-20.531-13.581-43.228-23.569-67.115-29.525-25.173-6.357-50.347-10.581-75.52-10.581h-281.216v582.572h274.901zM300.757 495.36c23.083 0 41.984 6.315 56.661 16.853s20.992 29.569 20.992 52.78c0 12.672-2.133 25.344-6.315 33.749-4.181 8.448-10.496 14.805-18.859 21.12-8.405 4.224-16.811 8.448-27.307 10.539-10.496 2.133-20.949 2.133-33.579 2.133h-121.685v-137.217l130.091 0.043zM307.072 246.272c12.587 0 25.173 2.133 35.669 4.224 10.597 2.018 20.62 6.345 29.355 12.672 8.55 6.178 15.703 14.089 20.992 23.211 4.181 10.539 8.405 23.211 8.405 37.973 0 29.568-8.405 50.688-25.173 65.451-16.811 12.672-39.893 18.987-67.157 18.987h-138.496v-162.56l136.405 0.043zM712.064 248.405c16.768-16.896 41.941-25.344 75.52-25.344 23.083 0 44.075 6.315 60.843 16.853 16.811 12.672 27.307 25.344 31.488 38.016h102.827c-16.811-50.645-41.984-86.528-75.52-109.739-33.621-21.12-73.472-33.792-121.728-33.792-30.874-0.094-61.491 5.641-90.24 16.896-25.869 9.707-48.939 25.651-67.157 46.421-19.486 19.43-33.89 43.362-41.941 69.675-10.496 27.435-14.72 56.96-14.72 90.752 0 31.659 4.224 61.184 14.72 88.661 10.091 26.449 25.024 50.786 44.032 71.765 18.901 18.988 41.984 35.841 67.157 46.422 28.019 11.261 57.95 16.999 88.149 16.896 35.669 0 67.157-6.357 94.421-21.12 27.307-14.763 48.256-31.66 65.067-57.004 17.148-24.341 29.926-51.486 37.76-80.213 4.181-29.525 6.272-59.093 4.181-92.843h-304.256c0-33.792 12.587-65.451 29.397-82.347v0.043zM844.245 470.016c-14.677 14.763-37.76 23.211-65.067 23.211-18.859 0-33.579-4.224-46.165-10.539-12.587-6.357-20.949-14.805-29.355-23.253-7.723-8.158-12.834-18.441-14.677-29.525-2.133-10.581-4.224-18.987-4.224-27.435h188.843c-4.181 31.659-14.677 52.736-29.355 67.541zM659.584 691.628h235.008v-57.003h-234.965v57.003h-0.043z" />
<glyph unicode="&#xe90f;" glyph-name="behance-line" d="M320 490.667c22.632 0 44.337 8.99 60.34 24.994s24.994 37.708 24.994 60.339c0 22.632-8.99 44.337-24.994 60.34s-37.708 24.994-60.34 24.994h-192v-170.667h192zM362.667 405.333h-234.667v-170.667h234.667c22.632 0 44.337 8.99 60.34 24.994s24.994 37.709 24.994 60.339c0 22.63-8.99 44.335-24.994 60.339s-37.708 24.994-60.34 24.994zM450.688 466.261c31.979-19.23 56.777-48.41 70.592-83.076 13.815-34.662 15.889-72.9 5.905-108.855-9.988-35.955-31.484-67.648-61.197-90.223s-66.005-34.79-103.322-34.773h-320v597.333h277.333c32.49-0.004 64.303-9.281 91.702-26.742s49.243-42.38 62.969-71.828c13.726-29.448 18.761-62.202 14.511-94.413s-17.604-62.539-38.494-87.422zM661.333 704h234.667v-64h-234.667v64zM981.333 341.333h-320v-10.667c-0.009-26.355 8.853-51.951 25.165-72.653s39.117-35.311 64.747-41.472c25.626-6.161 52.578-3.516 76.518 7.514 23.936 11.029 43.465 29.798 55.437 53.278h91.051c-13.001-47.287-42.697-88.26-83.593-115.328-40.892-27.068-90.21-38.396-138.82-31.885-48.606 6.507-93.205 30.413-125.538 67.29-32.329 36.873-50.202 84.215-50.3 133.257v64c0 53.751 21.35 105.301 59.358 143.307s89.557 59.36 143.309 59.36 105.301-21.353 143.309-59.36c38.007-38.006 59.358-89.556 59.358-143.307v-53.333zM891.563 426.667c-6.985 24.555-21.786 46.161-42.159 61.547s-45.21 23.71-70.737 23.71c-25.527 0-50.364-8.324-70.737-23.71s-35.174-36.992-42.159-61.547h225.792z" />
<glyph unicode="&#xe910;" glyph-name="bilibili-fill" d="M777.515 828.329c4.954-4.953 8.883-10.833 11.567-17.304 2.679-6.472 4.058-13.408 4.058-20.413s-1.378-13.941-4.058-20.413c-2.684-6.472-6.613-12.352-11.567-17.304l-48.768-48.725h49.92c21.013 0 41.826-4.14 61.239-12.183s37.056-19.833 51.913-34.695c14.857-14.862 26.641-32.505 34.679-51.922s12.173-40.227 12.169-61.242v-319.998c0-42.436-16.858-83.132-46.861-113.139-30.007-30.007-70.703-46.861-113.139-46.861h-533.333c-42.435 0-83.131 16.853-113.137 46.861s-46.863 70.703-46.863 113.139v319.998c0 42.435 16.857 83.131 46.863 113.137s70.703 46.863 113.137 46.863h49.749l-48.683 48.725c-5.095 4.918-9.16 10.802-11.957 17.308s-4.27 13.504-4.334 20.586c-0.064 7.081 1.284 14.105 3.964 20.66s6.638 12.511 11.644 17.52c5.007 5.009 10.96 8.971 17.514 11.654s13.576 4.035 20.657 3.976c7.082-0.060 14.080-1.529 20.588-4.322s12.394-6.855 17.315-11.947l113.152-113.152c3.371-3.371 6.187-7.040 8.448-10.965h137.088c2.261 3.925 5.12 7.68 8.491 11.008l113.109 113.152c4.954 4.954 10.833 8.884 17.306 11.565 6.468 2.681 13.406 4.061 20.412 4.061s13.943-1.38 20.412-4.061c6.473-2.681 12.352-6.611 17.306-11.565zM778.667 597.076h-533.333c-13.461 0.005-26.427-5.081-36.295-14.237s-15.909-21.705-16.911-35.129l-0.128-4.011v-319.998c0-28.117 21.76-51.157 49.365-53.163l3.968-0.171h533.333c13.461-0.009 26.428 5.077 36.297 14.234 9.865 9.156 15.906 21.705 16.909 35.132l0.128 3.968v319.998c0 29.44-23.893 53.333-53.333 53.333v0.043zM352 490.411c29.44 0 53.333-23.893 53.333-53.333v-53.333c0-14.148-5.619-27.712-15.621-37.713s-23.567-15.62-37.712-15.62c-14.145 0-27.71 5.619-37.712 15.62s-15.621 23.565-15.621 37.713v53.333c0 29.44 23.893 53.333 53.333 53.333zM672 490.411c29.44 0 53.333-23.893 53.333-53.333v-53.333c0-14.148-5.619-27.712-15.62-37.713s-23.569-15.62-37.713-15.62c-14.144 0-27.712 5.619-37.713 15.62s-15.62 23.565-15.62 37.713v53.333c0 29.44 23.893 53.333 53.333 53.333z" />
<glyph unicode="&#xe911;" glyph-name="bilibili-line" d="M306.005 842.37l138.325-138.368h135.296l138.368 138.325c8.004 8.006 18.863 12.504 30.187 12.504s22.182-4.498 30.187-12.504c8.004-8.006 12.506-18.864 12.506-30.187s-4.501-22.181-12.506-30.187l-78.037-77.952h89.003c39.607 0 77.589-15.733 105.596-43.738s43.738-65.989 43.738-105.595v-341.331c0-39.607-15.731-77.589-43.738-105.596s-65.988-43.738-105.596-43.738h-554.667c-39.606 0-77.589 15.731-105.594 43.738s-43.739 65.988-43.739 105.596v341.331c0 39.606 15.733 77.589 43.739 105.595s65.989 43.738 105.594 43.738h88.96l-77.995 78.037c-8.006 8.006-12.504 18.865-12.504 30.187s4.498 22.181 12.504 30.187c8.006 8.006 18.865 12.504 30.187 12.504s22.181-4.498 30.187-12.504v-0.043zM789.333 618.669h-554.667c-15.91 0-31.249-5.927-43.026-16.624s-19.148-25.396-20.675-41.232l-0.299-6.144v-341.331c0.001-15.91 5.927-31.249 16.624-43.029 10.697-11.776 25.396-19.145 41.232-20.672l6.144-0.299h554.667c15.91 0 31.249 5.926 43.025 16.623s19.149 25.395 20.676 41.233l0.299 6.144v341.331c0 16.974-6.741 33.253-18.743 45.255s-28.284 18.745-45.257 18.745zM341.333 490.671c11.316 0 22.168-4.497 30.17-12.497 8.001-8.004 12.497-18.854 12.497-30.17v-85.333c0-11.319-4.495-22.17-12.497-30.174-8.002-8-18.854-12.493-30.17-12.493s-22.168 4.493-30.17 12.493c-8.001 8.004-12.497 18.854-12.497 30.174v85.333c0 11.315 4.495 22.165 12.497 30.17 8.002 8 18.854 12.497 30.17 12.497zM682.667 490.671c11.315 0 22.17-4.497 30.17-12.497 8-8.004 12.497-18.854 12.497-30.17v-85.333c0-11.319-4.497-22.17-12.497-30.174-8-8-18.854-12.493-30.17-12.493s-22.17 4.493-30.17 12.493c-8 8.004-12.497 18.854-12.497 30.174v85.333c0 11.315 4.497 22.165 12.497 30.17 8 8 18.854 12.497 30.17 12.497z" />
<glyph unicode="&#xe912;" glyph-name="centos-fill" d="M512 402.773l190.72-190.763-190.72-190.677-190.72 190.72 190.72 190.72zM170.667 272.213l165.504-165.547h-165.504v165.547zM853.333 272.213v-165.547h-165.547l165.547 165.547zM747.947 638.72l190.72-190.72-190.677-190.72-190.72 190.72 190.677 190.72zM276.053 638.72l190.72-190.72-190.763-190.677-190.677 190.677 190.72 190.72zM512 874.667l190.677-190.677-190.677-190.72-190.72 190.677 190.72 190.72zM336.171 789.333l-165.547-165.504 0.043 165.504h165.504zM853.333 789.333v-165.504l-165.547 165.547 165.547-0.043z" />
<glyph unicode="&#xe913;" glyph-name="centos-line" d="M512 874.667l183.125-183.125 45.269 45.227-52.565 52.565h165.504v-165.504l-52.608 52.608-45.227-45.269 183.168-183.168-183.125-183.168 45.184-45.184 52.608 52.523v-165.504h-165.547l52.565 52.608-45.184 45.227-183.168-183.168-183.168 183.168-45.269-45.227 52.608-52.608h-165.504v165.547l52.523-52.565 45.269 45.227-183.125 183.125 183.168 183.168-45.312 45.269-52.523-52.608v165.504h165.504l-52.608-52.48 45.312-45.312 183.125 183.125zM512 387.712l-122.88-122.837 122.88-122.88 122.837 122.88-122.837 122.837zM328.832 570.88l-122.837-122.88 122.795-122.795 122.88 122.88-122.837 122.795zM695.125 570.88l-122.752-122.795 122.795-122.837 122.837 122.752-122.88 122.88zM512 754.005l-122.795-122.837 122.837-122.795 122.752 122.837-122.795 122.795z" />
<glyph unicode="&#xe914;" glyph-name="chrome-fill" d="M419.285 31.445c-191.019 42.325-333.952 212.736-333.952 416.555 0 77.739 20.779 150.613 57.131 213.418l182.741-316.544c20.531-37.21 51.709-67.439 89.537-86.81s80.579-26.999 122.772-21.905l-118.229-204.715zM512 21.333l182.912 316.8c19.964 33.165 30.485 71.155 30.421 109.867 0.068 46.17-14.912 91.104-42.667 128h236.459c12.715-40.405 19.541-83.413 19.541-128 0-235.648-191.019-426.667-426.667-426.667zM621.739 382.080c-11.465-19.11-27.725-34.897-47.164-45.794-19.443-10.897-41.391-16.529-63.68-16.337-22.285 0.196-44.134 6.208-63.381 17.442-19.251 11.234-35.231 27.298-46.362 46.609l-1.237 2.133c-10.804 19.58-16.291 41.647-15.913 64.009 0.378 22.357 6.607 44.228 18.067 63.433 11.46 19.2 27.751 35.066 47.249 46.014s41.527 16.596 63.889 16.382c22.362-0.214 44.279-6.283 63.565-17.602s35.268-27.493 46.362-46.911c11.089-19.422 16.9-41.404 16.849-63.77-0.051-22.362-5.956-44.318-17.135-63.689l-1.109-1.92zM197.632 736.469c39.925 43.61 88.499 78.422 142.625 102.217s112.615 36.048 171.743 35.981c74.91 0.031 148.51-19.671 213.389-57.121s118.75-91.328 156.19-156.212h-369.579c-41.796 0.006-82.671-12.264-117.555-35.284s-62.239-55.779-78.669-94.209l-118.144 204.629z" />
<glyph unicode="&#xe915;" glyph-name="chrome-line" d="M442.24 113.792l82.347 142.592c-36.382-2.394-72.695 5.623-104.688 23.117s-58.341 43.733-75.962 75.657l-139.392 241.323c-22.544-46.698-34.155-97.916-33.954-149.773 0.201-51.853 12.21-102.98 35.116-149.504s56.105-87.215 97.082-118.997c40.976-31.778 88.652-53.807 139.41-64.414h0.043zM537.173 107.563c51.716 3.806 101.884 19.345 146.697 45.436 44.817 26.095 83.093 62.054 111.932 105.152s47.479 92.198 54.507 143.578c7.023 51.379 2.253 103.68-13.956 152.939h-164.693c21.137-31.552 32.397-68.689 32.341-106.667 0.055-34.846-9.417-69.047-27.392-98.901l-139.435-241.536zM603.435 393.045l0.939 1.621c9.318 16.141 14.242 34.441 14.285 53.077 0.047 18.633-4.791 36.958-14.033 53.141s-22.562 29.662-38.635 39.097c-16.068 9.434-34.334 14.493-52.966 14.673-18.637 0.18-36.992-4.526-53.244-13.649s-29.828-22.342-39.38-38.347c-9.551-16-14.743-34.227-15.058-52.86s4.256-37.026 13.26-53.342l1.024-1.792c9.271-16.090 22.588-29.478 38.626-38.844 16.038-9.361 34.244-14.374 52.813-14.537 18.573-0.162 36.864 4.527 53.065 13.602 16.201 9.079 29.747 22.234 39.305 38.157zM257.493 675.499l82.304-142.507c15.86 32.127 40.394 59.176 70.826 78.086 30.431 18.911 65.55 28.929 101.377 28.922h282.24c-31.283 46.036-73.361 83.714-122.56 109.745s-104.021 39.622-159.68 39.589c-48.055 0.054-95.579-10.065-139.444-29.692s-83.079-48.318-115.062-84.185v0.043zM512 21.333c-235.648 0-426.667 191.019-426.667 426.667s191.019 426.667 426.667 426.667c235.648 0 426.667-191.019 426.667-426.667s-191.019-426.667-426.667-426.667z" />
<glyph unicode="&#xe916;" glyph-name="codepen-fill" d="M512 524.715l-115.072-76.715 115.072-76.715 115.072 76.715-115.072 76.715zM704 499.285l115.072 76.713-264.405 176.256v-153.429l149.333-99.54zM853.333 496.299l-72.405-48.299 72.405-48.256v96.555zM704 396.715l-149.333-99.541v-153.429l264.405 176.256-115.072 76.715zM469.333 598.825v153.429l-264.405-176.256 115.072-76.713 149.333 99.54zM204.928 320l264.405-176.256v153.429l-149.333 99.541-115.072-76.715zM243.072 448l-72.405 48.256v-96.512l72.405 48.256zM85.333 575.999c-0.001 7.023 1.731 13.937 5.044 20.13s8.101 11.471 13.943 15.369l384 256c7.010 4.678 15.253 7.174 23.68 7.174s16.67-2.496 23.68-7.174l384-256c5.841-3.898 10.633-9.177 13.943-15.369s5.043-13.107 5.043-20.13v-255.999c0-7.023-1.732-13.939-5.043-20.13s-8.102-11.473-13.943-15.369l-384-256c-7.010-4.681-15.253-7.177-23.68-7.177s-16.67 2.496-23.68 7.177l-384 256c-5.842 3.895-10.631 9.178-13.943 15.369s-5.044 13.107-5.044 20.13v255.999z" />
<glyph unicode="&#xe917;" glyph-name="codepen-line" d="M704 396.715l-149.333-99.541v-153.429l264.405 176.256-115.072 76.715zM627.072 448l-115.072 76.715-115.072-76.715 115.072-76.715 115.072 76.715zM853.333 496.256l-72.405-48.256 72.405-48.256v96.512zM819.072 575.999l-264.405 176.256v-153.429l149.333-99.54 115.072 76.713zM320 499.285l149.333 99.54v153.429l-264.405-176.256 115.072-76.713zM204.928 320l264.405-176.256v153.429l-149.333 99.541-115.072-76.715zM170.667 399.744l72.405 48.256-72.405 48.256v-96.512zM85.333 575.999c-0.001 7.023 1.731 13.937 5.044 20.13s8.101 11.471 13.943 15.369l384 256c7.010 4.678 15.253 7.174 23.68 7.174s16.67-2.496 23.68-7.174l384-256c5.841-3.898 10.633-9.177 13.943-15.369s5.043-13.107 5.043-20.13v-255.999c0-7.023-1.732-13.939-5.043-20.13s-8.102-11.473-13.943-15.369l-384-256c-7.010-4.681-15.253-7.177-23.68-7.177s-16.67 2.496-23.68 7.177l-384 256c-5.842 3.895-10.631 9.178-13.943 15.369s-5.044 13.107-5.044 20.13v255.999z" />
<glyph unicode="&#xe918;" glyph-name="coreos-fill" d="M512 21.333c-235.648 0-426.667 191.019-426.667 426.667s191.019 426.667 426.667 426.667c235.648 0 426.667-191.019 426.667-426.667s-191.019-426.667-426.667-426.667zM355.371 435.029c-1.707-36.267 1.579-72.405 5.035-108.544 0.213-2.56 1.152-3.157 3.413-3.413 17.323-2.304 34.688-4.352 52.139-5.419 41.131-2.603 82.261-5.931 123.563-3.627 23.467 1.28 46.933 2.048 70.315 4.053 33.28 2.901 66.56 6.613 99.413 13.312 40.875 8.277 81.365 18.133 119.467 36.053 17.323 8.107 33.707 17.707 47.531 31.403 10.155 10.027 17.408 21.632 17.493 36.693 0.068 13.393-0.576 26.782-1.92 40.107-2.965 31.735-9.856 62.978-20.523 93.013-24.917 69.035-64.427 127.531-120.576 173.653-47.462 39.505-103.876 66.794-164.309 79.488-21.333 4.48-42.923 6.144-64.597 7.68-24.448 1.749-45.397-5.12-63.488-21.931-21.12-19.499-35.712-43.691-47.872-69.675-28.459-60.885-41.515-126.037-49.749-192.341-4.919-36.617-6.703-73.587-5.333-110.507zM507.691 649.643c40.917-1.28 75.52-13.824 106.411-36.523 37.41-26.742 63.488-66.484 73.131-111.445 2.901-12.971 4.139-26.112 4.395-39.339 0.213-8.917-4.693-15.445-11.179-20.907-13.099-11.008-28.587-17.109-44.8-21.675-31.573-8.832-63.829-13.909-96.64-15.616-21.333-1.109-42.667-1.493-64-0.427-8.192 0.427-16.427 1.024-24.619 1.365-2.56 0.085-3.413 0.853-3.584 3.456-0.981 18.517-2.432 37.035-2.133 55.552 0.683 43.776 4.011 87.253 16.939 129.451 4.267 14.037 9.515 27.733 17.92 39.936 7.381 10.667 16.128 18.645 28.16 16.213v-0.043z" />
<glyph unicode="&#xe919;" glyph-name="coreos-line" d="M401.923 772.268c-55.486-18.641-105.246-51.238-144.5-94.659s-66.681-96.207-79.648-153.287c-12.967-57.079-11.037-116.535 5.603-172.651 16.64-56.119 47.433-107.017 89.419-147.802s93.755-70.084 150.333-85.090c56.579-15.006 116.065-15.206 172.743-0.589s108.646 43.567 150.908 84.066c42.266 40.495 73.404 91.183 90.428 147.183-145.067-62.293-309.248-84.48-492.588-66.773-30.336 176.043-11.264 339.202 57.301 489.602zM506.372 789.932c-28.369-50.738-50.462-104.738-65.792-160.811 66.014-1.316 128.947-28.172 175.573-74.923 44.1-43.978 70.583-102.577 74.453-164.738 56.747 14.549 110.464 34.987 161.28 61.141-0.23 45.022-9.365 89.55-26.889 131.021-17.519 41.471-43.076 79.063-75.196 110.607s-70.17 56.419-111.949 73.188c-41.779 16.769-86.468 25.1-131.482 24.514zM208.856 146.901c-166.613 166.613-166.613 436.78 0 603.394s436.78 166.613 603.394 0c166.613-166.613 166.613-436.78 0-603.394s-436.78-166.613-603.394 0zM423.043 543.404c-8.214-59.808-9.303-120.373-3.243-180.439 62.167-2.739 124.452 0.405 186.028 9.387 0.132 22.558-4.215 44.919-12.8 65.779-8.585 20.864-21.235 39.808-37.205 55.735-17.276 17.31-38.080 30.694-60.992 39.245-22.912 8.547-47.398 12.058-71.788 10.293z" />
<glyph unicode="&#xe91a;" glyph-name="dingding-fill" d="M512 874.667c-235.648 0-426.667-191.019-426.667-426.667s191.019-426.667 426.667-426.667c235.648 0 426.667 191.019 426.667 426.667s-191.019 426.667-426.667 426.667zM703.573 488.96l-0.256-0.597c-17.92-38.315-64.683-113.493-64.683-113.493l-0.213 0.512-13.653-23.808h65.835l-125.781-167.211 28.587 113.749h-51.84l18.005 75.221c-14.549-3.499-31.787-8.32-52.181-14.891 0 0-27.563-16.128-79.445 31.104 0 0-34.987 30.805-14.677 38.485 8.619 3.285 41.856 7.467 68.011 10.965 35.413 4.779 57.131 7.339 57.131 7.339s-109.013-1.621-134.869 2.432c-25.856 4.053-58.667 47.232-65.664 85.163 0 0-10.795 20.821 23.253 10.965s174.976-38.4 174.976-38.4c0 0-183.253 56.192-195.499 69.931-12.203 13.653-35.883 74.837-32.811 112.384 0 0 1.323 9.387 10.965 6.827 0 0 135.509-61.867 228.139-95.787 92.672-33.92 173.227-51.157 162.816-95.061-0.853-3.712-3.072-9.216-6.144-15.787v-0.043z" />
<glyph unicode="&#xe91b;" glyph-name="dingding-line" d="M512 789.333c-90.527 0-177.347-35.962-241.359-99.974s-99.974-150.832-99.974-241.359c0-90.526 35.962-177.348 99.974-241.361 64.012-64.009 150.832-99.972 241.359-99.972 90.526 0 177.348 35.964 241.361 99.972 64.009 64.013 99.972 150.835 99.972 241.361 0 90.527-35.964 177.347-99.972 241.359-64.013 64.013-150.835 99.974-241.361 99.974zM512 874.667c235.648 0 426.667-191.019 426.667-426.667s-191.019-426.667-426.667-426.667c-235.648 0-426.667 191.019-426.667 426.667s191.019 426.667 426.667 426.667zM703.573 488.96l-0.256-0.597c-17.92-38.315-64.683-113.493-64.683-113.493l-0.213 0.512-13.653-23.808h65.835l-125.781-167.211 28.587 113.749h-51.84l18.005 75.221c-14.549-3.499-31.787-8.32-52.181-14.891 0 0-27.563-16.128-79.445 31.104 0 0-34.987 30.805-14.677 38.485 8.619 3.285 41.856 7.467 68.011 10.965 35.413 4.779 57.131 7.339 57.131 7.339s-109.013-1.621-134.869 2.432c-25.856 4.053-58.667 47.232-65.664 85.163 0 0-10.795 20.821 23.253 10.965s174.976-38.4 174.976-38.4c0 0-183.253 56.192-195.499 69.931-12.203 13.653-35.883 74.837-32.811 112.384 0 0 1.323 9.387 10.965 6.827 0 0 135.509-61.867 228.139-95.787 92.672-33.92 173.227-51.157 162.816-95.061-0.853-3.712-3.072-9.216-6.144-15.787v-0.043z" />
<glyph unicode="&#xe91c;" glyph-name="discord-fill" d="M429.909 490.667c25.6 0 46.336-19.2 45.867-42.667 0-23.467-20.224-42.667-45.867-42.667-25.173 0-45.909 19.2-45.909 42.667s20.267 42.667 45.909 42.667zM594.091 490.667c25.643 0 45.909-19.2 45.909-42.667s-20.267-42.667-45.909-42.667c-25.173 0-45.867 19.2-45.867 42.667s20.224 42.667 45.867 42.667zM806.016 874.667c49.621 0 89.984-41.216 89.984-92.288v-803.712l-94.336 85.12-53.12 50.176-56.192 53.333 23.296-82.901h-497.664c-49.621 0-89.984 41.216-89.984 92.288v605.696c0 51.072 40.363 92.288 89.984 92.288h588.032zM636.629 289.579c96.981 3.115 134.315 68.096 134.315 68.096 0 144.256-63.232 261.205-63.232 261.205-63.147 48.341-123.307 47.019-123.307 47.019l-6.144-7.168c74.624-23.296 109.269-56.917 109.269-56.917-40.742 22.955-85.649 37.575-132.096 43.008-29.466 3.328-59.226 3.041-88.619-0.853-2.645 0-4.864-0.469-7.467-0.896-15.36-1.365-52.693-7.168-99.627-28.245-16.213-7.595-25.899-13.013-25.899-13.013s36.437 35.413 115.413 58.709l-4.395 5.376c0 0-60.117 1.323-123.307-47.061 0 0-63.189-116.907-63.189-261.163 0 0 36.864-64.939 133.845-68.096 0 0 16.213 20.139 29.44 37.163-55.765 17.067-76.8 52.907-76.8 52.907s4.352-3.157 12.245-7.637c0.427-0.427 0.853-0.896 1.749-1.323 1.323-0.939 2.645-1.365 3.968-2.261 10.965-6.272 21.931-11.179 32-15.232 18.005-7.168 39.509-14.336 64.555-19.285 37.517-7.356 76.092-7.501 113.664-0.427 21.884 3.904 43.234 10.364 63.616 19.243 15.36 5.845 32.469 14.379 50.475 26.453 0 0-21.931-36.736-79.445-53.333 13.184-17.024 29.013-36.267 29.013-36.267h-0.043z" />
<glyph unicode="&#xe91d;" glyph-name="discord-line" d="M593.664 337.92c-6.839-1.668-13.726-3.149-20.651-4.437-37.572-7.074-76.147-6.929-113.664 0.427-6.571 1.28-15.872 3.541-27.861 6.741l-39.296-51.072c-96.981 3.115-133.845 68.096-133.845 68.096 0 144.256 63.189 261.205 63.189 261.205 63.189 48.341 123.307 47.019 123.307 47.019l17.195-22.4c1.583 0.222 3.179 0.364 4.779 0.427 32.777 4.345 65.993 4.201 98.731-0.427l18.859 22.4c0 0 60.16 1.323 123.307-47.061 0 0 63.232-116.907 63.232-261.163 0 0-37.333-64.939-134.315-68.096l-42.965 48.341zM429.909 490.667c-25.643 0-45.909-19.2-45.909-42.667s20.693-42.667 45.909-42.667c25.6 0 45.867 19.2 45.867 42.667 0.427 23.467-20.224 42.667-45.867 42.667zM594.091 490.667c-25.6 0-45.867-19.2-45.867-42.667s20.693-42.667 45.867-42.667c25.643 0 45.909 19.2 45.909 42.667s-20.267 42.667-45.909 42.667zM896-21.333l-212.907 213.333h127.573v597.333h-597.333v-597.333h469.461l24.32-85.333h-493.781c-22.632 0-44.337 8.99-60.34 24.994s-24.994 37.709-24.994 60.339v597.333c0 22.632 8.99 44.337 24.994 60.34s37.708 24.994 60.34 24.994h597.333c22.63 0 44.335-8.99 60.339-24.994s24.994-37.708 24.994-60.34v-810.667z" />
<glyph unicode="&#xe91e;" glyph-name="disqus-fill" d="M512 874.667c235.648 0 426.667-191.019 426.667-426.667s-191.019-426.667-426.667-426.667c-107.947 0-206.507 40.107-281.643 106.155l-166.357-20.821 60.757 162.005c-25.344 54.528-39.424 115.285-39.424 179.328 0 235.648 191.019 426.667 426.667 426.667zM341.333 661.333v-426.667h159.275l11.221 0.171c144 4.395 227.712 94.336 227.712 214.4v1.152l-0.128 9.173c-4.267 118.315-90.453 201.771-236.373 201.771h-161.707zM504.789 556.459c69.461 0 115.584-39.595 115.584-107.904v-1.195l-0.213-7.808c-3.371-64-48.555-100.053-115.371-100.053h-47.275v216.96h47.275z" />
<glyph unicode="&#xe91f;" glyph-name="disqus-line" d="M509.862 874.667c235.648 0 426.667-191.019 426.667-426.667s-191.019-426.667-426.667-426.667c-98.389 0-191.658 33.451-266.624 93.525l-201.301-25.173 73.387 195.669c-21.163 51.115-32.128 106.155-32.128 162.645 0 235.648 191.019 426.667 426.666 426.667zM509.862 789.333c-188.501 0-341.333-152.832-341.333-341.333 0-50.261 10.837-98.901 31.488-143.445l7.509-16.213-36.139-96.427 98.773 12.331 14.421-12.672c61.867-54.443 141.141-84.907 225.28-84.907 188.501 0 341.333 152.832 341.333 341.333s-152.832 341.333-341.333 341.333zM341.329 661.333h161.706c145.92 0 232.107-83.456 236.373-201.771l0.128-9.173v-1.152c0-120.064-83.712-210.005-227.712-214.4l-11.221-0.171h-159.274v426.667zM504.785 556.459h-47.275v-216.96h47.275c66.816 0 112 36.053 115.371 100.053l0.213 7.808v1.195c0 68.267-46.080 107.947-115.584 107.947v-0.043z" />
<glyph unicode="&#xe920;" glyph-name="douban-fill" d="M696.064 143.445h173.44c3.477 0.004 6.921-0.674 10.138-2.001 3.213-1.327 6.135-3.277 8.597-5.73 2.458-2.458 4.412-5.376 5.743-8.589s2.018-6.656 2.018-10.133v-26.496c0.004-3.477-0.674-6.921-2.001-10.138-1.327-3.213-3.277-6.135-5.73-8.597-2.458-2.458-5.376-4.412-8.589-5.743s-6.656-2.018-10.133-2.018h-715.093c-7.016 0-13.744 2.786-18.705 7.748s-7.748 11.691-7.748 18.705v26.496c-0.006 3.477 0.675 6.921 2.001 10.138 1.327 3.213 3.275 6.135 5.731 8.597 2.457 2.458 5.375 4.412 8.588 5.743s6.656 2.018 10.133 2.018h160.171l-40.96 132.437h93.44c5.571 0.013 11.004-1.732 15.524-4.988s7.898-7.859 9.649-13.146l38.059-114.304h149.931l52.267 172.16h-411.861c-7.016 0-13.744 2.786-18.705 7.748s-7.748 11.691-7.748 18.705v304.555c0 7.016 2.787 13.744 7.748 18.705s11.69 7.748 18.705 7.748h582.656c7.014 0 13.743-2.787 18.705-7.748s7.748-11.69 7.748-18.705v-304.555c0-7.014-2.786-13.743-7.748-18.705s-11.691-7.748-18.705-7.748h-54.997l-52.267-172.16zM167.723 832h688.555c7.014 0 13.743-2.787 18.705-7.748s7.748-11.69 7.748-18.705v-26.496c0.004-3.477-0.674-6.922-2.001-10.136s-3.277-6.135-5.73-8.596c-2.458-2.461-5.376-4.413-8.589-5.745s-6.656-2.018-10.133-2.018h-688.555c-7.016 0-13.744 2.787-18.705 7.748s-7.748 11.69-7.748 18.705v26.539c0 7.008 2.781 13.731 7.733 18.69s11.669 7.752 18.678 7.763h0.043zM306.773 593.664c-0.872 0.006-1.737-0.161-2.544-0.491s-1.542-0.816-2.16-1.431c-0.619-0.615-1.109-1.346-1.445-2.151s-0.507-1.669-0.507-2.541v-172.16c0-3.669 2.987-6.613 6.656-6.613h410.453c3.669 0 6.656 2.987 6.656 6.613v172.203c0 0.872-0.171 1.736-0.508 2.541-0.333 0.805-0.828 1.536-1.446 2.151-0.614 0.614-1.353 1.101-2.159 1.431s-1.673 0.497-2.543 0.491l-410.453-0.043z" />
<glyph unicode="&#xe921;" glyph-name="douban-line" d="M651.648 320h-438.315v341.333h597.333v-341.333h-69.291l-55.467-170.667h210.091v-85.333h-768v85.333h196.779l-34.645 106.667 81.152 26.368 43.221-133.035h181.717l55.467 170.667h-0.043zM149.333 832h725.333v-85.333h-725.333v85.333zM298.667 576v-170.667h426.667v170.667h-426.667z" />
<glyph unicode="&#xe922;" glyph-name="dribbble-fill" d="M512 874.667c-235.52 0-426.667-191.147-426.667-426.667s191.147-426.667 426.667-426.667c235.093 0 426.667 191.147 426.667 426.667s-191.573 426.667-426.667 426.667zM793.813 677.973c52.51-63.971 81.566-143.973 82.347-226.731-11.989 2.304-132.309 26.837-253.568 11.563-2.773 6.016-5.12 12.501-7.851 18.987-7.552 17.792-15.573 35.375-24.064 52.736 134.187 54.613 195.285 133.291 203.136 143.445zM512 811.733c92.587 0 177.237-34.731 241.579-91.648-6.485-9.216-61.568-82.816-191.147-131.413-59.691 109.653-125.867 199.467-136.064 213.333 28.070 6.562 56.806 9.827 85.632 9.728zM356.992 777.472c48.829-67.683 93.939-137.974 135.125-210.56-170.325-45.355-320.725-44.373-336.896-44.373 11.726 55.162 36.037 106.871 71.036 151.092s79.741 79.759 130.735 103.842zM147.328 447.573v11.093c15.787-0.427 192.512-2.773 374.4 51.84 10.667-20.352 20.352-41.173 29.611-61.995-4.651-1.408-9.728-2.773-14.336-4.181-187.904-60.587-287.872-226.261-296.192-240.171-60.167 66.795-93.455 153.515-93.44 243.413h-0.043zM512 83.328c-81.007-0.137-159.715 26.906-223.531 76.8 6.485 13.44 80.555 155.989 285.995 227.712 0.939 0.427 1.408 0.427 2.304 0.939 34.658-89.404 60.706-181.914 77.781-276.267-45.022-19.371-93.538-29.303-142.549-29.184zM715.136 145.835c-3.669 22.187-23.125 128.64-70.827 259.584 114.347 18.048 214.315-11.563 226.773-15.744-7.782-49.199-25.651-96.256-52.489-138.219s-62.059-77.922-103.458-105.621z" />
<glyph unicode="&#xe923;" glyph-name="dribbble-line" d="M852.864 466.261c-3.499 67.161-26.854 131.772-67.115 185.643-12.267-13.211-25.378-25.61-39.253-37.12-42.628-35.407-90.261-64.307-141.355-85.76 7.125-14.933 13.653-29.397 19.413-43.051v-0.128c1.626-3.814 3.191-7.654 4.693-11.52 64.597 7.253 132.693 4.608 198.699-4.309 8.789-1.195 17.067-2.475 24.917-3.755zM452.437 784.128c41.579-58.589 79.923-119.409 114.859-182.187 52.181 20.565 95.317 46.507 130.048 75.392 12.058 9.936 23.403 20.7 33.963 32.213-61.397 51.639-139.081 79.901-219.307 79.787-19.968 0.014-39.898-1.714-59.563-5.163v-0.043zM181.461 533.461c29.066 0.733 58.097 2.484 87.040 5.248 69.958 6.257 139.319 17.984 207.445 35.072-35.605 61.858-74.046 122.039-115.2 180.352-43.959-21.777-82.72-52.753-113.654-90.828s-53.317-82.357-65.632-129.844zM246.741 233.173c16.555 24.192 38.315 51.413 67.2 81.024 62.037 63.573 135.253 113.067 219.989 140.373l2.645 0.768c-7.040 15.531-13.653 29.397-20.309 42.453-78.336-22.827-160.853-37.077-243.072-44.459-40.107-3.627-76.075-5.205-102.528-5.461-0.076-78.191 26.807-154.018 76.117-214.699h-0.043zM640.213 131.627c-16.452 82.974-39.744 164.45-69.632 243.584-85.419-31.019-153.472-76.373-206.080-130.475-21.231-21.436-40.072-45.111-56.192-70.613 58.829-43.895 130.291-67.563 203.691-67.456 43.942-0.064 87.484 8.384 128.213 24.875v0.085zM720.128 177.493c66.615 51.209 111.991 125.197 127.445 207.787-14.507 3.627-32.896 7.253-53.12 10.069-44.966 6.477-90.59 6.95-135.68 1.408 25.391-71.629 45.888-144.9 61.355-219.307v0.043zM512 21.333c-235.648 0-426.667 191.019-426.667 426.667s191.019 426.667 426.667 426.667c235.648 0 426.667-191.019 426.667-426.667s-191.019-426.667-426.667-426.667z" />
<glyph unicode="&#xe924;" glyph-name="drive-fill" d="M338.773 783.103l148.565-257.279-253.44-439.168-148.565 257.237 253.44 439.21zM431.616 343.893h507.051l-148.565-257.237h-507.008l148.523 257.237zM616.917 386.56l-253.483 439.252h297.131l253.44-439.252h-297.088z" />
<glyph unicode="&#xe925;" glyph-name="drive-line" d="M388.139 697.599l-204.245-353.834 74.88-129.365 204.16 353.706-74.795 129.493zM332.672 171.776h408.235l74.709 129.451h-408.149l-74.795-129.451zM815.403 386.56l-204.203 353.706h-149.12l204.245-353.706h149.077zM363.52 825.599h296.96l278.187-481.876-148.48-257.28h-555.947l-148.907 257.28 278.187 481.876zM512.213 482.731l-55.552-96.171h111.061l-55.509 96.171z" />
<glyph unicode="&#xe926;" glyph-name="dropbox-fill" d="M737.493 504.832l222.507-141.781-224.085-142.763-223.915 142.677-223.915-142.677-224.085 142.805 222.507 141.781-222.507 141.696 224.085 142.763 223.915-142.635 223.915 142.635 224.085-142.763-222.507-141.739zM734.336 504.832l-222.336 141.653-222.336-141.653 222.336-141.653 222.336 141.653zM289.536 172.971l224.085 142.763 224.085-142.763-224.085-142.763-224.085 142.763z" />
<glyph unicode="&#xe927;" glyph-name="dropbox-line" d="M368.892 223.573l144.725-92.245 144.725 92.203 79.36-50.56-224.085-142.763-224.085 142.763 79.36 50.603zM331.473 576.855l102.101 66.261-103.466 67.157-104.832-64.725 106.197-68.693zM409.98 526.080l102.016-66.091 101.973 66.005-101.973 66.263-102.016-66.178zM590.502 409.173l103.424-66.901 104.533 64.085-106.027 68.779-101.931-65.963zM511.996 694.018l180.779 117.248 265.515-164.011-187.392-121.303 187.435-121.6-265.643-162.944-180.693 116.992-180.693-116.907-265.813 162.859 187.563 121.643-187.392 121.26 265.557 163.968 180.778-117.205zM590.374 643.159l102.101-66.304 106.197 68.693-104.789 64.725-103.509-67.115zM433.489 409.173l-101.973 65.963-106.069-68.821 104.576-64.085 103.466 66.944z" />
<glyph unicode="&#xe928;" glyph-name="edge-fill" d="M880.811 593.664c-7.253 30.336-18.816 61.781-33.024 86.229-32.896 56.704-62.464 95.445-135.552 141.653s-154.325 53.12-192.981 53.12c-103.040 0-179.669-36.693-235.733-80.512-140.843-110.208-155.52-303.488-155.52-303.488s52.096 87.253 151.040 150.443c59.861 38.187 145.109 62.891 214.528 62.891 184.192 0 189.099-170.667 189.099-170.667h-298.667c0 85.333 42.667 128 42.667 128s-213.333-85.333-213.333-300.544c0-20.779-0.128-58.539 10.581-97.408 9.899-35.968 29.867-72.747 48.299-100.395 52.096-78.165 129.92-111.531 167.083-123.904 42.496-14.165 86.571-17.749 128.427-17.749 116.053 0 208.085 37.803 242.944 54.4v178.005c-32.341-19.371-114.304-61.739-213.333-61.739-213.333 0-213.333 170.667-213.333 170.667h512v106.24c0 0-1.664 67.968-15.189 124.757z" />
<glyph unicode="&#xe929;" glyph-name="edge-line" d="M341.632 362.624c-0.196-3.537-0.296-7.083-0.299-10.624 0-101.632 74.795-202.667 213.333-202.667 101.248 0 193.195 27.947 256 66.261v-142.933c-76.331-32.725-165.845-51.328-256-51.328-234.752 0-341.333 148.053-341.333 330.667 0 137.856 87.083 256 210.901 305.664-59.904-67.285-82.901-138.88-82.901-166.827l426.667-0.171c0 145.323-108.715 256-256 256-213.333 0-341.376-170.155-384-255.957 12.373 203.179 171.093 383.957 384 383.957 221.867 0 384-171.947 384-384v-128l-554.368-0.043z" />
<glyph unicode="&#xe92a;" glyph-name="evernote-fill" d="M368.213 629.163c-9.216-8.576-23.296-9.259-31.701-9.259h-90.027c-26.027 0-41.557 0-52.053-1.408-5.717-0.725-12.715-3.584-16.256-4.992-1.408-0.683-1.408 0-0.725 0.683l205.483 210.773c0.725 0.725 1.408 0.725 0.725-0.725-2.272-5.224-3.933-10.694-4.949-16.299-1.408-10.624-1.408-26.24-1.408-52.48v-94.379c0-8.533-0.725-22.741-9.131-31.915h0.043zM567.979 23.979c-23.893 15.616-36.565 36.181-41.515 48.939-5.056 12.395-7.68 25.651-7.723 39.040 0.034 28.369 11.311 55.569 31.36 75.644s47.236 31.381 75.605 31.45c17.579 0 31.659-14.165 31.659-31.915 0.034-5.641-1.455-11.187-4.309-16.051-2.85-4.868-6.963-8.87-11.904-11.597-3.733-2.044-7.765-3.482-11.947-4.267-3.499-0.725-16.896-2.133-23.168-7.808-3.797-2.965-6.903-6.724-9.101-11.012s-3.43-9.007-3.614-13.82c-0.043-10.355 4.002-20.309 11.264-27.691 12.672-12.757 29.568-19.84 47.872-19.84 11.413 0.043 22.703 2.338 33.229 6.746 10.526 4.412 20.079 10.85 28.113 18.953s14.396 17.711 18.718 28.271c4.322 10.564 6.519 21.871 6.468 33.284 0 43.264-28.843 81.621-66.859 98.603-5.632 2.859-14.763 4.992-23.211 7.125-6.993 1.442-14.037 2.624-21.12 3.541-29.568 3.584-103.424 26.965-108.373 92.928 0 0-21.76-99.328-65.451-126.293-4.181-2.133-9.813-4.267-16.171-5.675-6.315-1.408-13.312-2.133-15.488-2.133-71.040-4.267-146.347 18.475-198.4 72.363 0 0-35.2 29.099-53.461 110.677-4.224 19.883-12.672 55.381-17.579 88.747-2.133 11.989-2.859 21.248-3.541 29.781 0 34.731 21.12 58.155 47.829 61.653h143.573c24.576 0 38.699 6.4 47.829 14.933 11.947 11.349 14.805 27.691 14.805 46.848v149.675c3.413 26.24 26.752 48.256 61.184 48.256h16.896c7.040 0 15.488-0.725 23.211-1.408 5.632-0.725 10.539-2.133 18.987-4.267 42.923-10.667 52.053-54.613 52.053-54.613l121.771-21.333c38.699-7.083 134.4-13.483 152.661-110.677 42.923-231.253 16.896-455.467 14.805-455.467-30.293-218.496-210.389-207.829-210.389-207.829-30.903-0.627-61.214 8.559-86.571 26.24zM679.851 463.829c-1.408-3.584-2.816-7.808-2.133-9.941 0.768-2.133 2.176-2.816 3.584-3.541 8.448-4.267 22.485-6.4 42.923-8.533 20.395-2.133 34.475-3.541 43.605-2.133 1.408 0 2.859 0.725 4.267 2.859s0.683 6.4 0.683 9.941c-2.133 19.157-19.712 33.323-42.923 36.181-23.253 2.133-42.923-7.125-50.005-24.832z" />
<glyph unicode="&#xe92b;" glyph-name="evernote-line" d="M448 597.333c0-11.316-4.497-22.168-12.497-30.17s-18.854-12.497-30.17-12.497h-149.291c-14.336 0-21.376-11.136-21.376-22.699 0-56.32 10.837-101.205 28.331-136.235 9.216-18.475 17.024-28.587 22.315-33.707 31.36-32.427 80.469-49.493 131.925-46.464 4.053 0.256 8.491 2.731 14.165 8.875 3.537 3.785 6.601 7.983 9.131 12.501 8.738 19.989 24.798 35.87 44.881 44.386 20.083 8.512 42.667 9.011 63.108 1.395 29.568-11.008 54.485-18.517 77.355-23.893 8.363-1.963 16-3.541 25.003-5.205-3.285 0.597 17.152-3.157 22.101-4.181 14.507-2.987 25.515-6.229 37.675-12.373 29.734-14.899 55.642-36.429 75.733-62.933 1.92 25.216 3.285 54.101 3.712 86.443 1.387 95.458-6.601 190.819-23.851 284.715-3.157 16.981-10.069 23.979-28.288 30.635-8.162 2.861-16.538 5.072-25.045 6.613-6.272 1.195-27.733 4.693-29.568 5.035-33.284 5.786-66.564 11.603-99.84 17.451l-22.528 3.925c-14.566 2.557-28.22 8.857-39.62 18.282s-20.156 21.65-25.404 35.478c-0.478 1.254-0.96 2.505-1.451 3.755-9.941 1.139-19.947 1.652-29.952 1.536-11.563 0-16.555-5.291-16.555-19.755v-150.912zM713.813 100.736c15.019 15.189 23.893 35.371 25.045 56.619 2.304 44.203-35.157 105.813-98.859 112.384-26.325 2.688-67.669 13.056-121.259 33.024 0 0-29.867-68.395-96.427-72.363-71.040-4.267-146.347 18.475-198.4 72.363 0 0-74.581 69.973-74.581 229.205 0 34.731 12.373 60.672 27.648 81.237 40.96 55.125 106.88 118.613 176.341 183.637 30.677 28.757 60.587 56.491 111.232 56.491 87.040 0 98.987-28.331 111.147-60.331l121.771-21.291c38.699-7.083 134.4-13.483 152.661-110.677 42.923-231.253 19.541-421.12 14.805-455.467-30.293-218.496-203.605-207.829-210.389-207.829-87.851 0-135.595 58.581-135.808 114.219-0.064 16.947 3.925 33.664 11.627 48.759 7.706 15.095 18.901 28.13 32.661 38.025 19.017 13.517 41.826 20.655 65.152 20.395 13.013 0 29.312-13.568 29.312-32.128 0-15.787-10.88-24.533-16.299-27.52-9.515-5.291-47.872-7.424-47.872-36.907 0-13.525 14.933-47.531 59.136-47.531 25.088 0 46.677 10.923 61.312 25.685h0.043zM637.184 506.496c7.083 17.707 26.752 26.965 50.005 24.832 23.211-2.859 40.789-17.067 42.923-36.181 0-3.541 0.725-7.808-0.725-9.941-1.365-2.133-2.816-2.859-4.267-2.859-9.088-1.408-23.168 0-43.563 2.133-20.48 2.133-34.475 4.267-42.923 8.533-1.408 0.725-2.816 1.408-3.541 3.541s0.683 6.4 2.133 9.941h-0.043z" />
<glyph unicode="&#xe92c;" glyph-name="facebook-box-fill" d="M657.152 64v297.216h99.541l14.891 115.541h-114.432v73.728c0 33.451 9.301 56.277 57.259 56.277h61.184v103.339c-29.619 3.143-59.388 4.667-89.173 4.565-88.192 0-148.565-53.845-148.565-152.747v-85.163h-99.755v-115.541h99.755v-297.216h-367.189c-11.316 0-22.168 4.497-30.17 12.497s-12.497 18.854-12.497 30.17v682.667c0 11.316 4.495 22.168 12.497 30.17s18.854 12.497 30.17 12.497h682.667c11.315 0 22.17-4.495 30.17-12.497s12.497-18.854 12.497-30.17v-682.667c0-11.315-4.497-22.17-12.497-30.17s-18.854-12.497-30.17-12.497h-196.181z" />
<glyph unicode="&#xe92d;" glyph-name="facebook-box-line" d="M597.333 149.333h213.333v597.333h-597.333v-597.333h298.667v213.333h-85.333v85.333h85.333v70.571c0 57.045 5.973 77.739 17.067 98.603 10.927 20.643 27.819 37.517 48.469 48.427 16.299 8.747 36.565 13.995 71.979 16.256 14.037 0.896 32.213-0.213 54.528-3.413v-81.067h-21.376c-39.125 0-55.296-1.835-64.939-6.997-5.756-2.959-10.436-7.644-13.397-13.397-5.12-9.643-6.997-19.2-6.997-58.368v-70.613h106.667l-21.333-85.333h-85.333v-213.333zM170.667 832h682.667c11.315 0 22.17-4.495 30.17-12.497s12.497-18.854 12.497-30.17v-682.667c0-11.315-4.497-22.17-12.497-30.17s-18.854-12.497-30.17-12.497h-682.667c-11.316 0-22.168 4.497-30.17 12.497s-12.497 18.854-12.497 30.17v682.667c0 11.316 4.495 22.168 12.497 30.17s18.854 12.497 30.17 12.497z" />
<glyph unicode="&#xe92e;" glyph-name="facebook-circle-fill" d="M512 874.667c-235.648 0-426.667-191.019-426.667-426.667 0-212.949 156.032-389.461 360.021-421.504v298.197h-108.373v123.307h108.373v93.995c0 106.923 63.659 165.973 161.152 165.973 46.677 0 95.488-8.32 95.488-8.32v-104.96h-53.76c-53.035 0-69.547-32.896-69.547-66.645v-80.043h118.315l-18.901-123.307h-99.413v-298.197c203.947 32 359.979 208.597 359.979 421.504 0 235.648-191.019 426.667-426.667 426.667z" />
<glyph unicode="&#xe92f;" glyph-name="facebook-circle-line" d="M554.667 109.312c86.071 10.953 164.74 54.268 220.023 121.139 55.283 66.876 83.025 152.29 77.594 238.882-5.436 86.596-43.635 167.872-106.842 227.312-63.211 59.439-146.675 92.581-233.442 92.688-86.871 0.065-170.498-32.996-233.841-92.445s-101.636-140.813-107.076-227.512c-5.44-86.703 22.383-172.215 77.798-239.117 55.416-66.897 134.255-110.153 220.453-120.947v253.355h-85.333v85.333h85.333v70.571c0 57.045 5.973 77.739 17.067 98.603 10.927 20.643 27.819 37.517 48.469 48.427 16.299 8.747 36.565 13.995 71.979 16.256 14.037 0.896 32.213-0.213 54.528-3.413v-81.067h-21.376c-39.125 0-55.296-1.835-64.939-6.997-5.756-2.959-10.436-7.644-13.397-13.397-5.12-9.643-6.997-19.2-6.997-58.368v-70.613h106.667l-21.333-85.333h-85.333v-253.355zM512 21.333c-235.648 0-426.667 191.019-426.667 426.667s191.019 426.667 426.667 426.667c235.648 0 426.667-191.019 426.667-426.667s-191.019-426.667-426.667-426.667z" />
<glyph unicode="&#xe930;" glyph-name="facebook-fill" d="M597.333 384h106.667l42.667 170.667h-149.333v85.333c0 43.947 0 85.333 85.333 85.333h64v143.36c-13.909 1.835-66.432 5.973-121.899 5.973-115.84 0-198.101-70.699-198.101-200.533v-119.467h-128v-170.667h128v-362.667h170.667v362.667z" />
<glyph unicode="&#xe931;" glyph-name="facebook-line" d="M554.667 576h192l-21.333-85.333h-170.667v-384h-85.333v384h-170.667v85.333h170.667v79.872c0 76.075 7.936 103.68 22.784 131.499 14.549 27.485 37.026 49.962 64.512 64.512 27.819 14.848 55.424 22.784 131.499 22.784 22.272 0 41.813-2.133 58.539-6.4v-78.933h-58.539c-56.491 0-73.685-3.328-91.221-12.715-12.971-6.912-22.613-16.555-29.525-29.525-9.387-17.536-12.715-34.731-12.715-91.221v-79.872z" />
<glyph unicode="&#xe932;" glyph-name="figma-line" d="M647.565 874.667c43.26 0 84.745-16.884 115.332-46.939s47.77-70.818 47.77-113.321c0-42.504-17.182-83.267-47.77-113.321-7.59-7.457-15.851-14.103-24.644-19.882 8.794-5.779 17.054-12.425 24.644-19.882 30.588-30.053 47.77-70.817 47.77-113.321s-17.182-83.264-47.77-113.318c-30.588-30.054-72.073-46.942-115.332-46.942-39.906 0-78.302 14.37-108.028 40.192v-146.338c0-42.505-17.186-83.268-47.774-113.323s-72.071-46.938-115.328-46.938c-43.257 0-84.743 16.883-115.33 46.938s-47.771 70.818-47.771 113.323c0 42.505 17.184 83.264 47.771 113.323 7.59 7.454 15.85 14.101 24.642 19.883-8.792 5.777-17.053 12.425-24.642 19.883-30.587 30.054-47.771 70.814-47.771 113.318s17.184 83.268 47.771 113.321c7.589 7.457 15.849 14.103 24.641 19.882-8.792 5.779-17.052 12.425-24.641 19.882-30.587 30.054-47.771 70.817-47.771 113.321s17.184 83.266 47.771 113.321c30.587 30.054 72.073 46.939 115.33 46.939h271.13zM647.565 608.26c28.651 0 56.128 11.183 76.386 31.090 20.262 19.906 31.642 46.905 31.642 75.057s-11.379 55.15-31.642 75.057c-20.258 19.906-47.735 31.089-76.386 31.089h-108.028v-212.293h108.028zM647.415 554.147c-28.599-0.039-56.013-11.218-76.237-31.087-20.258-19.908-31.642-46.908-31.642-75.059s11.383-55.151 31.642-75.055c20.258-19.908 47.735-31.091 76.386-31.091s56.128 11.183 76.386 31.091c20.262 19.904 31.642 46.903 31.642 75.055s-11.379 55.151-31.642 75.059c-20.258 19.904-47.735 31.088-76.386 31.087h-0.149zM376.435 554.147h108.028v-212.293h-108.028c-28.651 0-56.128 11.183-76.387 31.091-20.259 19.904-31.641 46.903-31.641 75.055s11.381 55.151 31.641 75.059c20.259 19.904 47.736 31.088 76.387 31.087zM484.463 820.553v-212.293h-108.145c-28.609 0.030-56.039 11.21-76.271 31.089-20.259 19.906-31.641 46.905-31.641 75.057s11.381 55.15 31.641 75.057c20.259 19.906 47.736 31.089 76.387 31.089h108.028zM376.435 287.74c-28.651 0-56.128-11.183-76.387-31.091-20.259-19.904-31.641-46.903-31.641-75.055s11.381-55.151 31.641-75.055c20.259-19.908 47.736-31.091 76.387-31.091s56.128 11.183 76.387 31.091c20.258 19.904 31.642 46.903 31.642 75.055v106.146h-108.028z" />
<glyph unicode="&#xe933;" glyph-name="finder-fill" d="M896 832c23.552 0 42.667-19.115 42.667-42.667v-682.667c0-23.552-19.115-42.667-42.667-42.667h-768c-23.552 0-42.667 19.115-42.667 42.667v682.667c0 23.552 19.115 42.667 42.667 42.667h768zM853.333 746.667h-361.173c-29.44-84.352-44.16-198.144-44.16-341.333h128c-4.907-39.253-6.4-80.128-4.565-122.752 52.309 9.003 115.371 33.152 171.819 72.96l48.427-71.040c-70.059-46.72-140.928-75.904-212.309-87.168 2.219-15.787 4.821-31.787 7.851-48h266.112v597.333zM279.68 355.499l-47.36-70.997c92.032-61.355 185.472-92.501 279.68-92.501v85.333c-76.459 0-153.685 25.728-232.32 78.165zM725.333 661.333c23.552 0 42.667-19.115 42.667-42.667v-42.667c0-23.552-19.115-42.667-42.667-42.667s-42.667 19.115-42.667 42.667v42.667c0 23.552 19.115 42.667 42.667 42.667zM298.667 661.333c-23.552 0-42.667-19.285-42.667-42.667v-42.667c0-23.552 19.115-42.667 42.667-42.667s42.667 19.2 42.667 42.667v42.667c0 23.552-19.115 42.667-42.667 42.667z" />
<glyph unicode="&#xe934;" glyph-name="finder-line" d="M896 832c23.552 0 42.667-19.115 42.667-42.667v-682.667c0-23.552-19.115-42.667-42.667-42.667h-768c-23.552 0-42.667 19.115-42.667 42.667v682.667c0 23.552 19.115 42.667 42.667 42.667h768zM447.147 746.709l-276.48-0.043v-597.333h373.163c-2.645 14.677-4.949 29.184-6.955 43.52-12.672-0.555-20.949-0.853-24.875-0.853-94.208 0-187.648 31.147-279.68 92.501l47.36 70.997c78.635-52.437 155.861-78.165 232.32-78.165 5.675 0 11.307 0.128 16.981 0.427-1.024 21.205-1.024 60.16 0.299 84.907h-123.947v42.667c0 139.733 13.653 253.44 41.813 341.376zM537.6 746.709c-28.373-67.541-44.544-188.203-46.507-298.709h133.248l-5.973-47.957c-4.309-34.347-5.845-70.187-4.608-107.52 43.221 12.8 86.656 33.707 130.56 62.976l47.36-70.997c-56.32-37.547-113.152-63.787-170.368-78.507 2.432-18.475 5.547-37.376 9.344-56.619l222.677-0.043v597.333l-315.733 0.043zM298.667 661.333c23.552 0 42.667-19.115 42.667-42.667v-42.667c0-23.552-19.115-42.667-42.667-42.667s-42.667 19.115-42.667 42.667v42.667c0 23.552 19.115 42.667 42.667 42.667zM725.333 661.333c23.552 0 42.667-19.115 42.667-42.667v-42.667c0-23.552-19.115-42.667-42.667-42.667s-42.667 19.115-42.667 42.667v42.667c0 23.552 19.115 42.667 42.667 42.667z" />
<glyph unicode="&#xe935;" glyph-name="firefox-fill" d="M512 874.667c235.648 0 426.667-191.019 426.667-426.667s-191.019-426.667-426.667-426.667c-235.648 0-426.667 191.019-426.667 426.667 0 62.464 13.397 121.771 37.547 175.189 19.883 40.064 52.608 79.957 78.933 93.611-27.861-54.741-41.515-108.373-44.373-144.341 19.371 64 56.107 117.632 107.52 155.477 88.149 64.811 206.848 67.712 254.123 26.453-87.723-30.165-183.296-151.381-162.261-293.376 3.413-23.467 10.453-46.251 20.864-67.499-16.384 43.093-17.835 103.808 8.619 143.275 29.525 43.947 71.595 53.248 94.123 48.469-8.875 1.877-28.501-35.669-31.403-42.283-7.381-16.811-11.051-34.987-10.709-53.333 0.636-38.332 16.439-74.846 43.947-101.547 82.005-79.829 214.315-48.427 273.579 42.752 40.661 62.763 45.611 169.301-6.613 253.952-13.030 20.613-28.565 39.53-46.251 56.32-78.933 75.349-191.147 109.653-297.899 94.080-47.189-7.552-87.339-21.163-120.491-40.789 46.293 46.208 138.24 80.256 227.413 80.256z" />
<glyph unicode="&#xe936;" glyph-name="firefox-line" d="M512 874.667c235.648 0 426.667-191.019 426.667-426.667s-191.019-426.667-426.667-426.667c-235.648 0-426.667 191.019-426.667 426.667 0 62.464 13.397 121.771 37.547 175.189 19.883 40.064 52.608 79.957 78.933 93.611-27.861-54.741-41.515-108.373-44.373-144.341 19.371 64 56.107 117.632 107.52 155.477 88.149 64.811 206.848 67.712 254.123 26.453-87.723-30.165-183.296-151.381-162.261-293.376 3.413-23.467 10.453-46.251 20.864-67.499-16.384 43.093-17.835 103.808 8.619 143.275 29.525 43.947 71.595 53.248 94.123 48.469-8.875 1.877-28.501-35.669-31.403-42.283-7.381-16.811-11.051-34.987-10.709-53.333 0.636-38.332 16.439-74.846 43.947-101.547 82.005-79.829 214.315-48.427 273.579 42.752 40.661 62.763 45.611 169.301-6.613 253.952-13.030 20.613-28.565 39.53-46.251 56.32-78.933 75.349-191.147 109.653-297.899 94.080-47.189-7.552-87.339-21.163-120.491-40.789 46.293 46.208 138.24 80.256 227.413 80.256zM293.333 631.253c-96.128-33.323-149.376-135.253-110.037-275.627 19.68-69.901 61.129-131.708 118.327-176.448 57.199-44.736 127.172-70.080 199.753-72.341l10.624-0.171c86.865-0.004 170.466 33.109 233.766 92.599 63.305 59.486 101.542 140.873 106.927 227.571l0.384 9.045c-5.547-14.891-12.075-28.757-19.755-41.813l-5.973-9.685c-89.771-138.197-285.056-173.867-404.48-57.515-16.246 15.761-30.076 33.835-41.045 53.632l-4.523 8.576c-74.069 16.512-110.251 56.576-108.501 120.192 1.152 42.283 9.813 83.627 24.533 122.027v-0.043z" />
<glyph unicode="&#xe937;" glyph-name="flutter-fill" d="M576.132 874.625l-426.669-426.668 131.541-131.541 558.082 558.209h-262.955zM575.876 482.176l-229.335-231.296 229.207-229.547h264.064l-229.845 230.4 229.931 230.4-264.021 0.043z" />
<glyph unicode="&#xe938;" glyph-name="flutter-line" d="M622.801 504.154h120.661l-241.365-241.408 241.365-241.323h-120.661l-241.365 241.408 241.365 241.323zM614.524 874.5h120.704l-482.73-482.73-60.331 60.331 422.357 422.4z" />
<glyph unicode="&#xe939;" glyph-name="gatsby-fill" d="M512 874.667c-234.667 0-426.667-192-426.667-426.667s192-426.667 426.667-426.667c234.667 0 426.667 192 426.667 426.667s-192 426.667-426.667 426.667zM274.304 210.304c-64 64-97.536 149.333-97.536 231.595l332.203-329.131c-85.333 3.029-170.667 33.536-234.667 97.536zM585.131 121.899l-399.232 399.232c33.536 149.333 167.637 262.101 326.101 262.101 112.768 0 210.304-54.869 271.232-137.131l-45.696-39.637c-51.883 70.101-134.101 115.883-225.536 115.883-118.869 0-219.435-76.203-259.029-182.869l350.464-350.464c88.363 30.464 155.435 106.667 176.768 198.059h-146.304v60.928h213.333c0-158.464-112.768-292.565-262.101-326.101z" />
<glyph unicode="&#xe93a;" glyph-name="gatsby-line" d="M501.372 21.461c-222.761 5.461-403.199 181.632-415.401 402.688l-0.512 13.355 415.913-416.043zM511.996 874.667c68.612 0.049 136.226-16.469 197.086-48.151s113.169-77.59 152.482-133.823l-69.888-48.981c-35.503 50.704-84.126 90.804-140.663 116.009-56.533 25.205-118.857 34.568-180.305 27.087-61.446-7.481-119.703-31.524-168.54-69.558s-86.416-88.627-108.719-146.37l441.428-441.429c50.645 19.597 95.898 50.97 132.015 91.524s62.063 89.122 75.686 141.692h-181.248v85.333h277.333c0-201.643-139.904-370.603-327.893-415.147l-513.961 513.877c44.587 187.989 213.547 327.936 415.188 327.936z" />
<glyph unicode="&#xe93b;" glyph-name="github-fill" d="M512 874.667c-235.733 0-426.667-190.933-426.667-426.667-0.048-89.57 28.11-176.879 80.479-249.545 52.369-72.661 126.29-126.993 211.276-155.277 21.333-3.712 29.312 9.088 29.312 20.309 0 10.112-0.555 43.691-0.555 79.445-107.179-19.755-134.912 26.112-143.445 50.133-4.821 12.288-25.6 50.133-43.733 60.288-14.933 7.979-36.267 27.733-0.555 28.245 33.621 0.555 57.6-30.933 65.621-43.733 38.4-64.512 99.755-46.379 124.245-35.2 3.755 27.733 14.933 46.379 27.221 57.045-94.933 10.667-194.133 47.488-194.133 210.688 0 46.421 16.512 84.779 43.733 114.688-4.267 10.667-19.2 54.4 4.267 113.067 0 0 35.712 11.179 117.333-43.776 34.735 9.64 70.622 14.492 106.667 14.421 36.267 0 72.533-4.779 106.667-14.379 81.579 55.467 117.333 43.691 117.333 43.691 23.467-58.667 8.533-102.4 4.267-113.067 27.179-29.867 43.733-67.712 43.733-114.645 0-163.755-99.712-200.021-194.645-210.688 15.445-13.312 28.8-38.912 28.8-78.933 0-57.045-0.555-102.912-0.555-117.333 0-11.179 8.021-24.491 29.355-20.224 84.693 28.595 158.289 83.029 210.428 155.639 52.139 72.614 80.192 159.748 80.218 249.139 0 235.733-190.933 426.667-426.667 426.667z" />
<glyph unicode="&#xe93c;" glyph-name="github-line" d="M251.007 164.139c-12.8 8.533-23.808 19.413-36.693 34.816-6.688 8.183-13.316 16.418-19.883 24.704-19.755 24.533-32.213 35.84-45.099 40.491-10.654 3.823-19.352 11.725-24.181 21.961-4.829 10.24-5.393 21.978-1.568 32.631s11.725 19.349 21.963 24.179c10.238 4.83 21.975 5.393 32.629 1.57 32.085-11.52 53.803-31.36 83.072-67.755-4.011 4.992 14.507-18.219 18.475-22.997 8.107-9.685 14.080-15.573 18.773-18.688 8.704-5.845 25.045-8.363 49.067-5.973 0.981 16.299 4.011 32.128 8.619 46.72-126.635 30.976-198.315 112.64-198.315 272.895 0 52.907 15.787 100.523 45.141 140.459-9.301 38.144-7.893 84.267 12.885 136.192 2.358 5.873 5.993 11.149 10.643 15.444s10.196 7.502 16.237 9.388c3.456 1.024 5.419 1.493 8.875 2.005 34.261 5.248 82.645-7.253 145.707-46.763 37.582 8.785 76.050 13.196 114.646 13.141 38.912 0 77.568-4.437 114.517-13.141 63.019 39.808 111.488 52.309 146.005 46.763 3.627-0.555 6.699-1.28 9.301-2.133 5.922-1.953 11.345-5.181 15.885-9.457 4.544-4.275 8.090-9.495 10.398-15.29 20.779-51.883 22.187-98.005 12.885-136.107 29.483-39.936 45.141-87.253 45.141-140.501 0-160.298-71.424-241.706-198.059-272.724 5.333-17.707 8.107-37.504 8.107-58.88 0.004-38.63-0.166-77.257-0.512-115.883 9.583-2.091 18.15-7.42 24.265-15.087s9.399-17.207 9.306-27.012c-0.094-9.809-3.567-19.285-9.826-26.833-6.263-7.548-14.933-12.706-24.555-14.609-48.597-9.728-84.608 22.699-84.608 65.067l0.085 19.029 0.213 30.080c0.213 30.208 0.299 57.088 0.299 85.248 0 29.739-7.808 49.152-18.133 58.027-28.203 24.32-13.909 70.613 23.040 74.752 126.592 14.208 185.045 63.232 185.045 198.826 0 40.747-13.312 74.411-38.955 102.571-5.402 5.92-9.028 13.242-10.462 21.128s-0.619 16.015 2.355 23.459c7.083 17.664 10.112 40.832 4.096 68.864l-0.427-0.128c-20.949-5.931-47.36-18.773-79.275-40.491-5.146-3.493-10.995-5.818-17.135-6.813s-12.42-0.636-18.406 1.053c-36.015 9.972-73.225 14.982-110.592 14.891-37.973 0-75.605-5.077-110.593-14.933-5.964-1.675-12.221-2.031-18.337-1.044s-11.942 3.295-17.076 6.761c-32.085 21.632-58.624 34.432-79.701 40.405-6.144-27.861-3.115-50.944 3.925-68.565 2.979-7.439 3.802-15.567 2.376-23.452s-5.044-15.21-10.44-21.135c-25.472-27.904-38.955-62.208-38.955-102.571 0-135.338 58.496-184.66 184.406-198.826 36.907-4.139 51.243-50.219 23.211-74.581-8.192-7.168-18.304-31.232-18.304-58.197v-134.4c0-42.069-35.628-73.6-83.628-65.195-9.738 1.711-18.58 6.746-25.015 14.255-6.435 7.505-10.063 17.011-10.265 26.897s3.036 19.533 9.16 27.298c6.124 7.761 14.753 13.154 24.413 15.262v42.24c-38.827-2.603-70.912 3.755-96.171 20.693z" />
<glyph unicode="&#xe93d;" glyph-name="gitlab-fill" d="M250.367 842.667l90.965-309.333h341.334l90.965 309.333c1.020 3.509 3.145 6.598 6.054 8.81s6.451 3.433 10.108 3.48c3.652 0.048 7.228-1.079 10.193-3.215 2.97-2.136 5.171-5.167 6.285-8.649l149.12-466.091c1.34-4.194 1.353-8.704 0.030-12.902-1.318-4.203-3.908-7.893-7.411-10.564l-436.011-332.203-436.054 332.203c-3.495 2.675-6.076 6.37-7.39 10.569-1.314 4.203-1.296 8.708 0.051 12.898l149.12 466.091c1.11 3.482 3.308 6.517 6.272 8.657s6.536 3.271 10.191 3.228c3.655-0.043 7.2-1.258 10.112-3.467s5.039-5.294 6.066-8.802v-0.043z" />
<glyph unicode="&#xe93e;" glyph-name="gitlab-line" d="M242.345 647.935l-77.653-252.329 347.308-265.131 347.307 265.131-77.653 252.329-71.552-157.268h-396.247l-71.467 157.268h-0.043zM655.232 575.999l123.221 271.104c1.429 3.16 3.785 5.81 6.758 7.596s6.421 2.624 9.886 2.401c3.46-0.223 6.771-1.495 9.493-3.646 2.718-2.152 4.719-5.082 5.734-8.4l143.659-466.985c1.28-4.164 1.254-8.623-0.073-12.77-1.327-4.151-3.895-7.795-7.351-10.441l-434.56-331.733-434.519 331.733c-3.459 2.645-6.025 6.289-7.352 10.441-1.327 4.147-1.352 8.606-0.072 12.77l143.659 466.985c1.013 3.318 3.014 6.248 5.734 8.4s6.032 3.424 9.494 3.646c3.462 0.222 6.909-0.615 9.882-2.401s5.332-4.436 6.762-7.596l123.221-271.104h286.423z" />
<glyph unicode="&#xe93f;" glyph-name="google-fill" d="M130.731 639.573c35.499 70.688 89.957 130.112 157.288 171.628s144.882 63.49 223.982 63.465c114.987 0 211.584-42.24 285.44-111.147l-122.325-122.368c-44.245 42.283-100.48 63.829-163.115 63.829-111.147 0-205.227-75.093-238.72-175.915-8.533-25.6-13.397-52.907-13.397-81.067s4.864-55.467 13.397-81.067c33.536-100.864 127.573-175.915 238.72-175.915 57.387 0 106.24 15.147 144.469 40.747 22.161 14.592 41.135 33.527 55.774 55.659s24.636 47.002 29.389 73.109h-229.632v165.035h401.835c5.035-27.904 7.765-57.003 7.765-87.253 0-129.963-46.507-239.36-127.232-313.6-70.571-65.195-167.168-103.381-282.368-103.381-56.038-0.021-111.529 10.999-163.305 32.431-51.776 21.436-98.82 52.864-138.444 92.489-39.624 39.62-71.051 86.665-92.486 138.441s-32.454 107.268-32.432 163.307c0 68.864 16.469 133.973 45.397 191.573z" />
<glyph unicode="&#xe940;" glyph-name="google-line" d="M512 490.667h364.075c1.877-16.427 2.859-33.28 2.859-50.517 0-116.651-41.813-214.869-114.261-281.6-63.36-58.496-150.101-92.8-253.525-92.8-50.317-0.021-100.148 9.873-146.641 29.116s-88.737 47.462-124.32 83.042c-35.582 35.575-63.805 77.82-83.054 124.309s-29.149 96.32-29.132 146.637c-0.022 50.321 9.873 100.155 29.12 146.65s47.468 88.742 83.052 124.325c35.583 35.583 77.83 63.805 124.325 83.052s96.329 29.142 146.65 29.12c103.253 0 189.995-37.973 256.341-99.797l-62.379-62.336c-49.408 47.744-116.181 76.8-193.109 76.8-39.223 0-78.059-7.725-114.295-22.735s-69.161-37.009-96.895-64.743c-27.734-27.734-49.733-60.659-64.743-96.895s-22.735-75.071-22.735-114.295c0-39.223 7.725-78.059 22.735-114.295s37.009-69.158 64.743-96.892c27.734-27.738 60.659-49.737 96.895-64.747 36.236-15.006 75.071-22.733 114.295-22.733 150.443 0 262.144 111.275 280.619 256h-280.619v85.333z" />
<glyph unicode="&#xe941;" glyph-name="google-play-fill" d="M153.984 882.604l434.475-434.604-434.432-434.603c-7.725 3.251-14.318 8.708-18.949 15.693s-7.093 15.181-7.078 23.561v790.7c0.003 8.37 2.469 16.555 7.089 23.534s11.191 12.446 18.895 15.719zM618.624 417.835l98.219-98.219-466.645-270.208 368.427 368.427zM755.115 554.284l119.765-69.378c6.464-3.75 11.831-9.131 15.565-15.612 3.729-6.477 5.692-13.82 5.692-21.295s-1.963-14.818-5.692-21.295c-3.733-6.477-9.101-11.861-15.565-15.612l-119.808-69.376-106.283 106.283 106.325 106.284zM250.197 846.594l466.688-270.165-98.261-98.263-368.427 368.428z" />
<glyph unicode="&#xe942;" glyph-name="google-play-line" d="M170.667 886.021c7.508-0.006 14.882-1.993 21.376-5.76l682.837-395.35c6.464-3.75 11.831-9.135 15.565-15.612 3.729-6.477 5.692-13.82 5.692-21.295s-1.963-14.818-5.692-21.295c-3.733-6.477-9.101-11.861-15.565-15.612l-682.837-395.349c-6.484-3.755-13.842-5.734-21.334-5.739-7.492-0.009-14.854 1.958-21.346 5.696-6.491 3.742-11.883 9.126-15.633 15.612s-5.726 13.845-5.73 21.338v790.699c0 11.316 4.495 22.168 12.497 30.17s18.854 12.497 30.17 12.497zM524.459 387.674l-191.915-191.915 243.157 140.757-51.2 51.2-0.043-0.043zM213.333 698.97v-501.76l250.88 250.88-250.88 250.88zM652.117 515.418l-67.328-67.413 67.328-67.285 116.224 67.285-116.224 67.413zM332.544 700.421l192-192 51.157 51.2-243.157 140.8z" />
<glyph unicode="&#xe943;" glyph-name="honor-of-kings-fill" d="M902.741 778.322c1.451-149.333 25.216-205.269 33.621-285.911 12.843-123.477-28.032-251.477-122.667-346.112-156.416-156.416-404.097-165.973-571.735-28.715l121.685 121.728c100.012-71.253 239.66-62.037 329.388 27.648 89.685 89.728 98.901 229.419 27.648 329.388l182.059 181.973zM781.995 778.408l-121.643-121.728c-100.011 71.253-239.66 62.037-329.388-27.648-89.685-89.728-98.901-229.377-27.648-329.388l-182.059-181.973c-1.451 149.333-25.216 205.269-33.621 285.909-12.843 123.477 28.032 251.479 122.667 346.113 156.416 156.416 404.097 165.973 571.735 28.715h-0.043zM512 618.664c94.293 0 170.667-76.373 170.667-170.668 0-94.293-76.373-170.667-170.667-170.667-94.295 0-170.668 76.373-170.668 170.667s76.373 170.668 170.668 170.668zM512 511.996c-35.328 0-64-28.672-64-64s28.672-64 64-64c35.328 0 64 28.672 64 64s-28.672 64-64 64z" />
<glyph unicode="&#xe944;" glyph-name="honor-of-kings-line" d="M781.995 778.408l-60.715-60.715c-133.888 104.192-327.553 94.72-450.647-28.331-101.291-101.291-125.611-250.369-72.96-374.615l103.125 103.125c-9.088 64.128 11.008 131.628 60.331 180.993 72.961 72.96 185.687 82.005 268.503 27.136l-62.464-62.464c-47.573 22.699-106.24 14.379-145.665-25.045-39.424-39.383-47.787-98.092-25.045-145.665l-275.2-275.2c-1.451 149.333-25.216 205.312-33.621 285.952-12.843 123.477 28.032 251.479 122.667 346.113 156.416 156.416 404.097 165.973 571.735 28.715h-0.043zM902.741 778.322c1.451-149.333 25.216-205.269 33.621-285.911 12.843-123.477-28.032-251.477-122.667-346.112-156.416-156.416-404.097-165.973-571.735-28.715l60.757 60.715c133.889-104.192 327.553-94.72 450.647 28.331 101.291 101.291 125.611 250.368 72.96 374.615l-103.125-103.127c9.088-64.128-11.008-131.627-60.331-180.992-72.96-72.96-185.685-82.005-268.503-27.136l62.465 62.464c47.573-22.699 106.24-14.379 145.664 25.045 39.424 39.381 47.787 98.091 25.045 145.664l275.2 275.159z" />
<glyph unicode="&#xe945;" glyph-name="ie-fill" d="M367.444 101.542c-117.077-63.573-218.155-76.757-274.005-20.907-57.344 57.173-26.795 206.976 56.021 357.248 42.071 76.437 94.063 146.98 154.624 209.792 7.979 7.979 48 47.957 50.645 47.957 0 0-21.333-13.355-23.979-13.355-83.2-46.72-156.288-131.413-172.245-150.4 20.184 90.059 72.115 169.841 146.293 224.754s165.649 81.287 257.676 74.297c132.053 59.819 254.891 73.643 306.859 21.76 48-47.915 45.312-127.787 5.333-223.659-0.427-0.896-0.768-1.835-1.152-2.731 28.873-54.993 43.913-116.194 43.819-178.304 0-16.213-0.981-32.128-2.944-47.787h-34.304c-2.022-0.077-4.041-0.119-6.059-0.128h-503.298v-7.979c2.645-85.205 77.314-159.744 167.98-159.744 64 0 125.312 34.603 151.979 85.205h203.947c-18.231-50.492-46.839-96.602-83.985-135.356s-82.001-69.295-131.674-89.647c-49.673-20.356-103.057-30.071-156.719-28.527-53.658 1.549-106.396 14.327-154.813 37.508zM341.545 115.238c-78.549 45.385-138.563 117.035-169.472 202.325-49.536-97.365-62.293-178.773-20.011-221.013 34.688-34.645 104.021-26.624 189.355 18.603l0.128 0.085zM860.672 648.87c0.209 0.484 0.422 0.968 0.64 1.451 32 69.205 34.688 127.744 5.333 162.389-37.077 37.035-108.373 32-192.939-7.168 77.641-30.602 143.249-85.581 186.965-156.672zM706.688 501.244v2.603c-5.333 87.893-74.667 154.453-160 154.453-90.667 0-167.938-71.893-173.271-154.453v-2.645l333.271 0.043z" />
<glyph unicode="&#xe946;" glyph-name="ie-line" d="M774.784 533.329c-17.643 49.952-50.338 93.203-93.585 123.796s-94.916 47.021-147.887 47.021c-52.975 0-104.644-16.428-147.892-47.021-43.247-30.592-75.942-73.844-93.581-123.796h482.946zM280.873 405.329c8.774-51.699 33.209-99.46 70.002-136.828 36.793-37.363 84.171-62.532 135.729-72.107 51.558-9.57 104.815-3.085 152.567 18.586s87.701 57.476 114.449 102.583h140.971c-18.231-50.483-46.839-96.589-83.981-135.339-37.141-38.754-81.993-69.291-131.661-89.643s-103.049-30.071-156.702-28.527c-53.653 1.54-106.39 14.315-154.805 37.487-117.077-63.616-218.155-76.8-274.005-20.949-57.344 57.173-26.795 206.976 56.021 357.248 30.558 55.356 66.257 107.709 106.624 156.374 15.317 18.475 31.36 36.352 48 53.419-11.733-2.347-80.213-36.309-145.579-115.798 20.184 90.060 72.115 169.842 146.293 224.755s165.649 81.287 257.676 74.296c132.053 59.819 254.891 73.643 306.859 21.76 48-47.915 45.312-127.787 5.333-223.659-0.427-0.896-0.768-1.835-1.152-2.731 28.864-54.98 43.904-116.165 43.819-178.262 0-14.421-0.811-28.672-2.347-42.667h-634.114zM341.545 115.238c-78.549 45.389-138.563 117.035-169.472 202.325-49.536-97.365-62.293-178.773-20.011-221.013 34.688-34.645 104.021-26.624 189.355 18.603l0.128 0.085zM860.672 648.871c0.209 0.484 0.422 0.968 0.64 1.451 32 69.205 34.688 127.744 5.333 162.389-37.077 37.035-108.373 32-192.939-7.168 77.641-30.601 143.249-85.581 186.965-156.672z" />
<glyph unicode="&#xe947;" glyph-name="instagram-fill" d="M512 874.667c115.925 0 130.389-0.427 175.872-2.56 45.44-2.133 76.373-9.259 103.595-19.84 28.16-10.837 51.883-25.515 75.605-49.195 21.696-21.329 38.485-47.129 49.195-75.605 10.539-27.179 17.707-58.155 19.84-103.595 2.005-45.483 2.56-59.947 2.56-175.872s-0.427-130.389-2.56-175.872c-2.133-45.44-9.301-76.373-19.84-103.595-10.679-28.493-27.473-54.298-49.195-75.605-21.333-21.687-47.134-38.477-75.605-49.195-27.179-10.539-58.155-17.707-103.595-19.84-45.483-2.005-59.947-2.56-175.872-2.56s-130.389 0.427-175.872 2.56c-45.44 2.133-76.373 9.301-103.595 19.84-28.487 10.688-54.292 27.482-75.605 49.195-21.7 21.325-38.488 47.125-49.195 75.605-10.581 27.179-17.707 58.155-19.84 103.595-2.005 45.483-2.56 59.947-2.56 175.872s0.427 130.389 2.56 175.872c2.133 45.483 9.259 76.373 19.84 103.595 10.677 28.494 27.469 54.301 49.195 75.605 21.319 21.708 47.122 38.497 75.605 49.195 27.221 10.581 58.112 17.707 103.595 19.84 45.483 2.005 59.947 2.56 175.872 2.56zM512 661.333c-56.58 0-110.842-22.476-150.849-62.484s-62.484-94.269-62.484-150.849c0-56.58 22.476-110.844 62.484-150.848 40.008-40.009 94.269-62.485 150.849-62.485s110.844 22.477 150.848 62.485c40.009 40.004 62.485 94.268 62.485 150.848s-22.477 110.842-62.485 150.849c-40.004 40.008-94.268 62.484-150.848 62.484zM789.333 672c0 14.145-5.619 27.71-15.62 37.712s-23.569 15.621-37.713 15.621c-14.144 0-27.712-5.619-37.713-15.621s-15.62-23.567-15.62-37.712c0-14.145 5.619-27.71 15.62-37.712s23.569-15.621 37.713-15.621c14.144 0 27.712 5.619 37.713 15.621s15.62 23.567 15.62 37.712zM512 576c33.946 0 66.505-13.486 90.509-37.49s37.491-56.564 37.491-90.51c0-33.946-13.487-66.505-37.491-90.509s-56.563-37.491-90.509-37.491c-33.946 0-66.505 13.487-90.51 37.491s-37.49 56.563-37.49 90.509c0 33.946 13.486 66.505 37.49 90.51s56.564 37.49 90.51 37.49z" />
<glyph unicode="&#xe948;" glyph-name="instagram-line" d="M512 576c-33.946 0-66.505-13.486-90.51-37.49s-37.49-56.564-37.49-90.51c0-33.946 13.486-66.505 37.49-90.509s56.564-37.491 90.51-37.491c33.946 0 66.505 13.487 90.509 37.491s37.491 56.563 37.491 90.509c0 33.946-13.487 66.505-37.491 90.51s-56.563 37.49-90.509 37.49zM512 661.333c56.58 0 110.844-22.476 150.848-62.484 40.009-40.008 62.485-94.269 62.485-150.849s-22.477-110.844-62.485-150.848c-40.004-40.009-94.268-62.485-150.848-62.485s-110.842 22.477-150.849 62.485c-40.008 40.004-62.484 94.268-62.484 150.848s22.476 110.842 62.484 150.849c40.008 40.008 94.269 62.484 150.849 62.484zM789.333 672c0-14.145-5.619-27.71-15.62-37.712s-23.569-15.621-37.713-15.621c-14.144 0-27.712 5.619-37.713 15.621s-15.62 23.567-15.62 37.712c0 14.145 5.619 27.71 15.62 37.712s23.569 15.621 37.713 15.621c14.144 0 27.712-5.619 37.713-15.621s15.62-23.567 15.62-37.712zM512 789.333c-105.557 0-122.795-0.299-171.904-2.475-33.451-1.579-55.893-6.059-76.715-14.165-18.517-7.168-31.872-15.744-46.080-29.995-13.354-12.902-23.622-28.654-30.037-46.080-8.107-20.907-12.587-43.307-14.123-76.715-2.219-47.104-2.475-63.573-2.475-171.904 0-105.557 0.299-122.795 2.475-171.904 1.579-33.408 6.059-55.893 14.123-76.672 7.253-18.56 15.787-31.915 29.952-46.080 14.379-14.336 27.733-22.912 46.080-29.995 21.077-8.149 43.52-12.672 76.8-14.208 47.104-2.219 63.573-2.475 171.904-2.475 105.557 0 122.795 0.299 171.904 2.475 33.365 1.579 55.851 6.059 76.672 14.123 18.475 7.211 31.915 15.787 46.080 29.952 14.379 14.379 22.955 27.733 30.037 46.080 8.107 21.035 12.629 43.52 14.165 76.8 2.219 47.104 2.475 63.573 2.475 171.904 0 105.557-0.299 122.795-2.475 171.904-1.579 33.365-6.059 55.893-14.165 76.715-6.43 17.408-16.678 33.154-29.995 46.080-12.898 13.361-28.651 23.63-46.080 30.037-20.907 8.107-43.349 12.587-76.715 14.123-47.104 2.219-63.573 2.475-171.904 2.475zM512 874.667c115.925 0 130.389-0.427 175.872-2.56 45.44-2.133 76.373-9.259 103.595-19.84 28.16-10.837 51.883-25.515 75.605-49.195 21.696-21.329 38.485-47.129 49.195-75.605 10.539-27.179 17.707-58.155 19.84-103.595 2.005-45.483 2.56-59.947 2.56-175.872s-0.427-130.389-2.56-175.872c-2.133-45.44-9.301-76.373-19.84-103.595-10.679-28.493-27.473-54.298-49.195-75.605-21.333-21.687-47.134-38.477-75.605-49.195-27.179-10.539-58.155-17.707-103.595-19.84-45.483-2.005-59.947-2.56-175.872-2.56s-130.389 0.427-175.872 2.56c-45.44 2.133-76.373 9.301-103.595 19.84-28.487 10.688-54.292 27.482-75.605 49.195-21.7 21.325-38.488 47.125-49.195 75.605-10.581 27.179-17.707 58.155-19.84 103.595-2.005 45.483-2.56 59.947-2.56 175.872s0.427 130.389 2.56 175.872c2.133 45.483 9.259 76.373 19.84 103.595 10.677 28.494 27.469 54.301 49.195 75.605 21.319 21.708 47.122 38.497 75.605 49.195 27.221 10.581 58.112 17.707 103.595 19.84 45.483 2.005 59.947 2.56 175.872 2.56z" />
<glyph unicode="&#xe949;" glyph-name="invision-fill" d="M170.667 832h682.667c11.315 0 22.17-4.495 30.17-12.497s12.497-18.854 12.497-30.17v-682.667c0-11.315-4.497-22.17-12.497-30.17s-18.854-12.497-30.17-12.497h-682.667c-11.316 0-22.168 4.497-30.17 12.497s-12.497 18.854-12.497 30.17v682.667c0 11.316 4.495 22.168 12.497 30.17s18.854 12.497 30.17 12.497zM298.155 359.893c-2.56-11.392-3.84-23.68-3.84-33.707 0-39.552 20.565-65.792 64.341-65.792 36.309 0 65.749 22.443 86.955 58.667l-12.928-54.059h72.107l41.216 171.989c10.283 43.52 30.293 66.133 60.544 66.133 23.808 0 38.613-15.36 38.613-40.832 0-7.381-0.64-15.403-3.2-24.107l-21.248-79.061c-3.038-10.906-4.561-22.174-4.523-33.493 0-37.547 21.248-64.981 65.707-64.981 37.973 0 68.267 25.429 84.992 86.4l-28.331 11.392c-14.165-40.875-26.453-48.213-36.096-48.213s-14.805 6.656-14.805 20.053c0 6.016 1.28 12.715 3.243 20.779l20.608 77.013c5.12 18.091 7.083 34.133 7.083 48.853 0 57.6-33.493 87.68-74.069 87.68-37.973 0-76.629-35.627-95.915-73.173l14.123 67.371h-110.080l-15.488-59.307h51.541l-31.744-132.181c-24.875-57.6-70.656-58.539-76.373-57.173-9.472 2.176-15.488 5.931-15.488 18.688 0 7.339 1.28 17.92 4.523 30.635l48.299 199.339h-122.368l-15.445-59.307h50.859l-32.853-139.605h0.043zM368 592c12.73 0 24.94 5.057 33.941 14.059s14.059 21.211 14.059 33.941c0 12.73-5.057 24.94-14.059 33.941s-21.211 14.059-33.941 14.059c-12.73 0-24.94-5.057-33.941-14.059s-14.059-21.211-14.059-33.941c0-12.73 5.057-24.94 14.059-33.941s21.211-14.059 33.941-14.059z" />
<glyph unicode="&#xe94a;" glyph-name="invision-line" d="M170.667 832h682.667c11.315 0 22.17-4.495 30.17-12.497s12.497-18.854 12.497-30.17v-682.667c0-11.315-4.497-22.17-12.497-30.17s-18.854-12.497-30.17-12.497h-682.667c-11.316 0-22.168 4.497-30.17 12.497s-12.497 18.854-12.497 30.17v682.667c0 11.316 4.495 22.168 12.497 30.17s18.854 12.497 30.17 12.497zM213.333 746.667v-597.333h597.333v597.333h-597.333zM298.155 359.893l32.853 139.563h-50.944l15.445 59.307h122.368l-48.299-199.253c-2.72-10.027-4.238-20.335-4.523-30.72 0-12.715 6.016-16.469 15.445-18.645 5.76-1.365 51.541-0.427 76.416 57.173l31.744 132.139h-51.541l15.488 59.307h110.080l-14.123-67.328c19.285 37.547 57.941 73.173 95.915 73.173 40.533 0 74.069-30.037 74.069-87.68 0-14.72-1.963-30.763-7.083-48.853l-20.608-77.013c-1.869-6.78-2.957-13.751-3.243-20.779 0-13.397 5.163-20.053 14.805-20.053 9.685 0 21.931 7.339 36.096 48.213l28.331-11.392c-16.768-60.971-47.019-86.4-85.035-86.4-44.416 0-65.664 27.435-65.664 64.981 0 10.667 1.28 22.101 4.523 33.493l21.248 79.061c2.56 8.704 3.2 16.725 3.2 24.107 0 25.429-14.805 40.875-38.613 40.875-30.293 0-50.261-22.613-60.544-66.133l-41.216-172.032h-72.107l12.928 54.059c-21.205-36.267-50.645-58.667-86.955-58.667-43.776 0-64.384 26.24-64.384 65.792 0 10.027 1.28 22.315 3.84 33.707h0.085zM368 592c-12.73 0-24.94 5.057-33.941 14.059s-14.059 21.211-14.059 33.941c0 12.73 5.057 24.94 14.059 33.941s21.211 14.059 33.941 14.059c12.73 0 24.94-5.057 33.941-14.059s14.059-21.211 14.059-33.941c0-12.73-5.057-24.94-14.059-33.941s-21.211-14.059-33.941-14.059z" />
<glyph unicode="&#xe94b;" glyph-name="kakao-talk-fill" d="M512 832c247.424 0 448-156.331 448-349.227 0-192.853-200.576-349.184-448-349.184-24.636-0.013-49.25 1.553-73.685 4.693l-188.075-123.008c-21.376-11.307-28.928-10.069-20.139 17.621l38.059 156.928c-122.88 62.293-204.16 170.24-204.16 292.949 0 192.853 200.576 349.227 448 349.227zM764.032 488.107l62.72 60.757c3.618 3.759 5.636 8.775 5.632 13.993-0.009 5.218-2.039 10.229-5.666 13.979s-8.572 5.945-13.786 6.124c-5.214 0.178-10.295-1.674-14.17-5.167l-82.261-79.616v65.792c0 5.341-2.121 10.464-5.897 14.24-3.78 3.777-8.9 5.899-14.242 5.899s-10.462-2.122-14.242-5.899c-3.776-3.776-5.897-8.899-5.897-14.24v-109.099c-0.755-3.11-0.755-6.362 0-9.472v-61.397c0-5.342 2.121-10.462 5.897-14.242 3.78-3.776 8.9-5.897 14.242-5.897s10.462 2.121 14.242 5.897c3.776 3.78 5.897 8.9 5.897 14.242v58.155l18.219 17.621 60.928-86.741c1.523-2.167 3.456-4.011 5.687-5.427 2.236-1.421 4.727-2.385 7.334-2.842s5.278-0.393 7.859 0.183c2.586 0.576 5.026 1.655 7.194 3.179s4.011 3.456 5.427 5.687c1.421 2.236 2.385 4.727 2.842 7.334s0.393 5.278-0.183 7.859c-0.576 2.586-1.655 5.026-3.179 7.194l-64.597 91.904zM637.824 406.016h-62.293v157.312c-0.239 5.175-2.462 10.060-6.208 13.638s-8.73 5.574-13.909 5.574c-5.18 0-10.163-1.996-13.909-5.574s-5.969-8.463-6.208-13.638v-177.451c0-11.093 8.96-20.139 20.096-20.139h82.432c5.342 0 10.462 2.121 14.242 5.897 3.776 3.78 5.897 8.9 5.897 14.242s-2.121 10.462-5.897 14.242c-3.78 3.776-8.9 5.897-14.242 5.897zM387.925 452.608l29.696 72.832 27.221-72.832h-56.917zM495.573 431.787l0.085 0.683c-0.009 5.073-1.946 9.954-5.419 13.653l-44.629 119.467c-1.869 5.693-5.436 10.68-10.214 14.294s-10.55 5.683-16.538 5.93c-6.031 0.026-11.928-1.784-16.905-5.191s-8.799-8.248-10.956-13.881l-70.869-173.867c-1-2.449-1.508-5.069-1.495-7.714s0.547-5.261 1.571-7.701c1.024-2.436 2.519-4.651 4.398-6.511s4.107-3.337 6.556-4.335c2.449-0.998 5.070-1.506 7.715-1.493s5.261 0.546 7.7 1.57c2.438 1.024 4.652 2.517 6.513 4.399 1.861 1.877 3.334 4.105 4.334 6.554l14.080 34.688h88.32l12.757-34.133c0.866-2.551 2.24-4.902 4.032-6.916 1.792-2.010 3.968-3.644 6.404-4.796 2.436-1.156 5.077-1.809 7.77-1.929 2.692-0.115 5.38 0.311 7.906 1.254 2.522 0.943 4.834 2.385 6.793 4.233 1.958 1.852 3.524 4.079 4.604 6.545 1.084 2.47 1.66 5.129 1.694 7.825 0.038 2.692-0.469 5.367-1.485 7.863l-14.72 39.509zM353.835 563.115c0 5.334-2.116 10.449-5.883 14.225s-8.879 5.903-14.213 5.914h-138.453c-5.341 0-10.464-2.122-14.24-5.899s-5.899-8.899-5.899-14.24c0-5.341 2.122-10.464 5.899-14.24s8.899-5.899 14.24-5.899h49.493v-159.403c0-5.342 2.122-10.462 5.899-14.242 3.776-3.776 8.899-5.897 14.24-5.897s10.464 2.121 14.24 5.897c3.777 3.78 5.899 8.9 5.899 14.242v159.403h48.64c11.136 0 20.139 9.045 20.139 20.139z" />
<glyph unicode="&#xe94c;" glyph-name="kakao-talk-line" d="M242.261 186.752c-110.336 66.432-178.261 171.136-178.261 286.635 0 200.704 202.581 358.613 448 358.613s448-157.909 448-358.613c0-200.704-202.581-358.613-448-358.613-18.859 0-37.632 0.939-56.235 2.773l-160.64-104.875c-26.24-13.909-40.832-18.133-63.36-2.816-26.453 18.091-25.429 38.059-16.256 66.56l26.752 110.336zM149.333 473.387c0-90.965 60.501-175.915 161.323-226.987l30.123-15.317-7.936-32.853-17.109-70.315 119.467 78.080 15.616-1.963c20.181-2.603 40.619-3.925 61.184-3.925 202.283 0 362.667 125.013 362.667 273.28s-160.384 273.28-362.667 273.28c-202.283 0-362.667-125.013-362.667-273.28zM764.032 488.149l64.597-91.947c1.523-2.167 2.603-4.608 3.179-7.194 0.576-2.581 0.64-5.252 0.183-7.859s-1.421-5.099-2.842-7.334c-1.417-2.231-3.26-4.164-5.427-5.687s-4.608-2.603-7.194-3.179c-2.581-0.576-5.252-0.64-7.859-0.183s-5.099 1.421-7.334 2.842c-2.231 1.417-4.164 3.26-5.687 5.427l-60.928 86.741-18.219-17.621v-58.155c0-5.342-2.121-10.462-5.897-14.242-3.78-3.776-8.9-5.897-14.242-5.897s-10.462 2.121-14.242 5.897c-3.776 3.78-5.897 8.9-5.897 14.242v61.397c-0.755 3.11-0.755 6.362 0 9.472v109.099c0 5.341 2.121 10.464 5.897 14.24 3.78 3.777 8.9 5.899 14.242 5.899s10.462-2.122 14.242-5.899c3.776-3.776 5.897-8.899 5.897-14.24v-65.792l82.261 79.616c3.874 3.493 8.956 5.346 14.17 5.167s10.159-2.374 13.786-6.124c3.627-3.75 5.658-8.761 5.666-13.979 0.004-5.218-2.014-10.234-5.632-13.993l-62.72-60.715zM637.824 406.016c5.342 0 10.462-2.121 14.242-5.897 3.776-3.78 5.897-8.9 5.897-14.242s-2.121-10.462-5.897-14.242c-3.78-3.776-8.9-5.897-14.242-5.897h-82.432c-5.333 0.013-10.445 2.138-14.212 5.914s-5.884 8.892-5.884 14.225v177.451c-0.124 2.72 0.303 5.437 1.259 7.987 0.951 2.55 2.415 4.88 4.297 6.848 1.877 1.969 4.139 3.537 6.643 4.607 2.5 1.071 5.197 1.623 7.919 1.623s5.419-0.552 7.919-1.623c2.505-1.071 4.766-2.638 6.643-4.607 1.882-1.969 3.345-4.299 4.297-6.848 0.956-2.55 1.382-5.267 1.259-7.987v-157.312h62.293zM387.925 452.608h56.917l-27.221 72.832-29.696-72.832zM495.573 431.787l14.72-39.467c1.015-2.496 1.523-5.171 1.485-7.863-0.034-2.697-0.61-5.355-1.694-7.825-1.079-2.466-2.645-4.693-4.604-6.545-1.958-1.847-4.271-3.29-6.793-4.233-2.526-0.943-5.214-1.37-7.906-1.25-2.692 0.115-5.333 0.768-7.77 1.924-2.436 1.152-4.612 2.786-6.404 4.796-1.792 2.014-3.166 4.365-4.032 6.916l-12.715 34.091h-88.32l-14.123-34.688c-1-2.449-2.473-4.676-4.334-6.554-1.861-1.882-4.074-3.375-6.513-4.399s-5.055-1.557-7.7-1.57c-2.645-0.013-5.266 0.495-7.715 1.493s-4.676 2.475-6.556 4.335c-1.879 1.86-3.374 4.075-4.398 6.511-1.024 2.441-1.558 5.056-1.571 7.701s0.495 5.265 1.495 7.714l70.827 173.867c2.16 5.639 5.988 10.486 10.974 13.893s10.892 5.214 16.93 5.179c5.987-0.247 11.759-2.317 16.538-5.93s8.346-8.601 10.214-14.294l44.629-119.467c3.473-3.699 5.41-8.58 5.419-13.653l-0.085-0.683zM353.835 563.115c0-11.093-8.96-20.139-20.096-20.139h-48.64v-159.403c0-5.346-2.124-10.475-5.905-14.255s-8.909-5.905-14.255-5.905c-5.347 0-10.475 2.125-14.255 5.905s-5.905 8.909-5.905 14.255v159.403h-49.493c-5.341 0-10.464 2.122-14.24 5.899s-5.899 8.899-5.899 14.24c0 5.341 2.122 10.464 5.899 14.24s8.899 5.899 14.24 5.899h138.453c11.093 0 20.096-9.003 20.096-20.139z" />
<glyph unicode="&#xe94d;" glyph-name="line-fill" d="M796.288 497.493c-0.013-5.948-2.381-11.644-6.588-15.842s-9.911-6.558-15.855-6.558h-62.379v-40.021h62.379c3.021 0.132 6.037-0.35 8.866-1.417 2.833-1.062 5.419-2.692 7.599-4.783 2.185-2.091 3.925-4.604 5.111-7.381 1.19-2.782 1.801-5.773 1.801-8.798s-0.61-6.016-1.801-8.798c-1.186-2.782-2.927-5.295-5.111-7.386-2.18-2.091-4.766-3.716-7.599-4.783-2.829-1.062-5.845-1.545-8.866-1.412h-84.779c-5.909 0.043-11.558 2.415-15.731 6.601-4.169 4.186-6.519 9.847-6.541 15.757v169.642c0 12.245 10.027 22.4 22.4 22.4h84.821c5.939-0.017 11.631-2.393 15.821-6.606s6.532-9.917 6.515-15.858c-0.017-5.941-2.394-11.632-6.605-15.82-4.215-4.189-9.92-6.533-15.859-6.516h-62.379v-40.020h62.379c12.416 0 22.443-10.112 22.443-22.4h-0.043zM621.44 391.467c-2.291-0.725-4.681-1.084-7.083-1.067-3.511-0.077-6.993 0.687-10.146 2.231-3.157 1.545-5.892 3.823-7.987 6.643l-86.869 117.931v-104.533c-0.427-5.632-2.965-10.897-7.108-14.737-4.139-3.84-9.579-5.973-15.228-5.973s-11.089 2.133-15.228 5.973c-4.143 3.84-6.682 9.105-7.108 14.737v169.642c-0.013 5.9 2.317 11.563 6.477 15.746s9.809 6.546 15.71 6.569c6.912 0 13.312-3.669 17.579-9.003l87.552-118.399v105.087c0 12.245 10.027 22.4 22.4 22.4 12.245 0 22.4-10.155 22.4-22.4v-169.642c-0.004-4.702-1.493-9.28-4.25-13.086-2.761-3.81-6.647-6.647-11.11-8.119zM410.24 390.315c-5.915 0.034-11.578 2.402-15.757 6.588s-6.535 9.852-6.558 15.77v169.642c0 12.245 10.069 22.4 22.4 22.4s22.357-10.155 22.357-22.4v-169.642c-0.034-5.935-2.411-11.614-6.616-15.804-4.204-4.186-9.893-6.545-15.827-6.554zM344.96 390.315h-84.779c-5.923 0.034-11.595 2.398-15.787 6.583-4.192 4.181-6.568 9.852-6.613 15.774v169.642c0.489 5.603 3.061 10.82 7.208 14.62s9.567 5.908 15.192 5.908c5.625 0 11.045-2.108 15.192-5.908s6.719-9.016 7.208-14.62v-147.199h62.464c5.941 0 11.638-2.359 15.839-6.562 4.201-4.198 6.561-9.899 6.561-15.838 0-5.943-2.36-11.639-6.561-15.842-4.201-4.198-9.898-6.558-15.839-6.558h-0.085zM512 850.26c-235.221 0-426.667-155.435-426.667-346.367 0-171.093 151.808-314.411 356.821-341.632 13.867-2.901 32.811-9.173 37.589-20.992 4.267-10.667 2.816-27.221 1.365-38.4l-5.845-36.267c-1.579-10.667-8.533-42.155 37.291-22.912 45.909 19.157 245.931 144.981 335.531 247.979 61.269 67.2 90.581 135.979 90.581 212.224 0 190.932-191.488 346.367-426.667 346.367z" />
<glyph unicode="&#xe94e;" glyph-name="line-line" d="M938.667 503.893c0-76.245-29.312-145.067-90.581-212.224-89.6-102.997-289.621-228.821-335.531-247.979-45.824-19.243-38.869 12.245-37.291 22.912l5.845 36.267c1.451 11.179 2.901 27.733-1.365 38.4-4.779 11.819-23.723 18.091-37.589 20.992-205.013 27.221-356.821 170.539-356.821 341.632 0 190.932 191.445 346.367 426.667 346.367 235.179 0 426.667-155.435 426.667-346.367zM785.067 349.227c47.488 52.053 68.267 100.736 68.267 154.667 0 139.434-149.76 261.034-341.333 261.034s-341.333-121.6-341.333-261.034c0-123.947 116.395-234.965 282.709-257.024l6.272-1.109c45.995-9.643 80.384-26.197 99.371-72.875l1.536-4.096c77.056 50.176 178.091 127.147 224.469 180.437h0.043zM773.888 519.893c5.7-0.354 11.055-2.867 14.967-7.027 3.913-4.164 6.093-9.66 6.093-15.373s-2.18-11.213-6.093-15.373c-3.913-4.164-9.267-6.677-14.967-7.027h-62.421v-40.021h62.379c3.021 0.132 6.037-0.35 8.866-1.417 2.833-1.062 5.419-2.692 7.599-4.783 2.185-2.091 3.925-4.604 5.111-7.381 1.19-2.782 1.801-5.773 1.801-8.798s-0.61-6.016-1.801-8.798c-1.186-2.782-2.927-5.295-5.111-7.386-2.18-2.091-4.766-3.716-7.599-4.783-2.829-1.062-5.845-1.545-8.866-1.412h-84.779c-5.909 0.043-11.558 2.415-15.731 6.601-4.169 4.186-6.519 9.847-6.541 15.757v169.642c0 12.245 10.027 22.4 22.4 22.4h84.821c5.939-0.017 11.631-2.393 15.821-6.606s6.532-9.917 6.515-15.858c-0.017-5.941-2.394-11.632-6.605-15.82-4.215-4.189-9.92-6.533-15.859-6.516h-62.379v-40.020h62.379zM636.8 412.672c-0.013-2.935-0.602-5.841-1.737-8.55-1.131-2.709-2.786-5.167-4.873-7.236-2.082-2.065-4.553-3.703-7.27-4.817s-5.628-1.681-8.563-1.668c-3.511-0.077-6.993 0.687-10.146 2.231-3.157 1.545-5.892 3.823-7.987 6.643l-86.869 117.931v-104.533c-0.427-5.632-2.965-10.897-7.108-14.737-4.139-3.84-9.579-5.973-15.228-5.973s-11.089 2.133-15.228 5.973c-4.143 3.84-6.682 9.105-7.108 14.737v169.642c-0.013 5.9 2.317 11.563 6.477 15.746s9.809 6.546 15.71 6.569c6.912 0 13.312-3.669 17.579-9.003l87.552-118.399v105.087c0 12.245 10.027 22.4 22.4 22.4 12.245 0 22.4-10.155 22.4-22.4v-169.642zM432.683 412.672c-0.034-5.935-2.411-11.614-6.616-15.804-4.204-4.186-9.893-6.545-15.827-6.554-5.915 0.034-11.578 2.402-15.757 6.588s-6.535 9.852-6.558 15.77v169.642c0 12.245 10.069 22.4 22.4 22.4s22.357-10.155 22.357-22.4v-169.642zM345.003 390.315h-84.864c-5.923 0.034-11.595 2.398-15.787 6.583-4.192 4.181-6.568 9.852-6.613 15.774v169.642c0.489 5.603 3.061 10.82 7.208 14.62s9.567 5.908 15.192 5.908c5.625 0 11.045-2.108 15.192-5.908s6.719-9.016 7.208-14.62v-147.199h62.464c5.941 0 11.639-2.359 15.839-6.562 4.201-4.198 6.561-9.899 6.561-15.838 0-5.943-2.36-11.639-6.561-15.842-4.201-4.198-9.898-6.558-15.839-6.558z" />
<glyph unicode="&#xe94f;" glyph-name="linkedin-box-fill" d="M782.293 177.536h-113.707v178.219c0 42.496-0.853 97.195-59.307 97.195-59.264 0-68.309-46.251-68.309-94.080v-181.333h-113.749v366.464h109.227v-49.92h1.493c15.275 28.757 52.395 59.179 107.861 59.179 115.2 0 136.533-75.861 136.533-174.549v-201.173h-0.043zM298.795 594.133c-8.68-0.011-17.277 1.691-25.299 5.009s-15.308 8.186-21.444 14.326c-6.136 6.14-11 13.431-14.313 21.454s-5.009 16.622-4.992 25.302c0.009 13.063 3.89 25.83 11.155 36.687s17.585 19.316 29.657 24.307c12.072 4.991 25.353 6.29 38.163 3.734s24.575-8.855 33.806-18.098c9.231-9.243 15.514-21.015 18.054-33.829s1.224-26.093-3.783-38.159c-5.007-12.065-13.479-22.375-24.345-29.626s-23.638-11.116-36.701-11.107h0.043zM355.797 177.536h-114.048v366.464h114.091v-366.464h-0.043zM839.253 832h-654.549c-31.403 0-56.704-24.747-56.704-55.339v-657.323c0-30.592 25.344-55.339 56.661-55.339h654.421c31.317 0 56.917 24.747 56.917 55.339v657.323c0 30.592-25.6 55.339-56.917 55.339h0.171z" />
<glyph unicode="&#xe950;" glyph-name="linkedin-box-line" d="M170.667 832h682.667c11.315 0 22.17-4.495 30.17-12.497s12.497-18.854 12.497-30.17v-682.667c0-11.315-4.497-22.17-12.497-30.17s-18.854-12.497-30.17-12.497h-682.667c-11.316 0-22.168 4.497-30.17 12.497s-12.497 18.854-12.497 30.17v682.667c0 11.316 4.495 22.168 12.497 30.17s18.854 12.497 30.17 12.497zM213.333 746.667v-597.333h597.333v597.333h-597.333zM320 576c-16.974 0-33.253 6.743-45.255 18.745s-18.745 28.281-18.745 45.255c0 16.974 6.743 33.253 18.745 45.255s28.281 18.745 45.255 18.745c16.974 0 33.253-6.743 45.255-18.745s18.745-28.281 18.745-45.255c0-16.974-6.743-33.253-18.745-45.255s-28.281-18.745-45.255-18.745zM277.333 533.333h85.333v-320h-85.333v320zM512 514.987c24.917 24.107 54.016 39.68 85.333 39.68 88.363 0 149.333-71.637 149.333-160v-181.333h-85.333v181.333c0 19.802-7.868 38.793-21.871 52.796s-32.994 21.871-52.796 21.871c-19.802 0-38.793-7.868-52.796-21.871s-21.871-32.994-21.871-52.796v-181.333h-85.333v320h85.333v-18.347z" />
<glyph unicode="&#xe951;" glyph-name="linkedin-fill" d="M296.104 746.666c-0.011-22.632-9.012-44.332-25.024-60.327s-37.721-24.975-60.352-24.963c-22.632 0.011-44.332 9.012-60.327 25.024s-24.975 37.72-24.963 60.352c0.012 22.632 9.012 44.332 25.024 60.327s37.72 24.975 60.352 24.963c22.632-0.012 44.332-9.013 60.327-25.024s24.975-37.72 24.963-60.352zM298.664 598.186h-170.667v-534.186h170.667v534.186zM568.316 598.186h-169.812v-534.186h168.105v280.32c0 156.16 203.52 170.667 203.52 0v-280.32h168.533v338.347c0 263.252-301.227 253.439-372.053 124.16l1.707 71.679z" />
</font>
</defs>
</svg>
