<?xml version="1.0" standalone="no"?>
<!DOCTYPE svg PUBLIC "-//W3C//DTD SVG 1.1//EN" "http://www.w3.org/Graphics/SVG/1.1/DTD/svg11.dtd" >
<svg xmlns="http://www.w3.org/2000/svg">
<metadata>Generated by IcoMoon</metadata>
<defs>
<font id="icomoon" horiz-adv-x="1024">
<font-face units-per-em="1024" ascent="960" descent="-64" />
<missing-glyph horiz-adv-x="1024" />
<glyph unicode="&#x20;" horiz-adv-x="512" d="" />
<glyph unicode="&#xe900;" glyph-name="blaze-fill" d="M789.333 576c42.667-45.227 64-102.144 64-170.667 0-147.883-157.867-182.443-234.667-384-28.459 24.533-42.667 60.075-42.667 106.667 0 148.565 213.333 225.707 213.333 448zM618.667 746.667c51.2-52.821 76.8-109.739 76.8-170.667 0-211.243-257.92-242.859-204.8-554.667-71.125 49.493-106.667 120.619-106.667 213.333 0 141.867 234.667 256 234.667 512zM426.667 917.333c56.875-71.125 85.333-135.125 85.333-192 0-266.667-362.667-350.805-170.667-704-111.616 24.747-192 128-192 256 0 277.333 277.333 320 277.333 640z" />
<glyph unicode="&#xe901;" glyph-name="blaze-line" d="M810.667 576c28.459-45.227 42.667-102.144 42.667-170.667 0-128-149.333-170.667-213.333-384-28.459 24.533-42.667 60.075-42.667 106.667 0 148.565 213.333 225.707 213.333 448zM618.667 746.667c28.335-52.401 43.008-111.097 42.667-170.667 0-213.333-256-256-170.667-554.667-71.125 49.493-106.667 120.619-106.667 213.333 0 141.867 234.667 256 234.667 512zM426.667 917.333c28.459-56.875 42.667-120.875 42.667-192 0-256-384-320-128-704-106.667 21.333-192 128-192 256 0 277.333 277.333 320 277.333 640z" />
<glyph unicode="&#xe902;" glyph-name="celsius-fill" d="M192 533.333c-19.611 0-39.029 3.863-57.147 11.367s-34.58 18.505-48.447 32.372c-13.867 13.867-24.867 30.329-32.372 48.447s-11.367 37.536-11.367 57.147c0 19.611 3.863 39.029 11.367 57.147s18.505 34.58 32.372 48.447c13.867 13.867 30.329 24.867 48.447 32.372s37.536 11.367 57.147 11.367c39.606 0 77.589-15.733 105.594-43.739s43.739-65.989 43.739-105.594c0-39.606-15.733-77.589-43.739-105.594s-65.989-43.739-105.594-43.739zM192 618.667c16.974 0 33.253 6.743 45.255 18.745s18.745 28.281 18.745 45.255c0 16.974-6.743 33.253-18.745 45.255s-28.281 18.745-45.255 18.745c-16.974 0-33.253-6.743-45.255-18.745s-18.745-28.281-18.745-45.255c0-16.974 6.743-33.253 18.745-45.255s28.281-18.745 45.255-18.745zM938.667 533.333h-85.333c0 45.264-17.98 88.673-49.988 120.68-32.004 32.006-75.413 49.987-120.678 49.987s-88.674-17.981-120.678-49.987c-32.009-32.006-49.988-75.416-49.988-120.68v-213.333c0-45.265 17.98-88.674 49.988-120.678 32.004-32.009 75.413-49.988 120.678-49.988s88.674 17.98 120.678 49.988c32.009 32.004 49.988 75.413 49.988 120.678h85.333c0-67.895-26.97-133.009-74.982-181.018-48.009-48.013-113.122-74.982-181.018-74.982s-133.009 26.97-181.018 74.982c-48.013 48.009-74.982 113.122-74.982 181.018v213.333c0 67.895 26.97 133.010 74.982 181.019 48.009 48.009 113.122 74.981 181.018 74.981s133.009-26.971 181.018-74.981c48.013-48.009 74.982-113.124 74.982-181.019z" />
<glyph unicode="&#xe903;" glyph-name="celsius-line" d="M192 533.333c-19.611 0-39.029 3.863-57.147 11.367s-34.58 18.505-48.447 32.372c-13.867 13.867-24.867 30.329-32.372 48.447s-11.367 37.536-11.367 57.147c0 19.611 3.863 39.029 11.367 57.147s18.505 34.58 32.372 48.447c13.867 13.867 30.329 24.867 48.447 32.372s37.536 11.367 57.147 11.367c39.606 0 77.589-15.733 105.594-43.739s43.739-65.989 43.739-105.594c0-39.606-15.733-77.589-43.739-105.594s-65.989-43.739-105.594-43.739zM192 618.667c16.974 0 33.253 6.743 45.255 18.745s18.745 28.281 18.745 45.255c0 16.974-6.743 33.253-18.745 45.255s-28.281 18.745-45.255 18.745c-16.974 0-33.253-6.743-45.255-18.745s-18.745-28.281-18.745-45.255c0-16.974 6.743-33.253 18.745-45.255s28.281-18.745 45.255-18.745zM938.667 533.333h-85.333c0 45.264-17.98 88.673-49.988 120.68-32.004 32.006-75.413 49.987-120.678 49.987s-88.674-17.981-120.678-49.987c-32.009-32.006-49.988-75.416-49.988-120.68v-213.333c0-45.265 17.98-88.674 49.988-120.678 32.004-32.009 75.413-49.988 120.678-49.988s88.674 17.98 120.678 49.988c32.009 32.004 49.988 75.413 49.988 120.678h85.333c0-67.895-26.97-133.009-74.982-181.018-48.009-48.013-113.122-74.982-181.018-74.982s-133.009 26.97-181.018 74.982c-48.013 48.009-74.982 113.122-74.982 181.018v213.333c0 67.895 26.97 133.010 74.982 181.019 48.009 48.009 113.122 74.981 181.018 74.981s133.009-26.971 181.018-74.981c48.013-48.009 74.982-113.124 74.982-181.019z" />
<glyph unicode="&#xe904;" glyph-name="cloud-windy-fill" d="M597.333 192.004v170.368h-508.842c-31.432 80.205-31.376 169.327 0.158 249.492s92.212 145.442 169.865 182.737c77.652 37.295 166.534 43.851 248.818 18.351s151.881-81.169 194.833-155.84c32.098 6.174 65.135 5.574 96.986-1.761 31.855-7.335 61.824-21.244 87.987-40.835s47.949-44.432 63.957-72.931c16.004-28.498 25.882-60.029 28.996-92.566 3.11-32.538-0.606-65.365-10.918-96.384s-26.991-59.537-48.969-83.733c-21.973-24.196-48.764-43.537-78.647-56.781-29.884-13.239-62.204-20.092-94.891-20.117h-149.333zM256.001 106.671h426.666v-85.333h-426.666v85.333zM85.334 277.338h426.666v-85.333h-426.666v85.333z" />
<glyph unicode="&#xe905;" glyph-name="cloud-windy-line" d="M597.333 192.013v85.333h149.333c24.619 0.004 48.858 6.097 70.554 17.732 21.7 11.635 40.183 28.454 53.807 48.96 13.623 20.51 21.969 44.066 24.286 68.574 2.321 24.512-1.455 49.216-10.995 71.915-9.536 22.699-24.538 42.688-43.665 58.185-19.132 15.499-41.796 26.027-65.98 30.648s-49.131 3.191-72.627-4.162c-23.497-7.353-44.813-20.402-62.046-37.986v2.135c0 67.895-26.97 133.010-74.982 181.019-48.009 48.009-113.122 74.981-181.018 74.981s-133.010-26.971-181.019-74.981c-48.009-48.009-74.981-113.124-74.981-181.019v-0.3h-85.333v0.3c-0.064 79.652 27.729 156.819 78.568 218.137s121.521 102.925 199.806 117.617c78.286 14.692 159.245 1.542 228.855-37.17s123.494-100.552 152.311-174.807c32.098 6.174 65.135 5.574 96.99-1.762s61.824-21.247 87.991-40.84c26.163-19.593 47.949-44.436 63.953-72.938 16.009-28.504 25.882-60.035 28.992-92.572 3.11-32.542-0.614-65.374-10.927-96.388-10.317-31.019-26.999-59.541-48.981-83.733-21.978-24.196-48.772-43.533-78.66-56.772-29.888-13.235-62.212-20.083-94.899-20.105h-149.333zM256 106.679h426.667v-85.333h-426.667v85.333zM256 448.013h341.333v-85.333h-341.333v85.333zM85.333 277.346h426.667v-85.333h-426.667v85.333z" />
<glyph unicode="&#xe906;" glyph-name="cloudy-2-fill" d="M725.338 63.979h-426.666c-60.449-0.034-118.961 21.316-165.176 60.284-46.215 38.963-77.151 93.026-87.33 152.61-10.179 59.588 1.056 120.853 31.715 172.949s78.765 91.664 135.798 111.695c-1.932 40.377 4.352 80.726 18.473 118.603s35.783 72.494 63.675 101.752c27.892 29.259 61.434 52.551 98.592 68.465s77.162 24.121 117.584 24.121 80.427-8.206 117.585-24.121c37.158-15.915 70.699-39.207 98.594-68.465 27.891-29.259 49.553-63.875 63.676-101.752 14.118-37.877 20.403-78.226 18.47-118.603 57.033-20.031 105.139-59.599 135.799-111.695s41.894-113.361 31.714-172.949c-10.18-59.584-41.114-113.647-87.33-152.61-46.212-38.967-104.725-60.318-165.175-60.284z" />
<glyph unicode="&#xe907;" glyph-name="cloudy-2-line" d="M725.338 63.979h-426.666c-60.449-0.034-118.961 21.316-165.176 60.284-46.215 38.963-77.151 93.026-87.33 152.61-10.179 59.588 1.056 120.853 31.715 172.949s78.765 91.664 135.798 111.695c-1.932 40.377 4.352 80.726 18.473 118.603s35.783 72.494 63.675 101.752c27.892 29.259 61.434 52.551 98.592 68.465s77.162 24.121 117.584 24.121 80.427-8.206 117.585-24.121c37.158-15.915 70.699-39.207 98.594-68.465 27.891-29.259 49.553-63.875 63.676-101.752 14.118-37.877 20.403-78.226 18.47-118.603 57.033-20.031 105.139-59.599 135.799-111.695s41.894-113.361 31.714-172.949c-10.18-59.584-41.114-113.647-87.33-152.61-46.212-38.967-104.725-60.318-165.175-60.284zM298.672 149.312h426.666c23.155 0.043 46.054 4.796 67.315 13.969 21.257 9.173 40.427 22.575 56.341 39.39 15.915 16.819 28.241 36.698 36.228 58.428s11.469 44.86 10.236 67.981c-1.233 23.121-7.159 45.747-17.417 66.505s-24.631 39.211-42.244 54.238c-17.613 15.027-38.101 26.313-60.215 33.169s-45.393 9.143-68.42 6.716c14.34 32.478 20.348 68.017 17.481 103.401s-14.519 69.492-33.899 99.235c-19.383 29.743-45.879 54.178-77.090 71.093s-66.15 25.774-101.649 25.774c-35.499 0-70.438-8.858-101.648-25.774s-57.707-41.35-77.088-71.093-31.033-63.852-33.9-99.235c-2.868-35.383 3.14-70.923 17.479-103.401-23.026 2.428-46.304 0.141-68.419-6.716s-42.602-18.142-60.216-33.169c-17.615-15.027-31.988-33.481-42.244-54.238s-16.183-43.383-17.417-66.505c-1.234-23.121 2.248-46.251 10.236-67.981s20.314-41.609 36.228-58.428c15.914-16.815 35.084-30.217 56.342-39.39s44.161-13.926 67.314-13.969z" />
<glyph unicode="&#xe908;" glyph-name="cloudy-fill" d="M384.005 64.593c-62.121 3.678-122.249 23.283-174.603 56.922s-95.171 80.183-124.333 135.155c-29.162 54.976-43.688 116.527-42.181 178.739s18.996 122.987 50.787 176.484c31.79 53.497 76.811 97.914 130.732 128.979s114.929 47.732 177.155 48.399c62.226 0.667 123.577-14.688 178.152-44.59s100.535-73.343 133.466-126.147c70.933-2.266 138.295-31.637 188.228-82.068 49.929-50.433 78.626-118.085 80.183-189.036s-24.141-139.797-71.808-192.371c-47.671-52.574-113.681-84.877-184.444-90.253v-0.811h-341.332v0.597z" />
<glyph unicode="&#xe909;" glyph-name="cloudy-line" d="M405.33 704c-73.553 0-144.094-29.219-196.105-81.229s-81.229-122.551-81.229-196.104c0-73.553 29.219-144.094 81.229-196.105s122.551-81.229 196.105-81.229h298.665c26.931 0.026 53.555 5.717 78.144 16.704 24.585 10.987 46.588 27.021 64.572 47.066 17.988 20.041 31.556 43.644 39.825 69.274s11.055 52.71 8.175 79.488c-2.88 26.778-11.362 52.646-24.892 75.93-13.53 23.287-31.804 43.465-53.641 59.226-21.841 15.761-46.746 26.752-73.109 32.256-26.359 5.507-53.585 5.407-79.906-0.294-20.506 51.638-56.051 95.927-102.020 127.133s-100.254 47.887-155.813 47.886zM703.996 64h-298.665c-63.137 0.017-125.176 16.512-179.98 47.859s-100.476 76.463-132.497 130.876c-32.021 54.413-49.281 116.245-50.074 179.375-0.793 63.134 14.909 125.378 45.553 180.58s75.168 101.446 129.168 134.161c54 32.715 115.605 50.765 178.721 52.366s125.559-13.303 181.145-43.238c55.59-29.935 102.4-73.863 135.804-127.44 72.862-2.205 141.926-33.007 192.252-85.743s77.862-123.166 76.655-196.049c-1.203-72.887-31.057-142.366-83.098-193.408s-122.086-79.543-194.982-79.339z" />
<glyph unicode="&#xe90a;" glyph-name="drizzle-fill" d="M469.329 192v-128h-85.332v128c-62.12 0.021-123.057 16.99-176.244 49.084-53.187 32.098-96.607 78.097-125.58 133.047s-42.403 116.762-38.84 178.781c3.564 62.018 23.983 121.887 59.060 173.157s83.479 91.994 139.991 117.786c56.513 25.792 118.993 35.673 180.706 28.578s120.321-30.897 169.507-68.841c49.182-37.943 87.083-88.591 109.606-146.482 32.102 6.174 65.135 5.574 96.99-1.763s61.828-21.247 87.991-40.84c26.167-19.593 47.949-44.436 63.953-72.938 16.009-28.502 25.882-60.033 28.992-92.575 3.11-32.538-0.61-65.37-10.927-96.388-10.317-31.014-26.999-59.537-48.981-83.733-21.978-24.192-48.772-43.529-78.66-56.768s-62.208-20.087-94.899-20.105h-277.333zM554.662 106.667h85.333v-128h-85.333v128z" />
<glyph unicode="&#xe90b;" glyph-name="drizzle-line" d="M725.333 192.009v85.333h21.333c24.623 0 48.858 6.093 70.558 17.728 21.696 11.635 40.179 28.454 53.803 48.964 13.628 20.506 21.969 44.062 24.29 68.574 2.317 24.512-1.459 49.216-10.995 71.91-9.536 22.699-24.538 42.688-43.669 58.187-19.127 15.499-41.796 26.027-65.975 30.648-24.183 4.621-49.135 3.191-72.631-4.162s-44.809-20.402-62.046-37.983v2.132c-0.017 46.929-12.932 92.951-37.338 133.035-24.401 40.084-59.358 72.689-101.039 94.252s-88.489 31.252-135.306 28.010c-46.817-3.242-91.842-19.29-130.155-46.392s-68.439-64.213-87.085-107.279c-18.647-43.066-25.097-90.428-18.645-136.911 6.452-46.485 25.556-90.3 55.227-126.66s68.764-63.863 113.009-79.505v-89.131c-56.588 14.643-108.468 43.571-150.669 84.015-42.201 40.448-73.308 91.051-90.342 146.965s-19.422 115.268-6.938 172.372c12.484 57.103 39.424 110.044 78.238 153.749s88.201 76.711 143.429 95.855c55.229 19.144 114.448 23.784 171.986 13.476 57.536-10.308 111.458-35.219 156.608-72.346 45.146-37.127 80-85.225 101.227-139.687 32.090 6.139 65.105 5.511 96.934-1.844s61.777-21.275 87.915-40.87c26.142-19.594 47.902-44.431 63.893-72.92 15.987-28.488 25.852-60.002 28.962-92.522 3.106-32.525-0.61-65.335-10.91-96.337-10.304-31.002-26.97-59.511-48.922-83.703-21.956-24.192-48.721-43.533-78.583-56.781-29.862-13.252-62.161-20.126-94.831-20.173l-21.333-0.043v0.043zM384.002 277.342h85.332v-170.667h-85.332v170.667zM554.667 149.342h85.333v-170.667h-85.333v170.667z" />
<glyph unicode="&#xe90c;" glyph-name="earthquake-fill" d="M483.285 891.223c7.159 6.516 16.324 10.403 25.984 11.023s19.243-2.063 27.179-7.61l4.267-3.413 440.619-400.556h-128v-384c0-10.449-3.84-20.535-10.782-28.343-6.946-7.812-16.512-12.8-26.893-14.025l-4.992-0.299h-277.333l106.667 170.667-149.333 128 170.667 128-106.667 85.335 21.333 128-128-128 106.667-85.335-213.333-128 160-149.333-138.667-149.333h-149.333c-10.45 0.004-20.537 3.84-28.346 10.782-7.81 6.946-12.799 16.516-14.022 26.893l-0.299 4.992v384h-128l440.619 400.556z" />
<glyph unicode="&#xe90d;" glyph-name="earthquake-line" d="M213.333 64c-10.45 0.004-20.537 3.84-28.346 10.782-7.81 6.946-12.799 16.516-14.022 26.893l-0.299 4.992v384h-128l440.619 400.556c7.159 6.516 16.324 10.403 25.984 11.023s19.243-2.063 27.179-7.61l4.267-3.413 440.619-400.556h-128v-384c0-10.449-3.84-20.535-10.782-28.343-6.946-7.812-16.512-12.8-26.893-14.025l-4.992-0.299h-597.333zM512 802.049l-256-232.704v-420.012h185.899l59.435 64-160 149.333 213.333 128-106.667 85.335 128 128-21.333-128 106.667-85.335-170.667-128 149.333-128-53.333-85.333h181.333v419.969l-256 232.747z" />
<glyph unicode="&#xe90e;" glyph-name="fahrenheit-fill" d="M512 448h298.667v-85.333h-298.667v-298.667h-85.333v554.667c0 45.264 17.98 88.673 49.988 120.68 32.004 32.006 75.413 49.987 120.678 49.987h298.667v-85.333h-298.667c-22.63 0-44.335-8.99-60.339-24.994s-24.994-37.708-24.994-60.34v-170.667zM192 533.333c-19.611 0-39.029 3.863-57.147 11.367s-34.58 18.505-48.447 32.372c-13.867 13.867-24.867 30.329-32.372 48.447s-11.367 37.536-11.367 57.147c0 19.611 3.863 39.029 11.367 57.147s18.505 34.58 32.372 48.447c13.867 13.867 30.329 24.867 48.447 32.372s37.536 11.367 57.147 11.367c39.606 0 77.589-15.733 105.594-43.739s43.739-65.989 43.739-105.594c0-39.606-15.733-77.589-43.739-105.594s-65.989-43.739-105.594-43.739zM192 618.667c16.974 0 33.253 6.743 45.255 18.745s18.745 28.281 18.745 45.255c0 16.974-6.743 33.253-18.745 45.255s-28.281 18.745-45.255 18.745c-16.974 0-33.253-6.743-45.255-18.745s-18.745-28.281-18.745-45.255c0-16.974 6.743-33.253 18.745-45.255s28.281-18.745 45.255-18.745z" />
<glyph unicode="&#xe90f;" glyph-name="fahrenheit-line" d="M512 448h298.667v-85.333h-298.667v-298.667h-85.333v554.667c0 45.264 17.98 88.673 49.988 120.68 32.004 32.006 75.413 49.987 120.678 49.987h298.667v-85.333h-298.667c-22.63 0-44.335-8.99-60.339-24.994s-24.994-37.708-24.994-60.34v-170.667zM192 533.333c-19.611 0-39.029 3.863-57.147 11.367s-34.58 18.505-48.447 32.372c-13.867 13.867-24.867 30.329-32.372 48.447s-11.367 37.536-11.367 57.147c0 19.611 3.863 39.029 11.367 57.147s18.505 34.58 32.372 48.447c13.867 13.867 30.329 24.867 48.447 32.372s37.536 11.367 57.147 11.367c39.606 0 77.589-15.733 105.594-43.739s43.739-65.989 43.739-105.594c0-39.606-15.733-77.589-43.739-105.594s-65.989-43.739-105.594-43.739zM192 618.667c16.974 0 33.253 6.743 45.255 18.745s18.745 28.281 18.745 45.255c0 16.974-6.743 33.253-18.745 45.255s-28.281 18.745-45.255 18.745c-16.974 0-33.253-6.743-45.255-18.745s-18.745-28.281-18.745-45.255c0-16.974 6.743-33.253 18.745-45.255s28.281-18.745 45.255-18.745z" />
<glyph unicode="&#xe910;" glyph-name="fire-fill" d="M512-21.333c-64.124 0.004-126.764 19.273-179.802 55.309-53.039 36.032-94.029 87.172-117.656 146.782s-28.801 124.941-14.851 187.529c13.95 62.583 46.381 119.535 93.087 163.469 57.259 53.888 197.889 150.912 176.556 364.245 256-170.667 384-341.333 128-597.333 42.667 0 106.667 0 213.333 105.387 11.52-32.981 21.333-68.437 21.333-105.387 0-84.868-33.715-166.263-93.726-226.274s-141.406-93.726-226.274-93.726z" />
<glyph unicode="&#xe911;" glyph-name="fire-line" d="M512-21.333c84.868 0 166.263 33.715 226.274 93.726s93.726 141.406 93.726 226.274c0 36.949-9.813 72.405-21.333 105.387-71.125-70.272-125.141-105.387-162.133-105.387 170.453 298.667 76.8 426.667-179.2 597.333 21.333-213.333-119.297-310.357-176.556-364.245-46.706-43.934-79.136-100.885-93.087-163.469-13.95-62.588-8.776-127.919 14.851-187.529s64.617-110.75 117.656-146.782c53.039-36.036 115.679-55.305 179.802-55.309zM542.293 736.64c138.283-117.333 138.965-208.512 32.128-395.691-32.469-56.875 8.619-127.616 74.112-127.616 29.355 0 59.051 8.533 90.411 25.387-9.297-35.115-26.615-67.593-50.598-94.874-23.979-27.281-53.965-48.623-87.599-62.349-33.63-13.722-69.986-19.452-106.21-16.734-36.22 2.718-71.317 13.807-102.525 32.393s-57.675 44.164-77.317 74.718c-19.642 30.554-31.924 65.25-35.877 101.359s0.529 72.64 13.095 106.722c12.565 34.078 32.871 64.777 59.318 89.677 5.376 5.035 32.64 29.227 33.835 30.293 18.091 16.213 32.981 30.592 47.703 46.336 52.48 56.235 90.197 118.613 109.483 190.379h0.043z" />
<glyph unicode="&#xe912;" glyph-name="flashlight-fill" d="M554.667 533.333h298.667l-384-554.667v384h-298.667l384 554.667v-384z" />
<glyph unicode="&#xe913;" glyph-name="flashlight-line" d="M554.667 576h341.333l-426.667-640v384h-298.667l384 640v-384zM469.333 490.667v161.28l-147.968-246.613h233.301v-187.477l181.888 272.811h-267.221z" />
<glyph unicode="&#xe914;" glyph-name="flood-fill" d="M682.667 214.519c46.886-42.057 107.678-65.28 170.667-65.195h85.333v-85.333h-85.333c-59.921-0.098-118.797 15.654-170.667 45.653-51.866-30.003-110.746-45.756-170.667-45.653-59.921-0.098-118.799 15.654-170.667 45.653-51.866-30.003-110.746-45.756-170.667-45.653h-85.333v85.333h85.333c65.579 0 125.44 24.661 170.667 65.195 46.888-42.057 107.678-65.28 170.667-65.195 65.579 0 125.44 24.661 170.667 65.195zM536.448 894.628l4.267-3.413 440.619-400.556h-128v-256c-33.122-0.026-65.796 7.676-95.424 22.49-29.628 14.81-55.39 36.331-75.243 62.844-19.849-26.517-45.611-48.043-75.238-62.857s-62.302-22.507-95.428-22.477c-33.122-0.026-65.796 7.676-95.424 22.49-29.627 14.81-55.39 36.331-75.243 62.844-19.848-26.517-45.611-48.043-75.238-62.857s-62.304-22.507-95.428-22.477l-0.043 256h-127.957l440.619 400.556c6.49 5.907 14.639 9.671 23.343 10.778s17.536-0.496 25.297-4.591l4.523-2.773z" />
<glyph unicode="&#xe915;" glyph-name="flood-line" d="M682.667 214.528c46.886-42.057 107.678-65.28 170.667-65.195h85.333v-85.333h-85.333c-59.921-0.098-118.797 15.654-170.667 45.653-51.866-30.007-110.746-45.756-170.667-45.653-59.921-0.098-118.799 15.654-170.667 45.653-51.866-30.007-110.746-45.756-170.667-45.653h-85.333v85.333h85.333c65.579 0 125.44 24.661 170.667 65.195 46.888-42.057 107.678-65.28 170.667-65.195 65.579 0 125.44 24.661 170.667 65.195zM536.448 894.636l4.267-3.413 440.619-400.556h-128v-256c-29.065-0.038-57.924 4.885-85.333 14.549v320.087l-256 232.747-256-232.704 0.043-320.087c-23.383-8.269-47.846-13.082-72.619-14.293l-12.757-0.299v256h-128l440.619 400.556c7.159 6.516 16.324 10.403 25.984 11.023s19.243-2.063 27.179-7.61z" />
<glyph unicode="&#xe916;" glyph-name="foggy-fill" d="M67.585 405.013c-33.427 84.151-32.057 178.134 3.81 261.274s103.292 148.627 187.443 182.054c84.151 33.427 178.132 32.057 261.272-3.81s148.629-103.292 182.054-187.443c35.763 6.91 72.64 5.402 107.716-4.406s67.388-27.647 94.379-52.103c26.991-24.457 47.919-54.86 61.124-88.805 13.205-33.941 18.334-70.494 14.967-106.761h-912.767zM170.668 149.312h725.332v-85.333h-725.332v85.333zM85.335 319.979h895.999v-85.333h-895.999v85.333z" />
<glyph unicode="&#xe917;" glyph-name="foggy-line" d="M67.585 405.013c-33.427 84.151-32.057 178.134 3.81 261.274s103.292 148.627 187.443 182.054c84.151 33.427 178.132 32.057 261.272-3.81s148.629-103.292 182.054-187.443c35.763 6.91 72.64 5.402 107.716-4.406s67.388-27.647 94.379-52.103c26.991-24.457 47.919-54.86 61.124-88.805 13.205-33.941 18.334-70.494 14.967-106.761h-85.888c4.582 31.194-0.823 63.040-15.45 90.974-14.626 27.93-37.713 50.517-65.963 64.523-28.245 14.005-60.203 18.711-91.29 13.442s-59.708-20.241-81.762-42.773v2.133c-0.009 39.276-9.058 78.023-26.441 113.242s-42.637 65.966-73.809 89.862c-31.168 23.895-67.422 40.298-105.946 47.939s-78.292 6.315-116.223-3.875-73.008-28.972-102.518-54.89c-29.51-25.919-52.66-58.28-67.659-94.578s-21.446-75.563-18.839-114.75c2.606-39.189 14.194-77.257 33.868-111.249h-94.848zM170.668 149.312h725.332v-85.333h-725.332v85.333zM85.335 319.979h895.999v-85.333h-895.999v85.333z" />
<glyph unicode="&#xe918;" glyph-name="hail-fill" d="M810.449 200.802c-1.31 25.613-8.38 50.598-20.676 73.105s-29.508 41.95-50.355 56.892c-20.847 14.938-44.791 24.986-70.054 29.397s-51.2 3.072-75.874-3.917c-8.973 41.126-32.828 77.487-66.978 102.097s-76.19 35.733-118.045 31.236c-41.853-4.497-80.57-24.299-108.712-55.603s-43.726-71.902-43.759-113.997c0-46.080 18.261-87.851 47.872-118.528-57.039 13.794-109.557 42.065-152.485 82.078s-74.814 90.415-92.582 146.342c-17.767 55.932-20.815 115.497-8.848 172.948s38.543 110.846 77.163 155.031c38.62 44.184 87.98 77.666 143.312 97.211s114.771 24.495 172.576 14.371c57.805-10.124 112.021-34.981 157.414-72.169 45.397-37.188 80.439-85.452 101.743-140.133 59.593 11.869 121.468 0.161 172.604-32.662s87.543-84.202 101.568-143.324c14.025-59.123 4.565-121.382-26.381-173.675s-80.969-90.543-139.546-106.701h0.043zM426.663 234.679c-22.632 0-44.337 8.99-60.34 24.994-16.003 16-24.994 37.705-24.994 60.339 0 22.63 8.991 44.335 24.994 60.339s37.708 24.994 60.34 24.994c22.63 0 44.339-8.99 60.339-24.994 16.004-16.004 24.994-37.709 24.994-60.339 0-22.635-8.99-44.339-24.994-60.339-16-16.004-37.709-24.994-60.339-24.994zM639.996 106.679c-22.63 0-44.335 8.99-60.339 24.994-16.004 16-24.994 37.705-24.994 60.339 0 22.63 8.99 44.335 24.994 60.339s37.709 24.994 60.339 24.994c22.63 0 44.339-8.99 60.339-24.994 16.004-16.004 24.994-37.709 24.994-60.339 0-22.635-8.99-44.339-24.994-60.339-16-16.004-37.709-24.994-60.339-24.994zM426.663-21.321c-22.632 0-44.337 8.99-60.34 24.994-16.003 16-24.994 37.705-24.994 60.339 0 22.63 8.991 44.335 24.994 60.339s37.708 24.994 60.34 24.994c22.63 0 44.339-8.99 60.339-24.994 16.004-16.004 24.994-37.709 24.994-60.339 0-22.635-8.99-44.339-24.994-60.339-16-16.004-37.709-24.994-60.339-24.994z" />
<glyph unicode="&#xe919;" glyph-name="hail-line" d="M255.996 216.832c-73.347 29.781-134.067 84.126-171.773 153.732s-50.056 150.153-34.936 227.859c15.12 77.706 56.77 147.744 117.824 198.135s137.722 78.001 216.885 78.109c68.783 0.004 135.962-20.764 192.738-59.583 56.781-38.819 100.51-93.881 125.47-157.974 59.533 11.768 121.31 0.016 172.365-32.789s87.415-84.113 101.449-143.155c14.033-59.038 4.651-121.22-26.18-173.491-30.831-52.267-80.713-90.564-139.174-106.842v90.88c19.721 9.357 37.15 22.925 51.059 39.744s23.966 36.484 29.457 57.609c5.487 21.129 6.281 43.2 2.321 64.666-3.964 21.461-12.582 41.796-25.25 59.571s-29.082 32.556-48.077 43.303c-18.999 10.747-40.124 17.199-61.884 18.901s-43.631-1.387-64.068-9.049c-20.437-7.663-38.946-19.712-54.225-35.3v2.176c-0.004 44.936-11.84 89.079-34.313 127.991s-54.793 71.225-93.713 93.689c-38.916 22.464-83.059 34.288-127.997 34.284-44.936-0.004-89.079-11.836-127.993-34.307s-71.228-54.788-93.693-93.705c-22.466-38.917-34.292-83.062-34.291-127.999 0.002-44.932 11.831-89.079 34.3-127.991 22.469-38.916 54.785-71.232 93.7-93.7v-94.763zM426.662 234.667c-22.632 0-44.337 8.99-60.34 24.994s-24.994 37.709-24.994 60.339c0 22.63 8.99 44.335 24.994 60.339s37.708 24.994 60.34 24.994c22.63 0 44.335-8.99 60.339-24.994s24.994-37.709 24.994-60.339c0-22.63-8.99-44.335-24.994-60.339s-37.709-24.994-60.339-24.994zM639.996 106.667c-22.63 0-44.335 8.99-60.339 24.994s-24.994 37.709-24.994 60.339c0 22.63 8.99 44.335 24.994 60.339s37.709 24.994 60.339 24.994c22.63 0 44.335-8.99 60.339-24.994s24.994-37.709 24.994-60.339c0-22.63-8.99-44.335-24.994-60.339s-37.709-24.994-60.339-24.994zM426.662-21.333c-22.632 0-44.337 8.99-60.34 24.994s-24.994 37.709-24.994 60.339c0 22.63 8.99 44.335 24.994 60.339s37.708 24.994 60.34 24.994c22.63 0 44.335-8.99 60.339-24.994s24.994-37.709 24.994-60.339c0-22.63-8.99-44.335-24.994-60.339s-37.709-24.994-60.339-24.994z" />
<glyph unicode="&#xe91a;" glyph-name="haze-2-fill" d="M512 149.333c16.973 0 33.254-6.741 45.257-18.743s18.743-28.284 18.743-45.257c0-16.973-6.741-33.254-18.743-45.257s-28.284-18.743-45.257-18.743c-16.973 0-33.254 6.741-45.257 18.743s-18.743 28.284-18.743 45.257c0 16.973 6.741 33.254 18.743 45.257s28.284 18.743 45.257 18.743zM832 149.333c16.973 0 33.254-6.741 45.257-18.743s18.743-28.284 18.743-45.257c0-16.973-6.741-33.254-18.743-45.257s-28.284-18.743-45.257-18.743c-16.973 0-33.254 6.741-45.257 18.743s-18.743 28.284-18.743 45.257c0 16.973 6.741 33.254 18.743 45.257s28.284 18.743 45.257 18.743zM192 149.333c16.974 0 33.253-6.741 45.255-18.743s18.745-28.284 18.745-45.257c0-16.973-6.743-33.254-18.745-45.257s-28.281-18.743-45.255-18.743c-16.974 0-33.253 6.741-45.255 18.743s-18.745 28.284-18.745 45.257c0 16.973 6.743 33.254 18.745 45.257s28.281 18.743 45.255 18.743zM725.333 661.333c56.58 0 110.844-22.476 150.848-62.484 40.009-40.008 62.485-94.269 62.485-150.849s-22.477-110.844-62.485-150.848c-40.004-40.009-94.268-62.485-150.848-62.485-78.677 0-149.76 44.373-213.333 133.205-63.573-88.832-134.656-133.205-213.333-133.205-56.579 0-110.842 22.477-150.849 62.485-40.008 40.004-62.484 94.268-62.484 150.848s22.476 110.842 62.484 150.849c40.008 40.008 94.27 62.484 150.849 62.484 78.677 0 149.76-44.373 213.333-133.205 63.573 88.832 134.656 133.205 213.333 133.205zM512 874.667c8.405 0 16.725-1.655 24.491-4.872s14.822-7.93 20.766-13.873c5.939-5.943 10.654-12.998 13.871-20.763s4.873-16.087 4.873-24.492c0-8.404-1.655-16.727-4.873-24.492s-7.932-14.82-13.871-20.763c-5.943-5.943-13.001-10.657-20.766-13.873s-16.085-4.872-24.491-4.872c-16.973 0-33.254 6.743-45.257 18.745s-18.743 28.281-18.743 45.255c0 16.974 6.741 33.253 18.743 45.255s28.284 18.745 45.257 18.745zM192 874.667c8.404 0 16.727-1.655 24.492-4.872s14.82-7.93 20.763-13.873c5.943-5.943 10.657-12.998 13.873-20.763s4.872-16.087 4.872-24.492c0-8.404-1.655-16.727-4.872-24.492s-7.93-14.82-13.873-20.763c-5.943-5.943-12.998-10.657-20.763-13.873s-16.087-4.872-24.492-4.872c-16.974 0-33.253 6.743-45.255 18.745s-18.745 28.281-18.745 45.255c0 16.974 6.743 33.253 18.745 45.255s28.281 18.745 45.255 18.745zM832 874.667c8.405 0 16.725-1.655 24.491-4.872s14.822-7.93 20.766-13.873c5.939-5.943 10.654-12.998 13.871-20.763s4.873-16.087 4.873-24.492c0-8.404-1.655-16.727-4.873-24.492s-7.932-14.82-13.871-20.763c-5.943-5.943-13.001-10.657-20.766-13.873s-16.085-4.872-24.491-4.872c-16.973 0-33.254 6.743-45.257 18.745s-18.743 28.281-18.743 45.255c0 16.974 6.741 33.253 18.743 45.255s28.284 18.745 45.257 18.745z" />
<glyph unicode="&#xe91b;" glyph-name="haze-2-line" d="M512 149.333c16.973 0 33.254-6.741 45.257-18.743s18.743-28.284 18.743-45.257c0-16.973-6.741-33.254-18.743-45.257s-28.284-18.743-45.257-18.743c-16.973 0-33.254 6.741-45.257 18.743s-18.743 28.284-18.743 45.257c0 16.973 6.741 33.254 18.743 45.257s28.284 18.743 45.257 18.743zM832 149.333c16.973 0 33.254-6.741 45.257-18.743s18.743-28.284 18.743-45.257c0-16.973-6.741-33.254-18.743-45.257s-28.284-18.743-45.257-18.743c-16.973 0-33.254 6.741-45.257 18.743s-18.743 28.284-18.743 45.257c0 16.973 6.741 33.254 18.743 45.257s28.284 18.743 45.257 18.743zM192 149.333c16.974 0 33.253-6.741 45.255-18.743s18.745-28.284 18.745-45.257c0-16.973-6.743-33.254-18.745-45.257s-28.281-18.743-45.255-18.743c-16.974 0-33.253 6.741-45.255 18.743s-18.745 28.284-18.745 45.257c0 16.973 6.743 33.254 18.745 45.257s28.281 18.743 45.255 18.743zM725.333 661.333c56.58 0 110.844-22.476 150.848-62.484 40.009-40.008 62.485-94.269 62.485-150.849s-22.477-110.844-62.485-150.848c-40.004-40.009-94.268-62.485-150.848-62.485-78.677 0-149.76 44.373-213.333 133.205-63.573-88.832-134.656-133.205-213.333-133.205-56.579 0-110.842 22.477-150.849 62.485-40.008 40.004-62.484 94.268-62.484 150.848s22.476 110.842 62.484 150.849c40.008 40.008 94.27 62.484 150.849 62.484 78.677 0 149.76-44.373 213.333-133.205 63.573 88.832 134.656 133.205 213.333 133.205zM298.667 576c-33.948 0-66.505-13.486-90.51-37.49s-37.49-56.564-37.49-90.51c0-33.946 13.486-66.505 37.49-90.509s56.562-37.491 90.51-37.491c53.504 0 107.093 37.333 160.384 121.771l3.797 6.272-3.84 6.187c-51.072 80.896-102.4 118.613-153.643 121.6l-6.699 0.171zM725.333 576c-53.504 0-107.093-37.333-160.384-121.771l-3.84-6.229 3.84-6.229c51.115-80.896 102.4-118.613 153.685-121.6l6.699-0.171c33.946 0 66.505 13.487 90.509 37.491s37.491 56.563 37.491 90.509c0 33.946-13.487 66.505-37.491 90.51s-56.563 37.49-90.509 37.49zM512 874.667c8.405 0 16.725-1.655 24.491-4.872s14.822-7.93 20.766-13.873c5.939-5.943 10.654-12.998 13.871-20.763s4.873-16.087 4.873-24.492c0-8.404-1.655-16.727-4.873-24.492s-7.932-14.82-13.871-20.763c-5.943-5.943-13.001-10.657-20.766-13.873s-16.085-4.872-24.491-4.872c-16.973 0-33.254 6.743-45.257 18.745s-18.743 28.281-18.743 45.255c0 16.974 6.741 33.253 18.743 45.255s28.284 18.745 45.257 18.745zM192 874.667c8.404 0 16.727-1.655 24.492-4.872s14.82-7.93 20.763-13.873c5.943-5.943 10.657-12.998 13.873-20.763s4.872-16.087 4.872-24.492c0-8.404-1.655-16.727-4.872-24.492s-7.93-14.82-13.873-20.763c-5.943-5.943-12.998-10.657-20.763-13.873s-16.087-4.872-24.492-4.872c-16.974 0-33.253 6.743-45.255 18.745s-18.745 28.281-18.745 45.255c0 16.974 6.743 33.253 18.745 45.255s28.281 18.745 45.255 18.745zM832 874.667c8.405 0 16.725-1.655 24.491-4.872s14.822-7.93 20.766-13.873c5.939-5.943 10.654-12.998 13.871-20.763s4.873-16.087 4.873-24.492c0-8.404-1.655-16.727-4.873-24.492s-7.932-14.82-13.871-20.763c-5.943-5.943-13.001-10.657-20.766-13.873s-16.085-4.872-24.491-4.872c-16.973 0-33.254 6.743-45.257 18.745s-18.743 28.281-18.743 45.255c0 16.974 6.741 33.253 18.743 45.255s28.284 18.745 45.257 18.745z" />
<glyph unicode="&#xe91c;" glyph-name="haze-fill" d="M259.541 405.333c-6.167 36.693-4.262 74.291 5.584 110.174 9.846 35.884 27.396 69.19 51.427 97.597s53.967 51.235 87.721 66.893c33.754 15.658 70.516 23.769 107.726 23.769s73.971-8.111 107.725-23.769c33.754-15.658 63.689-38.485 87.723-66.893 24.030-28.408 41.583-61.713 51.426-97.597 9.847-35.883 11.755-73.481 5.585-110.174h-504.917zM85.333 320h426.667v-85.333h-426.667v85.333zM597.333 320h341.333v-85.333h-341.333v85.333zM682.667 149.333h170.667v-85.333h-170.667v85.333zM170.667 149.333h426.667v-85.333h-426.667v85.333zM469.333 917.333h85.333v-128h-85.333v128zM149.973 749.696l60.331 60.331 90.496-90.496-60.331-60.331-90.496 90.496zM813.653 810.027l60.331-60.331-90.496-90.496-60.331 60.331 90.496 90.496zM981.333 490.667v-85.333h-128v85.333h128zM170.667 490.667v-85.333h-128v85.333h128z" />
<glyph unicode="&#xe91d;" glyph-name="haze-line" d="M259.541 405.333c-6.167 36.693-4.262 74.291 5.584 110.174 9.846 35.884 27.396 69.19 51.427 97.597s53.967 51.235 87.721 66.893c33.754 15.658 70.516 23.769 107.726 23.769s73.971-8.111 107.725-23.769c33.754-15.658 63.689-38.485 87.723-66.893 24.030-28.408 41.583-61.713 51.426-97.597 9.847-35.883 11.755-73.481 5.585-110.174h-87.168c6.481 25.212 7.113 51.571 1.839 77.065s-16.307 49.442-32.26 70.014c-15.949 20.572-36.399 37.222-59.772 48.677-23.377 11.454-49.067 17.409-75.098 17.409s-51.721-5.955-75.098-17.409c-23.375-11.455-43.821-28.105-59.773-48.677s-26.986-44.521-32.259-70.014c-5.273-25.493-4.644-51.853 1.839-77.065h-87.168zM85.333 320h426.667v-85.333h-426.667v85.333zM597.333 320h341.333v-85.333h-341.333v85.333zM682.667 149.333h170.667v-85.333h-170.667v85.333zM170.667 149.333h426.667v-85.333h-426.667v85.333zM469.333 917.333h85.333v-128h-85.333v128zM149.973 749.696l60.331 60.331 90.496-90.496-60.331-60.331-90.496 90.496zM813.653 810.027l60.331-60.331-90.496-90.496-60.331 60.331 90.496 90.496zM981.333 490.667v-85.333h-128v85.333h128zM170.667 490.667v-85.333h-128v85.333h128z" />
<glyph unicode="&#xe91e;" glyph-name="heavy-showers-fill" d="M554.667 192.009v-213.333h-85.333v213.333h-85.332v-128h-85.333v138.752c-56.588 14.643-108.468 43.571-150.669 84.015-42.201 40.448-73.308 91.051-90.342 146.965s-19.422 115.268-6.938 172.372c12.484 57.103 39.424 110.044 78.238 153.749s88.201 76.711 143.429 95.855c55.229 19.144 114.448 23.784 171.986 13.476 57.536-10.308 111.458-35.219 156.608-72.346 45.146-37.127 80-85.225 101.227-139.687 32.090 6.139 65.105 5.511 96.934-1.844s61.777-21.275 87.915-40.87c26.142-19.594 47.902-44.431 63.893-72.92 15.987-28.488 25.852-60.002 28.962-92.522 3.106-32.525-0.61-65.335-10.91-96.337-10.304-31.002-26.97-59.511-48.922-83.703-21.956-24.192-48.721-43.533-78.583-56.781-29.862-13.252-62.161-20.126-94.831-20.173l-21.333-0.043v-128h-85.333v128l-85.333 0.043z" />
<glyph unicode="&#xe91f;" glyph-name="heavy-showers-line" d="M213.333 237.666c-47.215 27.298-87.203 65.51-116.611 111.441s-47.384 98.24-52.42 152.546c-5.035 54.304 3.015 109.025 23.478 159.58s52.741 95.469 94.132 130.983c41.391 35.514 90.69 60.592 143.767 73.135s108.386 12.184 161.295-1.045c52.911-13.229 101.879-38.944 142.805-74.992 40.93-36.047 72.623-81.377 92.429-132.192 59.533 11.768 121.31 0.016 172.365-32.789s87.415-84.113 101.449-143.155c14.033-59.038 4.651-121.22-26.18-173.491s-80.713-90.564-139.174-106.842v90.88c19.721 9.357 37.15 22.925 51.059 39.744s23.966 36.484 29.457 57.609c5.487 21.129 6.281 43.2 2.321 64.661-3.964 21.466-12.582 41.801-25.25 59.575s-29.082 32.556-48.077 43.303c-18.999 10.747-40.124 17.199-61.884 18.901s-43.631-1.387-64.068-9.049c-20.437-7.663-38.946-19.712-54.225-35.299v2.176c0 42.703-10.679 84.727-31.070 122.247s-49.843 69.343-85.675 92.571c-35.836 23.228-76.907 37.124-119.483 40.422-42.575 3.298-85.299-4.106-124.281-21.539s-72.984-44.34-98.91-78.272c-25.926-33.932-42.952-73.81-49.527-116.003-6.576-42.195-2.492-85.361 11.879-125.574 14.371-40.209 38.572-76.19 70.401-104.657v-104.875zM298.667 362.679h85.333v-256h-85.333v256zM640 362.679h85.333v-256h-85.333v256zM469.333 234.679h85.333v-256h-85.333v256z" />
<glyph unicode="&#xe920;" glyph-name="meteor-fill" d="M896 917.333v-512c-0.009-67.14-17.621-133.107-51.085-191.317-33.459-58.21-81.6-106.628-139.614-140.425-58.014-33.801-123.874-51.797-191.014-52.198-67.14-0.397-133.213 16.815-191.625 49.92s-107.124 80.947-141.275 138.752c-34.152 57.809-52.55 123.558-53.359 190.694-0.809 67.14 15.999 133.314 48.748 191.927s80.293 107.615 137.891 142.118l282.667 163.2v-118.187l298.667 137.515zM512 618.667c-56.58 0-110.842-22.476-150.849-62.484-40.008-40.006-62.484-94.269-62.484-150.849s22.476-110.844 62.484-150.848c40.008-40.009 94.269-62.485 150.849-62.485s110.844 22.477 150.848 62.485c40.009 40.004 62.485 94.268 62.485 150.848s-22.477 110.844-62.485 150.849c-40.004 40.008-94.268 62.484-150.848 62.484z" />
<glyph unicode="&#xe921;" glyph-name="meteor-line" d="M896 917.333v-512c-0.009-67.14-17.621-133.107-51.085-191.317-33.459-58.21-81.6-106.628-139.614-140.425-58.014-33.801-123.874-51.797-191.014-52.198-67.14-0.397-133.213 16.815-191.625 49.92s-107.124 80.947-141.275 138.752c-34.152 57.809-52.55 123.558-53.359 190.694-0.809 67.14 15.999 133.314 48.748 191.927s80.293 107.615 137.891 142.118l282.667 163.2v-118.187l298.667 137.515zM810.667 784.128l-298.667-137.557v103.68l-145.195-83.84c-44.809-24.911-82.449-60.941-109.292-104.621s-41.985-93.536-43.967-144.766l-0.213-11.691c-0.038-78.349 30.713-153.579 85.623-209.463 54.911-55.889 129.583-87.962 207.923-89.306 78.336-1.344 154.065 28.151 210.863 82.125 56.794 53.969 90.103 128.098 92.753 206.404l0.171 10.24v378.795zM512 618.667c56.58 0 110.844-22.476 150.848-62.484 40.009-40.006 62.485-94.269 62.485-150.849s-22.477-110.844-62.485-150.848c-40.004-40.009-94.268-62.485-150.848-62.485s-110.842 22.477-150.849 62.485c-40.008 40.004-62.484 94.268-62.484 150.848s22.476 110.844 62.484 150.849c40.008 40.008 94.269 62.484 150.849 62.484zM512 533.333c-33.946 0-66.505-13.487-90.51-37.491s-37.49-56.563-37.49-90.509c0-33.946 13.486-66.505 37.49-90.509s56.564-37.491 90.51-37.491c33.946 0 66.505 13.487 90.509 37.491s37.491 56.563 37.491 90.509c0 33.946-13.487 66.505-37.491 90.509s-56.563 37.491-90.509 37.491z" />
<glyph unicode="&#xe922;" glyph-name="mist-fill" d="M170.667 789.333h170.667v-85.333h-170.667v85.333zM682.667 149.333h170.667v-85.333h-170.667v85.333zM85.333 576h426.667v-85.333h-426.667v85.333zM597.333 576h256v-85.333h-256v85.333zM170.667 362.667h256v-85.333h-256v85.333zM512 362.667h426.667v-85.333h-426.667v85.333zM426.667 789.333h512v-85.333h-512v85.333zM85.333 149.333h512v-85.333h-512v85.333z" />
<glyph unicode="&#xe923;" glyph-name="mist-line" d="M170.667 789.333h170.667v-85.333h-170.667v85.333zM682.667 149.333h170.667v-85.333h-170.667v85.333zM85.333 576h213.333v-85.333h-213.333v85.333zM384 576h128v-85.333h-128v85.333zM597.333 576h256v-85.333h-256v85.333zM170.667 362.667h256v-85.333h-256v85.333zM512 362.667h128v-85.333h-128v85.333zM725.333 362.667h213.333v-85.333h-213.333v85.333zM426.667 789.333h512v-85.333h-512v85.333zM85.333 149.333h512v-85.333h-512v85.333z" />
<glyph unicode="&#xe924;" glyph-name="moon-clear-fill" d="M419.072 864.512c-32.845-71.299-43.049-150.951-29.239-228.227s50.973-148.465 106.482-203.97c55.505-55.509 126.694-92.672 203.968-106.483 77.278-13.811 156.928-3.605 228.228 29.239-42.411-190.976-212.779-333.739-416.512-333.739-235.648 0-426.667 191.019-426.667 426.667 0 203.733 142.763 374.101 333.739 416.512zM774.997 862.251l35.669-8.917v-42.667l-35.669-8.917c-15.002-3.752-28.702-11.509-39.637-22.444-10.931-10.934-18.692-24.634-22.443-39.636l-8.917-35.669h-42.667l-8.917 35.669c-3.75 15.002-11.511 28.702-22.443 39.636-10.935 10.935-24.636 18.692-39.637 22.444l-35.669 8.917v42.667l35.669 8.917c14.993 3.759 28.685 11.519 39.612 22.453s18.675 24.63 22.426 39.627l8.96 35.669h42.667l8.917-35.669c3.75-15.002 11.511-28.702 22.443-39.636 10.935-10.935 24.636-18.692 39.637-22.444zM988.331 648.917l35.669-8.917v-42.667l-35.669-8.917c-15.002-3.752-28.702-11.509-39.637-22.444-10.931-10.934-18.692-24.634-22.443-39.636l-8.917-35.669h-42.667l-8.917 35.669c-3.75 15.002-11.511 28.702-22.443 39.636-10.935 10.935-24.636 18.692-39.637 22.444l-35.669 8.917v42.667l35.669 8.917c15.002 3.752 28.702 11.509 39.637 22.444 10.931 10.934 18.692 24.634 22.443 39.636l8.917 35.669h42.667l8.917-35.669c3.75-15.002 11.511-28.702 22.443-39.636 10.935-10.935 24.636-18.692 39.637-22.444z" />
<glyph unicode="&#xe925;" glyph-name="moon-clear-line" d="M426.667 704c-0.015-59.736 15.646-118.43 45.423-170.217 29.773-51.786 72.619-94.854 124.25-124.895s110.242-46.007 169.98-46.302c59.733-0.294 118.502 15.091 170.428 44.625-20.523-216.491-202.88-385.877-424.747-385.877-235.648 0-426.667 191.019-426.667 426.667 0 221.867 169.387 404.224 385.877 424.747-29.286-51.411-44.643-109.579-44.544-168.747zM170.667 448c0-90.526 35.962-177.348 99.974-241.361 64.012-64.009 150.832-99.972 241.359-99.972 60.309 0.004 119.539 15.974 171.678 46.289 52.134 30.31 95.317 73.886 125.154 126.298-13.483-1.28-27.136-1.92-40.832-1.92-235.648 0-426.667 191.019-426.667 426.667 0 13.696 0.64 27.307 1.92 40.832-52.41-29.838-95.986-73.019-126.299-125.155s-46.284-111.367-46.287-171.677zM774.997 862.251l35.669-8.917v-42.667l-35.669-8.917c-15.002-3.752-28.702-11.509-39.637-22.444-10.931-10.934-18.692-24.634-22.443-39.636l-8.917-35.669h-42.667l-8.917 35.669c-3.75 15.002-11.511 28.702-22.443 39.636-10.935 10.935-24.636 18.692-39.637 22.444l-35.669 8.917v42.667l35.669 8.917c14.993 3.759 28.685 11.519 39.612 22.453s18.675 24.63 22.426 39.627l8.96 35.669h42.667l8.917-35.669c3.75-15.002 11.511-28.702 22.443-39.636 10.935-10.935 24.636-18.692 39.637-22.444zM988.331 648.917l35.669-8.917v-42.667l-35.669-8.917c-15.002-3.752-28.702-11.509-39.637-22.444-10.931-10.934-18.692-24.634-22.443-39.636l-8.917-35.669h-42.667l-8.917 35.669c-3.75 15.002-11.511 28.702-22.443 39.636-10.935 10.935-24.636 18.692-39.637 22.444l-35.669 8.917v42.667l35.669 8.917c15.002 3.752 28.702 11.509 39.637 22.444 10.931 10.934 18.692 24.634 22.443 39.636l8.917 35.669h42.667l8.917-35.669c3.75-15.002 11.511-28.702 22.443-39.636 10.935-10.935 24.636-18.692 39.637-22.444z" />
<glyph unicode="&#xe926;" glyph-name="moon-cloudy-fill" d="M369.923 746.35c28.003 59.237 74.706 107.622 132.92 137.699 58.21 30.077 124.698 40.177 189.214 28.744-10.999-33.702-12.45-69.79-4.198-104.266 8.256-34.476 25.894-65.994 50.961-91.061s56.585-42.705 91.059-50.959c34.479-8.254 70.566-6.801 104.269 4.196 2.987-16.896 4.523-34.304 4.523-52.053 0.073-50.321-12.625-99.839-36.907-143.913 35.772-31.514 61.099-73.178 72.606-119.441 11.507-46.268 8.653-94.938-8.188-139.541-16.841-44.599-46.869-83.012-86.080-110.127-39.215-27.11-85.756-41.638-133.431-41.643h-362.668c-89.274 0.051-174.975 35.076-238.732 97.566s-100.493 147.469-102.335 236.723c-1.842 89.259 31.358 175.681 92.483 240.748s145.308 103.597 234.504 107.33zM462.81 737.518c53.769-12.813 103.633-38.467 145.318-74.767 41.69-36.3 73.954-82.162 94.042-133.658 42.261 8.099 85.935 4.484 126.293-10.453 9.643 18.132 16.768 37.759 20.821 58.452-64.525 5.947-124.928 34.292-170.735 80.116-45.811 45.825-74.138 106.24-80.060 170.764-55.415-11.008-104.205-43.535-135.68-90.453z" />
<glyph unicode="&#xe927;" glyph-name="moon-cloudy-line" d="M369.923 746.35c28.003 59.237 74.706 107.622 132.92 137.699 58.21 30.077 124.698 40.177 189.214 28.744-10.999-33.702-12.45-69.79-4.198-104.266 8.256-34.476 25.894-65.994 50.961-91.061s56.585-42.705 91.059-50.959c34.479-8.254 70.566-6.801 104.269 4.196 2.987-16.896 4.523-34.304 4.523-52.053 0.073-50.321-12.625-99.839-36.907-143.913 35.772-31.514 61.099-73.178 72.606-119.441 11.507-46.268 8.653-94.938-8.188-139.541-16.841-44.599-46.869-83.012-86.080-110.127-39.215-27.11-85.756-41.638-133.431-41.643h-362.668c-89.274 0.051-174.975 35.076-238.732 97.566s-100.493 147.469-102.335 236.723c-1.842 89.259 31.358 175.681 92.483 240.748s145.308 103.597 234.504 107.33zM462.81 737.518c53.769-12.813 103.633-38.467 145.318-74.767 41.69-36.3 73.954-82.162 94.042-133.658 42.261 8.099 85.935 4.484 126.293-10.453 9.643 18.132 16.768 37.759 20.821 58.452-64.525 5.947-124.928 34.292-170.735 80.116-45.811 45.825-74.138 106.24-80.060 170.764-55.415-11.008-104.205-43.535-135.68-90.453zM746.671 149.316c24.619 0.004 48.858 6.093 70.554 17.728s40.183 28.454 53.807 48.964c13.623 20.506 21.969 44.062 24.286 68.574 2.321 24.512-1.459 49.216-10.995 71.91-9.536 22.699-24.538 42.688-43.665 58.189-19.132 15.497-41.796 26.027-65.98 30.647s-49.131 3.191-72.627-4.164c-23.497-7.351-44.813-20.399-62.046-37.982v2.133c0 50.633-15.014 100.126-43.145 142.225s-68.113 74.911-114.889 94.287c-46.78 19.376-98.252 24.446-147.911 14.568s-95.274-34.259-131.076-70.062c-35.802-35.802-60.184-81.417-70.062-131.077s-4.808-101.133 14.568-147.908c19.376-46.78 52.189-86.763 94.287-114.889 42.099-28.13 91.594-43.145 142.226-43.145h362.668z" />
<glyph unicode="&#xe928;" glyph-name="moon-fill" d="M485.547 873.875c-31.441-29.296-56.657-64.624-74.147-103.877s-26.895-81.627-27.653-124.593c-0.758-42.967 7.146-85.646 23.24-125.49 16.094-39.846 40.048-76.045 70.435-106.428 30.387-30.387 66.581-54.345 106.428-70.438s82.526-23.996 125.491-23.241c42.97 0.759 85.342 10.163 124.595 27.652 39.253 17.493 74.581 42.709 103.876 74.146-13.568-223.36-198.997-400.256-425.771-400.256-235.691 0-426.709 191.019-426.709 426.667 0 226.775 176.896 412.205 400.213 425.858z" />
<glyph unicode="&#xe929;" glyph-name="moon-foggy-fill" d="M682.667 92.42v99.584h-85.333v170.667h-455.168c-9.436 34.769-14.199 70.639-14.165 106.667 0 194.558 137.088 357.118 320 396.329-24.509-65.819-28.118-137.596-10.334-205.541s56.094-128.751 109.705-174.122c53.615-45.372 119.915-73.101 189.867-79.407 69.952-6.302 140.143 9.126 201.003 44.181-3.575-78.003-29.594-153.318-74.927-216.896-45.338-63.573-108.066-112.713-180.646-141.504v0.043zM298.667 106.671h298.667v-85.333h-298.667v85.333zM85.333 277.338h426.667v-85.333h-426.667v85.333z" />
<glyph unicode="&#xe92a;" glyph-name="moon-foggy-line" d="M682.667 92.412v93.824c73.148 38.682 128.529 104.119 154.581 182.656-55.859-10.24-113.293-7.966-168.162 6.66-54.874 14.63-105.818 41.246-149.163 77.931-43.349 36.689-78.020 82.534-101.516 134.233s-35.233 107.967-34.365 164.749c-41.857-22.138-78.295-53.268-106.696-91.156s-48.062-81.594-57.571-127.98h-86.784c14.278 89.084 57.853 170.864 123.832 232.399s150.594 99.313 240.456 107.355c-27.802-59.422-35.268-126.346-21.239-190.434 14.025-64.088 48.764-121.775 98.85-164.147 50.082-42.377 112.725-67.081 178.253-70.302 65.527-3.217 130.291 15.228 184.286 52.489 6.711-86.345-14.4-172.57-60.245-246.046-45.845-73.481-114.014-130.347-194.517-162.274v0.043zM298.667 106.662h298.667v-85.333h-298.667v85.333zM170.667 447.996h256v-85.333h-256v85.333zM85.333 277.329h426.667v-85.333h-426.667v85.333z" />
<glyph unicode="&#xe92b;" glyph-name="moon-line" d="M426.667 661.333c-0.009-59.334 17.655-117.326 50.739-166.579s80.090-87.539 135.023-109.969c54.929-22.43 115.298-27.989 173.402-15.97s111.313 41.071 152.836 83.452v-4.267c0-235.648-191.019-426.667-426.667-426.667s-426.667 191.019-426.667 426.667c0 235.648 191.019 426.667 426.667 426.667h4.267c-28.416-27.782-50.982-60.969-66.368-97.608-15.39-36.639-23.288-75.987-23.232-115.726zM170.667 448c-0.031-76.16 25.409-150.14 72.273-210.176 46.864-60.032 112.458-102.669 186.347-121.122 73.89-18.458 151.829-11.669 221.414 19.277 69.589 30.95 126.827 84.279 162.611 151.509-63.684-15.002-130.142-13.487-193.075 4.407-62.929 17.89-120.247 51.567-166.511 97.83s-79.938 103.582-97.831 166.512c-17.893 62.932-19.41 129.392-4.407 193.074-54.631-29.105-100.319-72.519-132.17-125.595s-48.669-113.816-48.651-175.717z" />
<glyph unicode="&#xe92c;" glyph-name="rainbow-fill" d="M512 789.333c259.2 0 469.333-210.133 469.333-469.333v-213.333h-128v213.333c0 88.678-34.513 173.879-96.235 237.556-61.717 63.677-145.796 100.836-234.432 103.607l-10.667 0.171c-88.68-0.001-173.878-34.515-237.555-96.233s-100.836-145.798-103.607-234.433l-0.171-10.667v-213.333h-128v213.333c0 259.2 210.133 469.333 469.333 469.333zM512 618.667c79.211 0 155.179-31.467 211.187-87.479 56.013-56.009 87.479-131.977 87.479-211.187v-213.333h-128v213.333c0 43.785-16.828 85.897-47.006 117.623s-71.394 50.641-115.127 52.83l-8.533 0.213c-43.785 0-85.898-16.828-117.624-47.006s-50.64-71.394-52.829-115.127l-0.213-8.533v-213.333h-128v213.333c0 79.211 31.467 155.179 87.477 211.187 56.011 56.013 131.979 87.479 211.189 87.479zM512 448c33.946 0 66.505-13.487 90.509-37.491s37.491-56.563 37.491-90.509v-213.333h-256v213.333c0 33.946 13.486 66.505 37.49 90.509s56.564 37.491 90.51 37.491z" />
<glyph unicode="&#xe92d;" glyph-name="rainbow-line" d="M512 789.333c259.2 0 469.333-210.133 469.333-469.333v-213.333h-85.333v213.333c0 99.883-38.921 195.84-108.506 267.499-69.581 71.661-164.348 113.389-264.188 116.33l-11.307 0.171c-99.884-0.001-195.838-38.922-267.499-108.504s-113.389-164.349-116.33-264.189l-0.171-11.307v-213.333h-85.333v213.333c0 259.2 210.133 469.333 469.333 469.333zM512 618.667c79.211 0 155.179-31.467 211.187-87.479 56.013-56.009 87.479-131.977 87.479-211.187v-213.333h-85.333v213.333c-0.004 54.976-21.227 107.827-59.251 147.533-38.020 39.706-89.903 63.202-144.823 65.587l-9.259 0.213c-54.976-0.004-107.825-21.227-147.532-59.251-39.706-38.020-63.202-89.903-65.588-144.823l-0.213-9.259v-213.333h-85.333v213.333c0 79.211 31.467 155.179 87.477 211.187 56.011 56.013 131.979 87.479 211.189 87.479zM512 448c33.946 0 66.505-13.487 90.509-37.491s37.491-56.563 37.491-90.509v-213.333h-85.333v213.333c0 10.449-3.84 20.535-10.782 28.348-6.946 7.808-16.512 12.796-26.893 14.020l-4.992 0.299c-10.449 0-20.535-3.84-28.348-10.782-7.808-6.946-12.796-16.512-14.020-26.893l-0.299-4.992v-213.333h-85.333v213.333c0 33.946 13.486 66.505 37.49 90.509s56.564 37.491 90.51 37.491z" />
<glyph unicode="&#xe92e;" glyph-name="rainy-fill" d="M676.698 192.013l-134.528 134.528c-8 8-18.85 12.493-30.165 12.493s-22.165-4.493-30.165-12.493l-132.822-132.821c-58.304 6.020-114.077 26.953-161.945 60.783-47.869 33.826-86.221 79.407-111.363 132.356s-36.228 111.479-32.189 169.955c4.039 58.476 23.066 114.926 55.25 163.915s76.438 88.866 128.503 115.791c52.065 26.925 110.185 39.99 168.764 37.937s115.643-19.153 165.695-49.655 91.409-73.379 120.085-124.5c34.94 6.016 70.746 4.709 105.152-3.838s66.662-24.146 94.724-45.811c28.062-21.664 51.319-48.922 68.297-80.044s27.307-65.431 30.332-100.754c3.025-35.324-1.323-70.891-12.762-104.448-11.439-33.553-29.726-64.367-53.696-90.487s-53.107-46.976-85.559-61.248c-32.452-14.272-67.516-21.645-102.967-21.658h-48.64zM436.57 160.781l75.435 75.435 75.435-75.435c14.916-14.916 25.071-33.924 29.184-54.613 4.113-20.693 2.001-42.138-6.076-61.628-8.073-19.486-21.743-36.147-39.287-47.863-17.54-11.721-38.161-17.975-59.255-17.975s-41.719 6.255-59.26 17.975c-17.54 11.716-31.211 28.378-39.285 47.863-8.074 19.49-10.188 40.934-6.075 61.628 4.113 20.689 14.27 39.697 29.185 54.613z" />
<glyph unicode="&#xe92f;" glyph-name="rainy-line" d="M682.662 192v85.333h42.667c26.5 0.013 52.634 6.199 76.331 18.065 23.693 11.87 44.301 29.090 60.186 50.304 15.885 21.21 26.611 45.833 31.33 71.906 4.719 26.078 3.298 52.898-4.143 78.332-7.445 25.434-20.71 48.783-38.746 68.201-18.031 19.418-40.341 34.369-65.156 43.67s-51.452 12.695-77.807 9.914c-26.355-2.781-51.699-11.662-74.027-25.937-10.581 45.072-33.186 86.432-65.408 119.674-32.226 33.243-72.862 57.125-117.581 69.103-44.722 11.978-91.855 11.605-136.38-1.081s-84.778-37.209-116.471-70.958c-31.693-33.749-53.641-75.462-63.505-120.696s-7.279-92.295 7.484-136.178c14.763-43.883 41.149-82.935 76.349-113.011 35.2-30.071 77.897-50.035 123.545-57.766v-86.272c-86.139 10.876-164.899 54.161-220.25 121.054-55.352 66.889-83.137 152.358-77.7 239.010s43.686 167.978 106.964 227.426 146.831 92.552 233.653 92.574c60.659 0.026 120.23-16.117 172.573-46.767 52.348-30.65 95.578-74.7 125.239-127.612 34.94 6.015 70.746 4.708 105.152-3.838s66.662-24.146 94.724-45.811c28.062-21.665 51.319-48.922 68.297-80.045s27.307-65.434 30.332-100.753c3.025-35.324-1.323-70.891-12.762-104.448-11.439-33.553-29.722-64.367-53.696-90.487-23.97-26.121-53.103-46.976-85.559-61.248-32.452-14.272-67.516-21.645-102.967-21.658h-42.667zM436.561 160.768l75.435 75.435 75.435-75.435c14.916-14.921 25.071-33.924 29.184-54.618 4.113-20.689 2.001-42.133-6.071-61.623-8.077-19.49-21.747-36.147-39.287-47.868-17.54-11.716-38.165-17.971-59.26-17.971s-41.715 6.255-59.255 17.971c-17.545 11.721-31.214 28.378-39.288 47.868s-10.188 40.934-6.075 61.623c4.113 20.693 14.27 39.697 29.184 54.618z" />
<glyph unicode="&#xe930;" glyph-name="showers-fill" d="M640 192.009h-255.998v-128h-85.333v138.752c-56.588 14.643-108.468 43.571-150.669 84.015-42.201 40.448-73.308 91.051-90.342 146.965s-19.422 115.268-6.938 172.372c12.484 57.103 39.424 110.044 78.238 153.749s88.201 76.711 143.429 95.855c55.229 19.144 114.448 23.784 171.986 13.476 57.536-10.308 111.458-35.219 156.608-72.346 45.146-37.127 80-85.225 101.227-139.687 32.090 6.139 65.105 5.511 96.934-1.844s61.777-21.275 87.915-40.87c26.142-19.594 47.902-44.431 63.893-72.92 15.987-28.488 25.852-60.002 28.962-92.522 3.106-32.525-0.61-65.335-10.91-96.337-10.304-31.002-26.97-59.511-48.922-83.703-21.956-24.192-48.721-43.533-78.583-56.781-29.862-13.252-62.161-20.126-94.831-20.173l-21.333-0.043v-128h-85.333v128.043zM469.333 106.675h85.333v-128h-85.333v128z" />
<glyph unicode="&#xe931;" glyph-name="showers-line" d="M213.333 237.666c-47.215 27.298-87.203 65.51-116.611 111.441s-47.384 98.24-52.42 152.546c-5.035 54.304 3.015 109.025 23.478 159.58s52.741 95.469 94.132 130.983c41.391 35.514 90.69 60.592 143.767 73.135s108.386 12.184 161.295-1.045c52.911-13.229 101.879-38.944 142.805-74.992 40.93-36.047 72.623-81.377 92.429-132.192 59.533 11.768 121.31 0.016 172.365-32.789s87.415-84.113 101.449-143.155c14.033-59.038 4.651-121.22-26.18-173.491s-80.713-90.564-139.174-106.842v90.88c19.721 9.357 37.15 22.925 51.059 39.744s23.966 36.484 29.457 57.609c5.487 21.129 6.281 43.2 2.321 64.661-3.964 21.466-12.582 41.801-25.25 59.575s-29.082 32.556-48.077 43.303c-18.999 10.747-40.124 17.199-61.884 18.901s-43.631-1.387-64.068-9.049c-20.437-7.663-38.946-19.712-54.225-35.299v2.176c0 42.703-10.679 84.727-31.070 122.247s-49.843 69.343-85.675 92.571c-35.836 23.228-76.907 37.124-119.483 40.422-42.575 3.298-85.299-4.106-124.281-21.539s-72.984-44.34-98.91-78.272c-25.926-33.932-42.952-73.81-49.527-116.003-6.576-42.195-2.492-85.361 11.879-125.574 14.371-40.209 38.572-76.19 70.401-104.657v-104.875zM298.667 277.346h85.333v-170.667h-85.333v170.667zM640 277.346h85.333v-170.667h-85.333v170.667zM469.333 149.346h85.333v-170.667h-85.333v170.667z" />
<glyph unicode="&#xe932;" glyph-name="snowy-fill" d="M257.154 216.32c-73.584 29.538-134.595 83.759-172.565 153.37-37.97 69.606-50.532 150.259-35.531 228.119 15.002 77.859 56.631 148.070 117.747 198.586s137.906 78.19 217.197 78.271c68.781 0.004 135.959-20.764 192.74-59.583 56.777-38.819 100.51-93.881 125.47-157.974 60.053 5.637 119.974-12.069 167.322-49.442s78.485-91.542 86.95-151.267c8.465-59.721-6.391-120.41-41.489-169.468s-87.735-82.718-146.991-93.995c-0.213 65.724-25.694 128.849-71.168 176.299-45.47 47.454-107.452 75.601-173.107 78.613-65.655 3.008-129.951-19.349-179.576-62.438-49.624-43.093-80.774-103.62-86.999-169.050v-0.043zM554.671 265.941l83.797 48.384 42.667-73.899-83.797-48.427 83.797-48.384-42.667-73.899-83.797 48.384v-96.768h-85.333v96.768l-83.799-48.384-42.667 73.899 83.799 48.384-83.799 48.384 42.667 73.899 83.799-48.384v96.768h85.333v-96.725z" />
<glyph unicode="&#xe933;" glyph-name="snowy-line" d="M554.667 265.907l83.797 48.384 42.667-73.899-83.797-48.384 83.797-48.384-42.667-73.899-83.797 48.384v-96.768h-85.333v96.768l-83.796-48.384-42.667 73.899 83.796 48.384-83.796 48.384 42.667 73.899 83.796-48.384v96.768h85.333v-96.768zM725.333 192.009v85.333h21.333c24.623 0 48.858 6.093 70.558 17.728 21.696 11.635 40.179 28.454 53.803 48.964 13.628 20.506 21.969 44.062 24.29 68.574 2.317 24.512-1.459 49.216-10.995 71.91-9.536 22.699-24.538 42.688-43.669 58.187-19.127 15.499-41.796 26.027-65.975 30.648-24.183 4.621-49.135 3.191-72.631-4.162s-44.809-20.402-62.046-37.983v2.132c-0.017 46.929-12.932 92.951-37.338 133.035-24.401 40.084-59.358 72.689-101.039 94.252s-88.489 31.252-135.306 28.010c-46.817-3.242-91.842-19.29-130.155-46.392s-68.439-64.213-87.085-107.279c-18.647-43.066-25.097-90.428-18.645-136.911 6.452-46.485 25.556-90.3 55.227-126.66s68.764-63.863 113.009-79.505v-89.131c-56.588 14.643-108.468 43.571-150.669 84.015-42.201 40.448-73.308 91.051-90.342 146.965s-19.422 115.268-6.938 172.372c12.484 57.103 39.424 110.044 78.238 153.749s88.201 76.711 143.429 95.855c55.229 19.144 114.448 23.784 171.986 13.476 57.536-10.308 111.458-35.219 156.608-72.346 45.146-37.127 80-85.225 101.227-139.687 32.090 6.139 65.105 5.511 96.934-1.844s61.777-21.275 87.915-40.87c26.142-19.594 47.902-44.431 63.893-72.92 15.987-28.488 25.852-60.002 28.962-92.522 3.106-32.525-0.61-65.335-10.91-96.337-10.304-31.002-26.97-59.511-48.922-83.703-21.956-24.192-48.721-43.533-78.583-56.781-29.862-13.252-62.161-20.126-94.831-20.173l-21.333-0.043v0.043z" />
<glyph unicode="&#xe934;" glyph-name="sun-cloudy-fill" d="M425.986 744.096c17.308 32.963 41.078 62.104 69.886 85.685 28.813 23.581 62.076 41.12 97.813 51.57 35.733 10.45 73.207 13.599 110.182 9.257 36.979-4.342 72.704-16.084 105.045-34.528s60.638-43.21 83.204-72.824c22.566-29.613 38.938-63.467 48.141-99.543s11.046-73.635 5.423-110.44c-5.628-36.804-18.603-72.098-38.161-103.782 34.227-32.226 57.98-73.993 68.186-119.881 10.21-45.888 6.4-93.786-10.935-137.481-17.331-43.699-47.39-81.182-86.281-107.597-38.886-26.415-84.813-40.538-131.823-40.546l-362.665 0.043c-46.574 0.038-92.648 9.604-135.387 28.113s-81.237 45.568-113.126 79.509c-31.889 33.946-56.495 74.057-72.302 117.867s-22.481 90.389-19.611 136.879c2.87 46.485 15.222 91.891 36.297 133.423s50.427 78.313 86.249 108.078c35.822 29.765 77.357 51.883 122.047 64.995s91.592 16.938 137.816 11.245v-0.043zM514.347 720.885c42.62-17.665 81.229-43.759 113.51-76.716s57.574-72.097 74.351-115.072c44.71 8.571 90.94 4.023 133.12-13.099 19.78 42.209 23.531 90.171 10.547 134.939-12.979 44.768-41.801 83.286-81.088 108.367-39.292 25.082-86.362 35.014-132.433 27.945s-88-30.657-117.965-66.364h-0.043z" />
<glyph unicode="&#xe935;" glyph-name="sun-cloudy-line" d="M425.986 744.096c17.308 32.963 41.078 62.104 69.886 85.685 28.813 23.581 62.076 41.12 97.813 51.57 35.733 10.45 73.207 13.599 110.182 9.257 36.979-4.342 72.704-16.084 105.045-34.528s60.638-43.21 83.204-72.824c22.566-29.613 38.938-63.467 48.141-99.543s11.046-73.635 5.423-110.44c-5.628-36.804-18.603-72.098-38.161-103.782 34.227-32.226 57.98-73.993 68.186-119.881 10.21-45.888 6.4-93.786-10.935-137.481-17.331-43.699-47.39-81.182-86.281-107.597-38.886-26.415-84.813-40.538-131.823-40.546l-362.665 0.043c-46.574 0.038-92.648 9.604-135.387 28.113s-81.237 45.568-113.126 79.509c-31.889 33.946-56.495 74.057-72.302 117.867s-22.481 90.389-19.611 136.879c2.87 46.485 15.222 91.891 36.297 133.423s50.427 78.313 86.249 108.078c35.822 29.765 77.357 51.883 122.047 64.995s91.592 16.938 137.816 11.245v-0.043zM514.347 720.885c42.62-17.665 81.229-43.759 113.51-76.716s57.574-72.097 74.351-115.072c44.71 8.571 90.94 4.023 133.12-13.099 19.78 42.209 23.531 90.171 10.547 134.939-12.979 44.768-41.801 83.286-81.088 108.367-39.292 25.082-86.362 35.014-132.433 27.945s-88-30.657-117.965-66.364h-0.043zM746.667 149.321c24.623 0.004 48.858 6.097 70.558 17.732 21.696 11.635 40.179 28.454 53.803 48.96 13.628 20.51 21.969 44.066 24.29 68.578 2.317 24.508-1.459 49.212-10.995 71.91s-24.538 42.688-43.669 58.185c-19.127 15.501-41.792 26.027-65.975 30.647s-49.135 3.191-72.631-4.16c-23.497-7.351-44.809-20.403-62.046-37.986v2.133c0 50.633-15.014 100.13-43.14 142.228-28.13 42.099-68.113 74.911-114.893 94.287-46.775 19.376-98.249 24.445-147.908 14.568s-95.274-34.259-131.076-70.062c-35.802-35.802-60.184-81.416-70.062-131.075s-4.808-101.133 14.568-147.913c19.376-46.775 52.188-86.758 94.287-114.889s91.594-43.145 142.226-43.145h362.665z" />
<glyph unicode="&#xe936;" glyph-name="sun-fill" d="M512 192c-67.895 0-133.010 26.97-181.019 74.982-48.009 48.009-74.981 113.122-74.981 181.018s26.971 133.010 74.981 181.019c48.009 48.009 113.124 74.981 181.019 74.981s133.009-26.971 181.018-74.981c48.013-48.009 74.982-113.124 74.982-181.019s-26.97-133.009-74.982-181.018c-48.009-48.013-113.122-74.982-181.018-74.982zM469.333 917.333h85.333v-128h-85.333v128zM469.333 106.667h85.333v-128h-85.333v128zM149.973 749.696l60.331 60.331 90.496-90.496-60.331-60.331-90.496 90.496zM723.2 176.469l60.331 60.331 90.496-90.496-60.331-60.331-90.496 90.496zM813.696 810.069l60.331-60.373-90.496-90.496-60.331 60.331 90.496 90.539zM240.469 236.8l60.331-60.331-90.496-90.496-60.331 60.331 90.496 90.496zM981.333 490.667v-85.333h-128v85.333h128zM170.667 490.667v-85.333h-128v85.333h128z" />
<glyph unicode="&#xe937;" glyph-name="sun-foggy-fill" d="M270.549 362.667c-18.113 51.23-19.454 106.897-3.831 158.942 15.624 52.043 47.403 97.766 90.738 130.55s95.979 50.929 150.311 51.808c54.332 0.879 107.533-15.552 151.906-46.917s77.615-76.035 94.912-127.548c17.301-51.511 17.762-107.191 1.318-158.98-16.448-51.789-48.947-97.003-92.796-129.101-43.844-32.094-96.768-49.399-151.108-49.421v170.667h-241.451zM256 106.667h384v-85.333h-384v85.333zM42.667 490.667h128v-85.333h-128v85.333zM85.333 277.333h341.333v-85.333h-341.333v85.333zM469.333 917.333h85.333v-128h-85.333v128zM149.973 749.696l60.331 60.331 90.496-90.496-60.331-60.331-90.496 90.496zM723.2 176.469l60.331 60.331 90.496-90.496-60.331-60.331-90.496 90.496zM813.696 810.069l60.331-60.373-90.496-90.496-60.331 60.331 90.496 90.539zM981.333 490.667v-85.333h-128v85.333h128z" />
<glyph unicode="&#xe938;" glyph-name="sun-foggy-line" d="M341.333 448h85.333v-85.333h-256v85.333h85.333c0 50.633 15.014 100.127 43.144 142.226s68.111 74.911 114.889 94.287c46.78 19.376 98.253 24.445 147.908 14.568 49.66-9.878 95.275-34.259 131.076-70.062 35.806-35.802 60.186-81.417 70.063-131.078 9.877-49.655 4.809-101.129-14.566-147.908s-52.19-86.758-94.289-114.889c-42.099-28.13-91.593-43.145-142.225-43.145v85.333c33.754 0 66.752 10.010 94.818 28.762s49.941 45.41 62.857 76.595c12.919 31.185 16.299 65.498 9.711 98.607-6.583 33.105-22.839 63.514-46.707 87.383s-54.276 40.122-87.381 46.708c-33.109 6.585-67.422 3.206-98.607-9.712-31.187-12.917-57.841-34.792-76.594-62.858s-28.762-61.064-28.762-94.817zM256 106.667h384v-85.333h-384v85.333zM85.333 277.333h341.333v-85.333h-341.333v85.333zM469.333 917.333h85.333v-128h-85.333v128zM149.973 749.696l60.331 60.331 90.496-90.496-60.331-60.331-90.496 90.496zM723.2 176.469l60.331 60.331 90.496-90.496-60.331-60.331-90.496 90.496zM813.696 810.069l60.331-60.373-90.496-90.496-60.331 60.331 90.496 90.539zM981.333 490.667v-85.333h-128v85.333h128z" />
<glyph unicode="&#xe939;" glyph-name="sun-line" d="M512 192c-67.895 0-133.010 26.97-181.019 74.982-48.009 48.009-74.981 113.122-74.981 181.018s26.971 133.010 74.981 181.019c48.009 48.009 113.124 74.981 181.019 74.981s133.009-26.971 181.018-74.981c48.013-48.009 74.982-113.124 74.982-181.019s-26.97-133.009-74.982-181.018c-48.009-48.013-113.122-74.982-181.018-74.982zM512 277.333c45.265 0 88.674 17.98 120.678 49.988 32.009 32.004 49.988 75.413 49.988 120.678s-17.98 88.673-49.988 120.68c-32.004 32.006-75.413 49.987-120.678 49.987s-88.673-17.981-120.68-49.987c-32.006-32.006-49.987-75.415-49.987-120.68s17.981-88.674 49.987-120.678c32.006-32.009 75.415-49.988 120.68-49.988zM469.333 917.333h85.333v-128h-85.333v128zM469.333 106.667h85.333v-128h-85.333v128zM149.973 749.696l60.331 60.331 90.496-90.496-60.331-60.331-90.496 90.496zM723.2 176.469l60.331 60.331 90.496-90.496-60.331-60.331-90.496 90.496zM813.696 810.069l60.331-60.373-90.496-90.496-60.331 60.331 90.496 90.539zM240.469 236.8l60.331-60.331-90.496-90.496-60.331 60.331 90.496 90.496zM981.333 490.667v-85.333h-128v85.333h128zM170.667 490.667v-85.333h-128v85.333h128z" />
<glyph unicode="&#xe93a;" glyph-name="temp-cold-fill" d="M341.333 522.453v224.213c0 45.264 17.981 88.673 49.987 120.68s75.415 49.987 120.68 49.987c45.265 0 88.674-17.981 120.678-49.987 32.009-32.006 49.988-75.416 49.988-120.68v-224.213c52.181-36.335 91.405-88.371 111.962-148.544 20.557-60.169 21.372-125.329 2.334-185.997-19.042-60.663-56.947-113.673-108.198-151.305-51.255-37.632-113.178-57.924-176.764-57.924s-125.51 20.292-176.762 57.924c-51.253 37.632-89.158 90.641-108.199 151.305-19.041 60.668-18.223 125.828 2.333 185.997 20.557 60.173 59.78 112.209 111.961 148.544zM341.333 277.333c0-45.265 17.981-88.674 49.987-120.678 32.006-32.009 75.415-49.988 120.68-49.988s88.674 17.98 120.678 49.988c32.009 32.004 49.988 75.413 49.988 120.678h-341.333z" />
<glyph unicode="&#xe93b;" glyph-name="temp-cold-line" d="M341.333 746.667c0 45.264 17.981 88.673 49.987 120.68s75.415 49.987 120.68 49.987c45.265 0 88.674-17.981 120.678-49.987 32.009-32.006 49.988-75.416 49.988-120.68v-224.213c52.181-36.335 91.405-88.371 111.962-148.544 20.557-60.169 21.372-125.329 2.334-185.997-19.042-60.663-56.947-113.673-108.198-151.305-51.255-37.632-113.178-57.924-176.764-57.924s-125.51 20.292-176.762 57.924c-51.253 37.632-89.158 90.641-108.199 151.305-19.041 60.668-18.223 125.828 2.333 185.997 20.557 60.173 59.78 112.209 111.961 148.544v224.213zM390.144 452.48c-37.283-25.946-65.312-63.113-80.006-106.095-14.694-42.978-15.286-89.527-1.69-132.868s40.67-81.207 77.282-108.092c36.611-26.889 80.848-41.387 126.271-41.387s89.66 14.498 126.272 41.387c36.608 26.884 63.684 64.751 77.282 108.092 13.594 43.341 13.001 89.89-1.694 132.868-14.69 42.982-42.722 80.149-80.004 106.095l-36.523 25.472v268.715c0 22.632-8.99 44.337-24.994 60.34s-37.709 24.994-60.339 24.994c-22.63 0-44.335-8.99-60.339-24.994s-24.994-37.708-24.994-60.34v-268.715l-36.523-25.472zM341.333 277.333h341.333c0-45.265-17.98-88.674-49.988-120.678-32.004-32.009-75.413-49.988-120.678-49.988s-88.673 17.98-120.68 49.988c-32.006 32.004-49.987 75.413-49.987 120.678z" />
<glyph unicode="&#xe93c;" glyph-name="temp-hot-fill" d="M341.333 522.453v224.213c0 45.264 17.981 88.673 49.987 120.68s75.415 49.987 120.68 49.987c45.265 0 88.674-17.981 120.678-49.987 32.009-32.006 49.988-75.416 49.988-120.68v-224.213c52.181-36.335 91.405-88.371 111.962-148.544 20.557-60.169 21.372-125.329 2.334-185.997-19.042-60.663-56.947-113.673-108.198-151.305-51.255-37.632-113.178-57.924-176.764-57.924s-125.51 20.292-176.762 57.924c-51.253 37.632-89.158 90.641-108.199 151.305-19.041 60.668-18.223 125.828 2.333 185.997 20.557 60.173 59.78 112.209 111.961 148.544zM469.333 442.624c-40.128-10.483-75.067-35.217-98.295-69.577s-33.156-75.998-27.931-117.141c5.225-41.143 25.247-78.98 56.327-106.445 31.078-27.46 71.090-42.675 112.567-42.795 41.57-0.043 81.724 15.091 112.926 42.556 31.206 27.465 51.311 65.37 56.55 106.607 5.235 41.237-4.757 82.97-28.105 117.363s-58.445 59.081-98.705 69.431v304.043h-85.333v-304.043z" />
<glyph unicode="&#xe93d;" glyph-name="temp-hot-line" d="M341.333 746.667c0 45.264 17.981 88.673 49.987 120.68s75.415 49.987 120.68 49.987c45.265 0 88.674-17.981 120.678-49.987 32.009-32.006 49.988-75.416 49.988-120.68v-224.213c52.181-36.335 91.405-88.371 111.962-148.544 20.557-60.169 21.372-125.329 2.334-185.997-19.042-60.663-56.947-113.673-108.198-151.305-51.255-37.632-113.178-57.924-176.764-57.924s-125.51 20.292-176.762 57.924c-51.253 37.632-89.158 90.641-108.199 151.305-19.041 60.668-18.223 125.828 2.333 185.997 20.557 60.173 59.78 112.209 111.961 148.544v224.213zM390.144 452.48c-37.283-25.946-65.312-63.113-80.006-106.095-14.694-42.978-15.286-89.527-1.69-132.868s40.67-81.207 77.282-108.092c36.611-26.889 80.848-41.387 126.271-41.387s89.66 14.498 126.272 41.387c36.608 26.884 63.684 64.751 77.282 108.092 13.594 43.341 13.001 89.89-1.694 132.868-14.69 42.982-42.722 80.149-80.004 106.095l-36.523 25.472v268.715c0 22.632-8.99 44.337-24.994 60.34s-37.709 24.994-60.339 24.994c-22.63 0-44.335-8.99-60.339-24.994s-24.994-37.708-24.994-60.34v-268.715l-36.523-25.472zM469.333 442.624v304.043h85.333v-304.043c40.128-10.483 75.068-35.217 98.295-69.577s33.156-75.998 27.93-117.141c-5.222-41.143-25.246-78.98-56.324-106.445-31.078-27.46-71.091-42.675-112.567-42.795-41.57-0.043-81.724 15.091-112.927 42.556s-51.311 65.37-56.548 106.607c-5.237 41.237 4.756 82.97 28.104 117.363s58.444 59.081 98.705 69.431zM512 192c22.63 0 44.335 8.99 60.339 24.994s24.994 37.709 24.994 60.339c0 22.63-8.99 44.335-24.994 60.339s-37.709 24.994-60.339 24.994c-22.63 0-44.335-8.99-60.339-24.994s-24.994-37.709-24.994-60.339c0-22.63 8.99-44.335 24.994-60.339s37.709-24.994 60.339-24.994z" />
<glyph unicode="&#xe93e;" glyph-name="thunderstorms-fill" d="M724.817 192l51.883 67.413c7.292 9.472 11.789 20.8 12.971 32.695 1.186 11.895-0.986 23.889-6.263 34.615-5.282 10.722-13.461 19.755-23.612 26.074-10.155 6.315-21.871 9.66-33.826 9.655h-85.973v169.643c0.009 13.375-4.177 26.417-11.959 37.292-7.787 10.875-18.786 19.037-31.45 23.34s-26.359 4.53-39.159 0.65c-12.8-3.881-24.060-11.674-32.205-22.285l-271.572-353.323c-72.982 30.199-133.236 84.766-170.497 154.411-37.261 69.641-49.225 150.046-33.852 227.518s57.131 147.219 118.16 197.357c61.029 50.138 137.553 77.565 216.536 77.61 68.782 0.004 135.961-20.764 192.737-59.583 56.781-38.819 100.514-93.881 125.47-157.974 32.102 6.174 65.135 5.574 96.99-1.763s61.824-21.246 87.991-40.84c26.167-19.593 47.949-44.436 63.953-72.938 16.009-28.502 25.882-60.033 28.992-92.575 3.11-32.538-0.61-65.37-10.927-96.388-10.317-31.014-26.999-59.537-48.981-83.733-21.978-24.192-48.772-43.529-78.66-56.768s-62.208-20.087-94.899-20.105h-21.845zM554.662 277.12h128l-213.333-277.333v192h-127.999l213.332 277.547v-192.213z" />
<glyph unicode="&#xe93f;" glyph-name="thunderstorms-line" d="M725.333 192.009v85.333h21.333c24.623 0 48.858 6.093 70.558 17.728 21.696 11.635 40.179 28.454 53.803 48.964 13.628 20.506 21.969 44.062 24.29 68.574 2.317 24.512-1.459 49.216-10.995 71.91-9.536 22.699-24.538 42.688-43.669 58.187-19.127 15.499-41.796 26.027-65.975 30.648-24.183 4.621-49.135 3.191-72.631-4.162s-44.809-20.402-62.046-37.983v2.132c-0.017 46.929-12.932 92.951-37.338 133.035-24.401 40.084-59.358 72.689-101.039 94.252s-88.489 31.252-135.306 28.010c-46.817-3.242-91.842-19.29-130.155-46.392s-68.439-64.213-87.085-107.279c-18.647-43.066-25.097-90.428-18.645-136.911 6.452-46.485 25.556-90.3 55.227-126.66s68.764-63.863 113.009-79.505v-89.131c-56.588 14.643-108.468 43.571-150.669 84.015-42.201 40.448-73.308 91.051-90.342 146.965s-19.422 115.268-6.938 172.372c12.484 57.103 39.424 110.044 78.238 153.749s88.201 76.711 143.429 95.855c55.229 19.144 114.448 23.784 171.986 13.476 57.536-10.308 111.458-35.219 156.608-72.346 45.146-37.127 80-85.225 101.227-139.687 32.090 6.139 65.105 5.511 96.934-1.844s61.777-21.275 87.915-40.87c26.142-19.594 47.902-44.431 63.893-72.92 15.987-28.488 25.852-60.002 28.962-92.522 3.106-32.525-0.61-65.335-10.91-96.337-10.304-31.002-26.97-59.511-48.922-83.703-21.956-24.192-48.721-43.533-78.583-56.781-29.862-13.252-62.161-20.126-94.831-20.173l-21.333-0.043v0.043zM554.667 277.129h128l-213.333-277.333v192h-127.998l213.332 277.547v-192.213z" />
<glyph unicode="&#xe940;" glyph-name="tornado-fill" d="M85.333 832h853.333v-85.333h-853.333v85.333zM170.667 661.333h682.667v-85.333h-682.667v85.333zM341.333 490.667h597.333v-85.333h-597.333v85.333zM426.667 320h341.333v-85.333h-341.333v85.333zM341.333 149.333h256v-85.333h-256v85.333z" />
<glyph unicode="&#xe941;" glyph-name="tornado-line" d="M85.333 832h853.333v-85.333h-853.333v85.333zM170.667 661.333h682.667v-85.333h-682.667v85.333zM341.333 490.667h597.333v-85.333h-597.333v85.333zM426.667 320h341.333v-85.333h-341.333v85.333zM341.333 149.333h256v-85.333h-256v85.333z" />
<glyph unicode="&#xe942;" glyph-name="typhoon-fill" d="M753.237 887.458l-118.699-108.075c55.253-16.69 106.112-45.443 148.907-84.181 149.845-136.533 149.845-357.888 0-494.422-110.592-100.693-281.515-164.779-512.684-192.256l118.699 108.075c-55.255 16.691-106.115 45.444-148.907 84.181-149.845 136.533-150.741 357.078 0 494.422 110.592 100.693 281.559 164.778 512.727 192.256h-0.043zM512 618.658c-106.028 0-192.001-76.373-192.001-170.667s85.973-170.667 192.001-170.667c106.027 0 192 76.373 192 170.667s-85.973 170.667-192 170.667z" />
<glyph unicode="&#xe943;" glyph-name="typhoon-line" d="M753.237 887.458l-118.699-108.075c55.253-16.69 106.112-45.443 148.907-84.181 149.845-136.533 149.845-357.888 0-494.422-110.592-100.693-281.515-164.779-512.684-192.256l118.699 108.075c-55.255 16.691-106.115 45.444-148.907 84.181-149.845 136.533-150.741 357.078 0 494.422 110.592 100.693 281.559 164.778 512.727 192.256h-0.043zM512 703.991c-164.951 0-298.668-114.603-298.668-256s133.717-256 298.668-256c164.949 0 298.667 114.603 298.667 256s-133.717 256-298.667 256zM512 605.858c94.293 0 170.667-70.699 170.667-157.867s-76.373-157.867-170.667-157.867c-94.295 0-170.668 70.699-170.668 157.867s76.373 157.867 170.668 157.867zM512 520.525c-48.555 0-85.335-34.005-85.335-72.533s36.78-72.533 85.335-72.533c48.555 0 85.333 34.005 85.333 72.533s-36.779 72.533-85.333 72.533z" />
<glyph unicode="&#xe944;" glyph-name="windy-fill" d="M448 234.675h-277.333v85.333h277.333c27.251-0.009 53.986-7.475 77.295-21.594 23.313-14.114 42.321-34.342 54.959-58.487s18.428-51.29 16.738-78.49c-1.685-27.204-10.782-53.423-26.304-75.823-15.526-22.4-36.881-40.124-61.76-51.255-24.879-11.127-52.326-15.236-79.373-11.878-27.045 3.354-52.657 14.050-74.059 30.921s-37.78 39.279-47.357 64.794l79.915 29.995c4.104-10.935 11.121-20.54 20.294-27.772s20.146-11.814 31.738-13.252c11.593-1.442 23.356 0.32 34.018 5.086 10.662 4.77 19.814 12.365 26.47 21.965 6.652 9.6 10.551 20.838 11.277 32.495s-1.758 23.292-7.172 33.638c-5.414 10.351-13.559 19.021-23.552 25.071-9.988 6.050-21.444 9.25-33.126 9.254zM213.333 490.675h576c27.251-0.009 53.986-7.475 77.295-21.594 23.313-14.114 42.321-34.342 54.959-58.487s18.428-51.29 16.738-78.49c-1.685-27.204-10.782-53.423-26.304-75.823-15.526-22.4-36.881-40.124-61.76-51.255-24.879-11.127-52.326-15.236-79.373-11.878-27.046 3.354-52.655 14.050-74.061 30.921-21.402 16.87-37.777 39.279-47.356 64.794l79.915 29.995c4.105-10.935 11.123-20.54 20.292-27.772 9.173-7.232 20.147-11.814 31.74-13.252 11.593-1.442 23.356 0.32 34.018 5.086 10.662 4.77 19.814 12.365 26.47 21.965 6.652 9.6 10.551 20.838 11.277 32.495s-1.758 23.292-7.172 33.638c-5.414 10.351-13.559 19.021-23.552 25.071-9.988 6.050-21.444 9.25-33.126 9.254h-576c-33.948 0-66.505 13.487-90.51 37.491s-37.49 56.563-37.49 90.51c0 33.948 13.486 66.505 37.49 90.51s56.562 37.49 90.51 37.49h362.667c11.682 0.005 23.138 3.206 33.126 9.257 9.993 6.051 18.138 14.72 23.552 25.068s7.898 21.982 7.172 33.64c-0.725 11.657-4.625 22.895-11.277 32.495-6.656 9.6-15.808 17.195-26.47 21.964s-22.426 6.528-34.018 5.089c-11.593-1.44-22.566-6.023-31.74-13.255-9.169-7.232-16.188-16.836-20.292-27.771l-79.915 29.952c12.309 32.733 35.712 60.111 66.129 77.363 30.421 17.251 65.929 23.283 100.339 17.044s65.54-24.354 87.966-51.188c22.43-26.833 34.731-60.685 34.761-95.656 0-39.606-15.731-77.589-43.738-105.595s-65.988-43.738-105.596-43.738h-362.667c-11.316 0-22.168-4.495-30.17-12.497s-12.497-18.854-12.497-30.17c0-11.316 4.495-22.17 12.497-30.17s18.854-12.497 30.17-12.497z" />
<glyph unicode="&#xe945;" glyph-name="windy-line" d="M448 234.675h-277.333v85.333h277.333c27.251-0.009 53.986-7.475 77.295-21.594 23.313-14.114 42.321-34.342 54.959-58.487s18.428-51.29 16.738-78.49c-1.685-27.204-10.782-53.423-26.304-75.823-15.526-22.4-36.881-40.124-61.76-51.255-24.879-11.127-52.326-15.236-79.373-11.878-27.045 3.354-52.657 14.050-74.059 30.921s-37.78 39.279-47.357 64.794l79.915 29.995c4.104-10.935 11.121-20.54 20.294-27.772s20.146-11.814 31.738-13.252c11.593-1.442 23.356 0.32 34.018 5.086 10.662 4.77 19.814 12.365 26.47 21.965 6.652 9.6 10.551 20.838 11.277 32.495s-1.758 23.292-7.172 33.638c-5.414 10.351-13.559 19.021-23.552 25.071-9.988 6.050-21.444 9.25-33.126 9.254zM213.333 490.675h576c27.251-0.009 53.986-7.475 77.295-21.594 23.313-14.114 42.321-34.342 54.959-58.487s18.428-51.29 16.738-78.49c-1.685-27.204-10.782-53.423-26.304-75.823-15.526-22.4-36.881-40.124-61.76-51.255-24.879-11.127-52.326-15.236-79.373-11.878-27.046 3.354-52.655 14.050-74.061 30.921-21.402 16.87-37.777 39.279-47.356 64.794l79.915 29.995c4.105-10.935 11.123-20.54 20.292-27.772 9.173-7.232 20.147-11.814 31.74-13.252 11.593-1.442 23.356 0.32 34.018 5.086 10.662 4.77 19.814 12.365 26.47 21.965 6.652 9.6 10.551 20.838 11.277 32.495s-1.758 23.292-7.172 33.638c-5.414 10.351-13.559 19.021-23.552 25.071-9.988 6.050-21.444 9.25-33.126 9.254h-576c-33.948 0-66.505 13.487-90.51 37.491s-37.49 56.563-37.49 90.51c0 33.948 13.486 66.505 37.49 90.51s56.562 37.49 90.51 37.49h362.667c11.682 0.005 23.138 3.206 33.126 9.257 9.993 6.051 18.138 14.72 23.552 25.068s7.898 21.982 7.172 33.64c-0.725 11.657-4.625 22.895-11.277 32.495-6.656 9.6-15.808 17.195-26.47 21.964s-22.426 6.528-34.018 5.089c-11.593-1.44-22.566-6.023-31.74-13.255-9.169-7.232-16.188-16.836-20.292-27.771l-79.915 29.952c12.309 32.733 35.712 60.111 66.129 77.363 30.421 17.251 65.929 23.283 100.339 17.044s65.54-24.354 87.966-51.188c22.43-26.833 34.731-60.685 34.761-95.656 0-39.606-15.731-77.589-43.738-105.595s-65.988-43.738-105.596-43.738h-362.667c-11.316 0-22.168-4.495-30.17-12.497s-12.497-18.854-12.497-30.17c0-11.316 4.495-22.17 12.497-30.17s18.854-12.497 30.17-12.497z" />
<glyph unicode="&#xe946;" glyph-name="account-box-fill" d="M128 746.88c0 47.019 38.101 85.12 85.12 85.12h597.76c47.019 0 85.12-38.101 85.12-85.12v-597.76c0-22.575-8.969-44.224-24.93-60.19-15.966-15.962-37.615-24.93-60.19-24.93h-597.76c-22.575 0-44.226 8.969-60.189 24.93-15.963 15.966-24.931 37.615-24.931 60.19v597.76zM271.232 192h490.24c-27.494 39.535-64.149 71.825-106.833 94.114-42.684 22.293-90.133 33.916-138.287 33.886-48.154 0.030-95.601-11.593-138.287-33.886-42.685-22.289-79.34-54.579-106.833-94.114zM512 405.333c19.61 0 39.031 3.861 57.148 11.366s34.581 18.505 48.448 32.371c13.867 13.867 24.866 30.332 32.371 48.448s11.366 37.537 11.366 57.148c0 19.611-3.861 39.029-11.366 57.147s-18.505 34.58-32.371 48.447c-13.867 13.867-30.332 24.867-48.448 32.372s-37.538 11.367-57.148 11.367c-39.607 0-77.589-15.733-105.594-43.739s-43.739-65.989-43.739-105.594c0-39.607 15.733-77.589 43.739-105.596s65.987-43.738 105.594-43.738z" />
<glyph unicode="&#xe947;" glyph-name="account-box-line" d="M128 746.88c0 47.019 38.101 85.12 85.12 85.12h597.76c47.019 0 85.12-38.101 85.12-85.12v-597.76c0-22.575-8.969-44.224-24.93-60.19-15.966-15.962-37.615-24.93-60.19-24.93h-597.76c-22.575 0-44.226 8.969-60.189 24.93-15.963 15.966-24.931 37.615-24.931 60.19v597.76zM213.333 746.667v-597.333h597.333v597.333h-597.333zM340.139 184.32c-26.241 11.366-51.27 25.344-74.709 41.728 27.062 41.941 64.212 76.425 108.049 100.292s92.963 36.356 142.874 36.326c102.4 0 192.725-51.499 246.528-130.005-22.989-17.007-47.633-31.659-73.557-43.733-19.759 27.392-45.747 49.694-75.823 65.067-30.076 15.369-63.373 23.369-97.148 23.339-73.173 0-137.813-36.864-176.213-93.013zM512 405.333c-19.61 0-39.031 3.861-57.148 11.366s-34.58 18.505-48.447 32.371c-13.867 13.867-24.867 30.332-32.372 48.448s-11.367 37.537-11.367 57.148c0 19.611 3.863 39.029 11.367 57.147s18.505 34.58 32.372 48.447c13.867 13.867 30.33 24.867 48.447 32.372s37.538 11.367 57.148 11.367c39.607 0 77.589-15.733 105.596-43.739s43.738-65.989 43.738-105.594c0-39.607-15.731-77.589-43.738-105.596s-65.988-43.738-105.596-43.738zM512 490.667c16.973 0 33.254 6.741 45.257 18.743s18.743 28.283 18.743 45.257c0 16.974-6.741 33.253-18.743 45.255s-28.284 18.745-45.257 18.745c-16.973 0-33.254-6.743-45.257-18.745s-18.743-28.281-18.743-45.255c0-16.974 6.741-33.254 18.743-45.257s28.284-18.743 45.257-18.743z" />
<glyph unicode="&#xe948;" glyph-name="account-circle-fill" d="M512 874.667c235.52 0 426.667-191.147 426.667-426.667s-191.147-426.667-426.667-426.667c-235.52 0-426.667 191.147-426.667 426.667s191.147 426.667 426.667 426.667zM256.981 302.251c62.635-93.44 156.672-152.917 261.845-152.917 105.131 0 199.211 59.435 261.803 152.917-71.010 66.364-164.612 103.219-261.803 103.083-97.207 0.145-190.826-36.71-261.845-103.083zM512 490.667c33.946 0 66.505 13.487 90.509 37.491s37.491 56.561 37.491 90.509c0 33.948-13.487 66.505-37.491 90.51s-56.563 37.49-90.509 37.49c-33.946 0-66.505-13.486-90.51-37.49s-37.49-56.562-37.49-90.51c0-33.948 13.486-66.505 37.49-90.509s56.564-37.491 90.51-37.491z" />
<glyph unicode="&#xe949;" glyph-name="account-circle-line" d="M512 21.333c-235.648 0-426.667 191.019-426.667 426.667s191.019 426.667 426.667 426.667c235.648 0 426.667-191.019 426.667-426.667s-191.019-426.667-426.667-426.667zM299.221 181.077c60.397-48.286 135.454-74.534 212.779-74.411 84.053 0 160.981 30.379 220.459 80.725-27.789 28.514-61.009 51.162-97.707 66.611-36.693 15.45-76.113 23.381-115.925 23.33-41.276 0.047-82.112-8.486-119.916-25.054-37.804-16.572-71.752-40.819-99.689-71.202zM239.616 242.347c35.859 38.054 79.133 68.365 127.153 89.058s99.77 31.33 152.058 31.262c50.419 0.064 100.352-9.83 146.931-29.116 46.583-19.285 88.9-47.582 124.514-83.268 36.527 51.409 58.095 111.932 62.319 174.852 4.22 62.921-9.071 125.782-38.404 181.608s-73.557 102.436-127.765 134.656c-54.212 32.221-116.288 48.794-179.345 47.881s-124.627-19.278-177.881-53.056c-53.254-33.778-96.109-81.649-123.811-138.301s-39.168-119.872-33.125-182.643c6.042-62.775 29.357-122.645 67.357-172.975v0.043zM512 405.333c-45.265 0-88.673 17.98-120.68 49.988-32.006 32.004-49.987 75.413-49.987 120.678 0 45.264 17.981 88.673 49.987 120.68s75.415 49.987 120.68 49.987c45.265 0 88.674-17.981 120.678-49.987 32.009-32.006 49.988-75.416 49.988-120.68 0-45.265-17.98-88.674-49.988-120.678-32.004-32.009-75.413-49.988-120.678-49.988zM512 490.667c22.63 0 44.335 8.99 60.339 24.994s24.994 37.708 24.994 60.339c0 22.632-8.99 44.337-24.994 60.34s-37.709 24.994-60.339 24.994c-22.63 0-44.335-8.99-60.339-24.994s-24.994-37.708-24.994-60.34c0-22.632 8.99-44.335 24.994-60.339s37.709-24.994 60.339-24.994z" />
<glyph unicode="&#xe94a;" glyph-name="account-pin-box-fill" d="M597.333 64l-85.333-85.333-85.333 85.333h-213.547c-22.575 0-44.226 8.969-60.189 24.93-15.963 15.966-24.931 37.615-24.931 60.19v597.76c0 47.019 38.101 85.12 85.12 85.12h597.76c47.019 0 85.12-38.101 85.12-85.12v-597.76c0-22.575-8.969-44.224-24.93-60.19-15.966-15.962-37.615-24.93-60.19-24.93h-213.547zM271.232 192h490.24c-27.494 39.535-64.149 71.825-106.833 94.114-42.684 22.293-90.133 33.916-138.287 33.886-48.154 0.030-95.601-11.593-138.287-33.886-42.685-22.289-79.34-54.579-106.833-94.114zM512 405.333c19.61 0 39.031 3.861 57.148 11.366s34.581 18.505 48.448 32.371c13.867 13.867 24.866 30.332 32.371 48.448s11.366 37.537 11.366 57.148c0 19.611-3.861 39.029-11.366 57.147s-18.505 34.58-32.371 48.447c-13.867 13.867-30.332 24.867-48.448 32.372s-37.538 11.367-57.148 11.367c-39.607 0-77.589-15.733-105.594-43.739s-43.739-65.989-43.739-105.594c0-39.607 15.733-77.589 43.739-105.596s65.987-43.738 105.594-43.738z" />
<glyph unicode="&#xe94b;" glyph-name="account-pin-box-line" d="M597.333 64l-85.333-85.333-85.333 85.333h-213.547c-22.575 0-44.226 8.969-60.189 24.93-15.963 15.966-24.931 37.615-24.931 60.19v597.76c0 47.019 38.101 85.12 85.12 85.12h597.76c47.019 0 85.12-38.101 85.12-85.12v-597.76c0-22.575-8.969-44.224-24.93-60.19-15.966-15.962-37.615-24.93-60.19-24.93h-213.547zM810.667 149.333v597.333h-597.333v-597.333h248.661l50.005-50.005 50.005 50.005h248.661zM340.139 184.32c-26.241 11.366-51.27 25.344-74.709 41.728 27.062 41.941 64.212 76.425 108.049 100.292s92.963 36.356 142.874 36.326c102.4 0 192.725-51.499 246.528-130.005-22.989-17.007-47.633-31.659-73.557-43.733-19.759 27.392-45.747 49.694-75.823 65.067-30.076 15.369-63.373 23.369-97.148 23.339-73.173 0-137.813-36.864-176.213-93.013zM512 405.333c-19.61 0-39.031 3.861-57.148 11.366s-34.58 18.505-48.447 32.371c-13.867 13.867-24.867 30.332-32.372 48.448s-11.367 37.537-11.367 57.148c0 19.611 3.863 39.029 11.367 57.147s18.505 34.58 32.372 48.447c13.867 13.867 30.33 24.867 48.447 32.372s37.538 11.367 57.148 11.367c39.607 0 77.589-15.733 105.596-43.739s43.738-65.989 43.738-105.594c0-39.607-15.731-77.589-43.738-105.596s-65.988-43.738-105.596-43.738zM512 490.667c16.973 0 33.254 6.741 45.257 18.743s18.743 28.283 18.743 45.257c0 16.974-6.741 33.253-18.743 45.255s-28.284 18.745-45.257 18.745c-16.973 0-33.254-6.743-45.257-18.745s-18.743-28.281-18.743-45.255c0-16.974 6.741-33.254 18.743-45.257s28.284-18.743 45.257-18.743z" />
<glyph unicode="&#xe94c;" glyph-name="account-pin-circle-fill" d="M608.256 32.256l-96.256-96.256-96.256 96.256c-189.184 43.691-330.411 213.333-330.411 415.744 0 235.52 191.147 426.667 426.667 426.667s426.667-191.147 426.667-426.667c0-202.411-141.227-372.053-330.411-415.744zM256.981 302.251c62.635-93.44 156.672-152.917 261.845-152.917 105.131 0 199.211 59.435 261.803 152.917-71.010 66.364-164.612 103.219-261.803 103.083-97.207 0.145-190.826-36.71-261.845-103.083zM512 490.667c33.946 0 66.505 13.487 90.509 37.491s37.491 56.561 37.491 90.509c0 33.948-13.487 66.505-37.491 90.51s-56.563 37.49-90.509 37.49c-33.946 0-66.505-13.486-90.51-37.49s-37.49-56.562-37.49-90.51c0-33.948 13.486-66.505 37.49-90.509s56.564-37.491 90.51-37.491z" />
<glyph unicode="&#xe94d;" glyph-name="account-pin-circle-line" d="M415.787 32.213c-189.312 43.648-330.453 213.248-330.453 415.787 0 235.648 191.019 426.667 426.667 426.667s426.667-191.019 426.667-426.667c0-202.539-141.141-372.139-330.453-415.787l-96.213-96.213-96.213 96.213zM299.179 181.035c39.757-31.795 86.158-54.238 135.765-65.664l23.893-5.504 53.163-53.205 53.205 53.205 23.893 5.547c52.847 12.181 102.007 36.851 143.36 71.936-27.785 28.518-61.005 51.179-97.698 66.633-36.698 15.458-76.117 23.398-115.934 23.351-86.869 0-165.12-37.12-219.648-96.299zM239.616 242.347c35.859 38.054 79.133 68.365 127.153 89.058s99.77 31.33 152.058 31.262c50.419 0.064 100.352-9.83 146.931-29.116 46.583-19.285 88.9-47.582 124.514-83.268 36.527 51.409 58.095 111.932 62.319 174.852 4.22 62.921-9.071 125.782-38.404 181.608s-73.557 102.436-127.765 134.656c-54.212 32.221-116.288 48.794-179.345 47.881s-124.627-19.278-177.881-53.056c-53.254-33.778-96.109-81.649-123.811-138.301s-39.168-119.872-33.125-182.643c6.042-62.775 29.357-122.645 67.357-172.975v0.043zM512 405.333c-45.265 0-88.673 17.98-120.68 49.988-32.006 32.004-49.987 75.413-49.987 120.678 0 45.264 17.981 88.673 49.987 120.68s75.415 49.987 120.68 49.987c45.265 0 88.674-17.981 120.678-49.987 32.009-32.006 49.988-75.416 49.988-120.68 0-45.265-17.98-88.674-49.988-120.678-32.004-32.009-75.413-49.988-120.678-49.988zM512 490.667c22.63 0 44.335 8.99 60.339 24.994s24.994 37.708 24.994 60.339c0 22.632-8.99 44.337-24.994 60.34s-37.709 24.994-60.339 24.994c-22.63 0-44.335-8.99-60.339-24.994s-24.994-37.708-24.994-60.34c0-22.632 8.99-44.335 24.994-60.339s37.709-24.994 60.339-24.994z" />
<glyph unicode="&#xe94e;" glyph-name="admin-fill" d="M512 362.667v-341.333h-341.333c0 90.526 35.962 177.348 99.974 241.361 64.012 64.009 150.832 99.972 241.359 99.972zM512 405.333c-141.44 0-256 114.56-256 256s114.56 256 256 256c141.44 0 256-114.56 256-256s-114.56-256-256-256zM896 234.667h42.667v-213.333h-341.333v213.333h42.667v42.667c0 33.946 13.487 66.505 37.491 90.509s56.563 37.491 90.509 37.491c33.946 0 66.505-13.487 90.509-37.491s37.491-56.563 37.491-90.509v-42.667zM810.667 234.667v42.667c0 11.315-4.497 22.17-12.497 30.17s-18.854 12.497-30.17 12.497c-11.315 0-22.17-4.497-30.17-12.497s-12.497-18.854-12.497-30.17v-42.667h85.333z" />
<glyph unicode="&#xe94f;" glyph-name="admin-line" d="M512 362.667v-85.333c-67.895 0-133.010-26.97-181.019-74.982-48.009-48.009-74.981-113.122-74.981-181.018h-85.333c0 90.526 35.962 177.348 99.974 241.361 64.012 64.009 150.832 99.972 241.359 99.972zM512 405.333c-141.44 0-256 114.56-256 256s114.56 256 256 256c141.44 0 256-114.56 256-256s-114.56-256-256-256zM512 490.667c94.293 0 170.667 76.373 170.667 170.667s-76.373 170.667-170.667 170.667c-94.293 0-170.667-76.373-170.667-170.667s76.373-170.667 170.667-170.667zM896 234.667h42.667v-213.333h-341.333v213.333h42.667v42.667c0 33.946 13.487 66.505 37.491 90.509s56.563 37.491 90.509 37.491c33.946 0 66.505-13.487 90.509-37.491s37.491-56.563 37.491-90.509v-42.667zM810.667 234.667v42.667c0 11.315-4.497 22.17-12.497 30.17s-18.854 12.497-30.17 12.497c-11.315 0-22.17-4.497-30.17-12.497s-12.497-18.854-12.497-30.17v-42.667h85.333z" />
<glyph unicode="&#xe950;" glyph-name="aliens-fill" d="M512 874.667c96.183 0 188.429-38.209 256.444-106.223s106.223-160.259 106.223-256.444c0-277.333-234.667-512-362.667-512s-362.667 234.667-362.667 512c0 96.185 38.209 188.431 106.223 256.444s160.259 106.223 256.444 106.223zM746.667 448c-26.923 0-53.547-5.662-78.14-16.619s-46.609-26.961-64.614-46.98c-18.005-20.015-31.599-43.597-39.902-69.21-8.299-25.613-11.119-52.685-8.277-79.458 28.476-3.025 57.267 0.363 84.267 9.907s51.52 25.007 71.77 45.257c20.25 20.25 35.712 44.77 45.257 71.77s12.932 55.791 9.907 84.267c-6.733 0.708-13.495 1.067-20.267 1.067zM277.333 448c-6.827 0-13.611-0.341-20.267-1.067-3.024-28.476 0.361-57.267 9.905-84.267s25.008-51.52 45.257-71.77c20.249-20.25 44.771-35.712 71.77-45.257s55.792-12.932 84.268-9.907c2.842 26.773 0.021 53.845-8.277 79.458-8.303 25.613-21.897 49.195-39.902 69.21-18.006 20.019-40.020 36.023-64.614 46.98s-51.217 16.619-78.141 16.619z" />
<glyph unicode="&#xe951;" glyph-name="aliens-line" d="M512 874.667c96.183 0 188.429-38.209 256.444-106.223s106.223-160.259 106.223-256.444c0-277.333-234.667-512-362.667-512s-362.667 234.667-362.667 512c0 96.185 38.209 188.431 106.223 256.444s160.259 106.223 256.444 106.223zM512 789.333c-73.553 0-144.094-29.219-196.104-81.229s-81.229-122.551-81.229-196.104c0-204.544 177.707-426.667 277.333-426.667s277.333 222.123 277.333 426.667c0 73.553-29.218 144.094-81.229 196.104s-122.551 81.229-196.105 81.229zM746.667 490.667c6.827 0 13.611-0.341 20.267-1.067 3.025-28.476-0.363-57.267-9.907-84.267s-25.007-51.52-45.257-71.77c-20.25-20.25-44.77-35.712-71.77-45.257s-55.791-12.932-84.267-9.907c-2.842 26.773-0.021 53.845 8.277 79.458 8.303 25.613 21.897 49.195 39.902 69.21 18.005 20.019 40.021 36.023 64.614 46.98s51.217 16.619 78.14 16.619zM277.333 490.667c26.924 0 53.547-5.662 78.141-16.619s46.608-26.961 64.614-46.98c18.005-20.015 31.599-43.597 39.902-69.21 8.299-25.613 11.119-52.685 8.277-79.458-28.476-3.025-57.268 0.363-84.268 9.907s-51.521 25.007-71.77 45.257c-20.249 20.25-35.712 44.77-45.257 71.77s-12.929 55.791-9.905 84.267c6.613 0.725 13.44 1.067 20.267 1.067z" />
<glyph unicode="&#xe952;" glyph-name="bear-smile-fill" d="M746.667 874.667c39.117-0.003 77.303-11.955 109.444-34.257s56.7-53.889 70.391-90.534c13.696-36.645 15.868-76.598 6.229-114.512s-30.626-71.979-60.156-97.635c15.147-41.259 23.424-85.888 23.424-132.395-0.034-56.102-12.356-111.518-36.105-162.342-23.753-50.829-58.347-95.834-101.363-131.853-43.012-36.019-93.393-62.174-147.601-76.629-54.208-14.451-110.925-16.853-166.161-7.031s-107.648 31.629-153.551 63.885c-45.902 32.256-84.179 74.176-112.138 122.816s-44.92 102.814-49.692 158.711c-4.771 55.898 2.764 112.166 22.076 164.838-20.903 18.165-37.629 40.637-49.031 65.873s-17.21 52.641-17.024 80.334c0.185 27.692 6.358 55.017 18.096 80.099s28.763 47.328 49.907 65.212c21.143 17.884 45.906 30.982 72.588 38.397s54.652 8.969 81.991 4.558c27.339-4.412 53.401-14.685 76.396-30.115s42.38-35.653 56.827-59.279c46.814 8.735 94.839 8.735 141.653 0 17.131 28.074 41.195 51.269 69.884 67.357 28.685 16.087 61.026 24.526 93.914 24.505zM426.666 405.333h-85.333c-0.001-44.527 17.399-87.287 48.486-119.164s73.4-50.338 117.91-51.452c44.514-1.114 87.697 15.211 120.341 45.491 32.64 30.285 52.156 72.119 54.383 116.591l0.213 8.533h-85.333c0.098-22.144-8.414-43.456-23.74-59.443-15.326-15.983-36.262-25.382-58.394-26.21-22.127-0.832-43.712 6.972-60.19 21.76-16.482 14.788-26.569 35.405-28.13 57.493l-0.214 6.4z" />
<glyph unicode="&#xe953;" glyph-name="bear-smile-line" d="M746.667 874.667c39.117-0.003 77.303-11.955 109.444-34.257s56.7-53.889 70.391-90.534c13.696-36.645 15.868-76.598 6.229-114.512s-30.626-71.979-60.156-97.635c15.147-41.259 23.424-85.888 23.424-132.395-0.034-56.102-12.356-111.518-36.105-162.342-23.753-50.829-58.347-95.834-101.363-131.853-43.012-36.019-93.393-62.174-147.601-76.629-54.208-14.451-110.925-16.853-166.161-7.031s-107.648 31.629-153.551 63.885c-45.902 32.256-84.179 74.176-112.138 122.816s-44.92 102.814-49.692 158.711c-4.771 55.898 2.764 112.166 22.076 164.838-20.903 18.165-37.629 40.637-49.031 65.873s-17.21 52.641-17.024 80.334c0.185 27.692 6.358 55.017 18.096 80.099s28.763 47.328 49.907 65.212c21.143 17.884 45.906 30.982 72.588 38.397s54.652 8.969 81.991 4.558c27.339-4.412 53.401-14.685 76.396-30.115s42.38-35.653 56.827-59.279c46.814 8.735 94.839 8.735 141.653 0 17.131 28.074 41.195 51.269 69.884 67.357 28.685 16.087 61.026 24.526 93.914 24.505zM746.667 789.333c-35.115 0-67.2-17.067-86.955-44.885l-4.053-6.144-30.635-50.176-57.813 10.795c-31.91 5.954-64.576 6.703-96.725 2.219l-13.483-2.219-57.857-10.88-30.72 50.176c-7.85 12.858-18.334 23.907-30.763 32.419s-26.519 14.297-41.344 16.971c-14.825 2.674-30.048 2.177-44.668-1.457s-28.303-10.324-40.15-19.629c-11.847-9.305-21.589-21.013-28.585-34.355s-11.085-28.014-12-43.051c-0.915-15.037 1.365-30.097 6.691-44.188s13.575-26.896 24.207-37.569l5.589-5.248 44.416-38.571-20.267-55.253c-15.005-40.969-20.852-84.723-17.13-128.192s16.921-85.594 38.67-123.413c21.749-37.82 51.52-70.417 87.219-95.497s76.458-42.035 119.411-49.668c42.957-7.637 87.061-5.773 129.216 5.466s81.335 31.578 114.79 59.584c33.451 28.006 60.361 63.002 78.835 102.524s28.070 82.615 28.105 126.242c0 30.549-4.565 60.416-13.397 88.875l-4.779 14.080-20.267 55.253 44.373 38.571c16.418 14.25 28.087 33.176 33.451 54.243s4.16 43.27-3.447 63.635c-7.607 20.365-21.252 37.919-39.113 50.312-17.865 12.393-39.083 19.033-60.821 19.031zM426.666 405.333c0-22.63 8.991-44.335 24.995-60.339 16-16.004 37.705-24.994 60.339-24.994 22.63 0 44.335 8.99 60.339 24.994s24.994 37.709 24.994 60.339h85.333c0-45.265-17.98-88.674-49.988-120.678-32.004-32.009-75.418-49.988-120.678-49.988-45.265 0-88.674 17.98-120.681 49.988-32.006 32.004-49.987 75.413-49.987 120.678h85.333z" />
<glyph unicode="&#xe954;" glyph-name="body-scan-fill" d="M170.667 277.333v-170.667h170.667v-85.333h-256v256h85.333zM938.667 277.333v-256h-256v85.333h170.667v170.667h85.333zM320 661.333c0-50.921 20.229-99.758 56.236-135.765 36.007-36.006 84.842-56.235 135.764-56.235s99.759 20.228 135.765 56.235c36.006 36.008 56.235 84.844 56.235 135.765h85.333c0.009-50.747-13.905-100.525-40.23-143.91-26.321-43.388-64.047-78.72-109.060-102.148l-0.043-265.941h-256v265.899c-45.030 23.428-82.766 58.765-109.097 102.157-26.332 43.396-40.249 93.185-40.236 143.945h85.333zM512 746.667c28.288 0 55.42-11.238 75.426-31.242 20.002-20.004 31.241-47.135 31.241-75.425s-11.238-55.421-31.241-75.425c-20.006-20.004-47.138-31.242-75.426-31.242s-55.42 11.238-75.426 31.242c-20.003 20.004-31.241 47.135-31.241 75.425s11.238 55.421 31.241 75.425c20.006 20.004 47.138 31.242 75.426 31.242zM341.333 874.667v-85.333l-170.667 0.043v-170.709h-85.333v256h256zM938.667 874.667v-256h-85.333v170.667h-170.667v85.333h256z" />
<glyph unicode="&#xe955;" glyph-name="body-scan-line" d="M170.667 277.333v-170.667h170.667v-85.333h-256v256h85.333zM938.667 277.333v-256h-256v85.333h170.667v170.667h85.333zM320 661.333c0.001-43.513 14.775-85.737 41.905-119.758s65.005-57.821 107.428-67.506v-239.403h85.333l0.043 239.445c42.406 9.69 80.269 33.489 107.388 67.501 27.123 34.011 41.894 76.22 41.903 119.721h85.333c0.009-50.747-13.905-100.525-40.23-143.91-26.321-43.388-64.047-78.72-109.060-102.148l-0.043-265.941h-256v265.899c-45.030 23.428-82.766 58.765-109.097 102.157-26.332 43.396-40.249 93.185-40.236 143.945h85.333zM512 746.667c28.288 0 55.42-11.238 75.426-31.242 20.002-20.004 31.241-47.135 31.241-75.425s-11.238-55.421-31.241-75.425c-20.006-20.004-47.138-31.242-75.426-31.242s-55.42 11.238-75.426 31.242c-20.003 20.004-31.241 47.135-31.241 75.425s11.238 55.421 31.241 75.425c20.006 20.004 47.138 31.242 75.426 31.242zM341.333 874.667v-85.333l-170.667 0.043v-170.709h-85.333v256h256zM938.667 874.667v-256h-85.333v170.667h-170.667v85.333h256z" />
<glyph unicode="&#xe956;" glyph-name="contacts-fill" d="M85.333 21.333c0 90.526 35.962 177.348 99.974 241.361 64.012 64.009 150.832 99.972 241.359 99.972 90.526 0 177.348-35.964 241.361-99.972 64.009-64.013 99.972-150.835 99.972-241.361h-682.667zM426.667 405.333c-141.44 0-256 114.56-256 256s114.56 256 256 256c141.44 0 256-114.56 256-256s-114.56-256-256-256zM853.333 234.667h170.667v-85.333h-170.667v85.333zM725.333 448h298.667v-85.333h-298.667v85.333zM810.667 661.333h213.333v-85.333h-213.333v85.333z" />
<glyph unicode="&#xe957;" glyph-name="contacts-line" d="M810.667 661.333h213.333v-85.333h-213.333v85.333zM725.333 448h298.667v-85.333h-298.667v85.333zM853.333 234.667h170.667v-85.333h-170.667v85.333zM85.333 21.333c0 90.526 35.962 177.348 99.974 241.361 64.012 64.009 150.832 99.972 241.359 99.972 90.526 0 177.348-35.964 241.361-99.972 64.009-64.013 99.972-150.835 99.972-241.361h-85.333c0 67.895-26.97 133.009-74.982 181.018-48.009 48.013-113.122 74.982-181.018 74.982s-133.010-26.97-181.019-74.982c-48.009-48.009-74.981-113.122-74.981-181.018h-85.333zM426.667 405.333c-141.44 0-256 114.56-256 256s114.56 256 256 256c141.44 0 256-114.56 256-256s-114.56-256-256-256zM426.667 490.667c94.293 0 170.667 76.373 170.667 170.667s-76.373 170.667-170.667 170.667c-94.293 0-170.667-76.373-170.667-170.667s76.373-170.667 170.667-170.667z" />
<glyph unicode="&#xe958;" glyph-name="criminal-fill" d="M512 874.667c73.101 0.003 144.687-20.861 206.34-60.138s110.814-95.338 141.705-161.592c30.891-66.254 42.231-139.951 32.683-212.424-9.549-72.478-39.586-140.723-86.583-196.715 53.547-35.413 86.741-80.64 89.643-130.091l0.213-7.040-384-85.333-384 85.333 0.213 7.040c2.859 49.493 36.096 94.72 89.6 130.133-58.133 69.094-89.948 156.531-89.813 246.827 0 101.843 40.457 199.515 112.471 271.529s169.686 112.471 271.529 112.471zM512 405.333c-58.88 0-106.666-28.672-106.666-64s47.786-64 106.666-64c58.88 0 106.667 28.672 106.667 64s-47.787 64-106.667 64zM384 618.667c-47.147 0-85.333-28.672-85.333-64s38.187-64 85.333-64c47.146 0 85.333 28.672 85.333 64s-38.187 64-85.333 64zM640 618.667c-47.147 0-85.333-28.672-85.333-64s38.187-64 85.333-64c47.147 0 85.333 28.672 85.333 64s-38.187 64-85.333 64z" />
<glyph unicode="&#xe959;" glyph-name="criminal-line" d="M512 874.667c73.101 0.003 144.687-20.861 206.34-60.138s110.814-95.338 141.705-161.592c30.891-66.254 42.231-139.951 32.683-212.424-9.549-72.478-39.586-140.723-86.583-196.715 53.547-35.413 86.741-80.64 89.643-130.091l0.213-7.040-384-85.333-384 85.333 0.213 7.040c2.859 49.493 36.096 94.72 89.6 130.133-58.133 69.094-89.948 156.531-89.813 246.827 0 101.843 40.457 199.515 112.471 271.529s169.686 112.471 271.529 112.471zM512 789.333c-79.211 0-155.178-31.467-211.189-87.477s-87.477-131.978-87.477-211.189c0-66.859 21.931-130.133 61.653-181.803l8.192-10.197 61.568-73.259-83.712-55.424-5.845-4.139 256.81-57.088 256.768 57.088-2.091 1.536-7.595 5.248-79.829 52.779 61.568 73.301c45.239 53.717 69.986 121.728 69.845 191.957 0 79.212-31.467 155.178-87.475 211.189-56.013 56.011-131.981 87.477-211.191 87.477zM512 405.333c58.88 0 106.667-28.672 106.667-64s-47.787-64-106.667-64c-58.88 0-106.666 28.672-106.666 64s47.786 64 106.666 64zM384 618.667c47.146 0 85.333-28.672 85.333-64s-38.187-64-85.333-64c-47.147 0-85.333 28.672-85.333 64s38.187 64 85.333 64zM640 618.667c47.147 0 85.333-28.672 85.333-64s-38.187-64-85.333-64c-47.147 0-85.333 28.672-85.333 64s38.187 64 85.333 64z" />
<glyph unicode="&#xe95a;" glyph-name="emotion-2-fill" d="M512 21.333c-235.648 0-426.667 191.019-426.667 426.667s191.019 426.667 426.667 426.667c235.648 0 426.667-191.019 426.667-426.667s-191.019-426.667-426.667-426.667zM341.333 405.333c0-45.265 17.981-88.674 49.987-120.678 32.006-32.009 75.415-49.988 120.68-49.988s88.674 17.98 120.678 49.988c32.009 32.004 49.988 75.413 49.988 120.678h-341.333z" />
<glyph unicode="&#xe95b;" glyph-name="emotion-2-line" d="M512 21.333c-235.648 0-426.667 191.019-426.667 426.667s191.019 426.667 426.667 426.667c235.648 0 426.667-191.019 426.667-426.667s-191.019-426.667-426.667-426.667zM512 106.667c90.526 0 177.348 35.964 241.361 99.972 64.009 64.013 99.972 150.835 99.972 241.361 0 90.527-35.964 177.347-99.972 241.359-64.013 64.013-150.835 99.974-241.361 99.974-90.527 0-177.347-35.962-241.359-99.974s-99.974-150.832-99.974-241.359c0-90.526 35.962-177.348 99.974-241.361 64.012-64.009 150.832-99.972 241.359-99.972zM341.333 405.333h341.333c0-45.265-17.98-88.674-49.988-120.678-32.004-32.009-75.413-49.988-120.678-49.988s-88.673 17.98-120.68 49.988c-32.006 32.004-49.987 75.413-49.987 120.678z" />
<glyph unicode="&#xe95c;" glyph-name="emotion-fill" d="M512 21.333c-235.648 0-426.667 191.019-426.667 426.667s191.019 426.667 426.667 426.667c235.648 0 426.667-191.019 426.667-426.667s-191.019-426.667-426.667-426.667zM341.333 405.333c0-45.265 17.981-88.674 49.987-120.678 32.006-32.009 75.415-49.988 120.68-49.988s88.674 17.98 120.678 49.988c32.009 32.004 49.988 75.413 49.988 120.678h-341.333zM341.333 490.667c16.974 0 33.253 6.741 45.255 18.743s18.745 28.283 18.745 45.257c0 16.974-6.743 33.253-18.745 45.255s-28.281 18.745-45.255 18.745c-16.974 0-33.253-6.743-45.255-18.745s-18.745-28.281-18.745-45.255c0-16.974 6.743-33.254 18.745-45.257s28.281-18.743 45.255-18.743zM682.667 490.667c16.973 0 33.254 6.741 45.257 18.743s18.743 28.283 18.743 45.257c0 16.974-6.741 33.253-18.743 45.255s-28.284 18.745-45.257 18.745c-16.973 0-33.254-6.743-45.257-18.745s-18.743-28.281-18.743-45.255c0-16.974 6.741-33.254 18.743-45.257s28.284-18.743 45.257-18.743z" />
</font>
</defs>
</svg>
