<?xml version="1.0" standalone="no"?>
<!DOCTYPE svg PUBLIC "-//W3C//DTD SVG 1.1//EN" "http://www.w3.org/Graphics/SVG/1.1/DTD/svg11.dtd" >
<svg xmlns="http://www.w3.org/2000/svg">
<metadata>Generated by IcoMoon</metadata>
<defs>
<font id="icomoon" horiz-adv-x="1024">
<font-face units-per-em="1024" ascent="960" descent="-64" />
<missing-glyph horiz-adv-x="1024" />
<glyph unicode="&#x20;" horiz-adv-x="512" d="" />
<glyph unicode="&#xe900;" glyph-name="chat-1-fill" d="M426.667 832h170.667c90.526 0 177.348-35.962 241.361-99.974 64.009-64.012 99.972-150.832 99.972-241.359s-35.964-177.348-99.972-241.361c-64.013-64.009-150.835-99.972-241.361-99.972v-149.333c-213.333 85.333-512 213.333-512 490.667 0 90.527 35.962 177.347 99.974 241.359s150.832 99.974 241.359 99.974z" />
<glyph unicode="&#xe901;" glyph-name="chat-1-line" d="M426.667 832h170.667c90.526 0 177.348-35.962 241.361-99.974 64.009-64.012 99.972-150.832 99.972-241.359s-35.964-177.348-99.972-241.361c-64.013-64.009-150.835-99.972-241.361-99.972v-149.333c-213.333 85.333-512 213.333-512 490.667 0 90.527 35.962 177.347 99.974 241.359s150.832 99.974 241.359 99.974zM512 234.667h85.333c33.617 0 66.906 6.622 97.967 19.486 31.061 12.868 59.281 31.723 83.051 55.497 23.774 23.77 42.628 51.989 55.497 83.051 12.864 31.061 19.486 64.35 19.486 97.967s-6.622 66.908-19.486 97.967c-12.868 31.059-31.723 59.281-55.497 83.052-23.77 23.772-51.989 42.629-83.051 55.494s-64.35 19.487-97.967 19.487h-170.667c-67.895 0-133.010-26.971-181.019-74.981s-74.981-113.124-74.981-181.019c0-154.027 105.045-254.549 341.333-361.813v105.813z" />
<glyph unicode="&#xe902;" glyph-name="chat-2-fill" d="M616.533 149.333l-104.533-149.333-104.533 149.333h-279.467c-11.316 0-22.168 4.497-30.17 12.497s-12.497 18.854-12.497 30.17v597.333c0 11.316 4.495 22.168 12.497 30.17s18.854 12.497 30.17 12.497h768c11.315 0 22.17-4.495 30.17-12.497s12.497-18.854 12.497-30.17v-597.333c0-11.315-4.497-22.17-12.497-30.17s-18.854-12.497-30.17-12.497h-279.467z" />
<glyph unicode="&#xe903;" glyph-name="chat-2-line" d="M616.533 149.333l-104.533-149.333-104.533 149.333h-279.467c-11.316 0-22.168 4.497-30.17 12.497s-12.497 18.854-12.497 30.17v597.333c0 11.316 4.495 22.168 12.497 30.17s18.854 12.497 30.17 12.497h768c11.315 0 22.17-4.495 30.17-12.497s12.497-18.854 12.497-30.17v-597.333c0-11.315-4.497-22.17-12.497-30.17s-18.854-12.497-30.17-12.497h-279.467zM572.117 234.667h281.216v512h-682.667v-512h281.216l60.117-85.845 60.117 85.845z" />
<glyph unicode="&#xe904;" glyph-name="chat-3-fill" d="M311.083 71.509l-225.749-50.176 50.176 225.749c-33.044 61.807-50.281 130.833-50.176 200.917 0 235.648 191.019 426.667 426.666 426.667s426.667-191.019 426.667-426.667c0-235.648-191.019-426.667-426.667-426.667-70.084-0.107-139.109 17.131-200.917 50.176z" />
<glyph unicode="&#xe905;" glyph-name="chat-3-line" d="M311.083 71.509l-225.749-50.176 50.176 225.749c-33.044 61.807-50.281 130.833-50.176 200.917 0 235.648 191.019 426.667 426.666 426.667s426.667-191.019 426.667-426.667c0-235.648-191.019-426.667-426.667-426.667-70.084-0.107-139.109 17.131-200.917 50.176zM323.456 161.664l27.861-14.933c49.431-26.415 104.635-40.179 160.682-40.064 67.511 0 133.504 20.019 189.636 57.523 56.132 37.508 99.878 90.816 125.713 153.186s32.597 131.004 19.426 197.214c-13.171 66.213-45.679 127.033-93.414 174.769-47.74 47.736-108.557 80.245-174.771 93.416-66.21 13.17-134.839 6.411-197.212-19.424-62.37-25.835-115.679-69.584-153.186-125.716s-57.525-122.123-57.525-189.635c0-56.917 13.867-111.701 40.107-160.683l14.891-27.861-27.947-125.739 125.739 27.947z" />
<glyph unicode="&#xe906;" glyph-name="chat-4-fill" d="M275.413 149.333l-190.080-149.333v789.333c0 11.316 4.495 22.168 12.497 30.17s18.854 12.497 30.17 12.497h768c11.315 0 22.17-4.495 30.17-12.497s12.497-18.854 12.497-30.17v-597.333c0-11.315-4.497-22.17-12.497-30.17s-18.854-12.497-30.17-12.497h-620.587z" />
<glyph unicode="&#xe907;" glyph-name="chat-4-line" d="M245.888 234.667h607.445v512h-682.667v-571.093l75.221 59.093zM275.413 149.333l-190.080-149.333v789.333c0 11.316 4.495 22.168 12.497 30.17s18.854 12.497 30.17 12.497h768c11.315 0 22.17-4.495 30.17-12.497s12.497-18.854 12.497-30.17v-597.333c0-11.315-4.497-22.17-12.497-30.17s-18.854-12.497-30.17-12.497h-620.587z" />
<glyph unicode="&#xe908;" glyph-name="chat-check-fill" d="M275.413 149.333l-190.080-149.333v789.333c0 11.316 4.495 22.168 12.497 30.17s18.854 12.497 30.17 12.497h768c11.315 0 22.17-4.495 30.17-12.497s12.497-18.854 12.497-30.17v-597.333c0-11.315-4.497-22.17-12.497-30.17s-18.854-12.497-30.17-12.497h-620.587zM481.835 442.837l-105.6 105.6-60.331-60.373 165.931-165.931 241.365 241.365-60.331 60.331-181.035-180.992z" />
<glyph unicode="&#xe909;" glyph-name="chat-check-line" d="M275.413 149.333l-190.080-149.333v789.333c0 11.316 4.495 22.168 12.497 30.17s18.854 12.497 30.17 12.497h768c11.315 0 22.17-4.495 30.17-12.497s12.497-18.854 12.497-30.17v-597.333c0-11.315-4.497-22.17-12.497-30.17s-18.854-12.497-30.17-12.497h-620.587zM245.888 234.667h607.445v512h-682.667v-571.093l75.221 59.093zM481.835 442.837l181.035 180.992 60.331-60.331-241.365-241.365-165.973 165.973 60.373 60.331 105.6-105.6z" />
<glyph unicode="&#xe90a;" glyph-name="chat-delete-fill" d="M275.413 149.333l-190.080-149.333v789.333c0 11.316 4.495 22.168 12.497 30.17s18.854 12.497 30.17 12.497h768c11.315 0 22.17-4.495 30.17-12.497s12.497-18.854 12.497-30.17v-597.333c0-11.315-4.497-22.17-12.497-30.17s-18.854-12.497-30.17-12.497h-620.587zM572.373 490.667l105.557 105.6-60.331 60.331-105.6-105.6-105.6 105.643-60.331-60.373 105.6-105.6-105.643-105.6 60.331-60.331 105.643 105.6 105.6-105.6 60.331 60.331-105.557 105.6z" />
<glyph unicode="&#xe90b;" glyph-name="chat-delete-line" d="M275.413 149.333l-190.080-149.333v789.333c0 11.316 4.495 22.168 12.497 30.17s18.854 12.497 30.17 12.497h768c11.315 0 22.17-4.495 30.17-12.497s12.497-18.854 12.497-30.17v-597.333c0-11.315-4.497-22.17-12.497-30.17s-18.854-12.497-30.17-12.497h-620.587zM170.667 175.573l75.221 59.093h607.445v512h-682.667v-571.093zM572.331 490.667l105.6-105.6-60.331-60.331-105.6 105.6-105.6-105.643-60.331 60.331 105.6 105.643-105.643 105.6 60.331 60.331 105.643-105.6 105.6 105.6 60.331-60.331-105.6-105.6z" />
<glyph unicode="&#xe90c;" glyph-name="chat-download-fill" d="M275.413 149.333l-190.080-149.333v789.333c0 11.316 4.495 22.168 12.497 30.17s18.854 12.497 30.17 12.497h768c11.315 0 22.17-4.495 30.17-12.497s12.497-18.854 12.497-30.17v-597.333c0-11.315-4.497-22.17-12.497-30.17s-18.854-12.497-30.17-12.497h-620.587zM554.667 490.667v170.667h-85.333v-170.667h-128l170.667-170.667 170.667 170.667h-128z" />
<glyph unicode="&#xe90d;" glyph-name="chat-download-line" d="M275.413 149.333l-190.080-149.333v789.333c0 11.316 4.495 22.168 12.497 30.17s18.854 12.497 30.17 12.497h768c11.315 0 22.17-4.495 30.17-12.497s12.497-18.854 12.497-30.17v-597.333c0-11.315-4.497-22.17-12.497-30.17s-18.854-12.497-30.17-12.497h-620.587zM170.667 175.573l75.221 59.093h607.445v512h-682.667v-571.093zM554.667 490.667h128l-170.667-170.667-170.667 170.667h128v170.667h85.333v-170.667z" />
<glyph unicode="&#xe90e;" glyph-name="chat-follow-up-fill" d="M896 832c23.552 0 42.667-19.115 42.667-42.667v-597.333c0-23.552-19.115-42.667-42.667-42.667h-620.587l-190.080-149.333v789.333c0 23.552 19.115 42.667 42.667 42.667h768zM725.333 661.333h-85.333v-341.333h85.333v341.333zM469.333 618.667h-85.333v-85.291l-85.333-0.043v-85.333l85.333 0.043v-85.376h85.333v85.376l85.333-0.043v85.333l-85.333 0.043v85.291z" />
<glyph unicode="&#xe90f;" glyph-name="chat-follow-up-line" d="M896 832c23.552 0 42.667-19.115 42.667-42.667v-597.333c0-23.552-19.115-42.667-42.667-42.667h-620.587l-190.080-149.333v789.333c0 23.552 19.115 42.667 42.667 42.667h768zM853.333 746.667h-682.667v-571.093l75.221 59.093h607.445v512zM725.333 661.333v-341.333h-85.333v341.333h85.333zM469.333 618.667v-85.291l85.333-0.043v-85.333l-85.333 0.043v-85.376h-85.333v85.376l-85.333-0.043v85.333l85.333 0.043v85.291h85.333z" />
<glyph unicode="&#xe910;" glyph-name="chat-forward-fill" d="M275.413 149.333l-190.080-149.333v789.333c0 11.316 4.495 22.168 12.497 30.17s18.854 12.497 30.17 12.497h768c11.315 0 22.17-4.495 30.17-12.497s12.497-18.854 12.497-30.17v-597.333c0-11.315-4.497-22.17-12.497-30.17s-18.854-12.497-30.17-12.497h-620.587zM512 533.333h-170.667v-85.333h170.667v-128l170.667 170.667-170.667 170.667v-128z" />
<glyph unicode="&#xe911;" glyph-name="chat-forward-line" d="M275.413 149.333l-190.080-149.333v789.333c0 11.316 4.495 22.168 12.497 30.17s18.854 12.497 30.17 12.497h768c11.315 0 22.17-4.495 30.17-12.497s12.497-18.854 12.497-30.17v-597.333c0-11.315-4.497-22.17-12.497-30.17s-18.854-12.497-30.17-12.497h-620.587zM170.667 175.573l75.221 59.093h607.445v512h-682.667v-571.093zM512 533.333v128l170.667-170.667-170.667-170.667v128h-170.667v85.333h170.667z" />
<glyph unicode="&#xe912;" glyph-name="chat-heart-fill" d="M275.413 149.333l-190.080-149.333v789.333c0 11.316 4.495 22.168 12.497 30.17s18.854 12.497 30.17 12.497h768c11.315 0 22.17-4.495 30.17-12.497s12.497-18.854 12.497-30.17v-597.333c0-11.315-4.497-22.17-12.497-30.17s-18.854-12.497-30.17-12.497h-620.587zM512.768 332.8l143.317 143.317c8.913 8.913 15.987 19.499 20.809 31.147 4.826 11.644 7.309 24.128 7.309 36.736s-2.483 25.091-7.309 36.738c-4.821 11.648-11.895 22.231-20.809 31.145s-19.499 15.986-31.147 20.81c-11.644 4.825-24.128 7.308-36.736 7.308s-25.092-2.483-36.736-7.308c-11.648-4.824-22.234-11.896-31.147-20.81l-7.552-7.552-7.552 7.552c-8.913 8.914-19.499 15.986-31.147 20.81-11.644 4.825-24.128 7.308-36.736 7.308s-25.091-2.483-36.738-7.308c-11.648-4.824-22.231-11.896-31.145-20.81-18.004-18.004-28.118-42.422-28.118-67.883 0-25.459 10.114-49.877 28.118-67.883l143.317-143.317z" />
<glyph unicode="&#xe913;" glyph-name="chat-heart-line" d="M275.413 149.333l-190.080-149.333v789.333c0 11.316 4.495 22.168 12.497 30.17s18.854 12.497 30.17 12.497h768c11.315 0 22.17-4.495 30.17-12.497s12.497-18.854 12.497-30.17v-597.333c0-11.315-4.497-22.17-12.497-30.17s-18.854-12.497-30.17-12.497h-620.587zM170.667 175.573l75.221 59.093h607.445v512h-682.667v-571.093zM512.768 332.8l-143.317 143.36c-18.004 18.005-28.118 42.423-28.118 67.883 0 12.607 2.483 25.091 7.308 36.738s11.896 22.231 20.81 31.145c8.914 8.914 19.497 15.986 31.145 20.81s24.131 7.308 36.738 7.308c25.459 0 49.877-10.114 67.883-28.118l7.552-7.552 7.552 7.552c8.913 8.914 19.499 15.986 31.147 20.81 11.644 4.825 24.128 7.308 36.736 7.308s25.092-2.483 36.736-7.308c11.648-4.824 22.234-11.896 31.147-20.81s15.987-19.497 20.809-31.145c4.826-11.647 7.309-24.131 7.309-36.738s-2.483-25.092-7.309-36.736c-4.821-11.648-11.895-22.234-20.809-31.147l-143.317-143.36z" />
<glyph unicode="&#xe914;" glyph-name="chat-history-fill" d="M512 874.667c235.648 0 426.667-191.019 426.667-426.667s-191.019-426.667-426.667-426.667c-72.619 0-141.013 18.133-200.875 50.133l-225.792-50.133 50.176 225.707c-32 59.904-50.176 128.299-50.176 200.96 0 235.648 191.019 426.667 426.667 426.667zM554.667 661.333h-85.333v-298.667h256v85.333h-170.667v213.333z" />
<glyph unicode="&#xe915;" glyph-name="chat-history-line" d="M512 874.667c235.648 0 426.667-191.019 426.667-426.667s-191.019-426.667-426.667-426.667c-72.619 0-141.013 18.133-200.875 50.133l-225.792-50.133 50.176 225.707c-32 59.904-50.176 128.299-50.176 200.96 0 235.648 191.019 426.667 426.667 426.667zM512 789.333c-188.501 0-341.333-152.832-341.333-341.333 0-56.96 13.909-111.701 40.107-160.683l14.933-27.904-27.989-125.696 125.781 27.904 27.861-14.891c48.981-26.197 103.68-40.064 160.64-40.064 188.501 0 341.333 152.832 341.333 341.333s-152.832 341.333-341.333 341.333zM554.667 661.333v-213.333h170.667v-85.333h-256v298.667h85.333z" />
<glyph unicode="&#xe916;" glyph-name="chat-new-fill" d="M275.413 149.333l-190.080-149.333v789.333c0 11.316 4.495 22.168 12.497 30.17s18.854 12.497 30.17 12.497h768c11.315 0 22.17-4.495 30.17-12.497s12.497-18.854 12.497-30.17v-597.333c0-11.315-4.497-22.17-12.497-30.17s-18.854-12.497-30.17-12.497h-620.587zM469.333 533.333h-128v-85.333h128v-128h85.333v128h128v85.333h-128v128h-85.333v-128z" />
<glyph unicode="&#xe917;" glyph-name="chat-new-line" d="M597.333 832v-85.333h-426.667v-571.093l75.221 59.093h607.445v298.667h85.333v-341.333c0-11.315-4.497-22.17-12.497-30.17s-18.854-12.497-30.17-12.497h-620.587l-190.080-149.333v789.333c0 11.316 4.495 22.168 12.497 30.17s18.854 12.497 30.17 12.497h469.333zM810.667 832v128h85.333v-128h128v-85.333h-128v-128h-85.333v128h-128v85.333h128z" />
<glyph unicode="&#xe918;" glyph-name="chat-off-fill" d="M119.811 900.562l844.759-844.801-60.373-60.331-153.941 153.941-474.839-0.043-190.080-149.333v789.335c0 7.253 1.792 14.037 4.949 20.011l-30.848 30.848 60.373 60.373zM896.004 831.997c11.315 0 22.165-4.495 30.17-12.497 8-8.002 12.497-18.854 12.497-30.17v-588.161l-630.871 630.828h588.204z" />
<glyph unicode="&#xe919;" glyph-name="chat-off-line" d="M119.811 900.562l844.759-844.801-60.373-60.331-153.941 153.941-474.839-0.043-190.080-149.333v789.335c0 7.253 1.792 14.037 4.949 20.011l-30.848 30.848 60.373 60.373zM170.627 729.042l0.043-553.473 75.221 59.093h419.031l-494.295 494.38zM896.004 831.997c11.315 0 22.165-4.495 30.17-12.497 8-8.002 12.497-18.854 12.497-30.17v-588.161l-85.333 85.333v460.161l-460.247 0.043-85.291 85.291h588.204z" />
<glyph unicode="&#xe91a;" glyph-name="chat-poll-fill" d="M896 832c23.552 0 42.667-19.115 42.667-42.667v-597.333c0-23.552-19.115-42.667-42.667-42.667h-620.587l-190.080-149.333v789.333c0 23.552 19.115 42.667 42.667 42.667h768zM554.667 661.333h-85.333v-341.333h85.333v341.333zM725.333 576h-85.333v-256h85.333v256zM384 490.667h-85.333v-170.667h85.333v170.667z" />
<glyph unicode="&#xe91b;" glyph-name="chat-poll-line" d="M896 832c23.552 0 42.667-19.115 42.667-42.667v-597.333c0-23.552-19.115-42.667-42.667-42.667h-620.587l-190.080-149.333v789.333c0 23.552 19.115 42.667 42.667 42.667h768zM853.333 746.667h-682.667v-571.093l75.221 59.093h607.445v512zM554.667 661.333v-341.333h-85.333v341.333h85.333zM725.333 576v-256h-85.333v256h85.333zM384 490.667v-170.667h-85.333v170.667h85.333z" />
<glyph unicode="&#xe91c;" glyph-name="chat-private-fill" d="M512 874.667c235.648 0 426.667-191.019 426.667-426.667s-191.019-426.667-426.667-426.667c-72.619 0-141.013 18.133-200.875 50.133l-225.792-50.133 50.176 225.707c-32 59.904-50.176 128.299-50.176 200.96 0 235.648 191.019 426.667 426.667 426.667zM512 661.333c-68.181 0-128-57.173-128-128v-42.667h-42.667v-213.333h341.333v213.333h-42.667v42.667c0 70.699-57.301 128-128 128zM597.333 405.333v-42.667h-170.667v42.667h170.667zM512 576c20.309 0 42.667-20.907 42.667-42.667v-42.667h-85.333v42.667c0 21.76 20.779 42.667 42.667 42.667z" />
<glyph unicode="&#xe91d;" glyph-name="chat-private-line" d="M512 874.667c235.648 0 426.667-191.019 426.667-426.667s-191.019-426.667-426.667-426.667c-72.619 0-141.013 18.133-200.875 50.133l-225.792-50.133 50.176 225.707c-32 59.904-50.176 128.299-50.176 200.96 0 235.648 191.019 426.667 426.667 426.667zM512 789.333c-188.501 0-341.333-152.832-341.333-341.333 0-56.96 13.909-111.701 40.107-160.683l14.933-27.904-27.989-125.696 125.781 27.904 27.861-14.891c48.981-26.197 103.68-40.064 160.64-40.064 188.501 0 341.333 152.832 341.333 341.333s-152.832 341.333-341.333 341.333zM512 661.333c70.699 0 128-57.301 128-128v-42.667h42.667v-213.333h-341.333v213.333h42.667v42.667c0 70.699 57.301 128 128 128zM597.333 405.333h-170.667v-42.667h170.667v42.667zM512 576c-23.552 0-42.667-19.2-42.667-42.667v-42.667h85.333v42.667c0 23.552-19.115 42.667-42.667 42.667z" />
<glyph unicode="&#xe91e;" glyph-name="chat-quote-fill" d="M896 832c23.552 0 42.667-19.115 42.667-42.667v-597.333c0-23.552-19.115-42.667-42.667-42.667h-620.587l-190.080-149.333v789.333c0 23.552 19.115 42.667 42.667 42.667h768zM467.712 614.4l-19.072 29.355c-76.245-33.067-128.64-99.968-128.64-174.635 0-42.453 11.819-68.651 33.792-91.989 13.824-14.677 35.712-25.131 58.624-25.131 41.216 0 74.667 33.451 74.667 74.667 0 39.253-30.336 70.869-68.864 74.453-6.827 0.64-13.824 0.512-20.437-0.427v3.925c0.256 18.005 3.925 69.675 62.037 105.216l7.893 4.565zM661.973 643.755c-76.245-33.067-128.64-99.968-128.64-174.635 0-42.453 11.819-68.651 33.792-91.989 13.824-14.677 35.712-25.131 58.624-25.131 41.216 0 74.667 33.451 74.667 74.667 0 39.253-30.336 70.869-68.864 74.453-6.827 0.64-13.824 0.512-20.437-0.427 0 13.355-1.237 75.179 69.931 113.707l-19.072 29.355z" />
<glyph unicode="&#xe91f;" glyph-name="chat-quote-line" d="M896 832c23.552 0 42.667-19.115 42.667-42.667v-597.333c0-23.552-19.115-42.667-42.667-42.667h-620.587l-190.080-149.333v789.333c0 23.552 19.115 42.667 42.667 42.667h768zM853.333 746.667h-682.667v-571.093l75.221 59.093h607.445v512zM448.64 643.755l19.072-29.355c-71.168-38.528-69.931-100.352-69.931-113.664 6.613 0.853 13.568 1.024 20.48 0.384 38.485-3.584 68.821-35.2 68.821-74.453 0-41.216-33.451-74.667-74.667-74.667-22.912 0-44.8 10.453-58.624 25.173-21.973 23.296-33.792 49.493-33.792 91.947 0 74.667 52.395 141.568 128.64 174.635zM661.973 643.755l19.072-29.355c-71.168-38.528-69.931-100.352-69.931-113.664 6.613 0.853 13.568 1.024 20.48 0.384 38.485-3.584 68.821-35.2 68.821-74.453 0-41.216-33.451-74.667-74.667-74.667-22.912 0-44.8 10.453-58.624 25.173-21.973 23.296-33.792 49.493-33.792 91.947 0 74.667 52.395 141.568 128.64 174.635z" />
<glyph unicode="&#xe920;" glyph-name="chat-settings-fill" d="M275.413 149.333l-190.080-149.333v789.333c0 11.316 4.495 22.168 12.497 30.17s18.854 12.497 30.17 12.497h768c11.315 0 22.17-4.495 30.17-12.497s12.497-18.854 12.497-30.17v-597.333c0-11.315-4.497-22.17-12.497-30.17s-18.854-12.497-30.17-12.497h-620.587zM347.52 444.971l-41.6-24.021 42.667-73.899 41.643 24.021c21.376-21.76 48.64-37.845 79.104-45.696v-48.043h85.333v48.043c30.033 7.753 57.382 23.552 79.104 45.696l41.643-24.021 42.667 73.899-41.6 24.021c8.299 29.901 8.299 61.491 0 91.392l41.6 24.021-42.667 73.899-41.643-24.021c-21.722 22.144-49.071 37.943-79.104 45.696v48.043h-85.333v-48.043c-30.033-7.753-57.384-23.552-79.104-45.696l-41.643 24.021-42.667-73.899 41.6-24.021c-8.3-29.901-8.3-61.491 0-91.392zM512 405.333c-22.63 0-44.335 8.99-60.339 24.994s-24.994 37.709-24.994 60.339c0 22.63 8.99 44.337 24.994 60.34s37.709 24.994 60.339 24.994c22.63 0 44.335-8.99 60.339-24.994s24.994-37.709 24.994-60.34c0-22.63-8.99-44.335-24.994-60.339s-37.709-24.994-60.339-24.994z" />
<glyph unicode="&#xe921;" glyph-name="chat-settings-line" d="M938.667 448h-85.333v298.667h-682.667v-571.093l75.221 59.093h266.112v-85.333h-236.587l-190.080-149.333v789.333c0 11.316 4.495 22.168 12.497 30.17s18.854 12.497 30.17 12.497h768c11.315 0 22.17-4.495 30.17-12.497s12.497-18.854 12.497-30.17v-341.333zM603.52 146.304c-8.299 29.901-8.299 61.491 0 91.392l-41.6 24.021 42.667 73.899 41.643-24.021c21.722 22.144 49.071 37.943 79.104 45.696v48.043h85.333v-48.043c30.507-7.851 57.728-23.893 79.104-45.696l41.643 24.021 42.667-73.899-41.6-24.021c8.299-29.901 8.299-61.491 0-91.392l41.6-24.021-42.667-73.899-41.643 24.021c-21.376-21.76-48.64-37.845-79.104-45.696v-48.043h-85.333v48.043c-30.033 7.753-57.382 23.552-79.104 45.696l-41.643-24.021-42.667 73.899 41.6 24.021zM768 106.667c22.63 0 44.335 8.99 60.339 24.994s24.994 37.709 24.994 60.339c0 22.63-8.99 44.335-24.994 60.339s-37.709 24.994-60.339 24.994c-22.63 0-44.335-8.99-60.339-24.994s-24.994-37.709-24.994-60.339c0-22.63 8.99-44.335 24.994-60.339s37.709-24.994 60.339-24.994z" />
<glyph unicode="&#xe922;" glyph-name="chat-smile-2-fill" d="M311.083 71.509l-225.749-50.176 50.176 225.749c-33.044 61.807-50.281 130.833-50.176 200.917 0 235.648 191.019 426.667 426.666 426.667s426.667-191.019 426.667-426.667c0-235.648-191.019-426.667-426.667-426.667-70.084-0.107-139.109 17.131-200.917 50.176zM298.667 448c0-56.58 22.476-110.844 62.484-150.848 40.008-40.009 94.269-62.485 150.849-62.485s110.844 22.477 150.848 62.485c40.009 40.004 62.485 94.268 62.485 150.848h-85.333c0-33.946-13.487-66.505-37.491-90.509s-56.559-37.491-90.509-37.491c-33.946 0-66.505 13.487-90.509 37.491s-37.49 56.563-37.49 90.509h-85.333z" />
<glyph unicode="&#xe923;" glyph-name="chat-smile-2-line" d="M311.083 71.509l-225.749-50.176 50.176 225.749c-33.044 61.807-50.281 130.833-50.176 200.917 0 235.648 191.019 426.667 426.666 426.667s426.667-191.019 426.667-426.667c0-235.648-191.019-426.667-426.667-426.667-70.084-0.107-139.109 17.131-200.917 50.176zM323.456 161.664l27.861-14.933c49.431-26.415 104.635-40.179 160.682-40.064 67.511 0 133.504 20.019 189.636 57.523 56.132 37.508 99.878 90.816 125.713 153.186s32.597 131.004 19.426 197.214c-13.171 66.213-45.679 127.033-93.414 174.769-47.74 47.736-108.557 80.245-174.771 93.416-66.21 13.17-134.839 6.411-197.212-19.424-62.37-25.835-115.679-69.584-153.186-125.716s-57.525-122.123-57.525-189.635c0-56.917 13.867-111.701 40.107-160.683l14.891-27.861-27.947-125.739 125.739 27.947zM298.667 448h85.333c0-33.946 13.486-66.505 37.49-90.509s56.564-37.491 90.509-37.491c33.95 0 66.505 13.487 90.509 37.491s37.491 56.563 37.491 90.509h85.333c0-56.58-22.477-110.844-62.485-150.848-40.004-40.009-94.268-62.485-150.848-62.485s-110.841 22.477-150.849 62.485c-40.008 40.004-62.484 94.268-62.484 150.848z" />
<glyph unicode="&#xe924;" glyph-name="chat-smile-3-fill" d="M210.304 146.304c-39.679 39.578-71.145 86.601-92.592 138.377s-32.451 107.277-32.379 163.319c0 235.648 191.019 426.667 426.666 426.667s426.667-191.019 426.667-426.667c0-235.648-191.019-426.667-426.667-426.667h-426.666l124.971 124.971zM341.334 405.333c0-45.265 17.981-88.674 49.987-120.678 32.006-32.009 75.414-49.988 120.679-49.988s88.674 17.98 120.678 49.988c32.009 32.004 49.988 75.413 49.988 120.678h-341.333z" />
<glyph unicode="&#xe925;" glyph-name="chat-smile-3-line" d="M85.334 448c0 235.648 191.019 426.667 426.666 426.667s426.667-191.019 426.667-426.667c0-235.648-191.019-426.667-426.667-426.667h-426.666l124.971 124.971c-39.679 39.578-71.145 86.601-92.592 138.377s-32.451 107.277-32.379 163.319zM291.328 106.667h220.672c67.511 0 133.504 20.019 189.636 57.523 56.132 37.508 99.878 90.816 125.713 153.186s32.597 131.004 19.426 197.214c-13.171 66.213-45.679 127.033-93.414 174.769-47.74 47.736-108.557 80.245-174.771 93.416-66.21 13.17-134.844 6.411-197.212-19.424-62.371-25.835-115.68-69.584-153.186-125.716s-57.525-122.123-57.525-189.635c0-91.819 36.309-177.707 99.968-241.365l60.331-60.331-39.637-39.637zM341.334 405.333h341.333c0-45.265-17.98-88.674-49.988-120.678-32.004-32.009-75.413-49.988-120.678-49.988s-88.673 17.98-120.679 49.988c-32.006 32.004-49.987 75.413-49.987 120.678z" />
<glyph unicode="&#xe926;" glyph-name="chat-smile-fill" d="M275.413 149.333l-190.080-149.333v789.333c0 11.316 4.495 22.168 12.497 30.17s18.854 12.497 30.17 12.497h768c11.315 0 22.17-4.495 30.17-12.497s12.497-18.854 12.497-30.17v-597.333c0-11.315-4.497-22.17-12.497-30.17s-18.854-12.497-30.17-12.497h-620.587zM298.667 533.333c0-56.58 22.476-110.844 62.484-150.848 40.008-40.009 94.269-62.485 150.849-62.485s110.844 22.477 150.848 62.485c40.009 40.004 62.485 94.268 62.485 150.848h-85.333c0-33.946-13.487-66.505-37.491-90.509s-56.563-37.491-90.509-37.491c-33.946 0-66.505 13.487-90.51 37.491s-37.49 56.563-37.49 90.509h-85.333z" />
<glyph unicode="&#xe927;" glyph-name="chat-smile-line" d="M275.413 149.333l-190.080-149.333v789.333c0 11.316 4.495 22.168 12.497 30.17s18.854 12.497 30.17 12.497h768c11.315 0 22.17-4.495 30.17-12.497s12.497-18.854 12.497-30.17v-597.333c0-11.315-4.497-22.17-12.497-30.17s-18.854-12.497-30.17-12.497h-620.587zM245.888 234.667h607.445v512h-682.667v-571.093l75.221 59.093zM298.667 533.333h85.333c0-33.946 13.486-66.505 37.49-90.509s56.564-37.491 90.51-37.491c33.946 0 66.505 13.487 90.509 37.491s37.491 56.563 37.491 90.509h85.333c0-56.58-22.477-110.844-62.485-150.848-40.004-40.009-94.268-62.485-150.848-62.485s-110.842 22.477-150.849 62.485c-40.008 40.004-62.484 94.268-62.484 150.848z" />
<glyph unicode="&#xe928;" glyph-name="chat-upload-fill" d="M275.413 149.333l-190.080-149.333v789.333c0 11.316 4.495 22.168 12.497 30.17s18.854 12.497 30.17 12.497h768c11.315 0 22.17-4.495 30.17-12.497s12.497-18.854 12.497-30.17v-597.333c0-11.315-4.497-22.17-12.497-30.17s-18.854-12.497-30.17-12.497h-620.587zM554.667 490.667h128l-170.667 170.667-170.667-170.667h128v-170.667h85.333v170.667z" />
<glyph unicode="&#xe929;" glyph-name="chat-upload-line" d="M275.413 149.333l-190.080-149.333v789.333c0 11.316 4.495 22.168 12.497 30.17s18.854 12.497 30.17 12.497h768c11.315 0 22.17-4.495 30.17-12.497s12.497-18.854 12.497-30.17v-597.333c0-11.315-4.497-22.17-12.497-30.17s-18.854-12.497-30.17-12.497h-620.587zM170.667 175.573l75.221 59.093h607.445v512h-682.667v-571.093zM554.667 490.667v-170.667h-85.333v170.667h-128l170.667 170.667 170.667-170.667h-128z" />
<glyph unicode="&#xe92a;" glyph-name="chat-voice-fill" d="M210.304 146.304c-39.679 39.578-71.145 86.601-92.592 138.377s-32.451 107.277-32.379 163.319c0 235.648 191.019 426.667 426.666 426.667s426.667-191.019 426.667-426.667c0-235.648-191.019-426.667-426.667-426.667h-426.666l124.971 124.971zM469.333 704v-512h85.333v512h-85.333zM298.667 576v-256h85.333v256h-85.333zM640 576v-256h85.333v256h-85.333z" />
<glyph unicode="&#xe92b;" glyph-name="chat-voice-line" d="M85.334 448c0 235.648 191.019 426.667 426.666 426.667s426.667-191.019 426.667-426.667c0-235.648-191.019-426.667-426.667-426.667h-426.666l124.971 124.971c-39.679 39.578-71.145 86.601-92.592 138.377s-32.451 107.277-32.379 163.319zM291.328 106.667h220.672c67.511 0 133.504 20.019 189.636 57.523 56.132 37.508 99.878 90.816 125.713 153.186s32.597 131.004 19.426 197.214c-13.171 66.213-45.679 127.033-93.414 174.769-47.74 47.736-108.557 80.245-174.771 93.416-66.21 13.17-134.844 6.411-197.212-19.424-62.371-25.835-115.68-69.584-153.186-125.716s-57.525-122.123-57.525-189.635c0-91.819 36.309-177.707 99.968-241.365l60.331-60.331-39.637-39.637zM469.333 704h85.333v-512h-85.333v512zM298.667 576h85.333v-256h-85.333v256zM640 576h85.333v-256h-85.333v256z" />
<glyph unicode="&#xe92c;" glyph-name="discuss-fill" d="M716.8 149.333l-119.467-149.333-119.467 149.333h-221.867c-11.316 0-22.168 4.497-30.17 12.497s-12.497 18.854-12.497 30.17v464.939c0 11.316 4.495 22.168 12.497 30.17s18.854 12.497 30.17 12.497h682.667c11.315 0 22.17-4.495 30.17-12.497s12.497-18.854 12.497-30.17v-464.939c0-11.315-4.497-22.17-12.497-30.17s-18.854-12.497-30.17-12.497h-221.867zM85.333 874.667h725.333v-85.333h-682.667v-469.333h-85.333v512c0 11.316 4.495 22.168 12.497 30.17s18.854 12.497 30.17 12.497z" />
<glyph unicode="&#xe92d;" glyph-name="discuss-line" d="M597.333 0l-119.467 149.333h-221.867c-11.316 0-22.168 4.497-30.17 12.497s-12.497 18.854-12.497 30.17v464.939c0 11.316 4.495 22.168 12.497 30.17s18.854 12.497 30.17 12.497h682.667c11.315 0 22.17-4.495 30.17-12.497s12.497-18.854 12.497-30.17v-464.939c0-11.315-4.497-22.17-12.497-30.17s-18.854-12.497-30.17-12.497h-221.867l-119.467-149.333zM675.797 234.667h220.203v379.605h-597.333v-379.605h220.203l78.464-98.048 78.464 98.048zM85.333 874.667h725.333v-85.333h-682.667v-469.333h-85.333v512c0 11.316 4.495 22.168 12.497 30.17s18.854 12.497 30.17 12.497z" />
<glyph unicode="&#xe92e;" glyph-name="feedback-fill" d="M275.413 149.333l-190.080-149.333v789.333c0 11.316 4.495 22.168 12.497 30.17s18.854 12.497 30.17 12.497h768c11.315 0 22.17-4.495 30.17-12.497s12.497-18.854 12.497-30.17v-597.333c0-11.315-4.497-22.17-12.497-30.17s-18.854-12.497-30.17-12.497h-620.587zM469.333 405.333v-85.333h85.333v85.333h-85.333zM469.333 661.333v-213.333h85.333v213.333h-85.333z" />
<glyph unicode="&#xe92f;" glyph-name="feedback-line" d="M275.413 149.333l-190.080-149.333v789.333c0 11.316 4.495 22.168 12.497 30.17s18.854 12.497 30.17 12.497h768c11.315 0 22.17-4.495 30.17-12.497s12.497-18.854 12.497-30.17v-597.333c0-11.315-4.497-22.17-12.497-30.17s-18.854-12.497-30.17-12.497h-620.587zM170.667 175.573l75.221 59.093h607.445v512h-682.667v-571.093zM469.333 405.333h85.333v-85.333h-85.333v85.333zM469.333 661.333h85.333v-213.333h-85.333v213.333z" />
<glyph unicode="&#xe930;" glyph-name="message-2-fill" d="M275.413 149.333l-190.080-149.333v789.333c0 11.316 4.495 22.168 12.497 30.17s18.854 12.497 30.17 12.497h768c11.315 0 22.17-4.495 30.17-12.497s12.497-18.854 12.497-30.17v-597.333c0-11.315-4.497-22.17-12.497-30.17s-18.854-12.497-30.17-12.497h-620.587zM298.667 533.333v-85.333h85.333v85.333h-85.333zM469.333 533.333v-85.333h85.333v85.333h-85.333zM640 533.333v-85.333h85.333v85.333h-85.333z" />
<glyph unicode="&#xe931;" glyph-name="message-2-line" d="M275.413 149.333l-190.080-149.333v789.333c0 11.316 4.495 22.168 12.497 30.17s18.854 12.497 30.17 12.497h768c11.315 0 22.17-4.495 30.17-12.497s12.497-18.854 12.497-30.17v-597.333c0-11.315-4.497-22.17-12.497-30.17s-18.854-12.497-30.17-12.497h-620.587zM245.888 234.667h607.445v512h-682.667v-571.093l75.221 59.093zM469.333 533.333h85.333v-85.333h-85.333v85.333zM298.667 533.333h85.333v-85.333h-85.333v85.333zM640 533.333h85.333v-85.333h-85.333v85.333z" />
<glyph unicode="&#xe932;" glyph-name="message-3-fill" d="M85.333 576.256c-0.023 33.613 6.586 66.9 19.446 97.955s31.72 59.268 55.5 83.024c23.779 23.756 52.012 42.588 83.080 55.417s64.362 19.404 97.974 19.348h341.333c141.355 0 256-114.987 256-255.744v-512.256h-597.333c-141.355 0-256 114.987-256 255.744v256.512zM597.333 490.667v-85.333h85.333v85.333h-85.333zM341.333 490.667v-85.333h85.333v85.333h-85.333z" />
<glyph unicode="&#xe933;" glyph-name="message-3-line" d="M85.333 576.256c-0.023 33.613 6.586 66.9 19.446 97.955s31.72 59.268 55.5 83.024c23.779 23.756 52.012 42.588 83.080 55.417s64.362 19.404 97.974 19.348h341.333c141.355 0 256-114.987 256-255.744v-512.256h-597.333c-141.355 0-256 114.987-256 255.744v256.512zM853.333 149.333v426.922c-0.111 45.205-18.138 88.523-50.129 120.464-31.987 31.941-75.332 49.902-120.538 49.946h-341.333c-22.406 0.056-44.604-4.311-65.318-12.852s-39.54-21.087-55.396-36.919c-15.856-15.832-28.43-34.638-37.002-55.34s-12.973-42.893-12.951-65.299v-256.512c0.113-45.205 18.138-88.525 50.127-120.465s75.334-49.903 120.539-49.946h512zM597.333 490.667h85.333v-85.333h-85.333v85.333zM341.333 490.667h85.333v-85.333h-85.333v85.333z" />
<glyph unicode="&#xe934;" glyph-name="message-fill" d="M275.413 149.333l-190.080-149.333v789.333c0 11.316 4.495 22.168 12.497 30.17s18.854 12.497 30.17 12.497h768c11.315 0 22.17-4.495 30.17-12.497s12.497-18.854 12.497-30.17v-597.333c0-11.315-4.497-22.17-12.497-30.17s-18.854-12.497-30.17-12.497h-620.587zM341.333 533.333v-85.333h341.333v85.333h-341.333z" />
<glyph unicode="&#xe935;" glyph-name="message-line" d="M275.413 149.333l-190.080-149.333v789.333c0 11.316 4.495 22.168 12.497 30.17s18.854 12.497 30.17 12.497h768c11.315 0 22.17-4.495 30.17-12.497s12.497-18.854 12.497-30.17v-597.333c0-11.315-4.497-22.17-12.497-30.17s-18.854-12.497-30.17-12.497h-620.587zM245.888 234.667h607.445v512h-682.667v-571.093l75.221 59.093zM341.333 533.333h341.333v-85.333h-341.333v85.333z" />
<glyph unicode="&#xe936;" glyph-name="question-answer-fill" d="M341.333 192h436.779l75.221-59.093v443.093h42.667c11.315 0 22.17-4.495 30.17-12.497s12.497-18.854 12.497-30.17v-576l-190.080 149.333h-364.587c-11.316 0-22.168 4.497-30.17 12.497s-12.497 18.854-12.497 30.17v42.667zM232.747 277.333l-190.080-149.333v661.333c0 11.316 4.495 22.168 12.497 30.17s18.854 12.497 30.17 12.497h640c11.315 0 22.17-4.495 30.17-12.497s12.497-18.854 12.497-30.17v-512h-535.253z" />
<glyph unicode="&#xe937;" glyph-name="question-answer-line" d="M232.747 320l-190.080-149.333v661.333c0 11.316 4.495 22.168 12.497 30.17s18.854 12.497 30.17 12.497h640c11.315 0 22.17-4.495 30.17-12.497s12.497-18.854 12.497-30.17v-512h-535.253zM203.221 405.333h479.445v384h-554.667v-443.093l75.221 59.093zM341.333 234.667h436.779l75.221-59.093v443.093h42.667c11.315 0 22.17-4.495 30.17-12.497s12.497-18.854 12.497-30.17v-576l-190.080 149.333h-364.587c-11.316 0-22.168 4.497-30.17 12.497s-12.497 18.854-12.497 30.17v42.667z" />
<glyph unicode="&#xe938;" glyph-name="questionnaire-fill" d="M275.413 149.333l-190.080-149.333v789.333c0 11.316 4.495 22.168 12.497 30.17s18.854 12.497 30.17 12.497h768c11.315 0 22.17-4.495 30.17-12.497s12.497-18.854 12.497-30.17v-597.333c0-11.315-4.497-22.17-12.497-30.17s-18.854-12.497-30.17-12.497h-620.587zM469.333 362.667v-85.333h85.333v85.333h-85.333zM365.525 583.979l83.712-16.768c2.377 11.886 8.077 22.852 16.444 31.624 8.363 8.772 19.046 14.988 30.805 17.925s24.111 2.475 35.618-1.334c11.507-3.808 21.696-10.806 29.38-20.179 7.689-9.373 12.553-20.735 14.033-32.765s-0.486-24.233-5.67-35.19c-5.184-10.957-13.376-20.215-23.616-26.697-10.24-6.485-22.11-9.929-34.231-9.929h-42.667v-85.333h42.667c28.279 0.009 55.974 8.047 79.863 23.177 23.889 15.134 42.991 36.736 55.083 62.298s16.678 54.034 13.222 82.1c-3.456 28.067-14.805 54.575-32.734 76.443-17.933 21.868-41.702 38.194-68.548 47.082-26.842 8.887-55.659 9.97-83.098 3.122-27.435-6.848-52.364-21.346-71.884-41.806s-32.829-46.042-38.38-73.771z" />
<glyph unicode="&#xe939;" glyph-name="questionnaire-line" d="M245.888 234.667h607.445v512h-682.667v-571.093l75.221 59.093zM275.413 149.333l-190.080-149.333v789.333c0 11.316 4.495 22.168 12.497 30.17s18.854 12.497 30.17 12.497h768c11.315 0 22.17-4.495 30.17-12.497s12.497-18.854 12.497-30.17v-597.333c0-11.315-4.497-22.17-12.497-30.17s-18.854-12.497-30.17-12.497h-620.587zM469.333 362.667h85.333v-85.333h-85.333v85.333zM365.525 583.979c5.543 27.742 18.851 53.34 38.374 73.814s44.459 34.984 71.906 41.84c27.447 6.856 56.277 5.777 83.136-3.113s50.637-25.222 68.578-47.1c17.937-21.877 29.291-48.398 32.747-76.477 3.452-28.079-1.139-56.561-13.244-82.131-12.1-25.574-31.215-47.181-55.121-62.315-23.902-15.134-51.61-23.164-79.902-23.164h-42.667v85.333h42.667c12.122 0 23.991 3.443 34.231 9.929 10.24 6.481 18.432 15.74 23.616 26.697s7.151 23.159 5.67 35.19c-1.481 12.030-6.345 23.392-14.033 32.765-7.684 9.373-17.873 16.37-29.38 20.179s-23.859 4.271-35.618 1.334c-11.759-2.937-22.443-9.153-30.805-17.925-8.367-8.771-14.067-19.738-16.444-31.624l-83.712 16.768z" />
<glyph unicode="&#xe93a;" glyph-name="video-chat-fill" d="M275.413 149.333l-190.080-149.333v789.333c0 11.316 4.495 22.168 12.497 30.17s18.854 12.497 30.17 12.497h768c11.315 0 22.17-4.495 30.17-12.497s12.497-18.854 12.497-30.17v-597.333c0-11.315-4.497-22.17-12.497-30.17s-18.854-12.497-30.17-12.497h-620.587zM597.333 522.667v96h-298.667v-256h298.667v96l128-96v256l-128-96z" />
<glyph unicode="&#xe93b;" glyph-name="video-chat-line" d="M597.333 522.667l128 96v-256l-128 96v-96h-298.667v256h298.667v-96zM245.888 234.667h607.445v512h-682.667v-571.093l75.221 59.093zM275.413 149.333l-190.080-149.333v789.333c0 11.316 4.495 22.168 12.497 30.17s18.854 12.497 30.17 12.497h768c11.315 0 22.17-4.495 30.17-12.497s12.497-18.854 12.497-30.17v-597.333c0-11.315-4.497-22.17-12.497-30.17s-18.854-12.497-30.17-12.497h-620.587z" />
</font>
</defs>
</svg>
