<svg width="107" height="32" viewBox="0 0 107 32" fill="none" xmlns="http://www.w3.org/2000/svg">
<g clip-path="url(#clip0_2039_20590)">
<path d="M32.9636 10.6838H22.3311V0.0512695C28.1967 0.0512695 32.9636 4.80048 32.9636 10.6838Z" fill="#172FFF"/>
<path d="M22.3311 21.3164V10.6838H32.9636C32.9636 16.5495 28.1967 21.3164 22.3311 21.3164Z" fill="#172FFF"/>
<path d="M1.06641 10.6838H11.699V21.3164C5.83334 21.3164 1.06641 16.5495 1.06641 10.6838Z" fill="#1968F3"/>
<path d="M22.3308 10.6838H11.6982V0.0512695C17.5639 0.0512695 22.3308 4.80048 22.3308 10.6838Z" fill="#1968F3"/>
<path d="M11.6982 31.949V21.3164H22.3308C22.3308 27.182 17.5639 31.949 11.6982 31.949Z" fill="#1CDBDB"/>
<path d="M1.06641 21.3164H11.699V31.949C5.83334 31.949 1.06641 27.182 1.06641 21.3164Z" fill="#1CDBDB"/>
<path d="M11.6982 21.3164V10.6838H22.3308C22.3308 16.5495 17.5639 21.3164 11.6982 21.3164Z" fill="#1968F3"/>
<path d="M11.699 0.0512695V10.6838H1.06641C1.06641 4.80048 5.83334 0.0512695 11.699 0.0512695Z" fill="#1968F3"/>
<path d="M22.3311 31.949V21.3164H32.9636C32.9636 27.182 28.1967 31.949 22.3311 31.949Z" fill="#1BA1E7"/>
<path d="M90.9492 24.3094V8.36056H94.9045L95.1597 11.2951V24.3094H90.9492ZM101.507 24.3094V16.1436H105.718V24.3094H101.507ZM101.507 16.1436C101.507 15.0591 101.38 14.2191 101.125 13.6237C100.891 13.0283 100.55 12.6029 100.104 12.3478C99.6573 12.0713 99.1363 11.9331 98.5409 11.9331C97.4563 11.9118 96.6164 12.2414 96.0209 12.9219C95.4468 13.6024 95.1597 14.6125 95.1597 15.9522H93.7562C93.7562 14.251 94.0008 12.8156 94.4899 11.646C95.0002 10.4552 95.702 9.5514 96.5951 8.93471C97.5095 8.29676 98.5728 7.97778 99.7849 7.97778C101.04 7.97778 102.113 8.23297 103.007 8.74333C103.9 9.25369 104.58 10.0511 105.048 11.1357C105.516 12.1989 105.739 13.5811 105.718 15.2824V16.1436H101.507Z" fill="white"/>
<path d="M75.7602 31.0718C75.1861 31.0718 74.5481 30.9548 73.8464 30.7209C73.1659 30.5082 72.5598 30.253 72.0282 29.9553L73.5912 26.5423C73.9527 26.7337 74.2823 26.8825 74.58 26.9888C74.899 27.1164 75.1754 27.1802 75.4094 27.1802C75.8559 27.1802 76.2493 27.0526 76.5896 26.7975C76.9298 26.5635 77.2063 26.2127 77.4189 25.7448L79.3009 21.3111L84.3726 8.3606H88.9978L81.757 25.681C81.3104 26.7443 80.8426 27.68 80.3535 28.488C79.8644 29.3174 79.2583 29.9553 78.5353 30.4019C77.8336 30.8485 76.9085 31.0718 75.7602 31.0718ZM78.1845 24.3094L70.8799 8.3606H75.505L80.832 21.3111L82.2036 24.3094H78.1845Z" fill="white"/>
<path d="M64.4772 24.3095V8.36063H68.6877V24.3095H64.4772ZM66.5824 5.77692C65.9445 5.77692 65.3809 5.543 64.8918 5.07517C64.4028 4.58607 64.1582 4.01191 64.1582 3.35269C64.1582 2.69347 64.4028 2.12995 64.8918 1.66211C65.3809 1.17302 65.9445 0.928467 66.5824 0.928467C67.2416 0.928467 67.8052 1.17302 68.273 1.66211C68.7621 2.12995 69.0067 2.69347 69.0067 3.35269C69.0067 4.01191 68.7621 4.58607 68.273 5.07517C67.8052 5.543 67.2416 5.77692 66.5824 5.77692Z" fill="white"/>
<path d="M57.9591 24.6922C56.1941 24.6922 54.8544 24.2562 53.94 23.3844C53.0469 22.5125 52.6003 21.2685 52.6003 19.6523V3.38452H56.8108V18.7273C56.8108 19.4078 56.9597 19.9288 57.2574 20.2903C57.5551 20.6305 57.991 20.8007 58.5652 20.8007C58.7778 20.8007 59.0118 20.7581 59.2669 20.6731C59.5221 20.5667 59.7879 20.4179 60.0644 20.2265L61.5317 23.3844C61.0213 23.7671 60.4471 24.0755 59.8092 24.3094C59.1925 24.5646 58.5758 24.6922 57.9591 24.6922ZM50.0166 11.9331V8.36056H60.798V11.9331H50.0166Z" fill="white"/>
</g>
<defs>
<clipPath id="clip0_2039_20590">
<rect width="106.667" height="32" fill="white"/>
</clipPath>
</defs>
</svg>
