<?xml version="1.0" standalone="no"?>
<!DOCTYPE svg PUBLIC "-//W3C//DTD SVG 1.1//EN" "http://www.w3.org/Graphics/SVG/1.1/DTD/svg11.dtd" >
<svg xmlns="http://www.w3.org/2000/svg">
<metadata>Generated by IcoMoon</metadata>
<defs>
<font id="icomoon" horiz-adv-x="1024">
<font-face units-per-em="1024" ascent="960" descent="-64" />
<missing-glyph horiz-adv-x="1024" />
<glyph unicode="&#x20;" horiz-adv-x="512" d="" />
<glyph unicode="&#xe900;" glyph-name="airplay-fill" d="M529.067 382.592l213.333-284.459c2.377-3.17 3.827-6.938 4.181-10.884s-0.393-7.915-2.167-11.456c-1.771-3.546-4.493-6.524-7.863-8.606s-7.253-3.187-11.217-3.187h-426.666c-3.962 0-7.846 1.105-11.216 3.187s-6.094 5.060-7.866 8.606c-1.772 3.541-2.522 7.509-2.166 11.456s1.803 7.714 4.18 10.884l213.332 284.459c1.988 2.65 4.565 4.8 7.526 6.281s6.229 2.253 9.54 2.253c3.311 0 6.579-0.772 9.54-2.253 2.965-1.481 5.538-3.631 7.526-6.281zM768 149.333v85.333h85.333v512h-682.666v-512h85.333v-85.333h-128.341c-5.584 0.013-11.111 1.126-16.263 3.277-5.152 2.155-9.829 5.303-13.761 9.267s-7.043 8.666-9.155 13.833c-2.111 5.171-3.18 10.705-3.146 16.29v597.333c0 23.552 19.413 42.667 42.325 42.667h768.682c23.381 0 42.325-18.987 42.325-42.667v-597.333c0-23.552-19.413-42.667-42.325-42.667h-128.341z" />
<glyph unicode="&#xe901;" glyph-name="airplay-line" d="M529.067 382.592l213.333-284.459c2.377-3.17 3.827-6.938 4.181-10.884s-0.393-7.915-2.167-11.456c-1.771-3.546-4.493-6.524-7.863-8.606s-7.253-3.187-11.217-3.187h-426.666c-3.962 0-7.846 1.105-11.216 3.187s-6.094 5.060-7.866 8.606c-1.772 3.541-2.522 7.509-2.166 11.456s1.803 7.714 4.18 10.884l213.332 284.459c1.988 2.65 4.565 4.8 7.526 6.281s6.229 2.253 9.54 2.253c3.311 0 6.579-0.772 9.54-2.253 2.965-1.481 5.538-3.631 7.526-6.281zM512 263.253l-85.333-113.92h170.667l-85.333 113.92zM768 149.333v85.333h85.333v512h-682.666v-512h85.333v-85.333h-128.341c-5.584 0.013-11.111 1.126-16.263 3.277-5.152 2.155-9.829 5.303-13.761 9.267s-7.043 8.666-9.155 13.833c-2.111 5.171-3.18 10.705-3.146 16.29v597.333c0 23.552 19.413 42.667 42.325 42.667h768.682c23.381 0 42.325-18.987 42.325-42.667v-597.333c0-23.552-19.413-42.667-42.325-42.667h-128.341z" />
<glyph unicode="&#xe902;" glyph-name="barcode-box-fill" d="M128 832h768c11.315 0 22.17-4.495 30.17-12.497s12.497-18.854 12.497-30.17v-682.667c0-11.315-4.497-22.17-12.497-30.17s-18.854-12.497-30.17-12.497h-768c-11.316 0-22.168 4.497-30.17 12.497s-12.497 18.854-12.497 30.17v682.667c0 11.316 4.495 22.168 12.497 30.17s18.854 12.497 30.17 12.497zM256 661.333v-426.667h128v426.667h-128zM426.667 661.333v-426.667h85.333v426.667h-85.333zM554.667 661.333v-426.667h42.667v426.667h-42.667zM640 661.333v-426.667h128v426.667h-128z" />
<glyph unicode="&#xe903;" glyph-name="barcode-box-line" d="M170.667 746.667v-597.333h682.667v597.333h-682.667zM128 832h768c11.315 0 22.17-4.495 30.17-12.497s12.497-18.854 12.497-30.17v-682.667c0-11.315-4.497-22.17-12.497-30.17s-18.854-12.497-30.17-12.497h-768c-11.316 0-22.168 4.497-30.17 12.497s-12.497 18.854-12.497 30.17v682.667c0 11.316 4.495 22.168 12.497 30.17s18.854 12.497 30.17 12.497zM256 661.333h128v-426.667h-128v426.667zM426.667 661.333h85.333v-426.667h-85.333v426.667zM554.667 661.333h42.667v-426.667h-42.667v426.667zM640 661.333h128v-426.667h-128v426.667z" />
<glyph unicode="&#xe904;" glyph-name="barcode-fill" d="M85.333 789.333h85.333v-682.667h-85.333v682.667zM256 789.333h85.333v-682.667h-85.333v682.667zM384 789.333h128v-682.667h-128v682.667zM554.667 789.333h85.333v-682.667h-85.333v682.667zM682.667 789.333h85.333v-682.667h-85.333v682.667zM810.667 789.333h128v-682.667h-128v682.667z" />
<glyph unicode="&#xe905;" glyph-name="barcode-line" d="M85.333 789.333h85.333v-682.667h-85.333v682.667zM256 789.333h42.667v-682.667h-42.667v682.667zM341.333 789.333h85.333v-682.667h-85.333v682.667zM469.333 789.333h85.333v-682.667h-85.333v682.667zM597.333 789.333h85.333v-682.667h-85.333v682.667zM725.333 789.333h42.667v-682.667h-42.667v682.667zM810.667 789.333h128v-682.667h-128v682.667z" />
<glyph unicode="&#xe906;" glyph-name="base-station-fill" d="M512 405.333l256-384h-511.999l255.999 384zM466.773 509.44c-6.289 5.862-11.332 12.928-14.827 20.779-3.499 7.849-5.38 16.324-5.534 24.917-0.149 8.593 1.429 17.129 4.651 25.098 3.217 7.969 8.009 15.208 14.084 21.286 6.080 6.077 13.316 10.868 21.286 14.087s16.508 4.8 25.101 4.648c8.593-0.151 17.067-2.032 24.917-5.53s14.916-8.541 20.774-14.829c11.307-12.132 17.459-28.179 17.169-44.759-0.294-16.581-7.010-32.401-18.735-44.126-11.729-11.725-27.546-18.445-44.126-18.735-16.58-0.294-32.627 5.862-44.762 17.165zM225.324 841.26l60.373-60.373c-60.004-60.011-93.713-141.398-93.713-226.261 0-84.861 33.709-166.252 93.713-226.263l-60.373-60.373c-37.645 37.641-67.507 82.325-87.881 131.507s-30.86 101.897-30.86 155.129c0 53.234 10.486 105.947 30.86 155.128s50.236 93.868 87.881 131.507zM798.592 841.26c37.645-37.639 67.507-82.326 87.881-131.507s30.861-101.894 30.861-155.128c0-53.233-10.487-105.947-30.861-155.129s-50.236-93.867-87.881-131.507l-60.373 60.373c60.006 60.011 93.713 141.402 93.713 226.263 0 84.863-33.707 166.251-93.713 226.261l60.373 60.373zM346.028 720.599l60.331-60.331c-13.868-13.867-24.87-30.33-32.375-48.449s-11.369-37.539-11.369-57.151c0-19.612 3.863-39.033 11.369-57.149 7.506-18.121 18.507-34.586 32.375-48.452l-60.331-60.331c-44.006 44.011-68.729 103.697-68.729 165.932s24.722 121.923 68.729 165.931zM677.888 720.599c44.006-44.008 68.727-103.695 68.727-165.931s-24.721-121.922-68.727-165.932l-60.331 60.331c13.871 13.867 24.87 30.332 32.375 48.452 7.505 18.116 11.371 37.537 11.371 57.149s-3.866 39.032-11.371 57.151c-7.505 18.119-18.505 34.582-32.375 48.449l60.331 60.331z" />
<glyph unicode="&#xe907;" glyph-name="base-station-line" d="M512 405.333l256-384h-511.999l255.999 384zM512 251.733l-96.426-145.067h192.852l-96.427 145.067zM466.773 509.44c-6.289 5.862-11.332 12.928-14.827 20.779-3.499 7.849-5.38 16.324-5.534 24.917-0.149 8.593 1.429 17.129 4.651 25.098 3.217 7.969 8.009 15.208 14.084 21.286 6.080 6.077 13.316 10.868 21.286 14.087s16.508 4.8 25.101 4.648c8.593-0.151 17.067-2.032 24.917-5.53s14.916-8.541 20.774-14.829c11.307-12.132 17.459-28.179 17.169-44.759-0.294-16.581-7.010-32.401-18.735-44.126-11.729-11.725-27.546-18.445-44.126-18.735-16.58-0.294-32.627 5.862-44.762 17.165zM225.324 841.26l60.373-60.373c-60.004-60.011-93.713-141.398-93.713-226.261 0-84.861 33.709-166.252 93.713-226.263l-60.373-60.373c-37.645 37.641-67.507 82.325-87.881 131.507s-30.86 101.897-30.86 155.129c0 53.234 10.486 105.947 30.86 155.128s50.236 93.868 87.881 131.507zM798.592 841.26c37.645-37.639 67.507-82.326 87.881-131.507s30.861-101.894 30.861-155.128c0-53.233-10.487-105.947-30.861-155.129s-50.236-93.867-87.881-131.507l-60.373 60.373c60.006 60.011 93.713 141.402 93.713 226.263 0 84.863-33.707 166.251-93.713 226.261l60.373 60.373zM346.028 720.599l60.331-60.331c-13.868-13.867-24.87-30.33-32.375-48.449s-11.369-37.539-11.369-57.151c0-19.612 3.863-39.033 11.369-57.149 7.506-18.121 18.507-34.586 32.375-48.452l-60.331-60.331c-44.006 44.011-68.729 103.697-68.729 165.932s24.722 121.923 68.729 165.931zM677.888 720.599c44.006-44.008 68.727-103.695 68.727-165.931s-24.721-121.922-68.727-165.932l-60.331 60.331c13.871 13.867 24.87 30.332 32.375 48.452 7.505 18.116 11.371 37.537 11.371 57.149s-3.866 39.032-11.371 57.151c-7.505 18.119-18.505 34.582-32.375 48.449l60.331 60.331z" />
<glyph unicode="&#xe908;" glyph-name="battery-2-charge-fill" d="M384 789.333v42.667c0 11.316 4.495 22.168 12.497 30.17s18.854 12.497 30.17 12.497h170.667c11.315 0 22.17-4.495 30.17-12.497s12.497-18.854 12.497-30.17v-42.667h128c11.315 0 22.17-4.495 30.17-12.497s12.497-18.854 12.497-30.17v-682.667c0-11.315-4.497-22.17-12.497-30.17s-18.854-12.497-30.17-12.497h-512c-11.316 0-22.168 4.497-30.17 12.497s-12.497 18.854-12.497 30.17v682.667c0 11.316 4.495 22.168 12.497 30.17s18.854 12.497 30.17 12.497h128zM554.667 448v213.333l-213.333-298.667h128v-213.333l213.333 298.667h-128z" />
<glyph unicode="&#xe909;" glyph-name="battery-2-charge-line" d="M554.667 448h128l-213.333-298.667v213.333h-128l213.333 298.667v-213.333zM469.333 704h-170.667v-597.333h426.667v597.333h-170.667v85.333h-85.333v-85.333zM384 789.333v42.667c0 11.316 4.495 22.168 12.497 30.17s18.854 12.497 30.17 12.497h170.667c11.315 0 22.17-4.495 30.17-12.497s12.497-18.854 12.497-30.17v-42.667h128c11.315 0 22.17-4.495 30.17-12.497s12.497-18.854 12.497-30.17v-682.667c0-11.315-4.497-22.17-12.497-30.17s-18.854-12.497-30.17-12.497h-512c-11.316 0-22.168 4.497-30.17 12.497s-12.497 18.854-12.497 30.17v682.667c0 11.316 4.495 22.168 12.497 30.17s18.854 12.497 30.17 12.497h128z" />
<glyph unicode="&#xe90a;" glyph-name="battery-2-fill" d="M384 789.333v42.667c0 11.316 4.495 22.168 12.497 30.17s18.854 12.497 30.17 12.497h170.667c11.315 0 22.17-4.495 30.17-12.497s12.497-18.854 12.497-30.17v-42.667h128c11.315 0 22.17-4.495 30.17-12.497s12.497-18.854 12.497-30.17v-682.667c0-11.315-4.497-22.17-12.497-30.17s-18.854-12.497-30.17-12.497h-512c-11.316 0-22.168 4.497-30.17 12.497s-12.497 18.854-12.497 30.17v682.667c0 11.316 4.495 22.168 12.497 30.17s18.854 12.497 30.17 12.497h128z" />
<glyph unicode="&#xe90b;" glyph-name="battery-2-line" d="M469.333 704h-170.667v-597.333h426.667v597.333h-170.667v85.333h-85.333v-85.333zM384 789.333v42.667c0 11.316 4.495 22.168 12.497 30.17s18.854 12.497 30.17 12.497h170.667c11.315 0 22.17-4.495 30.17-12.497s12.497-18.854 12.497-30.17v-42.667h128c11.315 0 22.17-4.495 30.17-12.497s12.497-18.854 12.497-30.17v-682.667c0-11.315-4.497-22.17-12.497-30.17s-18.854-12.497-30.17-12.497h-512c-11.316 0-22.168 4.497-30.17 12.497s-12.497 18.854-12.497 30.17v682.667c0 11.316 4.495 22.168 12.497 30.17s18.854 12.497 30.17 12.497h128z" />
<glyph unicode="&#xe90c;" glyph-name="battery-charge-fill" d="M512 490.667v256l-213.333-341.333h128v-256l213.333 341.333h-128zM128 746.667h682.667c11.315 0 22.17-4.495 30.17-12.497s12.497-18.854 12.497-30.17v-512c0-11.315-4.497-22.17-12.497-30.17s-18.854-12.497-30.17-12.497h-682.667c-11.316 0-22.168 4.497-30.17 12.497s-12.497 18.854-12.497 30.17v512c0 11.316 4.495 22.168 12.497 30.17s18.854 12.497 30.17 12.497zM896 576h85.333v-256h-85.333v256z" />
<glyph unicode="&#xe90d;" glyph-name="battery-charge-line" d="M341.333 149.333h-213.333c-11.316 0-22.168 4.497-30.17 12.497s-12.497 18.854-12.497 30.17v512c0 11.316 4.495 22.168 12.497 30.17s18.854 12.497 30.17 12.497h282.667l-49.792-85.333h-190.208v-426.667h170.667v-85.333zM528 149.333l49.792 85.333h190.208v426.667h-170.667v85.333h213.333c11.315 0 22.17-4.495 30.17-12.497s12.497-18.854 12.497-30.17v-512c0-11.315-4.497-22.17-12.497-30.17s-18.854-12.497-30.17-12.497h-282.667zM896 576h85.333v-256h-85.333v256zM512 490.667h128l-213.333-341.333v256h-128l213.333 341.333v-256z" />
<glyph unicode="&#xe90e;" glyph-name="battery-fill" d="M128 746.667h682.667c11.315 0 22.17-4.495 30.17-12.497s12.497-18.854 12.497-30.17v-512c0-11.315-4.497-22.17-12.497-30.17s-18.854-12.497-30.17-12.497h-682.667c-11.316 0-22.168 4.497-30.17 12.497s-12.497 18.854-12.497 30.17v512c0 11.316 4.495 22.168 12.497 30.17s18.854 12.497 30.17 12.497zM896 576h85.333v-256h-85.333v256z" />
<glyph unicode="&#xe90f;" glyph-name="battery-line" d="M170.667 661.333v-426.667h597.333v426.667h-597.333zM128 746.667h682.667c11.315 0 22.17-4.495 30.17-12.497s12.497-18.854 12.497-30.17v-512c0-11.315-4.497-22.17-12.497-30.17s-18.854-12.497-30.17-12.497h-682.667c-11.316 0-22.168 4.497-30.17 12.497s-12.497 18.854-12.497 30.17v512c0 11.316 4.495 22.168 12.497 30.17s18.854 12.497 30.17 12.497zM896 576h85.333v-256h-85.333v256z" />
<glyph unicode="&#xe910;" glyph-name="battery-low-fill" d="M128 746.667h682.667c11.315 0 22.17-4.495 30.17-12.497s12.497-18.854 12.497-30.17v-512c0-11.315-4.497-22.17-12.497-30.17s-18.854-12.497-30.17-12.497h-682.667c-11.316 0-22.168 4.497-30.17 12.497s-12.497 18.854-12.497 30.17v512c0 11.316 4.495 22.168 12.497 30.17s18.854 12.497 30.17 12.497zM213.333 618.667v-341.333h170.667v341.333h-170.667zM896 576h85.333v-256h-85.333v256z" />
<glyph unicode="&#xe911;" glyph-name="battery-low-line" d="M170.667 661.333v-426.667h597.333v426.667h-597.333zM128 746.667h682.667c11.315 0 22.17-4.495 30.17-12.497s12.497-18.854 12.497-30.17v-512c0-11.315-4.497-22.17-12.497-30.17s-18.854-12.497-30.17-12.497h-682.667c-11.316 0-22.168 4.497-30.17 12.497s-12.497 18.854-12.497 30.17v512c0 11.316 4.495 22.168 12.497 30.17s18.854 12.497 30.17 12.497zM213.333 618.667h170.667v-341.333h-170.667v341.333zM896 576h85.333v-256h-85.333v256z" />
<glyph unicode="&#xe912;" glyph-name="battery-saver-fill" d="M597.333 874.667c11.315 0 22.17-4.495 30.17-12.497s12.497-18.854 12.497-30.17v-42.667h128c11.315 0 22.17-4.495 30.17-12.497s12.497-18.854 12.497-30.17v-682.667c0-11.315-4.497-22.17-12.497-30.17s-18.854-12.497-30.17-12.497h-512c-11.316 0-22.168 4.497-30.17 12.497s-12.497 18.854-12.497 30.17v682.667c0 11.316 4.495 22.168 12.497 30.17s18.854 12.497 30.17 12.497h128v42.667c0 11.316 4.495 22.168 12.497 30.17s18.854 12.497 30.17 12.497h170.667zM554.667 576h-85.333v-128h-128v-85.333h128v-128h85.333v128h128v85.333h-128v128z" />
<glyph unicode="&#xe913;" glyph-name="battery-saver-line" d="M597.333 874.667c11.315 0 22.17-4.495 30.17-12.497s12.497-18.854 12.497-30.17v-42.667h128c11.315 0 22.17-4.495 30.17-12.497s12.497-18.854 12.497-30.17v-682.667c0-11.315-4.497-22.17-12.497-30.17s-18.854-12.497-30.17-12.497h-512c-11.316 0-22.168 4.497-30.17 12.497s-12.497 18.854-12.497 30.17v682.667c0 11.316 4.495 22.168 12.497 30.17s18.854 12.497 30.17 12.497h128v42.667c0 11.316 4.495 22.168 12.497 30.17s18.854 12.497 30.17 12.497h170.667zM554.667 789.333h-85.333v-85.333h-170.667v-597.333h426.667v597.333h-170.667v85.333zM554.667 576v-128h128v-85.333h-128v-128h-85.333v128h-128v85.333h128v128h85.333z" />
<glyph unicode="&#xe914;" glyph-name="battery-share-fill" d="M597.333 874.667c11.315 0 22.17-4.495 30.17-12.497s12.497-18.854 12.497-30.17v-42.667h128c11.315 0 22.17-4.495 30.17-12.497s12.497-18.854 12.497-30.17v-264.533l-170.667 136.533v-128h-42.667c-91.392 0-170.667-76.373-170.667-170.667v-128h85.333v128c0 44.8 40.533 85.333 85.333 85.333h42.667v-128l170.667 136.533v-349.867c0-11.315-4.497-22.17-12.497-30.17s-18.854-12.497-30.17-12.497h-512c-11.316 0-22.168 4.497-30.17 12.497s-12.497 18.854-12.497 30.17v682.667c0 11.316 4.495 22.168 12.497 30.17s18.854 12.497 30.17 12.497h128v42.667c0 11.316 4.495 22.168 12.497 30.17s18.854 12.497 30.17 12.497h170.667z" />
<glyph unicode="&#xe915;" glyph-name="battery-share-line" d="M597.333 874.667c11.315 0 22.17-4.495 30.17-12.497s12.497-18.854 12.497-30.17v-42.667h128c11.315 0 22.17-4.495 30.17-12.497s12.497-18.854 12.497-30.17v-85.333h-85.333v42.667h-170.667v85.333h-85.333v-85.333h-170.667v-597.333h426.667v128h85.333v-170.667c0-11.315-4.497-22.17-12.497-30.17s-18.854-12.497-30.17-12.497h-512c-11.316 0-22.168 4.497-30.17 12.497s-12.497 18.854-12.497 30.17v682.667c0 11.316 4.495 22.168 12.497 30.17s18.854 12.497 30.17 12.497h128v42.667c0 11.316 4.495 22.168 12.497 30.17s18.854 12.497 30.17 12.497h170.667zM640 618.667l213.333-170.667-213.333-170.667v128h-42.667c-44.971 0-85.333-40.533-85.333-85.333v-128h-85.333v128c0 45.265 17.98 88.674 49.988 120.678 32.004 32.009 75.413 49.988 120.678 49.988h42.667v128z" />
<glyph unicode="&#xe916;" glyph-name="bluetooth-connect-fill" d="M611.883 446.716l185.301-185.301-241.323-241.323h-85.333v285.269l-186.197-186.197-60.373 60.331 246.571 246.528v41.387l-246.571 246.615 60.373 60.331 186.197-186.197v285.269h85.333l241.323-241.365-185.301-185.346zM555.861 382.118v-241.365l120.661 120.661-120.661 120.704zM555.861 511.398l120.661 120.663-120.661 120.661v-241.325zM832 383.996c-16.973 0-33.254 6.746-45.257 18.748s-18.743 28.279-18.743 45.252c0 16.977 6.741 33.254 18.743 45.257s28.284 18.743 45.257 18.743c16.973 0 33.254-6.741 45.257-18.743s18.743-28.279 18.743-45.257c0-16.973-6.741-33.25-18.743-45.252s-28.284-18.748-45.257-18.748zM277.333 383.996c-16.974 0-33.253 6.746-45.255 18.748s-18.745 28.279-18.745 45.252c0 16.977 6.743 33.254 18.745 45.257s28.281 18.743 45.255 18.743c16.974 0 33.253-6.741 45.255-18.743s18.745-28.279 18.745-45.257c0-16.973-6.743-33.25-18.745-45.252s-28.281-18.748-45.255-18.748z" />
<glyph unicode="&#xe917;" glyph-name="bluetooth-connect-line" d="M611.883 446.716l185.301-185.301-241.323-241.323h-85.333v285.269l-186.197-186.197-60.373 60.331 246.571 246.528v41.387l-246.571 246.615 60.373 60.331 186.197-186.197v285.269h85.333l241.323-241.365-185.301-185.346zM555.861 382.118v-241.365l120.661 120.661-120.661 120.704zM555.861 511.398l120.661 120.663-120.661 120.661v-241.325zM832 383.996c-16.973 0-33.254 6.746-45.257 18.748s-18.743 28.279-18.743 45.252c0 16.977 6.741 33.254 18.743 45.257s28.284 18.743 45.257 18.743c16.973 0 33.254-6.741 45.257-18.743s18.743-28.279 18.743-45.257c0-16.973-6.741-33.25-18.743-45.252s-28.284-18.748-45.257-18.748zM277.333 383.996c-16.974 0-33.253 6.746-45.255 18.748s-18.745 28.279-18.745 45.252c0 16.977 6.743 33.254 18.745 45.257s28.281 18.743 45.255 18.743c16.974 0 33.253-6.741 45.255-18.743s18.745-28.279 18.745-45.257c0-16.973-6.743-33.25-18.745-45.252s-28.281-18.748-45.255-18.748z" />
<glyph unicode="&#xe918;" glyph-name="bluetooth-fill" d="M611.883 446.716l185.301-185.301-241.323-241.323h-85.333v285.269l-186.196-186.197-60.373 60.331 246.57 246.528v41.387l-246.57 246.615 60.373 60.331 186.196-186.197v285.269h85.333l241.323-241.365-185.301-185.346zM555.861 382.118v-241.365l120.661 120.661-120.661 120.704zM555.861 511.398l120.661 120.663-120.661 120.661v-241.325z" />
<glyph unicode="&#xe919;" glyph-name="bluetooth-line" d="M611.883 446.716l185.301-185.301-241.323-241.323h-85.333v285.269l-186.196-186.197-60.373 60.331 246.57 246.528v41.387l-246.57 246.615 60.373 60.331 186.196-186.197v285.269h85.333l241.323-241.365-185.301-185.346zM555.861 382.118v-241.365l120.661 120.661-120.661 120.704zM555.861 511.398l120.661 120.663-120.661 120.661v-241.325z" />
<glyph unicode="&#xe91a;" glyph-name="cast-fill" d="M128 832h768c11.315 0 22.17-4.495 30.17-12.497s12.497-18.854 12.497-30.17v-682.667c0-11.315-4.497-22.17-12.497-30.17s-18.854-12.497-30.17-12.497h-256c0.009 28.57-2.176 57.097-6.528 85.333h219.861v597.333h-682.667v-134.528c-28.236 4.354-56.764 6.536-85.333 6.528v170.667c0 11.316 4.495 22.168 12.497 30.17s18.854 12.497 30.17 12.497zM554.667 64h-85.333c0 101.841-40.457 199.514-112.471 271.531-72.014 72.013-169.686 112.469-271.529 112.469v85.333c259.2 0 469.333-210.133 469.333-469.333zM384 64h-85.333c0 28.015-5.518 55.757-16.239 81.638s-26.435 49.399-46.245 69.21c-19.81 19.81-43.327 35.524-69.21 46.246s-53.624 16.239-81.639 16.239v85.333c79.212 0 155.178-31.467 211.189-87.479 56.011-56.009 87.477-131.977 87.477-211.187zM213.333 64h-128v128c33.948 0 66.505-13.487 90.51-37.491s37.49-56.563 37.49-90.509zM613.248 234.667c-27.106 83.529-73.613 159.445-135.706 221.542-62.095 62.093-138.015 108.599-221.542 135.706v69.419h512v-426.667h-154.752z" />
<glyph unicode="&#xe91b;" glyph-name="cast-line" d="M128 832h768c11.315 0 22.17-4.495 30.17-12.497s12.497-18.854 12.497-30.17v-682.667c0-11.315-4.497-22.17-12.497-30.17s-18.854-12.497-30.17-12.497h-256c0.009 28.57-2.176 57.097-6.528 85.333h219.861v597.333h-682.667v-134.528c-28.236 4.354-56.764 6.536-85.333 6.528v170.667c0 11.316 4.495 22.168 12.497 30.17s18.854 12.497 30.17 12.497zM554.667 64h-85.333c0 101.841-40.457 199.514-112.471 271.531-72.014 72.013-169.686 112.469-271.529 112.469v85.333c259.2 0 469.333-210.133 469.333-469.333zM384 64h-85.333c0 28.015-5.518 55.757-16.239 81.638s-26.435 49.399-46.245 69.21c-19.81 19.81-43.327 35.524-69.21 46.246s-53.624 16.239-81.639 16.239v85.333c79.212 0 155.178-31.467 211.189-87.479 56.011-56.009 87.477-131.977 87.477-211.187zM213.333 64h-128v128c33.948 0 66.505-13.487 90.51-37.491s37.49-56.563 37.49-90.509z" />
<glyph unicode="&#xe91c;" glyph-name="cellphone-fill" d="M298.667 874.667h469.333c11.315 0 22.17-4.495 30.17-12.497s12.497-18.854 12.497-30.17v-768c0-11.315-4.497-22.17-12.497-30.17s-18.854-12.497-30.17-12.497h-512c-11.316 0-22.168 4.497-30.17 12.497s-12.497 18.854-12.497 30.17v896h85.333v-85.333zM298.667 789.333v-213.333h426.667v213.333h-426.667z" />
<glyph unicode="&#xe91d;" glyph-name="cellphone-line" d="M298.667 874.667h469.333c11.315 0 22.17-4.495 30.17-12.497s12.497-18.854 12.497-30.17v-768c0-11.315-4.497-22.17-12.497-30.17s-18.854-12.497-30.17-12.497h-512c-11.316 0-22.168 4.497-30.17 12.497s-12.497 18.854-12.497 30.17v896h85.333v-85.333zM298.667 576h426.667v213.333h-426.667v-213.333zM298.667 490.667v-384h426.667v384h-426.667z" />
<glyph unicode="&#xe91e;" glyph-name="computer-fill" d="M554.667 192v-85.333h170.667v-85.333h-426.665v85.333h170.665v85.333h-341.673c-5.603 0.034-11.144 1.173-16.305 3.349-5.162 2.18-9.843 5.359-13.775 9.348-3.932 3.994-7.037 8.721-9.139 13.914s-3.157 10.752-3.106 16.354v554.069c0 23.723 19.413 42.965 42.325 42.965h768.681c23.381 0 42.325-19.157 42.325-42.965v-554.069c0-23.723-19.413-42.965-42.325-42.965h-341.675z" />
<glyph unicode="&#xe91f;" glyph-name="computer-line" d="M170.668 277.333h682.665v469.333h-682.665v-469.333zM554.667 192v-85.333h170.667v-85.333h-426.665v85.333h170.665v85.333h-341.673c-5.603 0.034-11.144 1.173-16.305 3.349-5.162 2.18-9.843 5.359-13.775 9.348-3.932 3.994-7.037 8.721-9.139 13.914s-3.157 10.752-3.106 16.354v554.069c0 23.723 19.413 42.965 42.325 42.965h768.681c23.381 0 42.325-19.157 42.325-42.965v-554.069c0-23.723-19.413-42.965-42.325-42.965h-341.675z" />
<glyph unicode="&#xe920;" glyph-name="cpu-fill" d="M597.333 106.667h-170.667v-85.333h-85.333v85.333h-128c-11.316 0-22.168 4.497-30.17 12.497s-12.497 18.854-12.497 30.17v128h-85.333v85.333h85.333v170.667h-85.333v85.333h85.333v128c0 11.316 4.495 22.168 12.497 30.17s18.854 12.497 30.17 12.497h128v85.333h85.333v-85.333h170.667v85.333h85.333v-85.333h128c11.315 0 22.17-4.495 30.17-12.497s12.497-18.854 12.497-30.17v-128h85.333v-85.333h-85.333v-170.667h85.333v-85.333h-85.333v-128c0-11.315-4.497-22.17-12.497-30.17s-18.854-12.497-30.17-12.497h-128v-85.333h-85.333v85.333zM298.667 661.333v-170.667h170.667v170.667h-170.667z" />
<glyph unicode="&#xe921;" glyph-name="cpu-line" d="M256 192h512v512h-512v-512zM597.333 106.667h-170.667v-85.333h-85.333v85.333h-128c-11.316 0-22.168 4.497-30.17 12.497s-12.497 18.854-12.497 30.17v128h-85.333v85.333h85.333v170.667h-85.333v85.333h85.333v128c0 11.316 4.495 22.168 12.497 30.17s18.854 12.497 30.17 12.497h128v85.333h85.333v-85.333h170.667v85.333h85.333v-85.333h128c11.315 0 22.17-4.495 30.17-12.497s12.497-18.854 12.497-30.17v-128h85.333v-85.333h-85.333v-170.667h85.333v-85.333h-85.333v-128c0-11.315-4.497-22.17-12.497-30.17s-18.854-12.497-30.17-12.497h-128v-85.333h-85.333v85.333zM341.333 618.667h341.333v-341.333h-341.333v341.333z" />
<glyph unicode="&#xe922;" glyph-name="dashboard-2-fill" d="M512 874.667c235.648 0 426.667-191.019 426.667-426.667s-191.019-426.667-426.667-426.667c-235.648 0-426.667 191.019-426.667 426.667s191.019 426.667 426.667 426.667zM512 746.667c-164.949 0-298.667-133.717-298.667-298.667 0-79.019 30.72-150.912 80.811-204.331l6.656-6.827 60.331 60.288c-38.571 38.656-62.464 91.989-62.464 150.869 0 117.803 95.531 213.333 213.333 213.333 19.115 0 37.632-2.517 55.253-7.253l66.688 66.645c-37.248 16.64-78.507 25.941-121.941 25.941zM784.725 569.899l-66.603-66.645c4.693-17.621 7.211-36.139 7.211-55.253 0-58.88-23.893-112.213-62.464-150.869l60.331-60.331c54.016 54.059 87.467 128.725 87.467 211.2 0 43.435-9.259 84.693-25.941 121.899zM692.992 689.365l-158.933-158.891c-7.040 1.877-14.421 2.859-22.059 2.859-47.147 0-85.333-38.187-85.333-85.333s38.187-85.333 85.333-85.333c47.147 0 85.333 38.187 85.333 85.333 0 7.637-0.981 15.019-2.859 22.059l158.891 158.976-60.373 60.331z" />
<glyph unicode="&#xe923;" glyph-name="dashboard-2-line" d="M512 874.667c235.648 0 426.667-191.019 426.667-426.667s-191.019-426.667-426.667-426.667c-235.648 0-426.667 191.019-426.667 426.667s191.019 426.667 426.667 426.667zM512 789.333c-188.501 0-341.333-152.832-341.333-341.333s152.832-341.333 341.333-341.333c188.501 0 341.333 152.832 341.333 341.333s-152.832 341.333-341.333 341.333zM512 746.667c43.435 0 84.693-9.259 121.941-25.941l-66.688-66.645c-17.621 4.693-36.139 7.253-55.253 7.253-117.803 0-213.333-95.531-213.333-213.333 0-58.88 23.893-112.213 62.464-150.869l-60.331-60.331-6.656 6.869c-50.091 53.419-80.811 125.312-80.811 204.331 0 164.949 133.717 298.667 298.667 298.667zM784.725 569.899c16.64-37.205 25.941-78.507 25.941-121.899 0-82.475-33.451-157.141-87.467-211.2l-60.331 60.331c38.571 38.656 62.464 91.989 62.464 150.869 0 19.115-2.517 37.632-7.253 55.253l66.645 66.645zM692.992 689.365l60.373-60.331-158.891-158.976c1.877-7.040 2.859-14.421 2.859-22.059 0-47.147-38.187-85.333-85.333-85.333s-85.333 38.187-85.333 85.333c0 47.147 38.187 85.333 85.333 85.333 7.637 0 15.019-0.981 22.059-2.859l158.933 158.891z" />
<glyph unicode="&#xe924;" glyph-name="dashboard-3-fill" d="M512 874.667c235.648 0 426.667-191.019 426.667-426.667s-191.019-426.667-426.667-426.667c-235.648 0-426.667 191.019-426.667 426.667s191.019 426.667 426.667 426.667zM708.096 644.096c-8.704 8.747-22.443 9.941-32.555 2.859-123.307-86.528-192.853-137.813-208.811-153.685-24.96-25.003-24.96-65.536 0-90.539 25.003-24.96 65.536-24.96 90.539 0 9.344 9.387 60.501 78.976 153.515 208.939 7.168 9.984 6.016 23.723-2.688 32.427zM746.667 490.667c-23.552 0-42.667-19.115-42.667-42.667s19.115-42.667 42.667-42.667c23.552 0 42.667 19.115 42.667 42.667s-19.115 42.667-42.667 42.667zM277.333 490.667c-23.552 0-42.667-19.115-42.667-42.667s19.115-42.667 42.667-42.667c23.552 0 42.667 19.115 42.667 42.667s-19.115 42.667-42.667 42.667zM376.235 644.096c-16.64 16.64-43.691 16.64-60.331 0s-16.64-43.648 0-60.331c16.64-16.64 43.648-16.64 60.331 0 16.64 16.64 16.64 43.691 0 60.331zM512 725.333c-23.552 0-42.667-19.115-42.667-42.667s19.115-42.667 42.667-42.667c23.552 0 42.667 19.115 42.667 42.667s-19.115 42.667-42.667 42.667z" />
<glyph unicode="&#xe925;" glyph-name="dashboard-3-line" d="M512 874.667c235.648 0 426.667-191.019 426.667-426.667s-191.019-426.667-426.667-426.667c-235.648 0-426.667 191.019-426.667 426.667s191.019 426.667 426.667 426.667zM512 789.333c-188.501 0-341.333-152.832-341.333-341.333s152.832-341.333 341.333-341.333c188.501 0 341.333 152.832 341.333 341.333s-152.832 341.333-341.333 341.333zM675.541 646.955c10.112 7.083 23.851 5.888 32.555-2.859 8.704-8.704 9.813-22.443 2.688-32.427-93.013-129.963-144.213-199.595-153.515-208.939-25.003-24.96-65.536-24.96-90.539 0-24.96 25.003-24.96 65.536 0 90.539 15.957 15.915 85.547 67.157 208.811 153.685zM746.667 490.667c23.552 0 42.667-19.115 42.667-42.667s-19.115-42.667-42.667-42.667c-23.552 0-42.667 19.115-42.667 42.667s19.115 42.667 42.667 42.667zM277.333 490.667c23.552 0 42.667-19.115 42.667-42.667s-19.115-42.667-42.667-42.667c-23.552 0-42.667 19.115-42.667 42.667s19.115 42.667 42.667 42.667zM376.235 644.096c16.64-16.64 16.64-43.648 0-60.331-16.64-16.64-43.691-16.64-60.331 0s-16.64 43.691 0 60.331c16.64 16.64 43.648 16.64 60.331 0zM512 725.333c23.552 0 42.667-19.115 42.667-42.667s-19.115-42.667-42.667-42.667c-23.552 0-42.667 19.115-42.667 42.667s19.115 42.667 42.667 42.667z" />
<glyph unicode="&#xe926;" glyph-name="database-2-fill" d="M896 554.667v-128c0-106.027-171.947-192-384-192s-384 85.973-384 192v128c0-106.027 171.947-192 384-192s384 85.973 384 192zM128 341.333c0-106.027 171.947-192 384-192s384 85.973 384 192v-128c0-106.027-171.947-192-384-192s-384 85.973-384 192v128zM512 448c-212.053 0-384 85.973-384 192s171.947 192 384 192c212.053 0 384-85.973 384-192s-171.947-192-384-192z" />
<glyph unicode="&#xe927;" glyph-name="database-2-line" d="M213.333 426.667c0-13.355 19.669-36.608 65.28-59.435 59.051-29.525 142.805-47.232 233.387-47.232s174.336 17.707 233.387 47.232c45.611 22.827 65.28 46.080 65.28 59.435v92.629c-70.4-43.52-178.048-71.296-298.667-71.296s-228.267 27.819-298.667 71.296v-92.629zM810.667 305.963c-70.4-43.52-178.048-71.296-298.667-71.296s-228.267 27.819-298.667 71.296v-92.629c0-13.355 19.669-36.608 65.28-59.435 59.051-29.525 142.805-47.232 233.387-47.232s174.336 17.707 233.387 47.232c45.611 22.827 65.28 46.080 65.28 59.435v92.629zM128 213.333v426.667c0 106.027 171.947 192 384 192s384-85.973 384-192v-426.667c0-106.027-171.947-192-384-192s-384 85.973-384 192zM512 533.333c90.581 0 174.336 17.707 233.387 47.232 45.611 22.827 65.28 46.080 65.28 59.435s-19.669 36.608-65.28 59.435c-59.051 29.525-142.805 47.232-233.387 47.232s-174.336-17.707-233.387-47.232c-45.611-22.827-65.28-46.080-65.28-59.435s19.669-36.608 65.28-59.435c59.051-29.525 142.805-47.232 233.387-47.232z" />
<glyph unicode="&#xe928;" glyph-name="database-fill" d="M469.333 661.333v128c0 11.316 4.497 22.168 12.497 30.17s18.854 12.497 30.17 12.497h384c11.315 0 22.17-4.495 30.17-12.497s12.497-18.854 12.497-30.17v-682.667c0-11.315-4.497-22.17-12.497-30.17s-18.854-12.497-30.17-12.497h-768c-11.316 0-22.168 4.497-30.17 12.497s-12.497 18.854-12.497 30.17v512c0 11.316 4.495 22.168 12.497 30.17s18.854 12.497 30.17 12.497h341.333zM213.333 277.333v-85.333h213.333v85.333h-213.333zM597.333 277.333v-85.333h213.333v85.333h-213.333zM597.333 405.333v-85.333h213.333v85.333h-213.333zM597.333 533.333v-85.333h213.333v85.333h-213.333zM213.333 405.333v-85.333h213.333v85.333h-213.333z" />
<glyph unicode="&#xe929;" glyph-name="database-line" d="M469.333 149.333v426.667h-298.667v-426.667h298.667zM469.333 661.333v128c0 11.316 4.497 22.168 12.497 30.17s18.854 12.497 30.17 12.497h384c11.315 0 22.17-4.495 30.17-12.497s12.497-18.854 12.497-30.17v-682.667c0-11.315-4.497-22.17-12.497-30.17s-18.854-12.497-30.17-12.497h-768c-11.316 0-22.168 4.497-30.17 12.497s-12.497 18.854-12.497 30.17v512c0 11.316 4.495 22.168 12.497 30.17s18.854 12.497 30.17 12.497h341.333zM554.667 746.667v-597.333h298.667v597.333h-298.667zM213.333 277.333h213.333v-85.333h-213.333v85.333zM597.333 277.333h213.333v-85.333h-213.333v85.333zM597.333 405.333h213.333v-85.333h-213.333v85.333zM597.333 533.333h213.333v-85.333h-213.333v85.333zM213.333 405.333h213.333v-85.333h-213.333v85.333z" />
<glyph unicode="&#xe92a;" glyph-name="device-fill" d="M810.667 704h-341.333c-11.315 0-22.17-4.495-30.17-12.497s-12.497-18.854-12.497-30.17v-554.667h-256c-11.316 0-22.168 4.497-30.17 12.497s-12.497 18.854-12.497 30.17v682.667c0 11.316 4.495 22.168 12.497 30.17s18.854 12.497 30.17 12.497h597.333c11.315 0 22.17-4.495 30.17-12.497s12.497-18.854 12.497-30.17v-128zM554.667 618.667h341.333c11.315 0 22.17-4.495 30.17-12.497s12.497-18.854 12.497-30.17v-512c0-11.315-4.497-22.17-12.497-30.17s-18.854-12.497-30.17-12.497h-341.333c-11.315 0-22.17 4.497-30.17 12.497s-12.497 18.854-12.497 30.17v512c0 11.316 4.497 22.168 12.497 30.17s18.854 12.497 30.17 12.497z" />
<glyph unicode="&#xe92b;" glyph-name="device-line" d="M810.667 618.667h85.333c11.315 0 22.17-4.495 30.17-12.497s12.497-18.854 12.497-30.17v-512c0-11.315-4.497-22.17-12.497-30.17s-18.854-12.497-30.17-12.497h-341.333c-11.315 0-22.17 4.497-30.17 12.497s-12.497 18.854-12.497 30.17v42.667h-341.333c-11.316 0-22.168 4.497-30.17 12.497s-12.497 18.854-12.497 30.17v682.667c0 11.316 4.495 22.168 12.497 30.17s18.854 12.497 30.17 12.497h597.333c11.315 0 22.17-4.495 30.17-12.497s12.497-18.854 12.497-30.17v-213.333zM725.333 618.667v170.667h-512v-597.333h298.667v384c0 11.316 4.497 22.168 12.497 30.17s18.854 12.497 30.17 12.497h170.667zM597.333 533.333v-426.667h256v426.667h-256z" />
<glyph unicode="&#xe92c;" glyph-name="device-recover-fill" d="M810.667 874.667c11.315 0 22.17-4.495 30.17-12.497s12.497-18.854 12.497-30.17v-768c0-11.315-4.497-22.17-12.497-30.17s-18.854-12.497-30.17-12.497h-597.333c-11.316 0-22.168 4.497-30.17 12.497s-12.497 18.854-12.497 30.17v768c0 11.316 4.495 22.168 12.497 30.17s18.854 12.497 30.17 12.497h597.333zM512 661.333c-29.722-0.032-59.11-6.275-86.277-18.327-27.168-12.052-51.518-29.648-71.489-51.66s-35.122-47.954-44.482-76.163c-9.36-28.211-12.722-58.065-9.871-87.65 2.851-29.581 11.853-58.244 26.428-84.147s34.401-48.474 58.208-66.266c23.807-17.796 51.070-30.417 80.041-37.060 28.971-6.639 59.008-7.155 88.188-1.51l-40.747 81.451c-33.946 0-66.505 13.487-90.51 37.491s-37.49 56.563-37.49 90.509c0 33.946 13.486 66.505 37.49 90.51s56.564 37.49 90.51 37.49c68.181 0 128-57.173 128-128h-106.667l90.795-181.504c39.497 24.393 69.956 61.005 86.763 104.277 16.802 43.277 19.034 90.85 6.353 135.505-12.685 44.657-39.586 83.958-76.625 111.94s-82.197 43.12-128.619 43.115z" />
<glyph unicode="&#xe92d;" glyph-name="device-recover-line" d="M810.667 874.667c11.315 0 22.17-4.495 30.17-12.497s12.497-18.854 12.497-30.17v-768c0-11.315-4.497-22.17-12.497-30.17s-18.854-12.497-30.17-12.497h-597.333c-11.316 0-22.168 4.497-30.17 12.497s-12.497 18.854-12.497 30.17v768c0 11.316 4.495 22.168 12.497 30.17s18.854 12.497 30.17 12.497h597.333zM768 789.333h-512v-682.667h512v682.667zM512 661.333c46.421 0.005 91.58-15.132 128.619-43.115s63.94-67.284 76.625-111.94c12.681-44.655 10.449-92.228-6.353-135.505-16.806-43.273-47.266-79.885-86.763-104.277l-90.795 181.504h106.667c0 25.314-7.505 50.065-21.572 71.113-14.063 21.050-34.057 37.456-57.442 47.144-23.39 9.688-49.126 12.223-73.958 7.284-24.828-4.939-47.637-17.13-65.537-35.031-17.901-17.9-30.092-40.709-35.031-65.537-4.939-24.832-2.404-50.569 7.284-73.958 9.688-23.386 26.094-43.379 47.144-57.442 21.047-14.067 45.798-21.572 71.113-21.572l40.747-81.451c-29.18-5.645-59.217-5.129-88.188 1.51-28.971 6.643-56.233 19.264-80.041 37.060-23.807 17.792-43.633 40.363-58.208 66.266s-23.577 54.566-26.428 84.147c-2.851 29.585 0.511 59.439 9.871 87.65 9.36 28.209 24.511 54.151 44.482 76.163s44.321 39.608 71.489 51.66c27.166 12.052 56.555 18.295 86.277 18.327z" />
<glyph unicode="&#xe92e;" glyph-name="device-recover-line-1" d="M810.667 874.667c11.315 0 22.17-4.495 30.17-12.497s12.497-18.854 12.497-30.17v-768c0-11.315-4.497-22.17-12.497-30.17s-18.854-12.497-30.17-12.497h-597.333c-11.316 0-22.168 4.497-30.17 12.497s-12.497 18.854-12.497 30.17v768c0 11.316 4.495 22.168 12.497 30.17s18.854 12.497 30.17 12.497h597.333zM768 789.333h-512v-682.667h512v682.667zM512 661.333c46.421 0.005 91.58-15.132 128.619-43.115s63.94-67.284 76.625-111.94c12.681-44.655 10.449-92.228-6.353-135.505-16.806-43.273-47.266-79.885-86.763-104.277l-90.795 181.504h106.667c0 25.314-7.505 50.065-21.572 71.113-14.063 21.050-34.057 37.456-57.442 47.144-23.39 9.688-49.126 12.223-73.958 7.284-24.828-4.939-47.637-17.13-65.537-35.031-17.901-17.9-30.092-40.709-35.031-65.537-4.939-24.832-2.404-50.569 7.284-73.958 9.688-23.386 26.094-43.379 47.144-57.442 21.047-14.067 45.798-21.572 71.113-21.572l40.747-81.451c-29.18-5.645-59.217-5.129-88.188 1.51-28.971 6.643-56.233 19.264-80.041 37.060-23.807 17.792-43.633 40.363-58.208 66.266s-23.577 54.566-26.428 84.147c-2.851 29.585 0.511 59.439 9.871 87.65 9.36 28.209 24.511 54.151 44.482 76.163s44.321 39.608 71.489 51.66c27.166 12.052 56.555 18.295 86.277 18.327z" />
<glyph unicode="&#xe92f;" glyph-name="dual-sim-1-fill" d="M640 874.667l200.832-200.832c8.004-8 12.497-18.851 12.501-30.165v-579.669c0-11.315-4.497-22.17-12.497-30.17s-18.854-12.497-30.17-12.497h-597.333c-11.316 0-22.168 4.497-30.17 12.497s-12.497 18.854-12.497 30.17v768c0 11.316 4.495 22.168 12.497 30.17s18.854 12.497 30.17 12.497h426.667zM554.667 618.667h-128v-85.333h42.667v-256h85.333v341.333z" />
<glyph unicode="&#xe930;" glyph-name="dual-sim-1-line" d="M640 874.667l200.832-200.832c8.004-8 12.497-18.851 12.501-30.165v-579.669c0-11.315-4.497-22.17-12.497-30.17s-18.854-12.497-30.17-12.497h-597.333c-11.316 0-22.168 4.497-30.17 12.497s-12.497 18.854-12.497 30.17v768c0 11.316 4.495 22.168 12.497 30.17s18.854 12.497 30.17 12.497h426.667zM604.629 789.333h-348.629v-682.667h512v519.296l-163.371 163.371zM554.667 277.333h-85.333v256h-42.667v85.333h128v-341.333z" />
<glyph unicode="&#xe931;" glyph-name="dual-sim-2-fill" d="M640 874.667l200.832-200.832c8.004-8 12.497-18.851 12.501-30.165v-579.669c0-11.315-4.497-22.17-12.497-30.17s-18.854-12.497-30.17-12.497h-597.333c-11.316 0-22.168 4.497-30.17 12.497s-12.497 18.854-12.497 30.17v768c0 11.316 4.495 22.168 12.497 30.17s18.854 12.497 30.17 12.497h426.667zM512 640c-32.649 0.002-64.064-12.473-87.819-34.871s-38.052-53.027-39.968-85.62l-0.213-7.509h85.333c0 6.899 1.668 13.7 4.873 19.814 3.204 6.112 7.842 11.357 13.517 15.284s12.215 6.419 19.068 7.262c6.848 0.843 13.798 0.012 20.258-2.423s12.228-6.399 16.819-11.553c4.587-5.155 7.859-11.344 9.527-18.042 1.673-6.694 1.694-13.696 0.064-20.403s-4.86-12.915-9.417-18.099l-3.499-3.541-156.544-140.971v-61.995h256v85.333h-102.613l60.245 54.187-0.256 0.427 0.341-0.341c19.221 17.331 32.734 40.081 38.763 65.246 6.029 25.169 4.284 51.572-4.996 75.729-9.284 24.157-25.673 44.933-47.002 59.587-21.333 14.654-46.605 22.499-72.482 22.499z" />
<glyph unicode="&#xe932;" glyph-name="dual-sim-2-line" d="M640 874.667l200.832-200.832c8.004-8 12.497-18.851 12.501-30.165v-579.669c0-11.315-4.497-22.17-12.497-30.17s-18.854-12.497-30.17-12.497h-597.333c-11.316 0-22.168 4.497-30.17 12.497s-12.497 18.854-12.497 30.17v768c0 11.316 4.495 22.168 12.497 30.17s18.854 12.497 30.17 12.497h426.667zM604.629 789.333h-348.629v-682.667h512v519.296l-163.371 163.371zM512 640c25.877 0 51.149-7.844 72.482-22.499 21.329-14.654 37.717-35.43 47.002-59.587 9.28-24.157 11.025-50.56 4.996-75.729-6.029-25.165-19.541-47.915-38.763-65.246l-0.341 0.341 0.256-0.427-60.245-54.187h102.613v-85.333h-256v61.995l156.587 140.971c5.278 4.762 9.28 10.769 11.648 17.468 2.364 6.703 3.021 13.892 1.903 20.911s-3.972 13.649-8.299 19.286c-4.331 5.637-10.001 10.103-16.495 12.992s-13.606 4.111-20.693 3.552c-7.087-0.558-13.922-2.877-19.883-6.747s-10.863-9.168-14.255-15.412c-3.396-6.246-5.175-13.239-5.18-20.348h-85.333c0 33.948 13.486 66.505 37.49 90.51s56.564 37.49 90.51 37.49z" />
<glyph unicode="&#xe933;" glyph-name="fingerprint-2-fill" d="M512 917.333c101.845 0 199.514-40.457 271.531-112.471 72.013-72.014 112.469-169.686 112.469-271.529v-170.667c0.043-61.504-14.703-122.112-42.995-176.721-28.288-54.609-69.299-101.611-119.565-137.050 20.224 64.939 32 133.589 34.219 204.672l0.341 23.765v85.376h-85.333v-85.376l-0.128-13.44c-1.694-93.047-22.473-184.751-61.056-269.44-49.425-14.605-101.274-19.157-152.491-13.397 52.834 83.422 82.317 179.49 85.376 278.187l0.299 18.091v298.667h-85.333v-298.667l-0.171-12.288c-2.317-94.707-33.374-186.475-89.045-263.125-40.709 14.899-78.594 36.595-112.043 64.171 44.58 56.371 70.126 125.436 72.96 197.248l0.299 13.995v256l0.213 8.533c1.173 24.17 7.502 47.81 18.56 69.333l4.864 8.832-61.653 61.653c-28.363-39.781-44.684-86.88-47.019-135.68l-0.299-12.672v-256l-0.171-9.6c-1.805-50.253-18.448-98.842-47.829-139.648-51.983 67.136-80.13 149.67-80 234.581v170.667c0 101.843 40.457 199.515 112.471 271.529s169.686 112.471 271.529 112.471zM512 789.333c-51.029 0-98.56-14.933-138.496-40.661l-9.813-6.656 61.611-61.653c23.202 13.725 49.339 21.726 76.245 23.339l10.453 0.299 8.533-0.213c42.219-2.11 82.15-19.813 112.064-49.679s47.68-69.771 49.856-111.985l0.213-8.789v-85.333h85.333v85.333c0 67.895-26.97 133.010-74.978 181.019-48.013 48.009-113.126 74.981-181.022 74.981z" />
<glyph unicode="&#xe934;" glyph-name="fingerprint-2-line" d="M512 917.333c101.845 0 199.514-40.457 271.531-112.471 72.013-72.014 112.469-169.686 112.469-271.529v-170.667c0.021-61.794-14.874-122.684-43.418-177.493-28.544-54.805-69.892-101.918-120.538-137.327-50.641-35.409-109.082-58.078-170.359-66.074-61.274-7.996-123.575-1.084-181.61 20.147 5.461 7.552 10.709 15.232 15.744 23.125l7.253 11.947c41.373 69.030 64.157 147.597 66.133 228.053l0.128 12.288v298.666h85.333v-298.666c0.094-73.242-14.366-145.771-42.539-213.376 32.951 0.017 65.677 5.466 96.853 16.128 18.859 58.069 29.568 119.808 30.891 183.893l0.128 13.355v128.043h85.333v-128.043c0-46.421-4.352-91.861-12.715-135.893 29.632 26.795 53.572 59.281 70.387 95.522 16.815 36.237 26.163 75.49 27.49 115.422l0.171 10.283v170.667c0 55.43-15.424 109.766-44.548 156.928s-70.801 85.288-120.358 110.112c-49.562 24.824-105.054 35.367-160.265 30.448s-107.962-25.105-152.354-58.299l-60.8 60.843c67.988 54.473 152.54 84.097 239.658 83.968zM298.667 533.333c0 56.579 22.476 110.841 62.484 150.849s94.269 62.484 150.849 62.484c56.58 0 110.844-22.476 150.848-62.484 40.009-40.008 62.485-94.27 62.485-150.849v-42.667h-85.333v42.667c0.034 33.318-12.928 65.336-36.13 89.251-23.198 23.914-54.81 37.839-88.115 38.817-33.301 0.978-65.677-11.069-90.238-33.581-24.563-22.512-39.38-53.715-41.303-86.978l-0.213-7.509v-256c0-66.859-17.067-129.707-47.104-184.448l-1.024-1.707c-9.813-17.664-20.949-34.475-33.365-50.304-18.763 12.237-36.422 26.082-52.779 41.387l-13.184 12.8c-69.738 71.603-108.695 167.65-108.544 267.605v170.667c0 90.666 31.403 173.994 83.968 239.658l60.843-60.8c-36.594-48.778-57.299-107.631-59.307-168.576l-0.171-10.282v-170.667c0-71.467 25.088-137.045 66.987-188.459 11.017 29.769 17.155 61.12 18.176 92.843l0.171 10.283v256z" />
<glyph unicode="&#xe935;" glyph-name="fingerprint-fill" d="M725.333 405.333v-42.667c0-118.187-28.331-232.32-81.707-334.763l-9.685-17.92-74.539 41.557c49.493 88.747 77.227 188.16 80.299 291.669l0.299 19.456v42.667h85.333zM469.333 533.333h85.333v-170.667l-0.213-16.171c-3.226-116.809-43.426-229.581-114.816-322.091l-9.856-12.373-66.133 53.931c65.126 79.535 102.187 178.342 105.429 281.088l0.256 15.616v170.667zM512 704c56.58 0 110.844-22.476 150.848-62.484 40.009-40.008 62.485-94.27 62.485-150.849h-85.333c0 33.946-13.487 66.505-37.491 90.509s-56.563 37.49-90.509 37.49c-33.95 0-66.505-13.486-90.51-37.49s-37.49-56.564-37.49-90.509v-128c0-95.36-34.987-185.344-96.896-255.019l-9.045-9.813-61.781 58.88c49.918 52.228 79.114 120.841 82.133 193.024l0.256 12.928v128c0 56.579 22.476 110.841 62.484 150.849s94.269 62.484 150.849 62.484zM512 874.666c101.841 0 199.514-40.457 271.531-112.471 72.013-72.014 112.469-169.686 112.469-271.529v-128c0-72.448-8.619-143.787-25.472-212.907l-5.931-22.997-82.347 22.443c16.725 61.312 26.155 124.672 28.075 189.227l0.341 24.235v128c0 55.43-15.424 109.766-44.548 156.928s-70.801 85.288-120.358 110.112c-49.562 24.824-105.054 35.367-160.265 30.448s-107.963-25.105-152.354-58.299l-60.8 60.843c67.988 54.473 152.54 84.097 239.659 83.968zM211.968 730.325l60.843-60.8c-36.594-48.778-57.299-107.631-59.307-168.576l-0.171-10.283 0.171-85.333c0-47.787-11.264-93.995-32.512-135.552l-6.656-12.373-74.112 42.325c16.213 28.373 25.685 60.032 27.563 93.141l0.384 12.459v85.333c-0.253 87.111 29.318 171.684 83.797 239.658z" />
<glyph unicode="&#xe936;" glyph-name="fingerprint-line" d="M725.333 405.333v-42.667c0-118.187-28.331-232.32-81.707-334.763l-9.685-17.92-74.539 41.557c49.493 88.747 77.227 188.16 80.299 291.669l0.299 19.456v42.667h85.333zM469.333 533.333h85.333v-170.667l-0.213-16.171c-3.226-116.809-43.426-229.581-114.816-322.091l-9.856-12.373-66.133 53.931c65.126 79.535 102.187 178.342 105.429 281.088l0.256 15.616v170.667zM512 704c56.58 0 110.844-22.476 150.848-62.484 40.009-40.008 62.485-94.27 62.485-150.849h-85.333c0 33.946-13.487 66.505-37.491 90.509s-56.563 37.49-90.509 37.49c-33.95 0-66.505-13.486-90.51-37.49s-37.49-56.564-37.49-90.509v-128c0-95.36-34.987-185.344-96.896-255.019l-9.045-9.813-61.781 58.88c49.918 52.228 79.114 120.841 82.133 193.024l0.256 12.928v128c0 56.579 22.476 110.841 62.484 150.849s94.269 62.484 150.849 62.484zM512 874.666c101.841 0 199.514-40.457 271.531-112.471 72.013-72.014 112.469-169.686 112.469-271.529v-128c0-72.448-8.619-143.787-25.472-212.907l-5.931-22.997-82.347 22.443c16.725 61.312 26.155 124.672 28.075 189.227l0.341 24.235v128c0 55.43-15.424 109.766-44.548 156.928s-70.801 85.288-120.358 110.112c-49.562 24.824-105.054 35.367-160.265 30.448s-107.963-25.105-152.354-58.299l-60.8 60.843c67.988 54.473 152.54 84.097 239.659 83.968zM211.968 730.325l60.843-60.8c-36.594-48.778-57.299-107.631-59.307-168.576l-0.171-10.283 0.171-85.333c0-47.787-11.264-93.995-32.512-135.552l-6.656-12.373-74.112 42.325c16.213 28.373 25.685 60.032 27.563 93.141l0.384 12.459v85.333c-0.253 87.111 29.318 171.684 83.797 239.658z" />
<glyph unicode="&#xe937;" glyph-name="gamepad-fill" d="M725.333 789.333c67.895 0 133.009-26.971 181.018-74.981 48.013-48.009 74.982-113.124 74.982-181.019v-170.667c0-67.895-26.97-133.009-74.982-181.018-48.009-48.013-113.122-74.982-181.018-74.982h-426.667c-67.895 0-133.010 26.97-181.019 74.982-48.009 48.009-74.981 113.122-74.981 181.018v170.667c0 67.895 26.971 133.010 74.981 181.019s113.124 74.981 181.019 74.981h426.667zM426.667 576h-85.333v-85.333h-85.333v-85.333h85.291l0.043-85.333h85.333l-0.043 85.333h85.376v85.333h-85.333v85.333zM768 405.333h-85.333v-85.333h85.333v85.333zM682.667 576h-85.333v-85.333h85.333v85.333z" />
<glyph unicode="&#xe938;" glyph-name="gamepad-line" d="M725.333 789.333c67.895 0 133.009-26.971 181.018-74.981 48.013-48.009 74.982-113.124 74.982-181.019v-170.667c0-67.895-26.97-133.009-74.982-181.018-48.009-48.013-113.122-74.982-181.018-74.982h-426.667c-67.895 0-133.010 26.97-181.019 74.982-48.009 48.009-74.981 113.122-74.981 181.018v170.667c0 67.895 26.971 133.010 74.981 181.019s113.124 74.981 181.019 74.981h426.667zM725.333 704h-426.667c-43.786 0-85.898-16.829-117.624-47.007s-50.64-71.395-52.829-115.127l-0.213-8.533v-170.667c0-43.785 16.829-85.897 47.007-117.623s71.395-50.641 115.127-52.83l8.533-0.213h426.667c43.785 0 85.897 16.828 117.623 47.006s50.641 71.394 52.83 115.127l0.213 8.533v170.667c0 43.786-16.828 85.898-47.006 117.624s-71.394 50.64-115.127 52.829l-8.533 0.213zM426.667 576v-85.333h85.333v-85.333h-85.376l0.043-85.333h-85.333l-0.043 85.333h-85.291v85.333h85.333v85.333h85.333zM768 405.333v-85.333h-85.333v85.333h85.333zM682.667 576v-85.333h-85.333v85.333h85.333z" />
<glyph unicode="&#xe939;" glyph-name="gps-fill" d="M512 277.333l128-256h-256l128 256zM399.915 266.453c-39.494 24.393-69.953 61.005-86.757 104.273-16.804 43.273-19.037 90.846-6.358 135.497 12.679 44.657 39.577 83.957 76.613 111.942s82.188 43.125 128.609 43.125c46.421 0 91.571-15.141 128.61-43.125 37.035-27.984 63.932-67.285 76.612-111.942 12.676-44.651 10.445-92.224-6.357-135.497-16.806-43.268-47.266-79.881-86.758-104.273l-57.856 115.669c13.564 11.179 23.343 26.274 28.006 43.221 4.659 16.947 3.977 34.918-1.963 51.46s-16.841 30.848-31.215 40.96c-14.379 10.116-31.526 15.543-49.101 15.543s-34.722-5.427-49.101-15.543c-14.374-10.112-25.276-24.418-31.215-40.96s-6.623-34.513-1.963-51.46c4.663-16.947 14.443-32.043 28.006-43.221l-57.813-115.669zM304.299 75.221c-66.402 36.992-121.714 91.051-160.211 156.591s-58.782 140.177-58.754 216.188c0 235.648 191.019 426.667 426.667 426.667s426.667-191.019 426.667-426.667c0.026-76.011-20.258-150.647-58.752-216.188-38.498-65.54-93.811-119.599-160.213-156.591l-57.301 114.688c56.713 33.054 100.954 83.874 125.884 144.593 24.934 60.723 29.167 127.966 12.045 191.339-17.118 63.368-54.639 119.332-106.756 159.238s-115.93 61.531-181.572 61.531c-65.643 0-129.454-21.625-181.572-61.531s-89.638-95.87-106.758-159.238c-17.12-63.373-12.887-130.615 12.045-191.339 24.932-60.719 69.174-111.539 125.885-144.593l-57.301-114.688z" />
<glyph unicode="&#xe93a;" glyph-name="gps-line" d="M304.299 75.221c-66.402 36.992-121.714 91.051-160.211 156.591s-58.782 140.177-58.754 216.188c0 235.648 191.019 426.667 426.667 426.667s426.667-191.019 426.667-426.667c0.026-76.011-20.258-150.647-58.752-216.188-38.498-65.54-93.811-119.599-160.213-156.591l-38.229 76.416c65.323 37.367 116.463 95.279 145.468 164.719s34.249 146.517 14.916 219.249c-19.332 72.729-62.161 137.030-121.818 182.902-59.661 45.872-132.804 70.742-208.060 70.742s-148.401-24.87-208.059-70.742c-59.658-45.871-102.485-110.173-121.818-182.902-19.333-72.731-14.089-149.809 14.916-219.249s80.146-127.351 145.468-164.719l-38.187-76.416zM380.757 228.139c-48.113 28.723-85.474 72.439-106.35 124.437-20.876 52.002-24.113 109.414-9.216 163.435 14.897 54.017 47.107 101.655 91.686 135.605s99.067 52.335 155.101 52.335c56.034 0 110.524-18.385 155.102-52.335s76.787-81.588 91.686-135.605c14.895-54.020 11.657-111.433-9.216-163.435-20.877-51.998-58.236-95.714-106.351-124.437l-38.315 76.672c30.882 20.036 54.46 49.519 67.213 84.049 12.753 34.534 13.999 72.265 3.55 107.563-10.445 35.298-32.026 66.271-61.517 88.3-29.495 22.029-65.318 33.931-102.131 33.931s-72.636-11.902-102.13-33.931c-29.493-22.029-51.073-53.002-61.52-88.3s-9.201-73.028 3.552-107.563c12.753-34.53 36.33-64.013 67.212-84.049l-38.357-76.672zM512 277.333l128-256h-256l128 256z" />
<glyph unicode="&#xe93b;" glyph-name="gradienter-fill" d="M512 21.333c-235.648 0-426.667 191.019-426.667 426.667s191.019 426.667 426.667 426.667c235.648 0 426.667-191.019 426.667-426.667s-191.019-426.667-426.667-426.667zM346.709 490.667h-173.397c-3.535-28.335-3.535-56.998 0-85.333h173.397c-7.213 27.985-7.213 57.348 0 85.333zM677.291 490.667c7.211-27.985 7.211-57.348 0-85.333h173.397c3.533 28.335 3.533 56.998 0 85.333h-173.397zM512 362.667c22.63 0 44.335 8.99 60.339 24.994s24.994 37.709 24.994 60.339c0 22.63-8.99 44.335-24.994 60.339s-37.709 24.994-60.339 24.994c-22.63 0-44.335-8.99-60.339-24.994s-24.994-37.709-24.994-60.339c0-22.63 8.99-44.335 24.994-60.339s37.709-24.994 60.339-24.994z" />
<glyph unicode="&#xe93c;" glyph-name="gradienter-line" d="M87.47 405.333h85.845c10.412-82.479 50.563-158.323 112.921-213.303s142.633-85.316 225.769-85.316c83.132 0 163.409 30.336 225.766 85.316s102.507 130.825 112.922 213.303h85.888c-21.419-215.595-203.349-384-424.576-384-221.228 0-403.159 168.405-424.535 384zM87.47 490.667c21.333 215.595 203.264 384 424.535 384 221.269 0 403.157-168.405 424.533-384h-85.845c-10.415 82.479-50.564 158.324-112.922 213.304s-142.635 85.316-225.766 85.316c-83.136 0-163.412-30.336-225.769-85.316s-102.509-130.825-112.921-213.304h-85.845zM512.004 362.667c-22.635 0-44.339 8.99-60.339 24.994-16.004 16.004-24.994 37.709-24.994 60.339s8.99 44.335 24.994 60.339c16 16.004 37.705 24.994 60.339 24.994 22.63 0 44.335-8.99 60.339-24.994s24.994-37.709 24.994-60.339c0-22.63-8.99-44.335-24.994-60.339s-37.709-24.994-60.339-24.994z" />
<glyph unicode="&#xe93d;" glyph-name="hard-drive-2-fill" d="M896 832v-768c0-11.315-4.497-22.17-12.497-30.17s-18.854-12.497-30.17-12.497h-682.667c-11.316 0-22.168 4.497-30.17 12.497s-12.497 18.854-12.497 30.17v768c0 11.316 4.495 22.168 12.497 30.17s18.854 12.497 30.17 12.497h682.667c11.315 0 22.17-4.495 30.17-12.497s12.497-18.854 12.497-30.17zM213.333 277.333v-170.667h597.333v170.667h-597.333zM640 234.667h85.333v-85.333h-85.333v85.333z" />
<glyph unicode="&#xe93e;" glyph-name="hard-drive-2-line" d="M213.333 362.667h597.333v426.667h-597.333v-426.667zM213.333 277.333v-170.667h597.333v170.667h-597.333zM170.667 874.667h682.667c11.315 0 22.17-4.495 30.17-12.497s12.497-18.854 12.497-30.17v-768c0-11.315-4.497-22.17-12.497-30.17s-18.854-12.497-30.17-12.497h-682.667c-11.316 0-22.168 4.497-30.17 12.497s-12.497 18.854-12.497 30.17v768c0 11.316 4.495 22.168 12.497 30.17s18.854 12.497 30.17 12.497zM640 234.667h85.333v-85.333h-85.333v85.333z" />
<glyph unicode="&#xe93f;" glyph-name="hard-drive-fill" d="M595.2 874.667h258.133c11.315 0 22.17-4.495 30.17-12.497s12.497-18.854 12.497-30.17v-768c0-11.315-4.497-22.17-12.497-30.17s-18.854-12.497-30.17-12.497h-682.667c-11.316 0-22.168 4.497-30.17 12.497s-12.497 18.854-12.497 30.17v343.467c14.037-1.408 28.288-2.133 42.667-2.133 235.648 0 426.667 191.019 426.667 426.667 0 14.379-0.725 28.629-2.133 42.667zM640 277.333v-85.333h85.333v85.333h-85.333zM509.355 874.667c6.511-51.633 1.131-104.070-15.735-153.304-16.862-49.233-44.757-93.96-81.557-130.758s-81.525-64.695-130.758-81.557c-49.234-16.866-101.671-22.246-153.304-15.735v338.688c0 11.316 4.495 22.168 12.497 30.17s18.854 12.497 30.17 12.497h338.688z" />
<glyph unicode="&#xe940;" glyph-name="hard-drive-line" d="M213.333 493.312c75.195 9.498 145.095 43.739 198.688 97.333 53.595 53.594 87.835 123.493 97.333 198.688h-296.021v-296.021zM213.333 407.424v-300.757h597.333v682.667h-215.467c-9.865-97.919-53.265-189.421-122.854-259.012-69.591-69.589-161.093-112.99-259.012-122.854v-0.043zM170.667 874.667h682.667c11.315 0 22.17-4.495 30.17-12.497s12.497-18.854 12.497-30.17v-768c0-11.315-4.497-22.17-12.497-30.17s-18.854-12.497-30.17-12.497h-682.667c-11.316 0-22.168 4.497-30.17 12.497s-12.497 18.854-12.497 30.17v768c0 11.316 4.495 22.168 12.497 30.17s18.854 12.497 30.17 12.497zM640 277.333h85.333v-85.333h-85.333v85.333z" />
<glyph unicode="&#xe941;" glyph-name="hotspot-fill" d="M469.333 874.667v-384h298.667v-426.667c0-11.315-4.497-22.17-12.497-30.17s-18.854-12.497-30.17-12.497h-512c-11.316 0-22.168 4.497-30.17 12.497s-12.497 18.854-12.497 30.17v768c0 11.316 4.495 22.168 12.497 30.17s18.854 12.497 30.17 12.497h256zM554.667 661.333c22.63 0 44.335-8.99 60.339-24.994s24.994-37.708 24.994-60.34h-85.333v85.333zM554.667 789.333c56.58 0 110.844-22.476 150.848-62.484 40.009-40.008 62.485-94.27 62.485-150.849h-85.333c0 33.948-13.487 66.505-37.491 90.51s-56.563 37.49-90.509 37.49v85.333zM554.667 917.333c90.526 0 177.348-35.962 241.361-99.974 64.009-64.012 99.972-150.832 99.972-241.359h-85.333c0 67.895-26.97 133.010-74.982 181.019-48.009 48.009-113.122 74.981-181.018 74.981v85.333z" />
<glyph unicode="&#xe942;" glyph-name="hotspot-line" d="M469.333 874.667v-85.333h-170.667v-682.667h426.667v384h85.333v-426.667c0-11.315-4.497-22.17-12.497-30.17s-18.854-12.497-30.17-12.497h-512c-11.316 0-22.168 4.497-30.17 12.497s-12.497 18.854-12.497 30.17v768c0 11.316 4.495 22.168 12.497 30.17s18.854 12.497 30.17 12.497h213.333zM554.667 661.333c22.63 0 44.335-8.99 60.339-24.994s24.994-37.708 24.994-60.34h-85.333v85.333zM554.667 789.333c56.58 0 110.844-22.476 150.848-62.484 40.009-40.008 62.485-94.27 62.485-150.849h-85.333c0 33.948-13.487 66.505-37.491 90.51s-56.563 37.49-90.509 37.49v85.333zM554.667 917.333c90.526 0 177.348-35.962 241.361-99.974 64.009-64.012 99.972-150.832 99.972-241.359h-85.333c0 67.895-26.97 133.010-74.982 181.019-48.009 48.009-113.122 74.981-181.018 74.981v85.333z" />
<glyph unicode="&#xe943;" glyph-name="install-fill" d="M469.333 874.667v-213.333h-128l170.667-170.667 170.667 170.667h-128v213.333h298.667c11.315 0 22.17-4.495 30.17-12.497s12.497-18.854 12.497-30.17v-768c0-11.315-4.497-22.17-12.497-30.17s-18.854-12.497-30.17-12.497h-682.667c-11.316 0-22.168 4.497-30.17 12.497s-12.497 18.854-12.497 30.17v768c0 11.316 4.495 22.168 12.497 30.17s18.854 12.497 30.17 12.497h298.667zM810.667 277.333h-597.333v-170.667h597.333v170.667zM725.333 234.667v-85.333h-85.333v85.333h85.333z" />
<glyph unicode="&#xe944;" glyph-name="install-line" d="M384 874.667v-85.333h-170.667l-0.043-426.667h597.333l0.043 426.667h-170.667v85.333h213.333c11.315 0 22.17-4.495 30.17-12.497s12.497-18.854 12.497-30.17v-768c0-11.315-4.497-22.17-12.497-30.17s-18.854-12.497-30.17-12.497h-682.667c-11.316 0-22.168 4.497-30.17 12.497s-12.497 18.854-12.497 30.17v768c0 11.316 4.495 22.168 12.497 30.17s18.854 12.497 30.17 12.497h213.333zM810.624 277.333h-597.333l0.043-170.667h597.333l-0.043 170.667zM725.333 234.667v-85.333h-85.333v85.333h85.333zM554.667 874.667v-213.333h128l-170.667-170.667-170.667 170.667h128v213.333h85.333z" />
<glyph unicode="&#xe945;" glyph-name="keyboard-box-fill" d="M128 832h768c11.315 0 22.17-4.495 30.17-12.497s12.497-18.854 12.497-30.17v-682.667c0-11.315-4.497-22.17-12.497-30.17s-18.854-12.497-30.17-12.497h-768c-11.316 0-22.168 4.497-30.17 12.497s-12.497 18.854-12.497 30.17v682.667c0 11.316 4.495 22.168 12.497 30.17s18.854 12.497 30.17 12.497zM213.333 661.333v-85.333h85.333v85.333h-85.333zM213.333 490.667v-85.333h85.333v85.333h-85.333zM213.333 320v-85.333h597.333v85.333h-597.333zM384 490.667v-85.333h85.333v85.333h-85.333zM384 661.333v-85.333h85.333v85.333h-85.333zM554.667 661.333v-85.333h85.333v85.333h-85.333zM725.333 661.333v-85.333h85.333v85.333h-85.333zM554.667 490.667v-85.333h85.333v85.333h-85.333zM725.333 490.667v-85.333h85.333v85.333h-85.333z" />
<glyph unicode="&#xe946;" glyph-name="keyboard-box-line" d="M170.667 746.667v-597.333h682.667v597.333h-682.667zM128 832h768c11.315 0 22.17-4.495 30.17-12.497s12.497-18.854 12.497-30.17v-682.667c0-11.315-4.497-22.17-12.497-30.17s-18.854-12.497-30.17-12.497h-768c-11.316 0-22.168 4.497-30.17 12.497s-12.497 18.854-12.497 30.17v682.667c0 11.316 4.495 22.168 12.497 30.17s18.854 12.497 30.17 12.497zM256 661.333h85.333v-85.333h-85.333v85.333zM256 490.667h85.333v-85.333h-85.333v85.333zM256 320h512v-85.333h-512v85.333zM469.333 490.667h85.333v-85.333h-85.333v85.333zM469.333 661.333h85.333v-85.333h-85.333v85.333zM682.667 661.333h85.333v-85.333h-85.333v85.333zM682.667 490.667h85.333v-85.333h-85.333v85.333z" />
<glyph unicode="&#xe947;" glyph-name="keyboard-fill" d="M128 234.667h768v-85.333h-768v85.333zM128 490.667h128v-128h-128v128zM341.333 490.667h128v-128h-128v128zM128 746.667h128v-128h-128v128zM554.667 746.667h128v-128h-128v128zM768 746.667h128v-128h-128v128zM554.667 490.667h128v-128h-128v128zM768 490.667h128v-128h-128v128zM341.333 746.667h128v-128h-128v128z" />
<glyph unicode="&#xe948;" glyph-name="keyboard-line" d="M128 234.667h768v-85.333h-768v85.333zM128 490.667h128v-128h-128v128zM341.333 490.667h128v-128h-128v128zM128 746.667h128v-128h-128v128zM554.667 746.667h128v-128h-128v128zM768 746.667h128v-128h-128v128zM554.667 490.667h128v-128h-128v128zM768 490.667h128v-128h-128v128zM341.333 746.667h128v-128h-128v128z" />
<glyph unicode="&#xe949;" glyph-name="macbook-fill" d="M85.333 789.035c0 23.765 19.413 42.965 42.325 42.965h768.683c23.381 0 42.325-19.2 42.325-42.965v-554.368h-853.333v554.368zM42.667 149.333h938.667v-85.333h-938.667v85.333z" />
<glyph unicode="&#xe94a;" glyph-name="macbook-line" d="M170.667 746.667v-469.333h682.667v469.333h-682.667zM85.333 789.035c0 23.723 19.413 42.965 42.325 42.965h768.683c23.381 0 42.325-19.157 42.325-42.965v-597.035h-853.333v597.035zM42.667 149.333h938.667v-85.333h-938.667v85.333z" />
<glyph unicode="&#xe94b;" glyph-name="mac-fill" d="M597.333 192v-85.333l85.333-42.667v-42.667h-341.332l-0.171 42.496 85.502 42.837v85.333h-299.006c-5.603 0.034-11.144 1.173-16.305 3.349-5.162 2.18-9.843 5.359-13.775 9.348-3.932 3.994-7.037 8.721-9.139 13.914s-3.157 10.752-3.106 16.354v554.069c0 23.723 19.413 42.965 42.325 42.965h768.681c23.381 0 42.325-19.157 42.325-42.965v-554.069c0-23.723-19.413-42.965-42.325-42.965h-299.008zM170.668 362.667v-85.333h682.665v85.333h-682.665z" />
<glyph unicode="&#xe94c;" glyph-name="mac-line" d="M597.333 192v-85.333l85.333-42.667v-42.667h-341.332l-0.171 42.496 85.502 42.837v85.333h-299.006c-5.603 0.034-11.144 1.173-16.305 3.349-5.162 2.18-9.843 5.359-13.775 9.348-3.932 3.994-7.037 8.721-9.139 13.914s-3.157 10.752-3.106 16.354v554.069c0 23.723 19.413 42.965 42.325 42.965h768.681c23.381 0 42.325-19.157 42.325-42.965v-554.069c0-23.723-19.413-42.965-42.325-42.965h-299.008zM170.668 746.667v-384h682.665v384h-682.665z" />
<glyph unicode="&#xe94d;" glyph-name="mouse-fill" d="M475.349 874.667h73.301c85.931 0 132.011-11.861 173.739-34.176 41.229-21.824 74.944-55.539 96.768-96.768 22.315-41.728 34.176-87.808 34.176-173.739v-243.968c0-85.931-11.861-132.011-34.176-173.739-21.824-41.229-55.539-74.944-96.768-96.768-41.728-22.315-87.808-34.176-173.739-34.176h-73.344c-85.931 0-132.011 11.861-173.739 34.176-41.229 21.824-74.944 55.539-96.768 96.768-22.272 41.728-34.133 87.808-34.133 173.739v244.011c0 85.931 11.861 132.011 34.176 173.739 21.842 41.219 55.572 74.92 96.811 96.725 41.685 22.315 87.765 34.176 173.696 34.176zM469.333 704v-213.333h85.333v213.333h-85.333z" />
<glyph unicode="&#xe94e;" glyph-name="mouse-line" d="M475.349 789.333c-67.499 0-101.845-7.211-133.461-24.107-26.367-13.873-47.908-35.414-61.781-61.781-16.896-31.573-24.107-65.963-24.107-133.419v-243.968c0-67.499 7.211-101.845 24.107-133.461 14.379-26.88 34.901-47.403 61.781-61.781 31.573-16.896 65.963-24.107 133.461-24.107h73.301c67.499 0 101.845 7.211 133.461 24.107 26.368 13.871 47.906 35.413 61.781 61.781 16.896 31.573 24.107 65.963 24.107 133.461v243.968c0 67.499-7.211 101.845-24.107 133.461-13.875 26.367-35.413 47.908-61.781 61.781-31.573 16.853-65.963 24.064-133.419 24.064h-73.344zM475.349 874.667h73.301c85.931 0 132.011-11.861 173.739-34.176 41.229-21.824 74.944-55.539 96.768-96.768 22.315-41.728 34.176-87.808 34.176-173.739v-243.968c0-85.931-11.861-132.011-34.176-173.739-21.824-41.229-55.539-74.944-96.768-96.768-41.728-22.315-87.808-34.176-173.739-34.176h-73.344c-85.931 0-132.011 11.861-173.739 34.176-41.229 21.824-74.944 55.539-96.768 96.768-22.272 41.728-34.133 87.808-34.133 173.739v244.011c0 85.931 11.861 132.011 34.176 173.739 21.842 41.219 55.572 74.92 96.811 96.725 41.685 22.315 87.765 34.176 173.696 34.176zM469.333 704h85.333v-213.333h-85.333v213.333z" />
<glyph unicode="&#xe94f;" glyph-name="phone-fill" d="M896 259.413v-150.869c0.004-10.803-4.087-21.205-11.452-29.107s-17.451-12.719-28.228-13.474c-18.645-1.28-33.877-1.963-45.653-1.963-377.045 0-682.667 305.621-682.667 682.667 0 11.776 0.64 27.008 1.963 45.653 0.756 10.776 5.571 20.864 13.474 28.228s18.305 11.457 29.107 11.452h150.869c5.292 0.006 10.398-1.957 14.324-5.505s6.394-8.429 6.924-13.695c0.981-9.813 1.877-17.621 2.731-23.552 8.479-59.175 25.856-116.729 51.541-170.709 4.053-8.533 1.408-18.731-6.272-24.192l-92.075-65.792c56.297-131.179 160.832-235.712 292.011-292.011l65.707 91.904c2.684 3.755 6.605 6.447 11.072 7.607 4.467 1.165 9.203 0.721 13.376-1.25 53.973-25.638 111.514-42.97 170.667-51.413 5.931-0.853 13.739-1.792 23.467-2.731 5.257-0.538 10.129-3.012 13.67-6.938 3.537-3.925 5.495-9.024 5.487-14.31h-0.043z" />
<glyph unicode="&#xe950;" glyph-name="phone-find-fill" d="M768 874.667c11.315 0 22.17-4.495 30.17-12.497s12.497-18.854 12.497-30.17v-363.904c-36.83 32.943-82.411 54.524-131.234 62.135-48.828 7.61-98.812 0.926-143.923-19.243s-83.422-52.962-110.304-94.426c-26.885-41.459-41.196-89.813-41.205-139.23 0-138.155 117.76-256 256-256h-384c-11.316 0-22.168 4.497-30.17 12.497s-12.497 18.854-12.497 30.17v768c0 11.316 4.495 22.168 12.497 30.17s18.854 12.497 30.17 12.497h512zM640 448c30.093 0.004 59.657-7.949 85.683-23.053 26.031-15.104 47.603-36.826 62.532-62.955 14.925-26.133 22.682-55.744 22.473-85.837-0.209-30.097-8.371-59.601-23.659-85.521l94.293-94.293-60.288-60.373-94.336 94.293c-22.609-13.308-47.979-21.227-74.142-23.142-26.167-1.911-52.42 2.236-76.723 12.117-24.303 9.877-45.999 25.229-63.407 44.86-17.408 19.627-30.054 43.004-36.962 68.309-6.903 25.31-7.881 51.87-2.859 77.619 5.026 25.749 15.923 49.993 31.838 70.848s36.425 37.76 59.934 49.404c23.509 11.639 49.387 17.707 75.622 17.724zM640 362.667c-22.63 0-44.335-8.99-60.339-24.994s-24.994-37.709-24.994-60.339c0-22.63 8.99-44.335 24.994-60.339s37.709-24.994 60.339-24.994c22.63 0 44.335 8.99 60.339 24.994s24.994 37.709 24.994 60.339c0 22.63-8.99 44.335-24.994 60.339s-37.709 24.994-60.339 24.994z" />
<glyph unicode="&#xe951;" glyph-name="phone-find-line" d="M768 874.667c11.315 0 22.17-4.495 30.17-12.497s12.497-18.854 12.497-30.17v-341.333h-85.333v298.667h-426.667v-682.667h170.667v-85.333h-213.333c-11.316 0-22.168 4.497-30.17 12.497s-12.497 18.854-12.497 30.17v768c0 11.316 4.495 22.168 12.497 30.17s18.854 12.497 30.17 12.497h512zM640 448c30.093 0.004 59.657-7.949 85.683-23.053 26.031-15.104 47.603-36.826 62.532-62.955 14.925-26.133 22.682-55.744 22.473-85.837-0.209-30.097-8.371-59.601-23.659-85.521l94.293-94.293-60.288-60.373-94.379 94.293c-22.609-13.312-47.983-21.231-74.15-23.142s-52.42 2.236-76.723 12.122c-24.303 9.882-46.003 25.233-63.407 44.864-17.408 19.631-30.054 43.012-36.958 68.322-6.903 25.314-7.876 51.874-2.846 77.623 5.026 25.754 15.927 49.997 31.846 70.848 15.923 20.855 36.437 37.756 59.951 49.395 23.514 11.635 49.395 17.694 75.631 17.707zM640 362.667c-22.63 0-44.335-8.99-60.339-24.994s-24.994-37.709-24.994-60.339c0-22.63 8.99-44.335 24.994-60.339s37.709-24.994 60.339-24.994c22.63 0 44.335 8.99 60.339 24.994s24.994 37.709 24.994 60.339c0 22.63-8.99 44.335-24.994 60.339s-37.709 24.994-60.339 24.994z" />
<glyph unicode="&#xe952;" glyph-name="phone-line" d="M399.616 504.235c40.034-70.336 98.283-128.585 168.619-168.619l37.717 52.821c6.067 8.495 15.031 14.468 25.207 16.798 10.176 2.325 20.847 0.845 30.003-4.169 60.343-32.977 126.985-52.813 195.541-58.197 10.701-0.849 20.685-5.696 27.968-13.581s11.328-18.223 11.328-28.958v-190.379c0.004-10.564-3.913-20.753-10.991-28.595s-16.815-12.779-27.324-13.858c-22.613-2.347-45.397-3.499-68.352-3.499-365.227 0-661.333 296.107-661.333 661.333 0 22.955 1.152 45.739 3.499 68.352 1.077 10.509 6.015 20.244 13.858 27.322s18.032 10.994 28.596 10.992h190.379c10.733 0.001 21.073-4.043 28.957-11.326s12.734-17.27 13.582-27.97c5.385-68.556 25.22-135.197 58.197-195.541 5.013-9.155 6.494-19.829 4.169-30.003-2.33-10.174-8.303-19.142-16.798-25.207l-52.821-37.717zM292.011 532.267l81.067 57.899c-23.007 49.66-38.769 102.364-46.805 156.501h-112.512c-0.256-7.083-0.384-14.208-0.384-21.333-0.043-318.123 257.835-576 575.957-576 7.125 0 14.251 0.128 21.333 0.427v112.512c-54.135 8.038-106.842 23.799-156.501 46.805l-57.899-81.067c-23.309 9.058-45.952 19.75-67.755 32l-2.475 1.408c-83.686 47.629-152.991 116.932-200.619 200.619l-1.408 2.475c-12.249 21.803-22.943 44.446-32 67.755z" />
<glyph unicode="&#xe953;" glyph-name="phone-lock-fill" d="M768 874.667c11.315 0 22.17-4.495 30.17-12.497s12.497-18.854 12.497-30.17l0.043-302.933c-55.454 11.317-113.131 0.145-160.346-31.061s-80.107-79.889-91.43-135.339h-46.933v-341.333h-256c-11.316 0-22.168 4.497-30.17 12.497s-12.497 18.854-12.497 30.17v768c0 11.316 4.495 22.168 12.497 30.17s18.854 12.497 30.17 12.497h512zM768 448c33.946 0 66.505-13.487 90.509-37.491s37.491-56.563 37.491-90.509v-42.667h42.667v-213.333c0-11.315-4.497-22.17-12.497-30.17s-18.854-12.497-30.17-12.497h-256c-11.315 0-22.17 4.497-30.17 12.497s-12.497 18.854-12.497 30.17v213.333h42.667v42.667c0 33.946 13.487 66.505 37.491 90.509s56.563 37.491 90.509 37.491zM768 362.667c-21.888 0-42.667-19.2-42.667-42.667v-42.667h85.333v42.667c0 11.315-4.497 22.17-12.497 30.17s-18.854 12.497-30.17 12.497z" />
<glyph unicode="&#xe954;" glyph-name="phone-lock-line" d="M768 874.667c11.315 0 22.17-4.495 30.17-12.497s12.497-18.854 12.497-30.17v-298.667h-85.333v256h-426.667v-682.667h213.333v-85.333h-256c-11.316 0-22.168 4.497-30.17 12.497s-12.497 18.854-12.497 30.17v768c0 11.316 4.495 22.168 12.497 30.17s18.854 12.497 30.17 12.497h512zM768 448c33.946 0 66.505-13.487 90.509-37.491s37.491-56.563 37.491-90.509v-42.667h42.667v-213.333c0-11.315-4.497-22.17-12.497-30.17s-18.854-12.497-30.17-12.497h-256c-11.315 0-22.17 4.497-30.17 12.497s-12.497 18.854-12.497 30.17v213.333h42.667v42.667c0 33.946 13.487 66.505 37.491 90.509s56.563 37.491 90.509 37.491zM853.333 192h-170.667v-85.333h170.667v85.333zM768 362.667c-21.675 0-42.667-19.2-42.667-42.667v-42.667h85.333v42.667c0 11.315-4.497 22.17-12.497 30.17s-18.854 12.497-30.17 12.497z" />
<glyph unicode="&#xe955;" glyph-name="qr-code-fill" d="M682.667 234.667v42.667h-128v128h128v-85.333h85.333v-85.333h-42.667v-85.333h-85.333v-85.333h-85.333v128h85.333v42.667h42.667zM896 64h-170.667v85.333h85.333v85.333h85.333v-170.667zM128 832h341.333v-341.333h-341.333v341.333zM554.667 832h341.333v-341.333h-341.333v341.333zM128 405.333h341.333v-341.333h-341.333v341.333zM768 405.333h128v-85.333h-128v85.333zM256 704v-85.333h85.333v85.333h-85.333zM256 277.333v-85.333h85.333v85.333h-85.333zM682.667 704v-85.333h85.333v85.333h-85.333z" />
<glyph unicode="&#xe956;" glyph-name="qr-code-line" d="M682.667 234.667v42.667h-128v128h128v-85.333h85.333v-85.333h-42.667v-85.333h-85.333v-85.333h-85.333v128h85.333v42.667h42.667zM896 64h-170.667v85.333h85.333v85.333h85.333v-170.667zM128 832h341.333v-341.333h-341.333v341.333zM213.333 746.667v-170.667h170.667v170.667h-170.667zM554.667 832h341.333v-341.333h-341.333v341.333zM640 746.667v-170.667h170.667v170.667h-170.667zM128 405.333h341.333v-341.333h-341.333v341.333zM213.333 320v-170.667h170.667v170.667h-170.667zM768 405.333h128v-85.333h-128v85.333zM256 704h85.333v-85.333h-85.333v85.333zM256 277.333h85.333v-85.333h-85.333v85.333zM682.667 704h85.333v-85.333h-85.333v85.333z" />
<glyph unicode="&#xe957;" glyph-name="qr-scan-2-fill" d="M640 832h256v-256h-256v256zM384 832v-256h-256v256h256zM640 64v256h256v-256h-256zM384 64h-256v256h256v-256zM128 490.667h768v-85.333h-768v85.333z" />
<glyph unicode="&#xe958;" glyph-name="qr-scan-2-line" d="M640 832h256v-213.333h-85.333v128h-170.667v85.333zM384 832v-85.333h-170.667v-128h-85.333v213.333h256zM640 64v85.333h170.667v128h85.333v-213.333h-256zM384 64h-256v213.333h85.333v-128h170.667v-85.333zM128 490.667h768v-85.333h-768v85.333z" />
<glyph unicode="&#xe959;" glyph-name="qr-scan-fill" d="M896 320v-213.632c-0.013-11.234-4.48-22.003-12.42-29.948-7.945-7.94-18.714-12.407-29.948-12.42h-683.264c-11.233 0.013-22.003 4.48-29.946 12.42-7.943 7.945-12.411 18.714-12.422 29.948v213.632h768zM85.333 490.667h853.333v-85.333h-853.333v85.333zM896 576h-768v213.632c0 23.381 18.987 42.368 42.368 42.368h683.264c23.381 0 42.368-18.987 42.368-42.368v-213.632z" />
<glyph unicode="&#xe95a;" glyph-name="qr-scan-line" d="M896 277.333v-213.333h-768v213.333h85.333v-128h597.333v128h85.333zM128 490.667h768v-85.333h-768v85.333zM896 618.667h-85.333v128h-597.333v-128h-85.333v213.333h768v-213.333z" />
<glyph unicode="&#xe95b;" glyph-name="radar-fill" d="M613.030 772.354l-148.651-257.491 73.899-42.667 148.651 257.491c177.92-118.272 269.056-302.078 194.56-431.017-79.36-137.472-306.731-143.147-508.16-26.88-201.429 116.395-310.187 316.115-230.827 453.545 74.453 128.981 279.168 141.952 470.528 47.019zM677.713 884.354l73.899-42.667-64-110.848-73.899 42.667 64 110.848zM287.228 106.671h438.101v-85.333h-511.275c-7.616-0.154-15.133 1.749-21.761 5.5-6.629 3.755-12.125 9.225-15.913 15.834-3.724 6.49-5.683 13.845-5.683 21.333 0 7.484 1.959 14.839 5.683 21.333l96 166.268 73.899-42.667-59.051-102.268z" />
<glyph unicode="&#xe95c;" glyph-name="radar-line" d="M533.585 805.421l-43.648-75.605c-124.16 37.504-235.264 19.2-273.536-47.147-50.261-87.040 33.707-241.15 199.595-336.937s341.333-91.392 391.595-4.395c38.315 66.347-1.408 171.686-95.957 260.478l43.648 75.605c131.499-115.584 190.421-267.518 126.208-378.75-79.36-137.472-306.731-143.147-508.16-26.88-201.429 116.395-310.187 316.115-230.827 453.545 64.213 111.232 225.28 136.192 391.083 80.085zM677.713 884.354l73.899-42.667-213.333-369.491-73.899 42.667 213.333 369.491zM287.228 106.671h438.101v-85.333h-511.275c-7.616-0.154-15.133 1.749-21.761 5.5-6.629 3.755-12.125 9.225-15.913 15.834-3.724 6.49-5.683 13.845-5.683 21.333 0 7.484 1.959 14.839 5.683 21.333l96 166.268 73.899-42.667-59.051-102.268z" />
<glyph unicode="&#xe95d;" glyph-name="remote-control-2-fill" d="M768 874.667c11.315 0 22.17-4.495 30.17-12.497s12.497-18.854 12.497-30.17v-768c0-11.315-4.497-22.17-12.497-30.17s-18.854-12.497-30.17-12.497h-512c-11.316 0-22.168 4.497-30.17 12.497s-12.497 18.854-12.497 30.17v768c0 11.316 4.495 22.168 12.497 30.17s18.854 12.497 30.17 12.497h512zM640 320h-85.333v-85.333h85.333v85.333zM469.333 320h-85.333v-85.333h85.333v85.333zM554.667 704h-85.333v-85.333h-85.333v-85.333h85.291l0.043-85.333h85.333l-0.043 85.333h85.376v85.333h-85.333v85.333z" />
<glyph unicode="&#xe95e;" glyph-name="remote-control-2-line" d="M768 874.667c11.315 0 22.17-4.495 30.17-12.497s12.497-18.854 12.497-30.17v-768c0-11.315-4.497-22.17-12.497-30.17s-18.854-12.497-30.17-12.497h-512c-11.316 0-22.168 4.497-30.17 12.497s-12.497 18.854-12.497 30.17v768c0 11.316 4.495 22.168 12.497 30.17s18.854 12.497 30.17 12.497h512zM725.333 789.333h-426.667v-682.667h426.667v682.667zM640 320v-85.333h-85.333v85.333h85.333zM469.333 320v-85.333h-85.333v85.333h85.333zM554.667 704v-85.333h85.333v-85.333h-85.376l0.043-85.333h-85.333l-0.043 85.333h-85.291v85.333h85.333v85.333h85.333z" />
<glyph unicode="&#xe95f;" glyph-name="remote-control-fill" d="M725.333 448c11.315 0 22.17-4.497 30.17-12.497s12.497-18.854 12.497-30.17v-384h-512.001v384c0 11.315 4.495 22.17 12.497 30.17s18.854 12.497 30.17 12.497h426.668zM426.666 362.667h-85.333v-85.333h85.333v85.333zM512 704c47.548 0.014 94.161-13.215 134.618-38.204 40.452-24.989 73.148-60.752 94.417-103.279l-76.373-38.187c-14.17 28.367-35.959 52.225-62.925 68.901-26.97 16.675-58.052 25.509-89.758 25.509-31.71 0-62.788-8.833-89.758-25.509-26.968-16.676-48.758-40.535-62.926-68.901l-76.331 38.187c21.27 42.527 53.965 78.289 94.418 103.279s87.066 38.218 134.618 38.204zM512 874.667c79.245 0.017 156.928-22.036 224.346-63.687s121.903-101.255 157.35-172.131l-76.331-38.187c-28.356 56.705-71.945 104.393-125.879 137.717s-116.087 50.968-179.486 50.955c-63.403 0.014-125.551-17.63-179.487-50.955s-97.524-81.012-125.879-137.717l-76.373 38.187c35.45 70.883 89.941 130.491 157.367 172.143s145.12 63.701 224.373 63.676z" />
<glyph unicode="&#xe960;" glyph-name="remote-control-line" d="M725.333 448c11.315 0 22.17-4.497 30.17-12.497s12.497-18.854 12.497-30.17v-384h-85.333v341.333h-341.334v-341.333h-85.333v384c0 11.315 4.495 22.17 12.497 30.17s18.854 12.497 30.17 12.497h426.668zM512 277.333v-85.333h-85.334v85.333h85.334zM512 704c47.548 0.014 94.161-13.215 134.618-38.204 40.452-24.989 73.148-60.752 94.417-103.279l-76.373-38.187c-14.17 28.367-35.959 52.225-62.925 68.901-26.97 16.675-58.052 25.509-89.758 25.509-31.71 0-62.788-8.833-89.758-25.509-26.968-16.676-48.758-40.535-62.926-68.901l-76.331 38.187c21.27 42.527 53.965 78.289 94.418 103.279s87.066 38.218 134.618 38.204zM512 874.667c79.245 0.017 156.928-22.036 224.346-63.687s121.903-101.255 157.35-172.131l-76.331-38.187c-28.356 56.705-71.945 104.393-125.879 137.717s-116.087 50.968-179.486 50.955c-63.403 0.014-125.551-17.63-179.487-50.955s-97.524-81.012-125.879-137.717l-76.373 38.187c35.45 70.883 89.941 130.491 157.367 172.143s145.12 63.701 224.373 63.676z" />
<glyph unicode="&#xe961;" glyph-name="restart-fill" d="M512 21.333c-235.648 0-426.667 191.019-426.667 426.667s191.019 426.667 426.667 426.667c235.648 0 426.667-191.019 426.667-426.667s-191.019-426.667-426.667-426.667zM717.653 231.424c54.374 51.738 87.275 122.052 92.156 196.949s-18.615 148.884-65.818 207.241c-47.198 58.357-114.641 96.803-188.902 107.688s-149.9-6.589-211.862-48.945c-61.962-42.356-105.705-106.489-122.524-179.635-16.819-73.148-5.481-149.948 31.758-215.113s97.648-113.92 169.206-136.567c71.559-22.643 149.021-17.515 216.967 14.366l-41.6 74.88c-42.116-18.304-89.015-22.532-133.726-12.049s-84.846 35.11-114.439 70.225c-29.594 35.119-47.066 78.844-49.819 124.685s9.358 91.345 34.535 129.752c25.177 38.406 62.074 67.662 105.211 83.421 43.132 15.758 90.202 17.177 134.204 4.046 44.006-13.132 82.598-40.112 110.046-76.932 27.443-36.82 42.274-81.513 42.287-127.435h-128l120.32-216.576z" />
<glyph unicode="&#xe962;" glyph-name="restart-line" d="M790.912 125.141c-77.423-67.085-176.469-103.949-278.912-103.808-235.648 0-426.667 191.019-426.667 426.667s191.019 426.667 426.667 426.667c235.648 0 426.667-191.019 426.667-426.667 0-91.136-28.587-175.616-77.227-244.907l-136.107 244.907h128c-0.009 78.669-27.187 154.92-76.941 215.855-49.758 60.935-119.031 102.814-196.113 118.551-77.077 15.737-157.225 4.367-226.885-32.188s-124.555-96.049-155.399-168.419c-30.844-72.372-35.742-153.174-13.868-228.737 21.875-75.567 69.18-141.257 133.913-185.963 64.733-44.702 142.921-65.673 221.334-59.362 78.417 6.31 152.247 39.514 208.998 93.99l42.539-76.587z" />
<glyph unicode="&#xe963;" glyph-name="rotate-lock-fill" d="M512 874.667c235.648 0 426.667-191.019 426.667-426.667 0-91.136-28.587-175.616-77.269-244.949l-136.064 244.949h128c-0.009 78.669-27.187 154.92-76.941 215.855-49.758 60.935-119.031 102.814-196.113 118.551-77.077 15.737-157.225 4.367-226.885-32.188s-124.555-96.049-155.399-168.419c-30.844-72.372-35.742-153.174-13.868-228.737 21.875-75.567 69.18-141.257 133.913-185.963 64.733-44.702 142.921-65.673 221.334-59.362 78.417 6.31 152.247 39.514 208.998 93.99l42.581-76.587c-77.431-67.098-176.495-103.962-278.955-103.808-235.648 0-426.667 191.019-426.667 426.667s191.019 426.667 426.667 426.667zM512 661.333c33.946 0 66.505-13.486 90.509-37.49s37.491-56.562 37.491-90.51v-42.667h42.667v-213.333h-341.333v213.333h42.667v42.667c0 33.948 13.486 66.505 37.49 90.51s56.564 37.49 90.51 37.49zM512 576c-10.449-0.001-20.535-3.838-28.348-10.783-7.808-6.944-12.796-16.513-14.020-26.892l-0.299-4.992v-42.667h85.333v42.667c0 10.45-3.84 20.537-10.782 28.346-6.946 7.81-16.512 12.799-26.893 14.022l-4.992 0.299z" />
<glyph unicode="&#xe964;" glyph-name="rotate-lock-line" d="M512 874.667c235.648 0 426.667-191.019 426.667-426.667 0-91.136-28.587-175.616-77.269-244.949l-136.064 244.949h128c-0.009 78.669-27.187 154.92-76.941 215.855-49.758 60.935-119.031 102.814-196.113 118.551-77.077 15.737-157.225 4.367-226.885-32.188s-124.555-96.049-155.399-168.419c-30.844-72.372-35.742-153.174-13.868-228.737 21.875-75.567 69.18-141.257 133.913-185.963 64.733-44.702 142.921-65.673 221.334-59.362 78.417 6.31 152.247 39.514 208.998 93.99l42.581-76.587c-77.431-67.098-176.495-103.962-278.955-103.808-235.648 0-426.667 191.019-426.667 426.667s191.019 426.667 426.667 426.667zM512 661.333c33.946 0 66.505-13.486 90.509-37.49s37.491-56.562 37.491-90.51v-42.667h42.667v-213.333h-341.333v213.333h42.667v42.667c0 33.948 13.486 66.505 37.49 90.51s56.564 37.49 90.51 37.49zM597.333 405.333h-170.667v-42.667h170.667v42.667zM512 576c-10.449-0.001-20.535-3.838-28.348-10.783-7.808-6.944-12.796-16.513-14.020-26.892l-0.299-4.992v-42.667h85.333v42.667c0 10.45-3.84 20.537-10.782 28.346-6.946 7.81-16.512 12.799-26.893 14.022l-4.992 0.299z" />
<glyph unicode="&#xe965;" glyph-name="router-fill" d="M469.333 362.667v128h85.333v-128h213.333c11.315 0 22.17-4.497 30.17-12.497 8.004-8 12.497-18.854 12.497-30.17v-256c0-11.315-4.493-22.17-12.497-30.17-8-8-18.854-12.497-30.17-12.497h-512c-11.316 0-22.168 4.497-30.17 12.497s-12.497 18.854-12.497 30.17v256c0 11.315 4.495 22.17 12.497 30.17s18.854 12.497 30.17 12.497h213.333zM107.094 582.955c56.533 169.515 216.491 291.712 404.906 291.712s348.416-122.197 404.907-291.712l-80.981-26.965c-22.669 67.98-66.15 127.104-124.288 169.001-58.133 41.897-127.979 64.441-199.637 64.441s-141.503-22.545-199.639-64.441c-58.135-41.897-101.617-101.021-124.286-169.001l-80.981 26.965zM269.056 528.981c17.018 50.969 49.635 95.295 93.235 126.703s95.974 48.309 149.708 48.309c53.734 0 106.108-16.9 149.709-48.309s76.22-75.734 93.235-126.703l-80.981-27.008c-11.345 33.979-33.088 63.53-62.157 84.469-29.065 20.939-63.983 32.206-99.806 32.206s-70.737-11.267-99.805-32.206c-29.067-20.939-50.812-50.49-62.157-84.469l-80.981 27.008z" />
<glyph unicode="&#xe966;" glyph-name="router-line" d="M469.333 362.667v128h85.333v-128h213.333c11.315 0 22.17-4.497 30.17-12.497 8.004-8 12.497-18.854 12.497-30.17v-256c0-11.315-4.493-22.17-12.497-30.17-8-8-18.854-12.497-30.17-12.497h-512c-11.316 0-22.168 4.497-30.17 12.497s-12.497 18.854-12.497 30.17v256c0 11.315 4.495 22.17 12.497 30.17s18.854 12.497 30.17 12.497h213.333zM107.094 582.955c56.533 169.515 216.491 291.712 404.906 291.712s348.416-122.197 404.907-291.712l-80.981-26.965c-22.669 67.98-66.15 127.104-124.288 169.001-58.133 41.897-127.979 64.441-199.637 64.441s-141.503-22.545-199.639-64.441c-58.135-41.897-101.617-101.021-124.286-169.001l-80.981 26.965zM269.056 528.981c17.018 50.969 49.635 95.295 93.235 126.703s95.974 48.309 149.708 48.309c53.734 0 106.108-16.9 149.709-48.309s76.22-75.734 93.235-126.703l-80.981-27.008c-11.345 33.979-33.088 63.53-62.157 84.469-29.065 20.939-63.983 32.206-99.806 32.206s-70.737-11.267-99.805-32.206c-29.067-20.939-50.812-50.49-62.157-84.469l-80.981 27.008zM298.667 277.333v-170.667h426.666v170.667h-426.666z" />
<glyph unicode="&#xe967;" glyph-name="rss-fill" d="M128 832c424.149 0 768-343.851 768-768h-128c0 353.451-286.549 640-640 640v128zM128 533.333c259.2 0 469.333-210.133 469.333-469.333h-128c0 90.526-35.964 177.348-99.974 241.361-64.012 64.009-150.832 99.972-241.359 99.972v128zM128 234.667c45.264 0 88.673-17.98 120.68-49.988 32.006-32.004 49.987-75.413 49.987-120.678h-170.667v170.667z" />
<glyph unicode="&#xe968;" glyph-name="rss-line" d="M128 234.667c45.264 0 88.673-17.98 120.68-49.988 32.006-32.004 49.987-75.413 49.987-120.678h-170.667v170.667zM128 533.333c259.2 0 469.333-210.133 469.333-469.333h-85.333c0 101.841-40.457 199.514-112.471 271.531-72.014 72.013-169.686 112.469-271.529 112.469v85.333zM128 832c424.149 0 768-343.851 768-768h-85.333c0 377.045-305.621 682.667-682.667 682.667v85.333z" />
<glyph unicode="&#xe969;" glyph-name="save-2-fill" d="M170.667 832h554.667l158.165-158.165c8.004-8 12.497-18.851 12.501-30.165v-537.003c0-11.315-4.497-22.17-12.497-30.17s-18.854-12.497-30.17-12.497h-682.667c-11.316 0-22.168 4.497-30.17 12.497s-12.497 18.854-12.497 30.17v682.667c0 11.316 4.495 22.168 12.497 30.17s18.854 12.497 30.17 12.497zM512 192c33.946 0 66.505 13.487 90.509 37.491s37.491 56.563 37.491 90.509c0 33.946-13.487 66.505-37.491 90.509s-56.563 37.491-90.509 37.491c-33.946 0-66.505-13.487-90.51-37.491s-37.49-56.563-37.49-90.509c0-33.946 13.486-66.505 37.49-90.509s56.564-37.491 90.51-37.491zM213.333 746.667v-170.667h426.667v170.667h-426.667z" />
<glyph unicode="&#xe96a;" glyph-name="save-2-line" d="M213.333 746.667v-597.333h597.333v476.672l-120.661 120.661h-476.672zM170.667 832h554.667l158.165-158.165c8.004-8 12.497-18.851 12.501-30.165v-537.003c0-11.315-4.497-22.17-12.497-30.17s-18.854-12.497-30.17-12.497h-682.667c-11.316 0-22.168 4.497-30.17 12.497s-12.497 18.854-12.497 30.17v682.667c0 11.316 4.495 22.168 12.497 30.17s18.854 12.497 30.17 12.497zM512 192c-33.946 0-66.505 13.487-90.51 37.491s-37.49 56.563-37.49 90.509c0 33.946 13.486 66.505 37.49 90.509s56.564 37.491 90.51 37.491c33.946 0 66.505-13.487 90.509-37.491s37.491-56.563 37.491-90.509c0-33.946-13.487-66.505-37.491-90.509s-56.563-37.491-90.509-37.491zM256 704h384v-170.667h-384v170.667z" />
<glyph unicode="&#xe96b;" glyph-name="save-3-fill" d="M170.667 832h597.333l115.499-115.499c8.004-8 12.497-18.851 12.501-30.165v-579.669c0-11.315-4.497-22.17-12.497-30.17s-18.854-12.497-30.17-12.497h-682.667c-11.316 0-22.168 4.497-30.17 12.497s-12.497 18.854-12.497 30.17v682.667c0 11.316 4.495 22.168 12.497 30.17s18.854 12.497 30.17 12.497zM298.667 789.333v-213.333h384v213.333h-384zM256 448v-298.667h512v298.667h-512zM554.667 746.667h85.333v-128h-85.333v128z" />
<glyph unicode="&#xe96c;" glyph-name="save-3-line" d="M768 149.333h42.667v519.339l-77.995 77.995h-50.005v-170.667h-384v170.667h-85.333v-597.333h42.667v298.667h512v-298.667zM170.667 832h597.333l115.499-115.499c8.004-8 12.497-18.851 12.501-30.165v-579.669c0-11.315-4.497-22.17-12.497-30.17s-18.854-12.497-30.17-12.497h-682.667c-11.316 0-22.168 4.497-30.17 12.497s-12.497 18.854-12.497 30.17v682.667c0 11.316 4.495 22.168 12.497 30.17s18.854 12.497 30.17 12.497zM341.333 362.667v-213.333h341.333v213.333h-341.333z" />
<glyph unicode="&#xe96d;" glyph-name="save-fill" d="M768 64v341.333h-512v-341.333h-85.333c-11.316 0-22.168 4.497-30.17 12.497s-12.497 18.854-12.497 30.17v682.667c0 11.316 4.495 22.168 12.497 30.17s18.854 12.497 30.17 12.497h554.667l170.667-170.667v-554.667c0-11.315-4.497-22.17-12.497-30.17s-18.854-12.497-30.17-12.497h-85.333zM682.667 64h-341.333v256h341.333v-256z" />
<glyph unicode="&#xe96e;" glyph-name="save-line" d="M298.667 149.333v256h426.667v-256h85.333v476.672l-120.661 120.661h-476.672v-597.333h85.333zM170.667 832h554.667l170.667-170.667v-554.667c0-11.315-4.497-22.17-12.497-30.17s-18.854-12.497-30.17-12.497h-682.667c-11.316 0-22.168 4.497-30.17 12.497s-12.497 18.854-12.497 30.17v682.667c0 11.316 4.495 22.168 12.497 30.17s18.854 12.497 30.17 12.497zM384 320v-170.667h256v170.667h-256z" />
<glyph unicode="&#xe96f;" glyph-name="scan-2-fill" d="M181.632 718.037l91.179-91.179c-45.219-60.472-65.855-135.829-57.754-210.901 8.101-75.076 44.338-144.294 101.417-193.728s130.762-75.409 206.227-72.704c75.46 2.705 147.093 33.89 200.486 87.283s84.582 125.030 87.287 200.491c2.705 75.46-23.275 149.147-72.708 206.226-49.429 57.079-118.652 93.316-193.724 101.417s-150.429-12.535-210.901-57.754l-91.221 91.179c76.15 62.422 171.615 96.461 270.080 96.299 235.648 0 426.667-191.019 426.667-426.666s-191.019-426.667-426.667-426.667c-235.648 0-426.667 191.019-426.667 426.667 0 102.442 36.096 196.48 96.299 270.037zM333.995 565.632l178.005-177.962 60.331 60.331-177.963 178.005c44.105 29.152 97.459 40.89 149.726 32.938s99.721-35.029 133.158-75.98c33.434-40.951 50.475-92.86 47.817-145.66s-24.832-102.733-62.212-140.117c-37.385-37.38-87.317-59.554-140.117-62.212s-104.71 14.379-145.66 47.817c-40.951 33.438-68.027 80.892-75.98 133.158-7.952 52.262 3.785 105.621 32.938 149.725l-0.043-0.043z" />
<glyph unicode="&#xe970;" glyph-name="scan-2-line" d="M241.963 778.368l330.368-330.368-60.331-60.331-147.029 147.029c-18.887-32.021-26.801-69.337-22.538-106.269s20.468-71.462 46.153-98.342c25.685-26.88 59.444-44.634 96.145-50.569s74.334 0.277 107.183 17.694c32.849 17.412 59.11 45.077 74.795 78.784s19.934 71.612 12.1 107.955c-7.834 36.343-27.319 69.136-55.492 93.391-28.177 24.254-63.505 38.645-100.608 40.983l-77.013 77.013c58.206 15.609 120.055 10.183 174.656-15.323s98.453-69.457 123.836-124.115c25.382-54.656 30.669-116.519 14.929-174.691s-51.499-108.928-100.979-143.326c-49.481-34.402-109.513-50.244-169.523-44.74-60.015 5.508-116.159 32.009-158.554 74.842-42.394 42.829-68.32 99.243-73.212 159.309s11.564 119.931 46.469 169.058l-60.971 60.971c-50.881-65.594-76.113-147.481-70.975-230.336s40.296-160.998 98.892-219.802c58.596-58.807 136.613-94.238 219.451-99.674 82.833-5.431 164.813 19.511 230.583 70.157 65.775 50.65 110.839 123.529 126.754 205.005 15.915 81.472 1.596 165.955-40.286 237.632-41.877 71.677-108.442 125.636-187.23 151.777-78.793 26.141-164.407 22.672-240.827-9.757l-64.085 64.043c60.916 31.828 128.644 48.402 197.376 48.299 235.648 0 426.667-191.019 426.667-426.666s-191.019-426.667-426.667-426.667c-235.648 0-426.666 191.019-426.666 426.667-0.064 63.241 13.959 125.705 41.052 182.85s66.575 107.538 115.577 147.518z" />
<glyph unicode="&#xe971;" glyph-name="scan-fill" d="M181.632 718.037l330.368-330.368 60.331 60.331-330.368 330.368c76.139 62.413 171.587 96.451 270.037 96.299 235.648 0 426.667-191.019 426.667-426.666s-191.019-426.667-426.667-426.667c-235.648 0-426.667 191.019-426.667 426.667 0 102.442 36.096 196.48 96.299 270.037z" />
<glyph unicode="&#xe972;" glyph-name="scan-line" d="M241.963 778.368l330.368-330.368-60.331-60.331-269.653 269.653c-50.253-64.809-75.493-145.544-71.101-227.439 4.392-81.89 38.121-159.462 95.017-218.526s133.155-95.667 214.826-103.117c81.673-7.45 163.294 14.758 229.935 62.554s113.847 117.986 132.979 197.734c19.136 79.748 8.917 163.716-28.783 236.547s-100.365 129.653-176.525 160.072c-76.16 30.419-160.725 32.401-238.225 5.583l-65.536 65.536c55.577 25.376 115.972 38.473 177.066 38.4 235.648 0 426.667-191.019 426.667-426.666s-191.019-426.667-426.667-426.667c-235.648 0-426.666 191.019-426.666 426.667-0.064 63.241 13.959 125.705 41.052 182.85s66.575 107.538 115.577 147.517z" />
<glyph unicode="&#xe973;" glyph-name="sd-card-fill" d="M183.168 673.835l200.832 200.832h426.667c11.315 0 22.17-4.495 30.17-12.497s12.497-18.854 12.497-30.17v-768c0-11.315-4.497-22.17-12.497-30.17s-18.854-12.497-30.17-12.497h-597.333c-11.316 0-22.168 4.497-30.17 12.497s-12.497 18.854-12.497 30.17v579.669c0.003 11.315 4.499 22.166 12.501 30.165zM640 746.667v-170.667h85.333v170.667h-85.333zM512 746.667v-170.667h85.333v170.667h-85.333zM384 746.667v-170.667h85.333v170.667h-85.333z" />
<glyph unicode="&#xe974;" glyph-name="sd-card-line" d="M256 626.005v-519.339h512v682.667h-348.672l-163.328-163.328zM183.168 673.792l200.832 200.875h426.667c11.315 0 22.17-4.495 30.17-12.497s12.497-18.854 12.497-30.17v-768c0-11.315-4.497-22.17-12.497-30.17s-18.854-12.497-30.17-12.497h-597.333c-11.316 0-22.168 4.497-30.17 12.497s-12.497 18.854-12.497 30.17v579.669c0.003 11.315 4.499 22.166 12.501 30.165v-0.043zM640 746.667h85.333v-170.667h-85.333v170.667zM512 746.667h85.333v-170.667h-85.333v170.667zM384 704h85.333v-128h-85.333v128z" />
<glyph unicode="&#xe975;" glyph-name="sd-card-mini-fill" d="M298.667 874.667h512c11.315 0 22.17-4.495 30.17-12.497s12.497-18.854 12.497-30.17v-768c0-11.315-4.497-22.17-12.497-30.17s-18.854-12.497-30.17-12.497h-597.333c-11.316 0-22.168 4.497-30.17 12.497s-12.497 18.854-12.497 30.17v366.080c0.003 11.294 4.483 22.127 12.459 30.123l66.645 66.901c3.988 3.998 6.228 9.414 6.229 15.061v289.835c0 11.316 4.495 22.168 12.497 30.17s18.854 12.497 30.17 12.497zM640 789.333v-170.667h85.333v170.667h-85.333zM512 789.333v-170.667h85.333v170.667h-85.333zM384 789.333v-170.667h85.333v170.667h-85.333z" />
<glyph unicode="&#xe976;" glyph-name="sd-card-mini-line" d="M341.333 789.333v-247.168c-0.006-28.237-11.207-55.317-31.147-75.307l-54.187-54.4v-305.792h512v682.667h-426.667zM298.667 874.667h512c11.315 0 22.17-4.495 30.17-12.497s12.497-18.854 12.497-30.17v-768c0-11.315-4.497-22.17-12.497-30.17s-18.854-12.497-30.17-12.497h-597.333c-11.316 0-22.168 4.497-30.17 12.497s-12.497 18.854-12.497 30.17v366.080c0.003 11.294 4.483 22.127 12.459 30.123l66.645 66.901c3.988 3.998 6.228 9.414 6.229 15.061v289.835c0 11.316 4.495 22.168 12.497 30.17s18.854 12.497 30.17 12.497zM640 746.667h85.333v-170.667h-85.333v170.667zM512 746.667h85.333v-170.667h-85.333v170.667zM384 746.667h85.333v-170.667h-85.333v170.667z" />
<glyph unicode="&#xe977;" glyph-name="sensor-fill" d="M256 618.667v-85.333h512v85.333h-128v256h85.333v-170.667h213.333v-85.333h-85.333v-512c0-11.315-4.497-22.17-12.497-30.17s-18.854-12.497-30.17-12.497h-597.333c-11.316 0-22.168 4.497-30.17 12.497s-12.497 18.854-12.497 30.17v512h-85.333v85.333h213.333v170.667h85.333v-256h-128zM554.667 874.667v-256h-85.333v256h85.333z" />
<glyph unicode="&#xe978;" glyph-name="sensor-line" d="M256 618.667v-469.333h512v469.333h-128v256h85.333v-170.667h213.333v-85.333h-85.333v-512c0-11.315-4.497-22.17-12.497-30.17s-18.854-12.497-30.17-12.497h-597.333c-11.316 0-22.168 4.497-30.17 12.497s-12.497 18.854-12.497 30.17v512h-85.333v85.333h213.333v170.667h85.333v-256h-128zM554.667 874.667v-256h-85.333v256h85.333z" />
<glyph unicode="&#xe979;" glyph-name="server-fill" d="M170.667 832h682.667c11.315 0 22.17-4.495 30.17-12.497s12.497-18.854 12.497-30.17v-298.667h-768v298.667c0 11.316 4.495 22.168 12.497 30.17s18.854 12.497 30.17 12.497zM128 405.333h768v-298.667c0-11.315-4.497-22.17-12.497-30.17s-18.854-12.497-30.17-12.497h-682.667c-11.316 0-22.168 4.497-30.17 12.497s-12.497 18.854-12.497 30.17v298.667zM298.667 277.333v-85.333h128v85.333h-128zM298.667 704v-85.333h128v85.333h-128z" />
<glyph unicode="&#xe97a;" glyph-name="server-line" d="M213.333 490.667h597.333v256h-597.333v-256zM896 789.333v-682.667c0-11.315-4.497-22.17-12.497-30.17s-18.854-12.497-30.17-12.497h-682.667c-11.316 0-22.168 4.497-30.17 12.497s-12.497 18.854-12.497 30.17v682.667c0 11.316 4.495 22.168 12.497 30.17s18.854 12.497 30.17 12.497h682.667c11.315 0 22.17-4.495 30.17-12.497s12.497-18.854 12.497-30.17zM810.667 405.333h-597.333v-256h597.333v256zM298.667 320h128v-85.333h-128v85.333zM298.667 661.333h128v-85.333h-128v85.333z" />
<glyph unicode="&#xe97b;" glyph-name="shut-down-fill" d="M469.333 872.531v-424.531h85.333v424.531c215.595-21.376 384-203.307 384-424.531 0-235.648-191.019-426.667-426.667-426.667s-426.667 191.019-426.667 426.667c0 221.225 168.405 403.155 384 424.531z" />
<glyph unicode="&#xe97c;" glyph-name="shut-down-line" d="M267.307 797.568l48.939-69.931c-59.47-41.633-104.117-101.141-127.456-169.882s-24.155-143.13-2.329-212.365c21.827-69.235 65.158-129.711 123.7-172.638s129.247-66.069 201.84-66.069c72.593 0 143.296 23.142 201.839 66.069s101.875 103.403 123.703 172.638c21.824 69.235 21.009 143.625-2.33 212.365-23.343 68.74-67.989 128.249-127.458 169.882l48.939 69.931c56.235-39.314 102.14-91.625 133.824-152.485 31.68-60.86 48.201-128.471 48.149-197.083 0-235.648-191.019-426.667-426.667-426.667s-426.667 191.019-426.667 426.667c-0.049 68.612 16.469 136.223 48.151 197.083s77.59 113.171 133.823 152.485zM469.333 448v426.667h85.333v-426.667h-85.333z" />
<glyph unicode="&#xe97d;" glyph-name="signal-wifi-1-fill" d="M511.996 832c182.784 0 350.72-63.872 482.56-170.496l-482.56-597.504-482.558 597.461c131.84 106.667 299.691 170.539 482.558 170.539zM511.996 746.667c-129.193 0-252.713-35.925-359.252-102.059l217.941-269.824c43.093 19.627 90.878 30.549 141.31 30.549 50.389 0 98.261-10.923 141.312-30.549l217.941 269.909c-106.581 66.091-230.101 101.973-359.253 101.973z" />
<glyph unicode="&#xe97e;" glyph-name="signal-wifi-1-line" d="M511.996 832c182.784 0 350.72-63.872 482.56-170.496l-482.56-597.504-482.558 597.461c131.84 106.667 299.691 170.539 482.558 170.539zM511.996 320c-29.568 0-58.325-4.992-85.332-14.507l85.332-105.685 85.333 105.685c-26.88 9.387-55.765 14.507-85.333 14.507zM511.996 746.667c-129.193 0-252.713-35.925-359.252-102.059l217.941-269.824c43.093 19.627 90.878 30.549 141.31 30.549 50.389 0 98.261-10.923 141.312-30.549l217.941 269.909c-106.581 66.091-230.101 101.973-359.253 101.973z" />
<glyph unicode="&#xe97f;" glyph-name="signal-wifi-2-fill" d="M511.996 832c182.784 0 350.72-63.872 482.56-170.496l-482.56-597.504-482.558 597.461c131.84 106.667 299.691 170.539 482.558 170.539zM511.996 746.667c-129.193 0-252.713-35.925-359.252-102.059l135.595-167.893c66.475 36.096 142.676 56.619 223.657 56.619s157.141-20.48 223.616-56.619l135.637 167.979c-106.581 66.091-230.101 101.973-359.253 101.973z" />
<glyph unicode="&#xe980;" glyph-name="signal-wifi-2-line" d="M511.996 832c182.784 0 350.72-63.872 482.56-170.496l-482.56-597.504-482.558 597.461c131.84 106.667 299.691 170.539 482.558 170.539zM511.996 448c-60.587 0-117.929-14.080-168.916-39.040l168.916-209.152 168.875 209.152c-50.944 25.003-108.288 39.040-168.875 39.040zM511.996 746.667c-129.193 0-252.713-35.925-359.252-102.059l135.595-167.893c66.475 36.096 142.676 56.619 223.657 56.619s157.141-20.48 223.616-56.619l135.637 167.979c-106.581 66.091-230.101 101.973-359.253 101.973z" />
<glyph unicode="&#xe981;" glyph-name="signal-wifi-3-fill" d="M511.996 832c182.784 0 350.72-63.872 482.56-170.496l-482.56-597.504-482.558 597.461c131.84 106.667 299.691 170.539 482.558 170.539zM511.996 746.667c-129.193 0-252.713-35.925-359.252-102.059l81.237-100.565c81.749 47.445 176.683 74.624 278.014 74.624 101.333 0 196.267-27.179 278.016-74.624l81.237 100.651c-106.581 66.091-230.101 101.973-359.253 101.973z" />
<glyph unicode="&#xe982;" glyph-name="signal-wifi-3-line" d="M511.996 832c182.784 0 350.72-63.872 482.56-170.496l-482.56-597.504-482.558 597.461c131.84 106.667 299.691 170.539 482.558 170.539zM511.996 533.333c-80.981 0-157.14-20.48-223.614-56.619l223.572-276.907 223.659 276.907c-66.475 36.139-142.635 56.619-223.616 56.619zM511.996 746.667c-129.193 0-252.713-35.925-359.252-102.059l81.237-100.565c81.749 47.445 176.683 74.624 278.014 74.624 101.333 0 196.267-27.179 278.016-74.624l81.237 100.651c-106.581 66.091-230.101 101.973-359.253 101.973z" />
<glyph unicode="&#xe983;" glyph-name="signal-wifi-error-fill" d="M511.996 832c182.784 0 350.72-63.872 482.56-170.496l-34.645-42.837h-191.915v-237.696l-256-316.971-482.558 597.461c131.84 106.667 299.691 170.539 482.558 170.539zM938.662 149.333v-85.333h-85.333v85.333h85.333zM938.662 533.333v-298.667h-85.333v298.667h85.333z" />
<glyph unicode="&#xe984;" glyph-name="signal-wifi-error-line" d="M511.996 832c182.784 0 350.72-63.872 482.56-170.496l-53.632-66.389c-117.205 94.763-266.453 151.552-428.928 151.552-131.796 0-254.846-37.333-359.209-102.059l359.209-444.8 256 316.971v-135.808l-256-316.971-482.558 597.461c131.84 106.667 299.691 170.539 482.558 170.539zM938.662 149.333v-85.333h-85.333v85.333h85.333zM938.662 533.333v-298.667h-85.333v298.667h85.333z" />
<glyph unicode="&#xe985;" glyph-name="signal-wifi-fill" d="M511.996 832c182.784 0 350.72-63.872 482.56-170.496l-482.56-597.504-482.558 597.461c131.84 106.667 299.691 170.539 482.558 170.539z" />
<glyph unicode="&#xe986;" glyph-name="signal-wifi-line" d="M511.996 832c182.784 0 350.72-63.872 482.56-170.496l-482.56-597.504-482.558 597.461c131.84 106.667 299.691 170.539 482.558 170.539zM511.996 746.667c-129.193 0-252.713-35.925-359.252-102.059l359.252-444.8 359.253 444.885c-106.581 66.091-230.101 101.973-359.253 101.973z" />
<glyph unicode="&#xe987;" glyph-name="signal-wifi-off-fill" d="M119.805 900.568l754.217-754.26-60.331-60.331-157.141 157.141-144.555-179.115-482.558 597.46c38.997 31.573 81.152 59.349 125.867 82.859l-95.829 95.872 60.331 60.373zM511.996 832.003c182.784 0 350.72-63.872 482.56-170.496l-230.699-285.566-434.302 434.26c58.453 14.251 119.593 21.803 182.441 21.803z" />
<glyph unicode="&#xe988;" glyph-name="signal-wifi-off-line" d="M119.805 900.568l754.217-754.26-60.331-60.331-157.141 157.099-144.555-179.072-482.558 597.46c38.997 31.573 81.152 59.349 125.867 82.859l-95.829 95.872 60.331 60.373zM152.701 644.611l359.294-444.798 83.925 103.979-376.958 377.001c-22.699-10.837-44.8-22.869-66.219-36.181h-0.043zM511.996 832.003c182.784 0 350.72-63.872 482.56-170.496l-230.699-285.566-60.672 60.672 168.064 208.041c-106.581 66.133-230.101 102.016-359.253 102.016-37.248 0-74.027-2.987-110.078-8.832l-72.32 72.405c58.411 14.208 119.55 21.76 182.398 21.76z" />
<glyph unicode="&#xe989;" glyph-name="sim-card-2-fill" d="M213.333 874.667h426.667l200.832-200.832c8.004-8 12.497-18.851 12.501-30.165v-579.669c0-11.315-4.497-22.17-12.497-30.17s-18.854-12.497-30.17-12.497h-597.333c-11.316 0-22.168 4.497-30.17 12.497s-12.497 18.854-12.497 30.17v768c0 11.316 4.495 22.168 12.497 30.17s18.854 12.497 30.17 12.497zM554.667 192v341.333h-213.333v-85.333h128v-256h85.333zM341.333 405.333v-85.333h85.333v85.333h-85.333zM597.333 405.333v-85.333h85.333v85.333h-85.333zM597.333 533.333v-85.333h85.333v85.333h-85.333zM341.333 277.333v-85.333h85.333v85.333h-85.333zM597.333 277.333v-85.333h85.333v85.333h-85.333z" />
<glyph unicode="&#xe98a;" glyph-name="sim-card-2-line" d="M256 789.333v-682.667h512v519.339l-163.328 163.328h-348.672zM213.333 874.667h426.667l200.832-200.832c8.004-8 12.497-18.851 12.501-30.165v-579.669c0-11.315-4.497-22.17-12.497-30.17s-18.854-12.497-30.17-12.497h-597.333c-11.316 0-22.168 4.497-30.17 12.497s-12.497 18.854-12.497 30.17v768c0 11.316 4.495 22.168 12.497 30.17s18.854 12.497 30.17 12.497zM554.667 533.333v-341.333h-85.333v256h-128v85.333h213.333zM341.333 405.333h85.333v-85.333h-85.333v85.333zM597.333 405.333h85.333v-85.333h-85.333v85.333zM597.333 533.333h85.333v-85.333h-85.333v85.333zM341.333 277.333h85.333v-85.333h-85.333v85.333zM597.333 277.333h85.333v-85.333h-85.333v85.333z" />
<glyph unicode="&#xe98b;" glyph-name="sim-card-fill" d="M213.333 874.667h426.667l200.832-200.832c8.004-8 12.497-18.851 12.501-30.165v-579.669c0-11.315-4.497-22.17-12.497-30.17s-18.854-12.497-30.17-12.497h-597.333c-11.316 0-22.168 4.497-30.17 12.497s-12.497 18.854-12.497 30.17v768c0 11.316 4.495 22.168 12.497 30.17s18.854 12.497 30.17 12.497zM341.333 448v-256h341.333v256h-341.333z" />
<glyph unicode="&#xe98c;" glyph-name="sim-card-line" d="M256 789.333v-682.667h512v519.339l-163.328 163.328h-348.672zM213.333 874.667h426.667l200.832-200.832c8.004-8 12.497-18.851 12.501-30.165v-579.669c0-11.315-4.497-22.17-12.497-30.17s-18.854-12.497-30.17-12.497h-597.333c-11.316 0-22.168 4.497-30.17 12.497s-12.497 18.854-12.497 30.17v768c0 11.316 4.495 22.168 12.497 30.17s18.854 12.497 30.17 12.497zM341.333 448h341.333v-256h-341.333v256z" />
<glyph unicode="&#xe98d;" glyph-name="smartphone-fill" d="M256 874.667h512c11.315 0 22.17-4.495 30.17-12.497s12.497-18.854 12.497-30.17v-768c0-11.315-4.497-22.17-12.497-30.17s-18.854-12.497-30.17-12.497h-512c-11.316 0-22.168 4.497-30.17 12.497s-12.497 18.854-12.497 30.17v768c0 11.316 4.495 22.168 12.497 30.17s18.854 12.497 30.17 12.497zM512 234.667c-11.315 0-22.17-4.497-30.17-12.497s-12.497-18.854-12.497-30.17c0-11.315 4.497-22.17 12.497-30.17s18.854-12.497 30.17-12.497c11.315 0 22.17 4.497 30.17 12.497s12.497 18.854 12.497 30.17c0 11.315-4.497 22.17-12.497 30.17s-18.854 12.497-30.17 12.497z" />
<glyph unicode="&#xe98e;" glyph-name="smartphone-line" d="M298.667 789.333v-682.667h426.667v682.667h-426.667zM256 874.667h512c11.315 0 22.17-4.495 30.17-12.497s12.497-18.854 12.497-30.17v-768c0-11.315-4.497-22.17-12.497-30.17s-18.854-12.497-30.17-12.497h-512c-11.316 0-22.168 4.497-30.17 12.497s-12.497 18.854-12.497 30.17v768c0 11.316 4.495 22.168 12.497 30.17s18.854 12.497 30.17 12.497zM512 234.667c11.315 0 22.17-4.497 30.17-12.497s12.497-18.854 12.497-30.17c0-11.315-4.497-22.17-12.497-30.17s-18.854-12.497-30.17-12.497c-11.315 0-22.17 4.497-30.17 12.497s-12.497 18.854-12.497 30.17c0 11.315 4.497 22.17 12.497 30.17s18.854 12.497 30.17 12.497z" />
</font>
</defs>
</svg>
